<svg width="28" height="28" viewBox="0 0 28 28" fill="none" xmlns="http://www.w3.org/2000/svg">
<circle cx="14" cy="14" r="10" fill="white"/>
<circle cx="14" cy="14" r="10.5" stroke="black" stroke-opacity="0.3"/>
<path d="M16.7231 12.1699C16.7231 12.6312 16.6004 13.0417 16.355 13.4014C16.1138 13.7611 15.7858 14.0425 15.3711 14.2456C15.8535 14.453 16.2344 14.7555 16.5137 15.1533C16.7972 15.5511 16.939 16.0018 16.939 16.5054C16.939 17.3052 16.6681 17.9421 16.1265 18.416C15.589 18.89 14.8802 19.127 14 19.127C13.1113 19.127 12.3983 18.89 11.8608 18.416C11.3276 17.9378 11.061 17.3009 11.061 16.5054C11.061 16.006 11.1965 15.5553 11.4673 15.1533C11.7424 14.7513 12.1211 14.4466 12.6035 14.2393C12.193 14.0361 11.8693 13.7547 11.6323 13.395C11.3953 13.0353 11.2769 12.627 11.2769 12.1699C11.2769 11.3913 11.5265 10.7734 12.0259 10.3164C12.5252 9.85938 13.1833 9.63086 14 9.63086C14.8125 9.63086 15.4684 9.85938 15.9678 10.3164C16.4714 10.7734 16.7231 11.3913 16.7231 12.1699ZM15.7646 16.48C15.7646 15.9637 15.5996 15.5426 15.2695 15.2168C14.9437 14.891 14.5163 14.728 13.9873 14.728C13.4583 14.728 13.033 14.8888 12.7114 15.2104C12.394 15.5321 12.2354 15.9552 12.2354 16.48C12.2354 17.0047 12.3898 17.4173 12.6987 17.7178C13.0119 18.0182 13.4456 18.1685 14 18.1685C14.5501 18.1685 14.9818 18.0182 15.2949 17.7178C15.6081 17.4131 15.7646 17.0005 15.7646 16.48ZM14 10.5957C13.5387 10.5957 13.1642 10.7396 12.8765 11.0273C12.5929 11.3109 12.4512 11.6981 12.4512 12.189C12.4512 12.6587 12.5908 13.0396 12.8701 13.3315C13.1536 13.6193 13.5303 13.7632 14 13.7632C14.4697 13.7632 14.8442 13.6193 15.1235 13.3315C15.4071 13.0396 15.5488 12.6587 15.5488 12.189C15.5488 11.7192 15.4028 11.3363 15.1108 11.04C14.8188 10.7438 14.4486 10.5957 14 10.5957Z" fill="black"/>
</svg>
