<svg width="28" height="28" viewBox="0 0 28 28" fill="none" xmlns="http://www.w3.org/2000/svg">
<circle cx="14" cy="14" r="10" fill="white"/>
<circle cx="14" cy="14" r="10.5" stroke="black" stroke-opacity="0.3"/>
<path d="M11.6577 14.3662L12.1274 9.75781H16.8628V10.8433H13.124L12.8447 13.3633C13.2975 13.0967 13.8117 12.9634 14.3872 12.9634C15.2293 12.9634 15.8979 13.2427 16.3931 13.8013C16.8882 14.3556 17.1357 15.1068 17.1357 16.0547C17.1357 17.0068 16.8776 17.758 16.3613 18.3081C15.8493 18.854 15.132 19.127 14.2095 19.127C13.3927 19.127 12.7262 18.9006 12.21 18.4478C11.6937 17.995 11.3996 17.3687 11.3276 16.5688H12.4385C12.5104 17.0978 12.6987 17.4977 13.0034 17.7686C13.3081 18.0352 13.7101 18.1685 14.2095 18.1685C14.7554 18.1685 15.1828 17.9823 15.4917 17.6099C15.8049 17.2375 15.9614 16.7233 15.9614 16.0674C15.9614 15.4495 15.7922 14.9544 15.4536 14.582C15.1193 14.2054 14.6729 14.0171 14.1143 14.0171C13.6022 14.0171 13.2002 14.1292 12.9082 14.3535L12.5972 14.6074L11.6577 14.3662Z" fill="black"/>
</svg>
