<svg width="48" height="48" viewBox="0 0 48 48" fill="none" xmlns="http://www.w3.org/2000/svg">
<path d="M45.5209 39.0396L27.5269 5.13359C27.1896 4.49001 26.6827 3.95098 26.061 3.5749C25.4393 3.19881 24.7265 3 23.9999 3C23.2733 3 22.5605 3.19881 21.9388 3.5749C21.3171 3.95098 20.8102 4.49001 20.4729 5.13359L2.47892 39.0396C2.14644 39.6609 1.98155 40.358 2.00049 41.0624C2.01942 41.7668 2.22154 42.4541 2.58692 43.0566C2.93885 43.6498 3.4394 44.1411 4.03915 44.4818C4.6389 44.8225 5.31714 45.001 6.00692 44.9996H41.9929C42.6827 45.001 43.3609 44.8225 43.9607 44.4818C44.5604 44.1411 45.061 43.6498 45.4129 43.0566C45.7783 42.4541 45.9804 41.7668 45.9993 41.0624C46.0183 40.358 45.8534 39.6609 45.5209 39.0396Z" fill="#F1C232"/>
<path d="M26.2859 15V31.571H21.7139V15H26.2859Z" fill="white"/>
<path d="M24 41C25.6569 41 27 39.6569 27 38C27 36.3431 25.6569 35 24 35C22.3431 35 21 36.3431 21 38C21 39.6569 22.3431 41 24 41Z" fill="white"/>
</svg>
