<svg width="355" height="89" viewBox="0 0 355 89" fill="none" xmlns="http://www.w3.org/2000/svg">
<path d="M87.7031 54.3447H85.1807L85.167 53.2852H87.457C87.8353 53.2852 88.1657 53.2214 88.4482 53.0938C88.7308 52.9661 88.9495 52.7839 89.1045 52.5469C89.264 52.3053 89.3438 52.0182 89.3438 51.6855C89.3438 51.321 89.2731 51.0247 89.1318 50.7969C88.9951 50.5645 88.7832 50.3958 88.4961 50.291C88.2135 50.1816 87.8535 50.127 87.416 50.127H85.4746V59H84.1553V49.0469H87.416C87.9264 49.0469 88.3822 49.0993 88.7832 49.2041C89.1842 49.3044 89.5238 49.4639 89.8018 49.6826C90.0843 49.8968 90.2985 50.1702 90.4443 50.5029C90.5902 50.8356 90.6631 51.2344 90.6631 51.6992C90.6631 52.1094 90.5583 52.4808 90.3486 52.8135C90.139 53.1416 89.8473 53.4105 89.4736 53.6201C89.1045 53.8298 88.6715 53.9642 88.1748 54.0234L87.7031 54.3447ZM87.6416 59H84.6611L85.4062 57.9268H87.6416C88.0609 57.9268 88.4163 57.8538 88.708 57.708C89.0042 57.5622 89.2298 57.3571 89.3848 57.0928C89.5397 56.8239 89.6172 56.5072 89.6172 56.1426C89.6172 55.7734 89.5511 55.4544 89.4189 55.1855C89.2868 54.9167 89.0794 54.7093 88.7969 54.5635C88.5143 54.4176 88.1497 54.3447 87.7031 54.3447H85.8232L85.8369 53.2852H88.4072L88.6875 53.668C89.166 53.709 89.5716 53.8457 89.9043 54.0781C90.237 54.306 90.4899 54.5977 90.6631 54.9531C90.8408 55.3086 90.9297 55.7005 90.9297 56.1289C90.9297 56.7487 90.793 57.2728 90.5195 57.7012C90.2507 58.125 89.8701 58.4486 89.3779 58.6719C88.8857 58.8906 88.307 59 87.6416 59ZM97.4238 53.0254V61.8438H96.1523V51.6035H97.3145L97.4238 53.0254ZM102.407 55.2402V55.3838C102.407 55.9215 102.343 56.4206 102.216 56.8809C102.088 57.3366 101.901 57.7331 101.655 58.0703C101.414 58.4076 101.115 58.6696 100.76 58.8564C100.404 59.0433 99.9964 59.1367 99.5361 59.1367C99.0667 59.1367 98.652 59.0592 98.292 58.9043C97.932 58.7493 97.6266 58.5238 97.376 58.2275C97.1253 57.9313 96.9248 57.5758 96.7744 57.1611C96.6286 56.7464 96.5283 56.2793 96.4736 55.7598V54.9941C96.5283 54.4473 96.6309 53.9574 96.7812 53.5244C96.9316 53.0915 97.1299 52.7223 97.376 52.417C97.6266 52.1071 97.9297 51.8724 98.2852 51.7129C98.6406 51.5488 99.0508 51.4668 99.5156 51.4668C99.9805 51.4668 100.393 51.5579 100.753 51.7402C101.113 51.918 101.416 52.1732 101.662 52.5059C101.908 52.8385 102.093 53.2373 102.216 53.7021C102.343 54.1624 102.407 54.6751 102.407 55.2402ZM101.136 55.3838V55.2402C101.136 54.8711 101.097 54.5247 101.02 54.2012C100.942 53.873 100.821 53.5859 100.657 53.3398C100.498 53.0892 100.293 52.8932 100.042 52.752C99.7913 52.6061 99.4928 52.5332 99.1465 52.5332C98.8275 52.5332 98.5495 52.5879 98.3125 52.6973C98.0801 52.8066 97.8818 52.9548 97.7178 53.1416C97.5537 53.3239 97.4193 53.5335 97.3145 53.7705C97.2142 54.0029 97.139 54.2445 97.0889 54.4951V56.2656C97.18 56.5846 97.3076 56.8854 97.4717 57.168C97.6357 57.446 97.8545 57.6715 98.1279 57.8447C98.4014 58.0133 98.7454 58.0977 99.1602 58.0977C99.502 58.0977 99.7959 58.027 100.042 57.8857C100.293 57.7399 100.498 57.5417 100.657 57.291C100.821 57.0404 100.942 56.7533 101.02 56.4297C101.097 56.1016 101.136 55.7529 101.136 55.3838ZM107.09 59.1367C106.575 59.1367 106.108 59.0501 105.688 58.877C105.274 58.6992 104.916 58.4508 104.615 58.1318C104.319 57.8128 104.091 57.4346 103.932 56.9971C103.772 56.5596 103.692 56.0811 103.692 55.5615V55.2744C103.692 54.6729 103.781 54.1374 103.959 53.668C104.137 53.194 104.378 52.793 104.684 52.4648C104.989 52.1367 105.335 51.8883 105.723 51.7197C106.11 51.5511 106.511 51.4668 106.926 51.4668C107.454 51.4668 107.91 51.5579 108.293 51.7402C108.68 51.9225 108.997 52.1777 109.243 52.5059C109.489 52.8294 109.672 53.2122 109.79 53.6543C109.909 54.0918 109.968 54.5703 109.968 55.0898V55.6572H104.444V54.625H108.703V54.5293C108.685 54.2012 108.617 53.8822 108.498 53.5723C108.384 53.2624 108.202 53.0072 107.951 52.8066C107.701 52.6061 107.359 52.5059 106.926 52.5059C106.639 52.5059 106.374 52.5674 106.133 52.6904C105.891 52.8089 105.684 52.9867 105.511 53.2236C105.338 53.4606 105.203 53.75 105.107 54.0918C105.012 54.4336 104.964 54.8278 104.964 55.2744V55.5615C104.964 55.9124 105.012 56.2428 105.107 56.5527C105.208 56.8581 105.351 57.127 105.538 57.3594C105.729 57.5918 105.96 57.7741 106.229 57.9062C106.502 58.0384 106.812 58.1045 107.158 58.1045C107.605 58.1045 107.983 58.0133 108.293 57.8311C108.603 57.6488 108.874 57.4049 109.106 57.0996L109.872 57.708C109.713 57.9495 109.51 58.1797 109.264 58.3984C109.018 58.6172 108.715 58.7949 108.354 58.9316C107.999 59.0684 107.577 59.1367 107.09 59.1367ZM114.514 59.1367C113.999 59.1367 113.532 59.0501 113.112 58.877C112.698 58.6992 112.34 58.4508 112.039 58.1318C111.743 57.8128 111.515 57.4346 111.355 56.9971C111.196 56.5596 111.116 56.0811 111.116 55.5615V55.2744C111.116 54.6729 111.205 54.1374 111.383 53.668C111.561 53.194 111.802 52.793 112.107 52.4648C112.413 52.1367 112.759 51.8883 113.146 51.7197C113.534 51.5511 113.935 51.4668 114.35 51.4668C114.878 51.4668 115.334 51.5579 115.717 51.7402C116.104 51.9225 116.421 52.1777 116.667 52.5059C116.913 52.8294 117.095 53.2122 117.214 53.6543C117.332 54.0918 117.392 54.5703 117.392 55.0898V55.6572H111.868V54.625H116.127V54.5293C116.109 54.2012 116.04 53.8822 115.922 53.5723C115.808 53.2624 115.626 53.0072 115.375 52.8066C115.124 52.6061 114.783 52.5059 114.35 52.5059C114.062 52.5059 113.798 52.5674 113.557 52.6904C113.315 52.8089 113.108 52.9867 112.935 53.2236C112.761 53.4606 112.627 53.75 112.531 54.0918C112.436 54.4336 112.388 54.8278 112.388 55.2744V55.5615C112.388 55.9124 112.436 56.2428 112.531 56.5527C112.632 56.8581 112.775 57.127 112.962 57.3594C113.153 57.5918 113.383 57.7741 113.652 57.9062C113.926 58.0384 114.236 58.1045 114.582 58.1045C115.029 58.1045 115.407 58.0133 115.717 57.8311C116.027 57.6488 116.298 57.4049 116.53 57.0996L117.296 57.708C117.136 57.9495 116.934 58.1797 116.688 58.3984C116.441 58.6172 116.138 58.7949 115.778 58.9316C115.423 59.0684 115.001 59.1367 114.514 59.1367ZM121.828 58.0977C122.129 58.0977 122.407 58.0361 122.662 57.9131C122.917 57.79 123.127 57.6214 123.291 57.4072C123.455 57.1885 123.549 56.9401 123.571 56.6621H124.774C124.752 57.0996 124.604 57.5075 124.33 57.8857C124.061 58.2594 123.708 58.5625 123.271 58.7949C122.833 59.0228 122.352 59.1367 121.828 59.1367C121.272 59.1367 120.787 59.0387 120.372 58.8428C119.962 58.6468 119.62 58.3779 119.347 58.0361C119.078 57.6943 118.875 57.3024 118.738 56.8604C118.606 56.4137 118.54 55.9421 118.54 55.4453V55.1582C118.54 54.6615 118.606 54.1921 118.738 53.75C118.875 53.3034 119.078 52.9092 119.347 52.5674C119.62 52.2256 119.962 51.9567 120.372 51.7607C120.787 51.5648 121.272 51.4668 121.828 51.4668C122.407 51.4668 122.913 51.5853 123.346 51.8223C123.779 52.0547 124.118 52.3737 124.364 52.7793C124.615 53.1803 124.752 53.6361 124.774 54.1465H123.571C123.549 53.8411 123.462 53.5654 123.312 53.3193C123.166 53.0732 122.965 52.8773 122.71 52.7314C122.459 52.5811 122.165 52.5059 121.828 52.5059C121.441 52.5059 121.115 52.5833 120.851 52.7383C120.591 52.8887 120.383 53.0938 120.229 53.3535C120.078 53.6087 119.969 53.8936 119.9 54.208C119.837 54.5179 119.805 54.8346 119.805 55.1582V55.4453C119.805 55.7689 119.837 56.0879 119.9 56.4023C119.964 56.7168 120.071 57.0016 120.222 57.2568C120.377 57.512 120.584 57.7171 120.844 57.8721C121.108 58.0225 121.436 58.0977 121.828 58.0977ZM129.211 51.6035V59H127.939V51.6035H129.211ZM131.692 51.6035V52.6289H125.506V51.6035H131.692ZM134.201 53.0254V61.8438H132.93V51.6035H134.092L134.201 53.0254ZM139.185 55.2402V55.3838C139.185 55.9215 139.121 56.4206 138.993 56.8809C138.866 57.3366 138.679 57.7331 138.433 58.0703C138.191 58.4076 137.893 58.6696 137.537 58.8564C137.182 59.0433 136.774 59.1367 136.313 59.1367C135.844 59.1367 135.429 59.0592 135.069 58.9043C134.709 58.7493 134.404 58.5238 134.153 58.2275C133.903 57.9313 133.702 57.5758 133.552 57.1611C133.406 56.7464 133.306 56.2793 133.251 55.7598V54.9941C133.306 54.4473 133.408 53.9574 133.559 53.5244C133.709 53.0915 133.907 52.7223 134.153 52.417C134.404 52.1071 134.707 51.8724 135.062 51.7129C135.418 51.5488 135.828 51.4668 136.293 51.4668C136.758 51.4668 137.17 51.5579 137.53 51.7402C137.89 51.918 138.193 52.1732 138.439 52.5059C138.686 52.8385 138.87 53.2373 138.993 53.7021C139.121 54.1624 139.185 54.6751 139.185 55.2402ZM137.913 55.3838V55.2402C137.913 54.8711 137.874 54.5247 137.797 54.2012C137.719 53.873 137.599 53.5859 137.435 53.3398C137.275 53.0892 137.07 52.8932 136.819 52.752C136.569 52.6061 136.27 52.5332 135.924 52.5332C135.605 52.5332 135.327 52.5879 135.09 52.6973C134.857 52.8066 134.659 52.9548 134.495 53.1416C134.331 53.3239 134.197 53.5335 134.092 53.7705C133.992 54.0029 133.916 54.2445 133.866 54.4951V56.2656C133.957 56.5846 134.085 56.8854 134.249 57.168C134.413 57.446 134.632 57.6715 134.905 57.8447C135.179 58.0133 135.523 58.0977 135.938 58.0977C136.279 58.0977 136.573 58.027 136.819 57.8857C137.07 57.7399 137.275 57.5417 137.435 57.291C137.599 57.0404 137.719 56.7533 137.797 56.4297C137.874 56.1016 137.913 55.7529 137.913 55.3838ZM143.867 59.1367C143.352 59.1367 142.885 59.0501 142.466 58.877C142.051 58.6992 141.693 58.4508 141.393 58.1318C141.096 57.8128 140.868 57.4346 140.709 56.9971C140.549 56.5596 140.47 56.0811 140.47 55.5615V55.2744C140.47 54.6729 140.559 54.1374 140.736 53.668C140.914 53.194 141.156 52.793 141.461 52.4648C141.766 52.1367 142.113 51.8883 142.5 51.7197C142.887 51.5511 143.288 51.4668 143.703 51.4668C144.232 51.4668 144.688 51.5579 145.07 51.7402C145.458 51.9225 145.774 52.1777 146.021 52.5059C146.267 52.8294 146.449 53.2122 146.567 53.6543C146.686 54.0918 146.745 54.5703 146.745 55.0898V55.6572H141.222V54.625H145.48V54.5293C145.462 54.2012 145.394 53.8822 145.275 53.5723C145.161 53.2624 144.979 53.0072 144.729 52.8066C144.478 52.6061 144.136 52.5059 143.703 52.5059C143.416 52.5059 143.152 52.5674 142.91 52.6904C142.669 52.8089 142.461 52.9867 142.288 53.2236C142.115 53.4606 141.98 53.75 141.885 54.0918C141.789 54.4336 141.741 54.8278 141.741 55.2744V55.5615C141.741 55.9124 141.789 56.2428 141.885 56.5527C141.985 56.8581 142.129 57.127 142.315 57.3594C142.507 57.5918 142.737 57.7741 143.006 57.9062C143.279 58.0384 143.589 58.1045 143.936 58.1045C144.382 58.1045 144.76 58.0133 145.07 57.8311C145.38 57.6488 145.651 57.4049 145.884 57.0996L146.649 57.708C146.49 57.9495 146.287 58.1797 146.041 58.3984C145.795 58.6172 145.492 58.7949 145.132 58.9316C144.776 59.0684 144.355 59.1367 143.867 59.1367ZM153.062 56.9971L156.473 51.6035H157.744V59H156.473V53.6064L153.062 59H151.804V51.6035H153.062V56.9971ZM164.717 51.6035V52.6494H161.142V51.6035H164.717ZM165.831 51.6035V59H164.566V51.6035H165.831ZM160.834 51.6035H162.105L161.914 55.1719C161.882 55.7233 161.83 56.2109 161.757 56.6348C161.688 57.054 161.593 57.4141 161.47 57.7148C161.351 58.0156 161.201 58.2617 161.019 58.4531C160.841 58.64 160.627 58.779 160.376 58.8701C160.125 58.9567 159.836 59 159.508 59H159.111V57.8857L159.385 57.8652C159.581 57.8516 159.747 57.806 159.884 57.7285C160.025 57.651 160.144 57.5371 160.239 57.3867C160.335 57.2318 160.412 57.0335 160.472 56.792C160.535 56.5505 160.583 56.2633 160.615 55.9307C160.652 55.598 160.679 55.2106 160.697 54.7686L160.834 51.6035ZM169.235 56.9971L172.646 51.6035H173.918V59H172.646V53.6064L169.235 59H167.978V51.6035H169.235V56.9971ZM184.438 54.8096V55.835H180.528V54.8096H184.438ZM180.795 51.6035V59H179.53V51.6035H180.795ZM185.464 51.6035V59H184.192V51.6035H185.464ZM191.862 57.7354V53.9277C191.862 53.6361 191.803 53.3831 191.685 53.1689C191.571 52.9502 191.397 52.7816 191.165 52.6631C190.933 52.5446 190.646 52.4854 190.304 52.4854C189.985 52.4854 189.704 52.54 189.463 52.6494C189.226 52.7588 189.039 52.9023 188.902 53.0801C188.77 53.2578 188.704 53.4492 188.704 53.6543H187.439C187.439 53.39 187.508 53.1279 187.645 52.8682C187.781 52.6084 187.977 52.3737 188.232 52.1641C188.492 51.9499 188.802 51.7812 189.162 51.6582C189.527 51.5306 189.932 51.4668 190.379 51.4668C190.917 51.4668 191.391 51.5579 191.801 51.7402C192.215 51.9225 192.539 52.1982 192.771 52.5674C193.008 52.932 193.127 53.39 193.127 53.9414V57.3867C193.127 57.6328 193.147 57.8949 193.188 58.1729C193.234 58.4508 193.3 58.6901 193.387 58.8906V59H192.067C192.004 58.8542 191.953 58.6605 191.917 58.4189C191.881 58.1729 191.862 57.945 191.862 57.7354ZM192.081 54.5156L192.095 55.4043H190.816C190.456 55.4043 190.135 55.4339 189.853 55.4932C189.57 55.5479 189.333 55.6322 189.142 55.7461C188.95 55.86 188.804 56.0036 188.704 56.1768C188.604 56.3454 188.554 56.5436 188.554 56.7715C188.554 57.0039 188.606 57.2158 188.711 57.4072C188.816 57.5986 188.973 57.7513 189.183 57.8652C189.397 57.9746 189.659 58.0293 189.969 58.0293C190.356 58.0293 190.698 57.9473 190.994 57.7832C191.29 57.6191 191.525 57.4186 191.698 57.1816C191.876 56.9447 191.972 56.7145 191.985 56.4912L192.525 57.0996C192.493 57.291 192.407 57.5029 192.266 57.7354C192.124 57.9678 191.935 58.1911 191.698 58.4053C191.466 58.6149 191.188 58.7904 190.864 58.9316C190.545 59.0684 190.185 59.1367 189.784 59.1367C189.283 59.1367 188.843 59.0387 188.465 58.8428C188.091 58.6468 187.799 58.3848 187.59 58.0566C187.385 57.724 187.282 57.3525 187.282 56.9424C187.282 56.5459 187.36 56.1973 187.515 55.8965C187.67 55.5911 187.893 55.3382 188.185 55.1377C188.476 54.9326 188.827 54.7777 189.237 54.6729C189.647 54.568 190.105 54.5156 190.611 54.5156H192.081ZM199.922 51.6035H201.187L201.077 54.3721C201.05 55.0739 200.97 55.68 200.838 56.1904C200.706 56.7008 200.537 57.1361 200.332 57.4961C200.127 57.8516 199.897 58.1501 199.642 58.3916C199.391 58.6331 199.131 58.8359 198.862 59H198.233L198.268 57.9678L198.527 57.9609C198.678 57.7832 198.824 57.6009 198.965 57.4141C199.106 57.2227 199.236 56.9971 199.354 56.7373C199.473 56.473 199.571 56.1517 199.648 55.7734C199.73 55.3906 199.783 54.9235 199.806 54.3721L199.922 51.6035ZM200.236 51.6035H204.687V59H203.422V52.7725H200.236V51.6035ZM197.946 57.9609H205.637V61.1807H204.372V59H199.211V61.1807H197.939L197.946 57.9609ZM208.405 56.9971L211.816 51.6035H213.088V59H211.816V53.6064L208.405 59H207.147V51.6035H208.405V56.9971ZM218.078 58.0977C218.379 58.0977 218.657 58.0361 218.912 57.9131C219.167 57.79 219.377 57.6214 219.541 57.4072C219.705 57.1885 219.799 56.9401 219.821 56.6621H221.024C221.002 57.0996 220.854 57.5075 220.58 57.8857C220.311 58.2594 219.958 58.5625 219.521 58.7949C219.083 59.0228 218.602 59.1367 218.078 59.1367C217.522 59.1367 217.037 59.0387 216.622 58.8428C216.212 58.6468 215.87 58.3779 215.597 58.0361C215.328 57.6943 215.125 57.3024 214.988 56.8604C214.856 56.4137 214.79 55.9421 214.79 55.4453V55.1582C214.79 54.6615 214.856 54.1921 214.988 53.75C215.125 53.3034 215.328 52.9092 215.597 52.5674C215.87 52.2256 216.212 51.9567 216.622 51.7607C217.037 51.5648 217.522 51.4668 218.078 51.4668C218.657 51.4668 219.163 51.5853 219.596 51.8223C220.029 52.0547 220.368 52.3737 220.614 52.7793C220.865 53.1803 221.002 53.6361 221.024 54.1465H219.821C219.799 53.8411 219.712 53.5654 219.562 53.3193C219.416 53.0732 219.215 52.8773 218.96 52.7314C218.709 52.5811 218.415 52.5059 218.078 52.5059C217.691 52.5059 217.365 52.5833 217.101 52.7383C216.841 52.8887 216.633 53.0938 216.479 53.3535C216.328 53.6087 216.219 53.8936 216.15 54.208C216.087 54.5179 216.055 54.8346 216.055 55.1582V55.4453C216.055 55.7689 216.087 56.0879 216.15 56.4023C216.214 56.7168 216.321 57.0016 216.472 57.2568C216.627 57.512 216.834 57.7171 217.094 57.8721C217.358 58.0225 217.686 58.0977 218.078 58.0977ZM223.82 51.6035V59H222.556V51.6035H223.82ZM228.674 51.6035L225.167 55.8418H223.396L223.205 54.7344H224.654L227.136 51.6035H228.674ZM227.313 59L224.593 55.6504L225.406 54.7344L228.92 59H227.313ZM232.98 59.1367C232.465 59.1367 231.998 59.0501 231.579 58.877C231.164 58.6992 230.807 58.4508 230.506 58.1318C230.21 57.8128 229.982 57.4346 229.822 56.9971C229.663 56.5596 229.583 56.0811 229.583 55.5615V55.2744C229.583 54.6729 229.672 54.1374 229.85 53.668C230.027 53.194 230.269 52.793 230.574 52.4648C230.88 52.1367 231.226 51.8883 231.613 51.7197C232.001 51.5511 232.402 51.4668 232.816 51.4668C233.345 51.4668 233.801 51.5579 234.184 51.7402C234.571 51.9225 234.888 52.1777 235.134 52.5059C235.38 52.8294 235.562 53.2122 235.681 53.6543C235.799 54.0918 235.858 54.5703 235.858 55.0898V55.6572H230.335V54.625H234.594V54.5293C234.576 54.2012 234.507 53.8822 234.389 53.5723C234.275 53.2624 234.092 53.0072 233.842 52.8066C233.591 52.6061 233.249 52.5059 232.816 52.5059C232.529 52.5059 232.265 52.5674 232.023 52.6904C231.782 52.8089 231.575 52.9867 231.401 53.2236C231.228 53.4606 231.094 53.75 230.998 54.0918C230.902 54.4336 230.854 54.8278 230.854 55.2744V55.5615C230.854 55.9124 230.902 56.2428 230.998 56.5527C231.098 56.8581 231.242 57.127 231.429 57.3594C231.62 57.5918 231.85 57.7741 232.119 57.9062C232.393 58.0384 232.702 58.1045 233.049 58.1045C233.495 58.1045 233.874 58.0133 234.184 57.8311C234.493 57.6488 234.765 57.4049 234.997 57.0996L235.763 57.708C235.603 57.9495 235.4 58.1797 235.154 58.3984C234.908 58.6172 234.605 58.7949 234.245 58.9316C233.89 59.0684 233.468 59.1367 232.98 59.1367ZM242.182 51.6035V59H240.917V51.6035H242.182ZM247.035 51.6035L243.528 55.8418H241.758L241.566 54.7344H243.016L245.497 51.6035H247.035ZM245.675 59L242.954 55.6504L243.768 54.7344L247.281 59H245.675ZM247.896 55.3838V55.2266C247.896 54.6934 247.974 54.1989 248.129 53.7432C248.284 53.2829 248.507 52.8841 248.799 52.5469C249.09 52.2051 249.444 51.9408 249.858 51.7539C250.273 51.5625 250.738 51.4668 251.253 51.4668C251.772 51.4668 252.24 51.5625 252.654 51.7539C253.074 51.9408 253.429 52.2051 253.721 52.5469C254.017 52.8841 254.243 53.2829 254.397 53.7432C254.552 54.1989 254.63 54.6934 254.63 55.2266V55.3838C254.63 55.917 254.552 56.4115 254.397 56.8672C254.243 57.3229 254.017 57.7217 253.721 58.0635C253.429 58.4007 253.076 58.665 252.661 58.8564C252.251 59.0433 251.786 59.1367 251.267 59.1367C250.747 59.1367 250.28 59.0433 249.865 58.8564C249.451 58.665 249.095 58.4007 248.799 58.0635C248.507 57.7217 248.284 57.3229 248.129 56.8672C247.974 56.4115 247.896 55.917 247.896 55.3838ZM249.161 55.2266V55.3838C249.161 55.7529 249.204 56.1016 249.291 56.4297C249.378 56.7533 249.507 57.0404 249.681 57.291C249.858 57.5417 250.079 57.7399 250.344 57.8857C250.608 58.027 250.916 58.0977 251.267 58.0977C251.613 58.0977 251.916 58.027 252.176 57.8857C252.44 57.7399 252.659 57.5417 252.832 57.291C253.005 57.0404 253.135 56.7533 253.222 56.4297C253.313 56.1016 253.358 55.7529 253.358 55.3838V55.2266C253.358 54.862 253.313 54.5179 253.222 54.1943C253.135 53.8662 253.003 53.5768 252.825 53.3262C252.652 53.071 252.433 52.8704 252.169 52.7246C251.909 52.5788 251.604 52.5059 251.253 52.5059C250.907 52.5059 250.601 52.5788 250.337 52.7246C250.077 52.8704 249.858 53.071 249.681 53.3262C249.507 53.5768 249.378 53.8662 249.291 54.1943C249.204 54.5179 249.161 54.862 249.161 55.2266ZM260.468 57.3184L262.983 51.6035H264.2L260.905 59H260.03L256.749 51.6035H257.966L260.468 57.3184ZM257.597 51.6035V59H256.332V51.6035H257.597ZM263.298 59V51.6035H264.569V59H263.298ZM271.535 51.6035V52.6494H267.796V51.6035H271.535ZM267.98 51.6035V59H266.716V51.6035H267.98ZM272.656 51.6035V59H271.385V51.6035H272.656ZM275.726 54.1465H277.947C278.544 54.1465 279.048 54.2513 279.458 54.4609C279.868 54.666 280.178 54.9508 280.388 55.3154C280.602 55.6755 280.709 56.0856 280.709 56.5459C280.709 56.8877 280.65 57.209 280.531 57.5098C280.413 57.806 280.235 58.0658 279.998 58.2891C279.766 58.5124 279.476 58.6878 279.13 58.8154C278.788 58.9385 278.394 59 277.947 59H274.803V51.6035H276.067V57.9609H277.947C278.312 57.9609 278.604 57.8949 278.822 57.7627C279.041 57.6305 279.198 57.4596 279.294 57.25C279.39 57.0404 279.438 56.8216 279.438 56.5938C279.438 56.3704 279.39 56.1517 279.294 55.9375C279.198 55.7233 279.041 55.5456 278.822 55.4043C278.604 55.2585 278.312 55.1855 277.947 55.1855H275.726V54.1465ZM286.499 54.7412V55.7734H282.568V54.7412H286.499ZM283.669 51.6035V59H282.404V51.6035H283.669ZM285.419 55.3838V55.2266C285.419 54.6934 285.496 54.1989 285.651 53.7432C285.806 53.2829 286.03 52.8841 286.321 52.5469C286.618 52.2051 286.971 51.9408 287.381 51.7539C287.796 51.5625 288.26 51.4668 288.775 51.4668C289.299 51.4668 289.769 51.5625 290.184 51.7539C290.598 51.9408 290.951 52.2051 291.243 52.5469C291.539 52.8841 291.765 53.2829 291.92 53.7432C292.075 54.1989 292.152 54.6934 292.152 55.2266V55.3838C292.152 55.917 292.075 56.4115 291.92 56.8672C291.765 57.3229 291.542 57.7217 291.25 58.0635C290.958 58.4007 290.605 58.665 290.19 58.8564C289.776 59.0433 289.309 59.1367 288.789 59.1367C288.27 59.1367 287.802 59.0433 287.388 58.8564C286.973 58.665 286.618 58.4007 286.321 58.0635C286.03 57.7217 285.806 57.3229 285.651 56.8672C285.496 56.4115 285.419 55.917 285.419 55.3838ZM286.69 55.2266V55.3838C286.69 55.7529 286.734 56.1016 286.82 56.4297C286.907 56.7533 287.037 57.0404 287.21 57.291C287.388 57.5417 287.606 57.7399 287.866 57.8857C288.131 58.027 288.438 58.0977 288.789 58.0977C289.14 58.0977 289.445 58.027 289.705 57.8857C289.969 57.7399 290.188 57.5417 290.361 57.291C290.535 57.0404 290.664 56.7533 290.751 56.4297C290.842 56.1016 290.888 55.7529 290.888 55.3838V55.2266C290.888 54.862 290.842 54.5179 290.751 54.1943C290.664 53.8662 290.532 53.5768 290.354 53.3262C290.181 53.071 289.963 52.8704 289.698 52.7246C289.434 52.5788 289.126 52.5059 288.775 52.5059C288.429 52.5059 288.126 52.5788 287.866 52.7246C287.606 52.8704 287.388 53.071 287.21 53.3262C287.037 53.5768 286.907 53.8662 286.82 54.1943C286.734 54.5179 286.69 54.862 286.69 55.2266ZM296.732 51.6035V59H295.461V51.6035H296.732ZM299.214 51.6035V52.6289H293.027V51.6035H299.214ZM302.98 59.1367C302.465 59.1367 301.998 59.0501 301.579 58.877C301.164 58.6992 300.807 58.4508 300.506 58.1318C300.21 57.8128 299.982 57.4346 299.822 56.9971C299.663 56.5596 299.583 56.0811 299.583 55.5615V55.2744C299.583 54.6729 299.672 54.1374 299.85 53.668C300.027 53.194 300.269 52.793 300.574 52.4648C300.88 52.1367 301.226 51.8883 301.613 51.7197C302.001 51.5511 302.402 51.4668 302.816 51.4668C303.345 51.4668 303.801 51.5579 304.184 51.7402C304.571 51.9225 304.888 52.1777 305.134 52.5059C305.38 52.8294 305.562 53.2122 305.681 53.6543C305.799 54.0918 305.858 54.5703 305.858 55.0898V55.6572H300.335V54.625H304.594V54.5293C304.576 54.2012 304.507 53.8822 304.389 53.5723C304.275 53.2624 304.092 53.0072 303.842 52.8066C303.591 52.6061 303.249 52.5059 302.816 52.5059C302.529 52.5059 302.265 52.5674 302.023 52.6904C301.782 52.8089 301.575 52.9867 301.401 53.2236C301.228 53.4606 301.094 53.75 300.998 54.0918C300.902 54.4336 300.854 54.8278 300.854 55.2744V55.5615C300.854 55.9124 300.902 56.2428 300.998 56.5527C301.098 56.8581 301.242 57.127 301.429 57.3594C301.62 57.5918 301.85 57.7741 302.119 57.9062C302.393 58.0384 302.702 58.1045 303.049 58.1045C303.495 58.1045 303.874 58.0133 304.184 57.8311C304.493 57.6488 304.765 57.4049 304.997 57.0996L305.763 57.708C305.603 57.9495 305.4 58.1797 305.154 58.3984C304.908 58.6172 304.605 58.7949 304.245 58.9316C303.89 59.0684 303.468 59.1367 302.98 59.1367ZM308.6 53.0254V61.8438H307.328V51.6035H308.49L308.6 53.0254ZM313.583 55.2402V55.3838C313.583 55.9215 313.519 56.4206 313.392 56.8809C313.264 57.3366 313.077 57.7331 312.831 58.0703C312.59 58.4076 312.291 58.6696 311.936 58.8564C311.58 59.0433 311.172 59.1367 310.712 59.1367C310.243 59.1367 309.828 59.0592 309.468 58.9043C309.108 58.7493 308.802 58.5238 308.552 58.2275C308.301 57.9313 308.101 57.5758 307.95 57.1611C307.804 56.7464 307.704 56.2793 307.649 55.7598V54.9941C307.704 54.4473 307.807 53.9574 307.957 53.5244C308.107 53.0915 308.306 52.7223 308.552 52.417C308.802 52.1071 309.105 51.8724 309.461 51.7129C309.816 51.5488 310.227 51.4668 310.691 51.4668C311.156 51.4668 311.569 51.5579 311.929 51.7402C312.289 51.918 312.592 52.1732 312.838 52.5059C313.084 52.8385 313.269 53.2373 313.392 53.7021C313.519 54.1624 313.583 54.6751 313.583 55.2402ZM312.312 55.3838V55.2402C312.312 54.8711 312.273 54.5247 312.195 54.2012C312.118 53.873 311.997 53.5859 311.833 53.3398C311.674 53.0892 311.468 52.8932 311.218 52.752C310.967 52.6061 310.669 52.5332 310.322 52.5332C310.003 52.5332 309.725 52.5879 309.488 52.6973C309.256 52.8066 309.058 52.9548 308.894 53.1416C308.729 53.3239 308.595 53.5335 308.49 53.7705C308.39 54.0029 308.315 54.2445 308.265 54.4951V56.2656C308.356 56.5846 308.483 56.8854 308.647 57.168C308.812 57.446 309.03 57.6715 309.304 57.8447C309.577 58.0133 309.921 58.0977 310.336 58.0977C310.678 58.0977 310.972 58.027 311.218 57.8857C311.468 57.7399 311.674 57.5417 311.833 57.291C311.997 57.0404 312.118 56.7533 312.195 56.4297C312.273 56.1016 312.312 55.7529 312.312 55.3838ZM319.558 57.7354V53.9277C319.558 53.6361 319.498 53.3831 319.38 53.1689C319.266 52.9502 319.093 52.7816 318.86 52.6631C318.628 52.5446 318.341 52.4854 317.999 52.4854C317.68 52.4854 317.4 52.54 317.158 52.6494C316.921 52.7588 316.734 52.9023 316.598 53.0801C316.465 53.2578 316.399 53.4492 316.399 53.6543H315.135C315.135 53.39 315.203 53.1279 315.34 52.8682C315.477 52.6084 315.673 52.3737 315.928 52.1641C316.188 51.9499 316.497 51.7812 316.857 51.6582C317.222 51.5306 317.628 51.4668 318.074 51.4668C318.612 51.4668 319.086 51.5579 319.496 51.7402C319.911 51.9225 320.234 52.1982 320.467 52.5674C320.704 52.932 320.822 53.39 320.822 53.9414V57.3867C320.822 57.6328 320.843 57.8949 320.884 58.1729C320.929 58.4508 320.995 58.6901 321.082 58.8906V59H319.763C319.699 58.8542 319.649 58.6605 319.612 58.4189C319.576 58.1729 319.558 57.945 319.558 57.7354ZM319.776 54.5156L319.79 55.4043H318.512C318.152 55.4043 317.83 55.4339 317.548 55.4932C317.265 55.5479 317.028 55.6322 316.837 55.7461C316.646 55.86 316.5 56.0036 316.399 56.1768C316.299 56.3454 316.249 56.5436 316.249 56.7715C316.249 57.0039 316.301 57.2158 316.406 57.4072C316.511 57.5986 316.668 57.7513 316.878 57.8652C317.092 57.9746 317.354 58.0293 317.664 58.0293C318.051 58.0293 318.393 57.9473 318.689 57.7832C318.986 57.6191 319.22 57.4186 319.394 57.1816C319.571 56.9447 319.667 56.7145 319.681 56.4912L320.221 57.0996C320.189 57.291 320.102 57.5029 319.961 57.7354C319.82 57.9678 319.631 58.1911 319.394 58.4053C319.161 58.6149 318.883 58.7904 318.56 58.9316C318.241 59.0684 317.881 59.1367 317.479 59.1367C316.978 59.1367 316.538 59.0387 316.16 58.8428C315.786 58.6468 315.495 58.3848 315.285 58.0566C315.08 57.724 314.978 57.3525 314.978 56.9424C314.978 56.5459 315.055 56.1973 315.21 55.8965C315.365 55.5911 315.588 55.3382 315.88 55.1377C316.172 54.9326 316.522 54.7777 316.933 54.6729C317.343 54.568 317.801 54.5156 318.307 54.5156H319.776ZM322.832 58.3301C322.832 58.1159 322.898 57.9359 323.03 57.79C323.167 57.6396 323.363 57.5645 323.618 57.5645C323.873 57.5645 324.067 57.6396 324.199 57.79C324.336 57.9359 324.404 58.1159 324.404 58.3301C324.404 58.5397 324.336 58.7174 324.199 58.8633C324.067 59.0091 323.873 59.082 323.618 59.082C323.363 59.082 323.167 59.0091 323.03 58.8633C322.898 58.7174 322.832 58.5397 322.832 58.3301Z" fill="black"/>
<path d="M91.6719 35.375V36.9297H85.6328V35.375H91.6719ZM86.1172 30.625V42H84.1562V30.625H86.1172ZM93.1797 30.625V42H91.2266V30.625H93.1797ZM100.094 40.3047V36.2734C100.094 35.9714 100.039 35.7109 99.9297 35.4922C99.8203 35.2734 99.6536 35.1042 99.4297 34.9844C99.2109 34.8646 98.9349 34.8047 98.6016 34.8047C98.2943 34.8047 98.0286 34.8568 97.8047 34.9609C97.5807 35.0651 97.4062 35.2057 97.2812 35.3828C97.1562 35.5599 97.0938 35.7604 97.0938 35.9844H95.2188C95.2188 35.651 95.2995 35.3281 95.4609 35.0156C95.6224 34.7031 95.8568 34.4245 96.1641 34.1797C96.4714 33.9349 96.8385 33.7422 97.2656 33.6016C97.6927 33.4609 98.1719 33.3906 98.7031 33.3906C99.3385 33.3906 99.901 33.4974 100.391 33.7109C100.885 33.9245 101.273 34.2474 101.555 34.6797C101.841 35.1068 101.984 35.6432 101.984 36.2891V40.0469C101.984 40.4323 102.01 40.7786 102.062 41.0859C102.12 41.388 102.201 41.651 102.305 41.875V42H100.375C100.286 41.7969 100.216 41.5391 100.164 41.2266C100.117 40.9089 100.094 40.6016 100.094 40.3047ZM100.367 36.8594L100.383 38.0234H99.0312C98.6823 38.0234 98.375 38.0573 98.1094 38.125C97.8438 38.1875 97.6224 38.2812 97.4453 38.4062C97.2682 38.5312 97.1354 38.6823 97.0469 38.8594C96.9583 39.0365 96.9141 39.237 96.9141 39.4609C96.9141 39.6849 96.9661 39.8906 97.0703 40.0781C97.1745 40.2604 97.3255 40.4036 97.5234 40.5078C97.7266 40.612 97.9714 40.6641 98.2578 40.6641C98.6432 40.6641 98.9792 40.5859 99.2656 40.4297C99.5573 40.2682 99.7865 40.0729 99.9531 39.8438C100.12 39.6094 100.208 39.388 100.219 39.1797L100.828 40.0156C100.766 40.2292 100.659 40.4583 100.508 40.7031C100.357 40.9479 100.159 41.1823 99.9141 41.4062C99.6745 41.625 99.3854 41.8047 99.0469 41.9453C98.7135 42.0859 98.3281 42.1562 97.8906 42.1562C97.3385 42.1562 96.8464 42.0469 96.4141 41.8281C95.9818 41.6042 95.6432 41.3047 95.3984 40.9297C95.1536 40.5495 95.0312 40.1198 95.0312 39.6406C95.0312 39.1927 95.1146 38.7969 95.2812 38.4531C95.4531 38.1042 95.7031 37.8125 96.0312 37.5781C96.3646 37.3438 96.7708 37.1667 97.25 37.0469C97.7292 36.9219 98.276 36.8594 98.8906 36.8594H100.367ZM109.969 33.5469V42H108.086V33.5469H109.969ZM115.484 33.5469L111.68 38.6328H109.531L109.281 36.9297H110.852L113.133 33.5469H115.484ZM113.281 42L110.734 38.3125L112.219 37.2422L115.758 42H113.281ZM116.141 37.8672V37.6875C116.141 37.0781 116.229 36.513 116.406 35.9922C116.583 35.4661 116.839 35.0104 117.172 34.625C117.51 34.2344 117.922 33.9323 118.406 33.7188C118.896 33.5 119.448 33.3906 120.062 33.3906C120.682 33.3906 121.234 33.5 121.719 33.7188C122.208 33.9323 122.622 34.2344 122.961 34.625C123.299 35.0104 123.557 35.4661 123.734 35.9922C123.911 36.513 124 37.0781 124 37.6875V37.8672C124 38.4766 123.911 39.0417 123.734 39.5625C123.557 40.0833 123.299 40.5391 122.961 40.9297C122.622 41.3151 122.211 41.6172 121.727 41.8359C121.242 42.0495 120.693 42.1562 120.078 42.1562C119.458 42.1562 118.904 42.0495 118.414 41.8359C117.93 41.6172 117.518 41.3151 117.18 40.9297C116.841 40.5391 116.583 40.0833 116.406 39.5625C116.229 39.0417 116.141 38.4766 116.141 37.8672ZM118.023 37.6875V37.8672C118.023 38.2474 118.062 38.6068 118.141 38.9453C118.219 39.2839 118.341 39.5807 118.508 39.8359C118.674 40.0911 118.888 40.2917 119.148 40.4375C119.409 40.5833 119.719 40.6562 120.078 40.6562C120.427 40.6562 120.729 40.5833 120.984 40.4375C121.245 40.2917 121.458 40.0911 121.625 39.8359C121.792 39.5807 121.914 39.2839 121.992 38.9453C122.076 38.6068 122.117 38.2474 122.117 37.8672V37.6875C122.117 37.3125 122.076 36.9583 121.992 36.625C121.914 36.2865 121.789 35.987 121.617 35.7266C121.451 35.4661 121.237 35.263 120.977 35.1172C120.721 34.9661 120.417 34.8906 120.062 34.8906C119.708 34.8906 119.401 34.9661 119.141 35.1172C118.885 35.263 118.674 35.4661 118.508 35.7266C118.341 35.987 118.219 36.2865 118.141 36.625C118.062 36.9583 118.023 37.3125 118.023 37.6875ZM130.602 39.7188L133.117 33.5469H134.75L131.242 42H129.961L126.461 33.5469H128.094L130.602 39.7188ZM127.609 33.5469V42H125.727V33.5469H127.609ZM133.594 42V33.5469H135.484V42H133.594ZM143.266 33.5469V35.0469H139.094V33.5469H143.266ZM139.539 33.5469V42H137.656V33.5469H139.539ZM144.742 33.5469V42H142.852V33.5469H144.742ZM148.133 36.2344H150.625C151.354 36.2344 151.974 36.3568 152.484 36.6016C152.995 36.8464 153.383 37.1875 153.648 37.625C153.919 38.0573 154.055 38.5521 154.055 39.1094C154.055 39.5208 153.979 39.9036 153.828 40.2578C153.677 40.6068 153.453 40.9115 153.156 41.1719C152.865 41.4323 152.505 41.6354 152.078 41.7812C151.656 41.9271 151.172 42 150.625 42H146.883V33.5469H148.773V40.5078H150.625C151 40.5078 151.299 40.4427 151.523 40.3125C151.747 40.1823 151.909 40.013 152.008 39.8047C152.112 39.5964 152.164 39.375 152.164 39.1406C152.164 38.901 152.112 38.6745 152.008 38.4609C151.909 38.2474 151.747 38.0729 151.523 37.9375C151.299 37.8021 151 37.7344 150.625 37.7344H148.133V36.2344ZM160.539 36.9609V38.4609H156.008V36.9609H160.539ZM157.617 33.5469V42H155.734V33.5469H157.617ZM159.148 37.8672V37.6875C159.148 37.0781 159.237 36.513 159.414 35.9922C159.591 35.4661 159.849 35.0104 160.188 34.625C160.526 34.2344 160.938 33.9323 161.422 33.7188C161.906 33.5 162.456 33.3906 163.07 33.3906C163.695 33.3906 164.25 33.5 164.734 33.7188C165.224 33.9323 165.638 34.2344 165.977 34.625C166.315 35.0104 166.573 35.4661 166.75 35.9922C166.927 36.513 167.016 37.0781 167.016 37.6875V37.8672C167.016 38.4766 166.927 39.0417 166.75 39.5625C166.573 40.0833 166.315 40.5391 165.977 40.9297C165.643 41.3151 165.232 41.6172 164.742 41.8359C164.258 42.0495 163.706 42.1562 163.086 42.1562C162.466 42.1562 161.914 42.0495 161.43 41.8359C160.945 41.6172 160.531 41.3151 160.188 40.9297C159.849 40.5391 159.591 40.0833 159.414 39.5625C159.237 39.0417 159.148 38.4766 159.148 37.8672ZM161.039 37.6875V37.8672C161.039 38.2474 161.078 38.6068 161.156 38.9453C161.234 39.2839 161.357 39.5807 161.523 39.8359C161.69 40.0911 161.904 40.2917 162.164 40.4375C162.424 40.5833 162.732 40.6562 163.086 40.6562C163.44 40.6562 163.745 40.5833 164 40.4375C164.26 40.2917 164.474 40.0911 164.641 39.8359C164.807 39.5807 164.93 39.2839 165.008 38.9453C165.091 38.6068 165.133 38.2474 165.133 37.8672V37.6875C165.133 37.3125 165.091 36.9583 165.008 36.625C164.93 36.2865 164.807 35.987 164.641 35.7266C164.474 35.4661 164.26 35.263 164 35.1172C163.74 34.9661 163.43 34.8906 163.07 34.8906C162.721 34.8906 162.417 34.9661 162.156 35.1172C161.901 35.263 161.69 35.4661 161.523 35.7266C161.357 35.987 161.234 36.2865 161.156 36.625C161.078 36.9583 161.039 37.3125 161.039 37.6875ZM172.5 33.5469V42H170.609V33.5469H172.5ZM175.273 33.5469V35.0312H167.883V33.5469H175.273ZM179.68 42.1562C179.055 42.1562 178.49 42.0547 177.984 41.8516C177.484 41.6432 177.057 41.3542 176.703 40.9844C176.354 40.6146 176.086 40.1797 175.898 39.6797C175.711 39.1797 175.617 38.6406 175.617 38.0625V37.75C175.617 37.0885 175.714 36.4896 175.906 35.9531C176.099 35.4167 176.367 34.9583 176.711 34.5781C177.055 34.1927 177.461 33.8984 177.93 33.6953C178.398 33.4922 178.906 33.3906 179.453 33.3906C180.057 33.3906 180.586 33.4922 181.039 33.6953C181.492 33.8984 181.867 34.1849 182.164 34.5547C182.466 34.9193 182.69 35.3542 182.836 35.8594C182.987 36.3646 183.062 36.9219 183.062 37.5312V38.3359H176.531V36.9844H181.203V36.8359C181.193 36.4974 181.125 36.1797 181 35.8828C180.88 35.5859 180.695 35.3464 180.445 35.1641C180.195 34.9818 179.862 34.8906 179.445 34.8906C179.133 34.8906 178.854 34.9583 178.609 35.0938C178.37 35.224 178.169 35.4141 178.008 35.6641C177.846 35.9141 177.721 36.2161 177.633 36.5703C177.549 36.9193 177.508 37.3125 177.508 37.75V38.0625C177.508 38.4323 177.557 38.776 177.656 39.0938C177.76 39.4062 177.911 39.6797 178.109 39.9141C178.307 40.1484 178.547 40.3333 178.828 40.4688C179.109 40.599 179.43 40.6641 179.789 40.6641C180.242 40.6641 180.646 40.5729 181 40.3906C181.354 40.2083 181.661 39.9505 181.922 39.6172L182.914 40.5781C182.732 40.8438 182.495 41.099 182.203 41.3438C181.911 41.5833 181.555 41.7786 181.133 41.9297C180.716 42.0807 180.232 42.1562 179.68 42.1562ZM186.422 35.1719V45.25H184.539V33.5469H186.273L186.422 35.1719ZM191.93 37.6953V37.8594C191.93 38.474 191.857 39.0443 191.711 39.5703C191.57 40.0911 191.359 40.5469 191.078 40.9375C190.802 41.3229 190.461 41.6224 190.055 41.8359C189.648 42.0495 189.18 42.1562 188.648 42.1562C188.122 42.1562 187.661 42.0599 187.266 41.8672C186.875 41.6693 186.544 41.3906 186.273 41.0312C186.003 40.6719 185.784 40.25 185.617 39.7656C185.456 39.276 185.341 38.7396 185.273 38.1562V37.5234C185.341 36.9036 185.456 36.3411 185.617 35.8359C185.784 35.3307 186.003 34.8958 186.273 34.5312C186.544 34.1667 186.875 33.8854 187.266 33.6875C187.656 33.4896 188.112 33.3906 188.633 33.3906C189.164 33.3906 189.635 33.4948 190.047 33.7031C190.458 33.9062 190.805 34.1979 191.086 34.5781C191.367 34.9531 191.578 35.4062 191.719 35.9375C191.859 36.4635 191.93 37.0495 191.93 37.6953ZM190.047 37.8594V37.6953C190.047 37.3047 190.01 36.9427 189.938 36.6094C189.865 36.2708 189.75 35.974 189.594 35.7188C189.438 35.4635 189.237 35.2656 188.992 35.125C188.753 34.9792 188.464 34.9062 188.125 34.9062C187.792 34.9062 187.505 34.9635 187.266 35.0781C187.026 35.1875 186.826 35.3411 186.664 35.5391C186.503 35.737 186.378 35.9688 186.289 36.2344C186.201 36.4948 186.138 36.7786 186.102 37.0859V38.6016C186.164 38.9766 186.271 39.3203 186.422 39.6328C186.573 39.9453 186.786 40.1953 187.062 40.3828C187.344 40.5651 187.703 40.6562 188.141 40.6562C188.479 40.6562 188.768 40.5833 189.008 40.4375C189.247 40.2917 189.443 40.0911 189.594 39.8359C189.75 39.5755 189.865 39.276 189.938 38.9375C190.01 38.599 190.047 38.2396 190.047 37.8594ZM197.258 42.1562C196.633 42.1562 196.068 42.0547 195.562 41.8516C195.062 41.6432 194.635 41.3542 194.281 40.9844C193.932 40.6146 193.664 40.1797 193.477 39.6797C193.289 39.1797 193.195 38.6406 193.195 38.0625V37.75C193.195 37.0885 193.292 36.4896 193.484 35.9531C193.677 35.4167 193.945 34.9583 194.289 34.5781C194.633 34.1927 195.039 33.8984 195.508 33.6953C195.977 33.4922 196.484 33.3906 197.031 33.3906C197.635 33.3906 198.164 33.4922 198.617 33.6953C199.07 33.8984 199.445 34.1849 199.742 34.5547C200.044 34.9193 200.268 35.3542 200.414 35.8594C200.565 36.3646 200.641 36.9219 200.641 37.5312V38.3359H194.109V36.9844H198.781V36.8359C198.771 36.4974 198.703 36.1797 198.578 35.8828C198.458 35.5859 198.273 35.3464 198.023 35.1641C197.773 34.9818 197.44 34.8906 197.023 34.8906C196.711 34.8906 196.432 34.9583 196.188 35.0938C195.948 35.224 195.747 35.4141 195.586 35.6641C195.424 35.9141 195.299 36.2161 195.211 36.5703C195.128 36.9193 195.086 37.3125 195.086 37.75V38.0625C195.086 38.4323 195.135 38.776 195.234 39.0938C195.339 39.4062 195.49 39.6797 195.688 39.9141C195.885 40.1484 196.125 40.3333 196.406 40.4688C196.688 40.599 197.008 40.6641 197.367 40.6641C197.82 40.6641 198.224 40.5729 198.578 40.3906C198.932 40.2083 199.24 39.9505 199.5 39.6172L200.492 40.5781C200.31 40.8438 200.073 41.099 199.781 41.3438C199.49 41.5833 199.133 41.7786 198.711 41.9297C198.294 42.0807 197.81 42.1562 197.258 42.1562Z" fill="black"/>
<path d="M24.1667 32.5H60.8333V55H24.1667M60.8333 59.5C62.0489 59.5 63.2147 59.0259 64.0742 58.182C64.9338 57.3381 65.4167 56.1935 65.4167 55V32.5C65.4167 30.0025 63.3542 28 60.8333 28H24.1667C21.6229 28 19.5833 30.0025 19.5833 32.5V55C19.5833 56.1935 20.0662 57.3381 20.9258 58.182C21.7853 59.0259 22.9511 59.5 24.1667 59.5H15V64H70V59.5H60.8333Z" fill="#689786"/>
<rect x="35" y="36" width="15" height="15" rx="7.5" fill="#A2A8B0"/>
<path fill-rule="evenodd" clip-rule="evenodd" d="M41.47 38.5806C41.2542 38.6138 41.0922 38.7325 40.8194 39.057C40.6782 39.2249 40.5581 39.3422 40.4679 39.4003C40.39 39.4504 40.2684 39.5083 40.0701 39.5897C39.7453 39.7231 39.6059 39.8137 39.5118 39.9525C39.4224 40.0844 39.3823 40.2473 39.3448 40.6312C39.3036 41.0541 39.2852 41.1118 39.0927 41.4208C38.9718 41.6149 38.888 41.7739 38.8514 41.8785C38.8265 41.9497 38.8233 41.9733 38.8232 42.0847C38.8232 42.2005 38.8258 42.2179 38.8563 42.306C38.8954 42.4185 38.976 42.574 39.0859 42.7486C39.2829 43.0614 39.3183 43.1744 39.3603 43.6236C39.3965 44.0117 39.4436 44.1601 39.5744 44.2975C39.6843 44.413 39.7892 44.4721 40.131 44.6113C40.4959 44.7598 40.5787 44.823 40.9146 45.2095C41.0518 45.3673 41.1682 45.467 41.2773 45.5201C41.3886 45.5743 41.461 45.5891 41.6121 45.5888C41.7576 45.5884 41.8373 45.5759 42.0838 45.5146C42.3116 45.4579 42.3577 45.451 42.5098 45.4507C42.666 45.4505 42.7234 45.4589 42.9917 45.521C43.3337 45.6003 43.4176 45.6088 43.5627 45.5792C43.7706 45.5367 43.9141 45.4305 44.1735 45.1274C44.4389 44.8173 44.5504 44.735 44.8886 44.5997C45.1999 44.4752 45.3269 44.4023 45.4381 44.2845C45.5845 44.1293 45.6221 44.0029 45.6644 43.5231C45.6997 43.1217 45.7185 43.0633 45.9139 42.7475C46.1378 42.3854 46.1768 42.2847 46.1767 42.0696C46.1766 41.9616 46.1725 41.9257 46.1532 41.8634C46.1238 41.7691 46.0381 41.6059 45.9286 41.4359C45.7227 41.1164 45.6944 41.0338 45.6599 40.6513C45.6286 40.3043 45.598 40.1514 45.533 40.0176C45.4405 39.8272 45.3018 39.731 44.8582 39.5497C44.5235 39.4129 44.4101 39.3284 44.1485 39.0218C43.9912 38.8375 43.9376 38.7826 43.8641 38.7304C43.6832 38.6021 43.5006 38.5557 43.2858 38.5834C43.2356 38.5899 43.0873 38.6197 42.9562 38.6497C42.6419 38.7214 42.5909 38.7286 42.4388 38.7222C42.3102 38.7167 42.2726 38.7103 42.0183 38.65C41.9399 38.6314 41.8371 38.6089 41.7897 38.6C41.7003 38.5832 41.523 38.5724 41.47 38.5806ZM42.8026 39.4897C42.9942 39.5013 43.1224 39.5248 43.2891 39.5791C44.0911 39.8404 44.7079 40.4302 44.9991 41.2143C45.114 41.5236 45.1331 41.6768 45.1235 42.2104C45.117 42.574 45.1096 42.628 45.0354 42.8542C44.9512 43.1109 44.8517 43.3138 44.7001 43.5378C44.3596 44.0414 43.8737 44.4016 43.2706 44.5977C43.0344 44.6746 42.8837 44.6939 42.525 44.6932C42.1514 44.6924 41.9578 44.6673 41.7084 44.5872C41.3107 44.4594 40.973 44.2581 40.6749 43.9709C40.2126 43.5258 39.9395 42.9707 39.8717 42.3387C39.8537 42.1706 39.8642 41.8106 39.8917 41.6572C39.9883 41.1187 40.2141 40.6627 40.5643 40.299C40.8484 40.004 41.2406 39.7487 41.6121 39.6171C41.7248 39.5772 41.9592 39.5141 42.0685 39.4942C42.1564 39.4783 42.5707 39.4757 42.8026 39.4897ZM42.2138 39.9469C41.261 40.0816 40.5168 40.8036 40.3526 41.7527C40.3316 41.8743 40.3238 42.1488 40.3378 42.2755C40.3886 42.7339 40.5602 43.1348 40.8483 43.4677C41.2046 43.8797 41.6845 44.146 42.2068 44.2216C42.3429 44.2413 42.632 44.2418 42.7685 44.2225C43.188 44.1634 43.5636 44.0058 43.8691 43.761C44.1726 43.5178 44.4469 43.1162 44.578 42.7232C44.6363 42.5483 44.651 42.4481 44.6574 42.1802C44.6654 41.8439 44.6388 41.6114 44.568 41.397C44.4922 41.1677 44.2988 40.843 44.1214 40.647C43.8032 40.2954 43.3472 40.0469 42.8649 39.9621C42.7028 39.9337 42.3637 39.9257 42.2138 39.9469Z" fill="white"/>
<path fill-rule="evenodd" clip-rule="evenodd" d="M40.6222 45.6712C40.4972 46.0106 39.9499 47.638 39.8683 47.9128L39.8264 48.054L39.8521 48.0569C39.8774 48.0597 40.2479 47.997 40.6707 47.9184L40.8869 47.8782L41.235 48.243C41.4264 48.4437 41.585 48.6058 41.5875 48.6032C41.5924 48.5979 41.9333 47.5858 42.1188 47.0252C42.2679 46.5749 42.3911 46.184 42.3911 46.1614C42.3911 46.1375 42.3464 46.129 41.997 46.0869C41.5454 46.0326 41.4777 46.0174 41.2676 45.9237C41.1318 45.8631 40.9232 45.7526 40.7981 45.675C40.7412 45.6398 40.6853 45.6058 40.6738 45.5994C40.6539 45.5886 40.6513 45.5923 40.6222 45.6712ZM44.177 45.6975C44.0855 45.7467 43.9469 45.8213 43.869 45.8633C43.6262 45.9944 43.454 46.0397 43.0206 46.0864C42.6577 46.1254 42.6025 46.1335 42.6025 46.1476C42.6025 46.1836 43.2998 48.3006 43.3991 48.5662C43.4094 48.5938 43.4101 48.594 43.4389 48.5784C43.4732 48.5598 43.67 48.3565 43.925 48.0763L44.1067 47.8768L44.1595 47.8875C44.3814 47.9326 45.1676 48.0635 45.1743 48.0565C45.1827 48.0477 44.7045 46.6058 44.4587 45.8985C44.3762 45.6611 44.3558 45.6081 44.3473 45.6081C44.3452 45.6081 44.2686 45.6483 44.177 45.6975Z" fill="white"/>
<path fill-rule="evenodd" clip-rule="evenodd" d="M42.2185 39.9471C41.2657 40.0817 40.5215 40.8038 40.3573 41.7529C40.3363 41.8744 40.3285 42.149 40.3425 42.2757C40.3933 42.7341 40.5649 43.1349 40.853 43.4679C41.2093 43.8798 41.6892 44.1462 42.2115 44.2218C42.3476 44.2415 42.6366 44.242 42.7732 44.2227C43.1927 44.1635 43.5683 44.006 43.8738 43.7611C44.1773 43.518 44.4516 43.1164 44.5827 42.7234C44.641 42.5485 44.6557 42.4482 44.6621 42.1804C44.6701 41.8441 44.6435 41.6115 44.5726 41.3971C44.4968 41.1679 44.3035 40.8432 44.1261 40.6471C43.8079 40.2956 43.3519 40.047 42.8696 39.9623C42.7075 39.9338 42.3684 39.9259 42.2185 39.9471Z" fill="#F3C213"/>
</svg>
