<svg width="50" height="50" viewBox="0 0 50 50" fill="none" xmlns="http://www.w3.org/2000/svg">
<path d="M12.8631 31.6244C15.9135 31.6244 18.3759 34.0867 18.3759 37.1371C18.3759 40.1874 15.9135 42.6498 12.8631 42.6498C9.81274 42.6498 7.35037 40.1874 7.35037 37.1371C7.35037 34.0867 9.81274 31.6244 12.8631 31.6244ZM12.8631 35.2995C11.8525 35.2995 11.0256 36.1264 11.0256 37.1371C11.0256 38.1477 11.8525 38.9746 12.8631 38.9746C13.8738 38.9746 14.7007 38.1477 14.7007 37.1371C14.7007 36.1264 13.8738 35.2995 12.8631 35.2995ZM25.6886 6.11907L27.0301 7.49724L33.9946 0.532892C34.3253 0.202131 34.7847 0 35.2993 0C35.8138 0 36.2732 0.202131 36.6039 0.532892L49.5957 13.5244V13.5428C49.853 13.8552 50 14.2595 50 14.7005C50 15.2517 49.7611 15.7479 49.3752 16.097L42.521 22.9695L43.8808 24.3109L21.9592 46.233C19.6255 48.5667 16.4097 50 12.8631 50C5.75166 50 0 44.2484 0 37.1371C0 33.5906 1.43332 30.3749 3.76706 28.0412L25.6886 6.11907ZM19.3682 43.642L38.6804 24.3109L25.6886 11.3194L6.35807 30.6321C4.70424 32.3043 3.67518 34.6012 3.67518 37.1371C3.67518 42.2087 7.79139 46.3249 12.8631 46.3249C15.399 46.3249 17.696 45.2958 19.3682 43.642ZM35.4279 6.7806L38.0557 9.37155L35.4279 11.9441L32.8369 9.37155L35.4279 6.7806ZM40.6283 11.9441L43.2193 14.5718L40.6283 17.1628L38.0557 14.5718L40.6283 11.9441ZM45.5714 14.7005L35.2993 4.42852L29.6578 10.1066L39.8932 20.3602L45.5714 14.7005Z" fill="#616264"/>
<path d="M35.4367 6.7793L38.0645 9.37026L35.4367 11.9428L32.8457 9.37026L35.4367 6.7793ZM40.6371 11.9428L43.2281 14.5706L40.6371 17.1615L38.0645 14.5706L40.6371 11.9428Z" fill="#FABC42"/>
<path d="M12.8458 31.625C15.8962 31.625 18.3586 34.0873 18.3586 37.1377C18.3586 40.188 15.8962 42.6504 12.8458 42.6504C9.79538 42.6504 7.33301 40.188 7.33301 37.1377C7.33301 34.0873 9.79538 31.625 12.8458 31.625ZM12.8458 35.3001C11.8351 35.3001 11.0082 36.127 11.0082 37.1377C11.0082 38.1483 11.8351 38.9752 12.8458 38.9752C13.8565 38.9752 14.6834 38.1483 14.6834 37.1377C14.6834 36.127 13.8565 35.3001 12.8458 35.3001Z" fill="#518AB5"/>
</svg>
