<svg width="55" height="36" viewBox="0 0 55 36" fill="none" xmlns="http://www.w3.org/2000/svg">
<path d="M9.16667 4.5H45.8333V27H9.16667M45.8333 31.5C47.0489 31.5 48.2147 31.0259 49.0742 30.182C49.9338 29.3381 50.4167 28.1935 50.4167 27V4.5C50.4167 2.0025 48.3542 0 45.8333 0H9.16667C6.62292 0 4.58333 2.0025 4.58333 4.5V27C4.58333 28.1935 5.06622 29.3381 5.92576 30.182C6.7853 31.0259 7.95109 31.5 9.16667 31.5H0V36H55V31.5H45.8333Z" fill="#689786"/>
<rect x="20" y="8" width="15" height="15" rx="7.5" fill="#A2A8B0"/>
<path fill-rule="evenodd" clip-rule="evenodd" d="M26.47 10.581C26.2542 10.6143 26.0922 10.733 25.8194 11.0575C25.6782 11.2254 25.5581 11.3427 25.4679 11.4008C25.39 11.4509 25.2684 11.5088 25.0701 11.5902C24.7453 11.7236 24.6059 11.8142 24.5118 11.9529C24.4224 12.0849 24.3823 12.2478 24.3448 12.6317C24.3036 13.0546 24.2852 13.1123 24.0927 13.4213C23.9718 13.6154 23.888 13.7744 23.8514 13.879C23.8265 13.9502 23.8233 13.9738 23.8232 14.0852C23.8232 14.201 23.8258 14.2184 23.8563 14.3065C23.8954 14.419 23.976 14.5744 24.0859 14.749C24.2829 15.0619 24.3183 15.1749 24.3603 15.6241C24.3965 16.0122 24.4436 16.1606 24.5744 16.298C24.6843 16.4135 24.7892 16.4726 25.131 16.6118C25.4959 16.7603 25.5787 16.8235 25.9146 17.21C26.0518 17.3678 26.1682 17.4675 26.2773 17.5206C26.3886 17.5748 26.461 17.5896 26.6121 17.5893C26.7576 17.5889 26.8373 17.5764 27.0838 17.5151C27.3116 17.4584 27.3577 17.4515 27.5098 17.4512C27.666 17.451 27.7234 17.4594 27.9917 17.5215C28.3337 17.6008 28.4176 17.6093 28.5627 17.5796C28.7706 17.5371 28.9141 17.431 29.1735 17.1279C29.4389 16.8178 29.5504 16.7355 29.8886 16.6002C30.1999 16.4757 30.3269 16.4028 30.4381 16.285C30.5845 16.1297 30.6221 16.0034 30.6644 15.5236C30.6997 15.1222 30.7185 15.0638 30.9139 14.7479C31.1378 14.3859 31.1768 14.2852 31.1767 14.0701C31.1766 13.9621 31.1725 13.9262 31.1532 13.8639C31.1238 13.7696 31.0381 13.6064 30.9286 13.4364C30.7227 13.1169 30.6944 13.0343 30.6599 12.6518C30.6286 12.3048 30.598 12.1519 30.533 12.0181C30.4405 11.8277 30.3018 11.7315 29.8582 11.5502C29.5235 11.4133 29.4101 11.3289 29.1485 11.0223C28.9912 10.838 28.9376 10.7831 28.8641 10.7309C28.6832 10.6026 28.5006 10.5561 28.2858 10.5839C28.2356 10.5904 28.0873 10.6202 27.9562 10.6502C27.6419 10.7219 27.5909 10.7291 27.4388 10.7227C27.3102 10.7172 27.2726 10.7108 27.0183 10.6505C26.9399 10.6319 26.8371 10.6094 26.7897 10.6005C26.7003 10.5837 26.523 10.5729 26.47 10.581ZM27.8026 11.4902C27.9942 11.5017 28.1224 11.5253 28.2891 11.5796C29.0911 11.8409 29.7079 12.4306 29.9991 13.2148C30.114 13.524 30.1331 13.6773 30.1235 14.2109C30.117 14.5745 30.1096 14.6284 30.0354 14.8547C29.9512 15.1113 29.8517 15.3142 29.7001 15.5383C29.3596 16.0419 28.8737 16.4021 28.2706 16.5982C28.0344 16.675 27.8837 16.6943 27.525 16.6936C27.1514 16.6929 26.9578 16.6678 26.7084 16.5877C26.3107 16.4599 25.973 16.2586 25.6749 15.9714C25.2126 15.5262 24.9395 14.9712 24.8717 14.3392C24.8537 14.1711 24.8642 13.8111 24.8917 13.6577C24.9883 13.1192 25.2141 12.6632 25.5643 12.2995C25.8484 12.0044 26.2406 11.7492 26.6121 11.6176C26.7248 11.5777 26.9592 11.5145 27.0685 11.4947C27.1564 11.4787 27.5707 11.4762 27.8026 11.4902ZM27.2138 11.9474C26.261 12.082 25.5168 12.8041 25.3526 13.7532C25.3316 13.8747 25.3238 14.1493 25.3378 14.276C25.3886 14.7344 25.5602 15.1352 25.8483 15.4682C26.2046 15.8802 26.6845 16.1465 27.2068 16.2221C27.3429 16.2418 27.632 16.2423 27.7685 16.223C28.188 16.1639 28.5636 16.0063 28.8691 15.7615C29.1726 15.5183 29.4469 15.1167 29.578 14.7237C29.6363 14.5488 29.651 14.4485 29.6574 14.1807C29.6654 13.8444 29.6388 13.6119 29.568 13.3975C29.4922 13.1682 29.2988 12.8435 29.1214 12.6474C28.8032 12.2959 28.3472 12.0474 27.8649 11.9626C27.7028 11.9341 27.3637 11.9262 27.2138 11.9474Z" fill="white"/>
<path fill-rule="evenodd" clip-rule="evenodd" d="M25.622 17.6719C25.497 18.0113 24.9497 19.6387 24.8681 19.9135L24.8262 20.0547L24.8519 20.0576C24.8772 20.0604 25.2476 19.9977 25.6704 19.9191L25.8867 19.8789L26.2347 20.2437C26.4261 20.4444 26.5848 20.6065 26.5872 20.6039C26.5922 20.5987 26.933 19.5866 27.1186 19.0259C27.2676 18.5756 27.3908 18.1847 27.3908 18.1621C27.3908 18.1382 27.3462 18.1298 26.9968 18.0877C26.5452 18.0333 26.4774 18.0181 26.2674 17.9244C26.1316 17.8638 25.923 17.7534 25.7979 17.6758C25.741 17.6405 25.6851 17.6065 25.6735 17.6002C25.6537 17.5893 25.651 17.593 25.622 17.6719ZM29.1768 17.6982C29.0852 17.7474 28.9466 17.822 28.8688 17.8641C28.626 17.9952 28.4538 18.0404 28.0204 18.0871C27.6575 18.1261 27.6023 18.1342 27.6023 18.1484C27.6023 18.1844 28.2995 20.3014 28.3989 20.5669C28.4092 20.5945 28.4099 20.5947 28.4386 20.5791C28.4729 20.5605 28.6698 20.3572 28.9248 20.0771L29.1064 19.8775L29.1593 19.8883C29.3811 19.9333 30.1674 20.0643 30.174 20.0573C30.1824 20.0485 29.7043 18.6065 29.4584 17.8992C29.3759 17.6618 29.3556 17.6088 29.347 17.6088C29.345 17.6088 29.2683 17.6491 29.1768 17.6982Z" fill="white"/>
<path fill-rule="evenodd" clip-rule="evenodd" d="M27.218 11.9476C26.2652 12.0822 25.521 12.8043 25.3568 13.7534C25.3358 13.8749 25.328 14.1495 25.342 14.2762C25.3928 14.7346 25.5644 15.1354 25.8525 15.4684C26.2089 15.8803 26.6887 16.1466 27.211 16.2223C27.3471 16.242 27.6362 16.2425 27.7727 16.2232C28.1922 16.164 28.5678 16.0065 28.8733 15.7616C29.1768 15.5185 29.4511 15.1169 29.5822 14.7239C29.6405 14.549 29.6552 14.4487 29.6616 14.1809C29.6696 13.8446 29.643 13.612 29.5722 13.3976C29.4964 13.1684 29.303 12.8436 29.1256 12.6476C28.8074 12.2961 28.3514 12.0475 27.8691 11.9628C27.707 11.9343 27.3679 11.9264 27.218 11.9476Z" fill="#F3C213"/>
</svg>
