<svg width="24" height="24" viewBox="0 0 24 24" fill="none" xmlns="http://www.w3.org/2000/svg">
<path d="M22.0435 22H1.95652C1.42804 22 1 21.5525 1 21V4C1 3.4475 1.42804 3 1.95652 3H22.0435C22.572 3 23 3.4475 23 4V21C23 21.5525 22.572 22 22.0435 22Z" fill="#6F665E"/>
<path d="M12 21C12 21 9.85778 20.052 4.44444 20.002C4.2 20 4 19.778 4 19.503V4C9.74089 4 12 5 12 5V21Z" fill="#4C3D30"/>
<path d="M12 21C12 21 14.1422 20.052 19.5556 20.002C19.8 20 20 19.778 20 19.5025V4C14.2591 4 12 5 12 5V21Z" fill="#4C3D30"/>
<path d="M12 20C12 20 8.976 18.102 3.4473 18.0035C3.20115 17.999 3 17.7795 3 17.5059V2.5022C3 2.22364 3.20835 1.99508 3.459 2.00008C8.98005 2.10061 12 3.99607 12 3.99607V20Z" fill="#FFDD00"/>
<path d="M12 20C12 20 15.024 18.102 20.5527 18.0035C20.7988 17.999 21 17.7795 21 17.5059V2.5022C21 2.22364 20.7916 1.99508 20.541 2.00008C15.0199 2.10061 12 3.99607 12 3.99607V20Z" fill="#E2B910"/>
</svg>
