<svg width="24" height="24" viewBox="0 0 24 24" fill="none" xmlns="http://www.w3.org/2000/svg">
<g clip-path="url(#clip0_148_1410)">
<rect x="8" y="5" width="9" height="15" fill="#E0282F"/>
<path d="M12 0C5.383 0 0 5.383 0 12C0 18.617 5.383 24 12 24C18.617 24 24 18.617 24 12C24 5.383 18.617 0 12 0ZM12 19.5C11.31 19.5 10.75 18.94 10.75 18.25C10.75 17.56 11.31 17 12 17C12.69 17 13.25 17.56 13.25 18.25C13.25 18.94 12.69 19.5 12 19.5ZM14.688 12.302C13.244 13.526 13 13.969 13 14.5C13 15.053 12.553 15.5 12 15.5C11.447 15.5 11 15.053 11 14.5C11 13.066 11.807 12.121 13.395 10.776C13.842 10.396 15.239 9.056 14.419 7.73C13.887 6.869 11.902 6.746 10.257 7.474C9.75 7.697 9.161 7.468 8.938 6.963C8.715 6.458 8.944 5.867 9.449 5.644C11.779 4.614 14.912 4.72 16.121 6.679C17.224 8.463 16.675 10.617 14.688 12.301V12.302Z" fill="#FFDD00"/>
</g>
<defs>
<clipPath id="clip0_148_1410">
<rect width="24" height="24" fill="white"/>
</clipPath>
</defs>
</svg>
