<svg width="24" height="25" viewBox="0 0 24 25" fill="none" xmlns="http://www.w3.org/2000/svg">
<path d="M19.3 9.32344L15.05 5.12344L16.45 3.72344C16.8333 3.3401 17.3043 3.14844 17.863 3.14844C18.421 3.14844 18.8917 3.3401 19.275 3.72344L20.675 5.12344C21.0583 5.50677 21.2583 5.96944 21.275 6.51144C21.2917 7.05277 21.1083 7.5151 20.725 7.89844L19.3 9.32344ZM4 21.3984C3.71667 21.3984 3.47933 21.3024 3.288 21.1104C3.096 20.9191 3 20.6818 3 20.3984V17.5734C3 17.4401 3.025 17.3111 3.075 17.1864C3.125 17.0611 3.2 16.9484 3.3 16.8484L13.6 6.54844L17.85 10.7984L7.55 21.0984C7.45 21.1984 7.33767 21.2734 7.213 21.3234C7.08767 21.3734 6.95833 21.3984 6.825 21.3984H4Z" fill="#9999A3"/>
</svg>
