<svg width="19" height="16" viewBox="0 0 19 16" fill="none" xmlns="http://www.w3.org/2000/svg">
<path d="M4.89114 0.28784C4.67836 0.075053 4.33336 0.075053 4.12057 0.28784L0.653008 3.75541C0.440221 3.96819 0.440221 4.31319 0.653008 4.52598C0.865795 4.73876 1.21079 4.73876 1.42358 4.52598L4.50586 1.4437L7.58814 4.52598C7.80093 4.73876 8.14592 4.73876 8.35871 4.52598C8.5715 4.31319 8.5715 3.96819 8.35871 3.75541L4.89114 0.28784ZM13.6387 15.3859C13.8518 15.5983 14.1968 15.5978 14.4093 15.3847L17.8714 11.9117C18.0839 11.6986 18.0834 11.3536 17.8702 11.1411C17.6571 10.9287 17.3121 10.9292 17.0997 11.1423L14.0222 14.2294L10.9351 11.1519C10.722 10.9395 10.377 10.94 10.1646 11.1531C9.9521 11.3663 9.95263 11.7113 10.1658 11.9237L13.6387 15.3859ZM5.05073 15.6731V0.673125H3.96098V15.6731H5.05073ZM13.4551 0.000850363L13.4785 15.0008L14.5683 14.9991L14.5449 -0.000850363L13.4551 0.000850363Z" fill="#989898"/>
</svg>
