<svg width="21" height="21" viewBox="0 0 21 21" fill="none" xmlns="http://www.w3.org/2000/svg">
<circle cx="10.2324" cy="10.376" r="9.66504" fill="white"/>
<circle cx="10.2324" cy="10.376" r="9.66504" stroke="#333333"/>
<circle cx="10.2324" cy="10.376" r="9.66504" stroke="black" stroke-opacity="0.2"/>
<path d="M11.4526 11.7358H5.99609V10.5859H11.4526C11.9849 10.5859 12.4219 10.5005 12.7637 10.3296C13.1055 10.1587 13.3569 9.91699 13.5181 9.60449C13.6841 9.29199 13.7671 8.92334 13.7671 8.49854C13.7671 8.15186 13.689 7.81982 13.5327 7.50244C13.3813 7.18506 13.1348 6.92383 12.793 6.71875C12.4561 6.51367 12.0093 6.41113 11.4526 6.41113H8.91846V15.918H7.51221V5.25391H11.4526C12.2583 5.25391 12.937 5.39307 13.4888 5.67139C14.0405 5.94482 14.458 6.32568 14.7412 6.81396C15.0293 7.29736 15.1733 7.854 15.1733 8.48389C15.1733 9.16748 15.0293 9.75342 14.7412 10.2417C14.458 10.7251 14.0405 11.0962 13.4888 11.355C12.937 11.6089 12.2583 11.7358 11.4526 11.7358ZM11.3647 12.7393V13.8965H5.99609V12.7393H11.3647Z" fill="#333333"/>
<path d="M11.4526 11.7358H5.99609V10.5859H11.4526C11.9849 10.5859 12.4219 10.5005 12.7637 10.3296C13.1055 10.1587 13.3569 9.91699 13.5181 9.60449C13.6841 9.29199 13.7671 8.92334 13.7671 8.49854C13.7671 8.15186 13.689 7.81982 13.5327 7.50244C13.3813 7.18506 13.1348 6.92383 12.793 6.71875C12.4561 6.51367 12.0093 6.41113 11.4526 6.41113H8.91846V15.918H7.51221V5.25391H11.4526C12.2583 5.25391 12.937 5.39307 13.4888 5.67139C14.0405 5.94482 14.458 6.32568 14.7412 6.81396C15.0293 7.29736 15.1733 7.854 15.1733 8.48389C15.1733 9.16748 15.0293 9.75342 14.7412 10.2417C14.458 10.7251 14.0405 11.0962 13.4888 11.355C12.937 11.6089 12.2583 11.7358 11.4526 11.7358ZM11.3647 12.7393V13.8965H5.99609V12.7393H11.3647Z" fill="black" fill-opacity="0.2"/>
</svg>
