<svg width="66" height="81" viewBox="0 0 66 81" fill="none" xmlns="http://www.w3.org/2000/svg">
<rect x="1.45117" y="0.5" width="64" height="80" fill="white"/>
<rect x="1.45117" y="0.5" width="64" height="80" stroke="#8080AD"/>
<path d="M9.52539 33.9903C9.52539 32.7813 10.4954 31.8011 11.6921 31.8011H32.6428C33.8394 31.8011 34.8095 32.7813 34.8095 33.9903V49.4818C34.8095 50.6908 33.8394 51.671 32.6428 51.671H11.6921C10.4954 51.671 9.52539 50.6908 9.52539 49.4818V33.9903Z" fill="#5B81C2"/>
<path d="M9.52539 33.9903C9.52539 32.7813 10.4954 31.8011 11.6921 31.8011H32.6428C33.8394 31.8011 34.8095 32.7813 34.8095 33.9903V44.5746H9.52539V33.9903Z" fill="#5B81C2"/>
<path d="M50.5825 50.6541C50.5825 52.5234 49.0827 54.0388 47.2326 54.0388C45.3826 54.0388 43.8828 52.5234 43.8828 50.6541C43.8828 48.7849 45.3826 47.2695 47.2326 47.2695C49.0827 47.2695 50.5825 48.7849 50.5825 50.6541Z" fill="#BCC0D3"/>
<path fill-rule="evenodd" clip-rule="evenodd" d="M27.5098 50.6541C27.5098 53.7696 25.0102 56.2952 21.9268 56.2952C18.8434 56.2952 16.3438 53.7696 16.3438 50.6541C16.3438 47.5387 18.8434 45.0131 21.9268 45.0131C25.0102 45.0131 27.5098 47.5387 27.5098 50.6541ZM21.9268 54.0388C23.7768 54.0388 25.2766 52.5234 25.2766 50.6541C25.2766 48.7848 23.7768 47.2695 21.9268 47.2695C20.0767 47.2695 18.577 48.7848 18.577 50.6541C18.577 52.5234 20.0767 54.0388 21.9268 54.0388Z" fill="#5B81C2"/>
<path d="M30.5977 25.7994C30.5977 25.1948 31.0827 24.7048 31.681 24.7048H33.7283C34.3266 24.7048 34.8117 25.1948 34.8117 25.7994V37.8029C34.8117 38.4074 34.3266 38.8975 33.7283 38.8975H31.681C31.0827 38.8975 30.5977 38.4074 30.5977 37.8029V25.7994Z" fill="#5B81C2"/>
<path d="M41.8359 45.6692C41.8359 45.0647 41.3509 44.5746 40.7526 44.5746H28.8726C28.2743 44.5746 27.7892 45.0647 27.7892 45.6692V50.5764C27.7892 51.1809 28.2743 51.6709 28.8726 51.6709H40.7526C41.3509 51.6709 41.8359 51.1809 41.8359 50.5764V45.6692Z" fill="#5B81C2"/>
<path d="M18.5797 50.6541C18.5797 52.5234 20.0794 54.0388 21.9295 54.0388C23.7795 54.0388 25.2793 52.5234 25.2793 50.6541C25.2793 48.7849 23.7795 47.2695 21.9295 47.2695C20.0794 47.2695 18.5797 48.7849 18.5797 50.6541Z" fill="white"/>
<path fill-rule="evenodd" clip-rule="evenodd" d="M39.3542 26.9631C38.1575 26.9631 37.1875 27.9433 37.1875 29.1523V49.5947C37.1875 50.8037 38.1576 51.7839 39.3542 51.7839H55.1198C56.3164 51.7839 57.2864 50.8037 57.2864 49.5947V40.0488C57.2864 39.6088 57.1552 39.1791 56.9099 38.8155L49.557 27.9191C49.1534 27.321 48.4832 26.9631 47.7668 26.9631H39.3542ZM39.8481 29.2183C39.6088 29.2183 39.4148 29.4144 39.4148 29.6562V37.8062C39.4148 38.048 39.6088 38.2441 39.8481 38.2441H52.0323C52.3726 38.2441 52.5801 37.8658 52.3997 37.5742L47.3583 29.4241C47.2792 29.2961 47.1403 29.2183 46.9909 29.2183H39.8481Z" fill="#2CA149"/>
<path fill-rule="evenodd" clip-rule="evenodd" d="M52.834 50.6541C52.834 53.7696 50.3344 56.2952 47.251 56.2952C44.1676 56.2952 41.668 53.7696 41.668 50.6541C41.668 47.5387 44.1676 45.0131 47.251 45.0131C50.3344 45.0131 52.834 47.5387 52.834 50.6541ZM47.251 54.0388C49.1011 54.0388 50.6008 52.5234 50.6008 50.6541C50.6008 48.7848 49.1011 47.2695 47.251 47.2695C45.401 47.2695 43.9012 48.7848 43.9012 50.6541C43.9012 52.5234 45.401 54.0388 47.251 54.0388Z" fill="#2CA149"/>
<path d="M43.8922 50.6541C43.8922 52.5234 45.3919 54.0388 47.242 54.0388C49.092 54.0388 50.5918 52.5234 50.5918 50.6541C50.5918 48.7849 49.092 47.2695 47.242 47.2695C45.3919 47.2695 43.8922 48.7849 43.8922 50.6541Z" fill="white"/>
<path fill-rule="evenodd" clip-rule="evenodd" d="M45.3083 42.8307H39.5996V40.6415H45.3083V42.8307Z" fill="white"/>
<path fill-rule="evenodd" clip-rule="evenodd" d="M30.5947 38.07H11.8184V35.8808H30.5947V38.07Z" fill="white"/>
<path fill-rule="evenodd" clip-rule="evenodd" d="M30.5947 42.5749H11.8184V40.3857H30.5947V42.5749Z" fill="white"/>
</svg>
