<svg width="66" height="81" viewBox="0 0 66 81" fill="none" xmlns="http://www.w3.org/2000/svg">
<rect x="1.45117" y="0.5" width="64" height="80" fill="white"/>
<rect x="1.45117" y="0.5" width="64" height="80" stroke="#8080AD"/>
<path d="M52.3771 56.8321L49.6083 59.6298C49.243 59.9967 48.7488 60.2027 48.2336 60.2027C47.7185 60.2027 47.2243 59.9967 46.859 59.6298L23.6948 36.2633C23.0608 36.4489 22.405 36.5483 21.745 36.5588C20.5035 36.5579 19.2802 36.2576 18.1767 35.6828C17.0733 35.108 16.1216 34.2754 15.4007 33.2541C14.6798 32.2328 14.2107 31.0524 14.0322 29.811C13.8537 28.5696 13.9711 27.3031 14.3746 26.1168L19.3272 31.1211L20.3606 30.0769L23.1294 27.2792L24.1628 26.235L19.2102 21.2307C20.3843 20.823 21.6377 20.7044 22.8662 20.8848C24.0948 21.0651 25.263 21.5392 26.2738 22.2676C27.2845 22.996 28.1085 23.9576 28.6774 25.0726C29.2463 26.1876 29.5435 27.4236 29.5444 28.6781C29.5339 29.345 29.4356 30.0076 29.2519 30.6483L52.3771 54.0541C52.7402 54.4233 52.9441 54.9226 52.9441 55.4431C52.9441 55.9636 52.7402 56.463 52.3771 56.8321Z" fill="#5B81C2"/>
<path d="M14.5182 54.0541C14.155 54.4233 13.9512 54.9226 13.9512 55.4431C13.9512 55.9636 14.155 56.463 14.5182 56.8321L17.287 59.6298C17.6523 59.9967 18.1465 60.2027 18.6616 60.2027C19.1767 60.2027 19.6709 59.9967 20.0362 59.6298L30.7019 48.8725L25.1838 43.2969M49.0499 20.7973L41.2506 24.7377V28.6781L37.0194 32.9534L40.9191 36.8938L45.1502 32.6185H49.0499L52.9496 24.7377L49.0499 20.7973Z" fill="#2CA149"/>
<path fill-rule="evenodd" clip-rule="evenodd" d="M48.7617 57.6369L25.8086 34.4464L27.3406 32.8984L50.2937 56.0888L48.7617 57.6369Z" fill="white"/>
<path fill-rule="evenodd" clip-rule="evenodd" d="M27.0404 48.3742L18.7253 56.7748L17.1934 55.2267L25.5084 46.8261L27.0404 48.3742Z" fill="white"/>
<path fill-rule="evenodd" clip-rule="evenodd" d="M49.4213 26.0459L41.1062 34.4465L39.5742 32.8984L47.8893 24.4978L49.4213 26.0459Z" fill="white"/>
</svg>
