<svg width="65" height="81" viewBox="0 0 65 81" fill="none" xmlns="http://www.w3.org/2000/svg">
<rect x="0.5" y="0.5" width="64" height="80" fill="white"/>
<rect x="0.5" y="0.5" width="64" height="80" stroke="#DBDBE4"/>
<path fill-rule="evenodd" clip-rule="evenodd" d="M10.8347 55.8243C10.5747 58.0135 12.0047 60.2027 15.168 60.2027H49.8347C52.998 60.2027 54.428 58.0135 54.168 55.8243V33.9324C53.908 31.7432 52.1313 29.5541 49.8347 29.5541H41.168V25.1757L36.8347 20.7973H28.168L23.8347 25.1757V29.5541H15.168C12.6763 29.5541 11.0947 31.7432 10.8347 33.9324V55.8243ZM13.4347 34.1145V55.9814L13.4161 56.1373C13.3648 56.5696 13.4882 56.8924 13.663 57.0916C13.8129 57.2624 14.2055 57.5757 15.168 57.5757H49.8347C50.7972 57.5757 51.1898 57.2624 51.3397 57.0916C51.5144 56.8924 51.6379 56.5696 51.5865 56.1373L51.568 55.9814V34.1198C51.4817 33.6284 51.2308 33.1087 50.8706 32.7216C50.4916 32.3142 50.1234 32.1811 49.8347 32.1811H15.168C14.7436 32.1811 14.3976 32.346 14.0874 32.6904C13.7699 33.0429 13.5257 33.5598 13.4347 34.1145ZM28.168 25.1757V29.5541H36.8347V25.1757H28.168Z" fill="#DBDBE4"/>
<path d="M60.9297 44.8364C60.9297 50.2771 56.5645 54.6877 51.1797 54.6877C45.7949 54.6877 41.4297 50.2771 41.4297 44.8364C41.4297 39.3956 45.7949 34.985 51.1797 34.985C56.5645 34.985 60.9297 39.3956 60.9297 44.8364Z" fill="white"/>
<path d="M45.3297 45.8215V43.8512H53.1297L49.7172 40.4033L51.1017 39.0044L56.8737 44.8364L51.1017 50.6684L49.7172 49.2695L53.1297 45.8215H45.3297ZM60.9297 44.8364C60.9297 47.4491 59.9025 49.9548 58.074 51.8023C56.2455 53.6498 53.7655 54.6877 51.1797 54.6877C49.8993 54.6877 48.6314 54.4329 47.4485 53.9378C46.2656 53.4428 45.1908 52.7171 44.2854 51.8023C42.4569 49.9548 41.4297 47.4491 41.4297 44.8364C41.4297 42.2236 42.4569 39.7179 44.2854 37.8704C46.1139 36.0229 48.5938 34.985 51.1797 34.985C52.4601 34.985 53.7279 35.2398 54.9109 35.7349C56.0938 36.23 57.1686 36.9556 58.074 37.8704C58.9793 38.7852 59.6975 39.8712 60.1875 41.0664C60.6775 42.2616 60.9297 43.5427 60.9297 44.8364ZM58.9797 44.8364C58.9797 42.7462 58.1579 40.7416 56.6951 39.2636C55.2323 37.7856 53.2484 36.9553 51.1797 36.9553C49.111 36.9553 47.127 37.7856 45.6643 39.2636C44.2015 40.7416 43.3797 42.7462 43.3797 44.8364C43.3797 46.9266 44.2015 48.9311 45.6643 50.4091C47.127 51.8871 49.111 52.7174 51.1797 52.7174C53.2484 52.7174 55.2323 51.8871 56.6951 50.4091C58.1579 48.9311 58.9797 46.9266 58.9797 44.8364Z" fill="#DBDBE4"/>
<path d="M26 43.2365H39V46.5203H26V43.2365Z" fill="#DBDBE4"/>
<path d="M30.875 51.446L30.875 38.3108L34.125 38.3108L34.125 51.446L30.875 51.446Z" fill="#DBDBE4"/>
<path d="M26 43.2365H39V46.5203H26V43.2365Z" fill="#DBDBE4"/>
<path d="M30.875 51.446L30.875 38.3108L34.125 38.3108L34.125 51.446L30.875 51.446Z" fill="#DBDBE4"/>
</svg>
