<svg width="20" height="20" viewBox="0 0 20 20" fill="none" xmlns="http://www.w3.org/2000/svg">
<path d="M14.4285 12.7456H13.57L13.2657 12.4522C14.3307 11.2133 14.9719 9.60482 14.9719 7.8551C14.9719 3.95355 11.8094 0.791016 7.90783 0.791016C4.00628 0.791016 0.84375 3.95355 0.84375 7.8551C0.84375 11.7566 4.00628 14.9192 7.90783 14.9192C9.65755 14.9192 11.266 14.278 12.5049 13.2129L12.7983 13.5172V14.3758L18.2323 19.7988L19.8516 18.1795L14.4285 12.7456ZM7.90783 12.7456C5.20174 12.7456 3.01731 10.5612 3.01731 7.8551C3.01731 5.14901 5.20174 2.96458 7.90783 2.96458C10.6139 2.96458 12.7983 5.14901 12.7983 7.8551C12.7983 10.5612 10.6139 12.7456 7.90783 12.7456Z" fill="#616264"/>
</svg>
