<svg width="112" height="16" viewBox="0 0 112 16" fill="none" xmlns="http://www.w3.org/2000/svg">
<rect x="18" y="3" width="13" height="10" fill="#5C758F" fill-opacity="0.8"/>
<rect x="19" y="4" width="11" height="8" fill="#F4F4F4"/>
<rect x="21" y="5" width="7" height="1" fill="#9DA9B3"/>
<rect x="21" y="7" width="7" height="1" fill="#9DA9B3"/>
<rect x="21" y="9" width="7" height="1" fill="#9DA9B3"/>
<rect x="66" y="3" width="13" height="10" fill="#5C758F" fill-opacity="0.8"/>
<rect x="67" y="4" width="11" height="8" fill="#F4F4F4"/>
<rect x="69" y="5" width="7" height="1" fill="#9DA9B3"/>
<rect x="69" y="7" width="7" height="1" fill="#9DA9B3"/>
<rect x="69" y="9" width="7" height="1" fill="#9DA9B3"/>
<rect opacity="0.5" x="72" y="4" width="7" height="9" fill="white"/>
<path d="M75 8C75 7.73478 75.1054 7.48043 75.2929 7.29289C75.4804 7.10536 75.7348 7 76 7C76.2652 7 76.5196 7.10536 76.7071 7.29289C76.8946 7.48043 77 7.73478 77 8V10H79V8C79 7.20435 78.6839 6.44129 78.1213 5.87868C77.5587 5.31607 76.7956 5 76 5C75.2044 5 74.4413 5.31607 73.8787 5.87868C73.3161 6.44129 73 7.20435 73 8V10H75V8Z" fill="#6A6A6A"/>
<path d="M79.2 10H72.8C72.3582 10 72 10.4477 72 11V15C72 15.5523 72.3582 16 72.8 16H79.2C79.6418 16 80 15.5523 80 15V11C80 10.4477 79.6418 10 79.2 10Z" fill="#F7B352"/>
<path d="M72.8 10.5H79.2C79.2418 10.5 79.307 10.5199 79.3753 10.6052C79.4443 10.6915 79.5 10.8294 79.5 11V15C79.5 15.1706 79.4443 15.3085 79.3753 15.3948C79.307 15.4801 79.2418 15.5 79.2 15.5H72.8C72.7582 15.5 72.693 15.4801 72.6247 15.3948C72.5557 15.3085 72.5 15.1706 72.5 15V11C72.5 10.8294 72.5557 10.6915 72.6247 10.6052C72.693 10.5199 72.7582 10.5 72.8 10.5Z" stroke="black" stroke-opacity="0.3"/>
<circle cx="76" cy="14" r="1" fill="black"/>
<rect x="82" y="3" width="13" height="10" fill="#5C758F" fill-opacity="0.8"/>
<rect x="83" y="4" width="11" height="8" fill="#F4F4F4"/>
<rect x="85" y="5" width="7" height="1" fill="#9DA9B3"/>
<rect x="85" y="7" width="7" height="1" fill="#9DA9B3"/>
<rect x="85" y="9" width="7" height="1" fill="#9DA9B3"/>
<rect opacity="0.5" x="88" y="4" width="7" height="9" fill="white"/>
<path d="M91 8C91 7.73478 91.1054 7.48043 91.2929 7.29289C91.4804 7.10536 91.7348 7 92 7C92.2652 7 92.5196 7.10536 92.7071 7.29289C92.8946 7.48043 93 7.73478 93 8V10H95V8C95 7.20435 94.6839 6.44129 94.1213 5.87868C93.5587 5.31607 92.7956 5 92 5C91.2044 5 90.4413 5.31607 89.8787 5.87868C89.3161 6.44129 89 7.20435 89 8V10H91V8Z" fill="#6A6A6A"/>
<path d="M95.2 10H88.8C88.3582 10 88 10.4477 88 11V15C88 15.5523 88.3582 16 88.8 16H95.2C95.6418 16 96 15.5523 96 15V11C96 10.4477 95.6418 10 95.2 10Z" fill="#F7B352"/>
<path d="M88.8 10.5H95.2C95.2418 10.5 95.307 10.5199 95.3753 10.6052C95.4443 10.6915 95.5 10.8294 95.5 11V15C95.5 15.1706 95.4443 15.3085 95.3753 15.3948C95.307 15.4801 95.2418 15.5 95.2 15.5H88.8C88.7582 15.5 88.693 15.4801 88.6247 15.3948C88.5557 15.3085 88.5 15.1706 88.5 15V11C88.5 10.8294 88.5557 10.6915 88.6247 10.6052C88.693 10.5199 88.7582 10.5 88.8 10.5Z" stroke="black" stroke-opacity="0.3"/>
<circle cx="92" cy="14" r="1" fill="black"/>
<rect opacity="0.5" width="7" height="4" transform="matrix(1 0 0 -1 82 10)" fill="white"/>
<rect width="7" height="2" transform="matrix(1 0 0 -1 81 9)" fill="#F14F3A"/>
<g clip-path="url(#clip0_41_3010)">
<rect x="98" y="3" width="13" height="10" fill="#5C758F" fill-opacity="0.8"/>
<rect x="99" y="4" width="11" height="8" fill="#F4F4F4"/>
<rect x="101" y="5" width="7" height="1" fill="#9DA9B3"/>
<rect x="101" y="7" width="7" height="1" fill="#9DA9B3"/>
<rect x="101" y="9" width="7" height="1" fill="#9DA9B3"/>
<rect opacity="0.5" x="104" y="4" width="7" height="9" fill="white"/>
<path d="M107 8C107 7.73478 107.105 7.48043 107.293 7.29289C107.48 7.10536 107.735 7 108 7C108.265 7 108.52 7.10536 108.707 7.29289C108.895 7.48043 109 7.73478 109 8V10H111V8C111 7.20435 110.684 6.44129 110.121 5.87868C109.559 5.31607 108.796 5 108 5C107.204 5 106.441 5.31607 105.879 5.87868C105.316 6.44129 105 7.20435 105 8V10H107V8Z" fill="#6A6A6A"/>
<path d="M111.2 10H104.8C104.358 10 104 10.4477 104 11V15C104 15.5523 104.358 16 104.8 16H111.2C111.642 16 112 15.5523 112 15V11C112 10.4477 111.642 10 111.2 10Z" fill="#F7B352"/>
<path d="M104.8 10.5H111.2C111.242 10.5 111.307 10.5199 111.375 10.6052C111.444 10.6915 111.5 10.8294 111.5 11V15C111.5 15.1706 111.444 15.3085 111.375 15.3948C111.307 15.4801 111.242 15.5 111.2 15.5H104.8C104.758 15.5 104.693 15.4801 104.625 15.3948C104.556 15.3085 104.5 15.1706 104.5 15V11C104.5 10.8294 104.556 10.6915 104.625 10.6052C104.693 10.5199 104.758 10.5 104.8 10.5Z" stroke="black" stroke-opacity="0.3"/>
<circle cx="108" cy="14" r="1" fill="black"/>
<rect opacity="0.5" x="98" y="3" width="6" height="5" fill="white"/>
<path d="M102.439 0.838894L101.747 0.146894C101.7 0.100331 101.645 0.0633878 101.585 0.0381813C101.524 0.0129749 101.459 0 101.393 0C101.327 0 101.262 0.0129749 101.201 0.0381813C101.141 0.0633878 101.085 0.100331 101.039 0.146894L99.2929 1.89289L97.5469 0.146894C97.5004 0.100331 97.4453 0.0633878 97.3845 0.0381813C97.3238 0.0129749 97.2587 0 97.1929 0C97.1271 0 97.062 0.0129749 97.0013 0.0381813C96.9405 0.0633878 96.8853 0.100331 96.8389 0.146894L96.1469 0.838894C96.1003 0.88534 96.0634 0.940515 96.0382 1.00126C96.013 1.06201 96 1.12713 96 1.19289C96 1.25866 96.013 1.32378 96.0382 1.38453C96.0634 1.44527 96.1003 1.50045 96.1469 1.54689L97.8929 3.29289L96.1469 5.03889C96.1003 5.08534 96.0634 5.14051 96.0382 5.20126C96.013 5.26201 96 5.32713 96 5.39289C96 5.45866 96.013 5.52378 96.0382 5.58453C96.0634 5.64527 96.1003 5.70045 96.1469 5.74689L96.8389 6.43889C96.8853 6.48546 96.9405 6.5224 97.0013 6.54761C97.062 6.57281 97.1271 6.58579 97.1929 6.58579C97.2587 6.58579 97.3238 6.57281 97.3845 6.54761C97.4453 6.5224 97.5004 6.48546 97.5469 6.43889L99.2929 4.69289L101.039 6.43889C101.085 6.48546 101.141 6.5224 101.201 6.54761C101.262 6.57281 101.327 6.58579 101.393 6.58579C101.459 6.58579 101.524 6.57281 101.585 6.54761C101.645 6.5224 101.7 6.48546 101.747 6.43889L102.439 5.74689C102.485 5.70045 102.522 5.64527 102.548 5.58453C102.573 5.52378 102.586 5.45866 102.586 5.39289C102.586 5.32713 102.573 5.26201 102.548 5.20126C102.522 5.14051 102.485 5.08534 102.439 5.03889L100.693 3.29289L102.439 1.54689C102.485 1.50045 102.522 1.44527 102.548 1.38453C102.573 1.32378 102.586 1.25866 102.586 1.19289C102.586 1.12713 102.573 1.06201 102.548 1.00126C102.522 0.940515 102.485 0.88534 102.439 0.838894Z" fill="#FF3030"/>
</g>
<rect x="34" y="3" width="13" height="10" fill="#5C758F" fill-opacity="0.8"/>
<rect x="35" y="4" width="11" height="8" fill="#F4F4F4"/>
<rect x="37" y="5" width="7" height="1" fill="#9DA9B3"/>
<rect x="37" y="7" width="7" height="1" fill="#9DA9B3"/>
<rect x="37" y="9" width="7" height="1" fill="#9DA9B3"/>
<rect opacity="0.5" width="7" height="4" transform="matrix(1 0 0 -1 34 10)" fill="white"/>
<rect width="7" height="2" transform="matrix(1 0 0 -1 33 9)" fill="#F14F3A"/>
<rect x="50" y="3" width="13" height="10" fill="#5C758F" fill-opacity="0.8"/>
<rect x="51" y="4" width="11" height="8" fill="#F4F4F4"/>
<rect x="53" y="5" width="7" height="1" fill="#9DA9B3"/>
<rect x="53" y="7" width="7" height="1" fill="#9DA9B3"/>
<rect x="53" y="9" width="7" height="1" fill="#9DA9B3"/>
<rect opacity="0.5" x="50" y="3" width="6" height="5" fill="white"/>
<path d="M54.4389 0.838894L53.7469 0.146894C53.7004 0.100331 53.6453 0.0633878 53.5845 0.0381813C53.5238 0.0129749 53.4587 0 53.3929 0C53.3271 0 53.262 0.0129749 53.2013 0.0381813C53.1405 0.0633878 53.0853 0.100331 53.0389 0.146894L51.2929 1.89289L49.5469 0.146894C49.5004 0.100331 49.4453 0.0633878 49.3845 0.0381813C49.3238 0.0129749 49.2587 0 49.1929 0C49.1271 0 49.062 0.0129749 49.0013 0.0381813C48.9405 0.0633878 48.8853 0.100331 48.8389 0.146894L48.1469 0.838894C48.1003 0.88534 48.0634 0.940515 48.0382 1.00126C48.013 1.06201 48 1.12713 48 1.19289C48 1.25866 48.013 1.32378 48.0382 1.38453C48.0634 1.44527 48.1003 1.50045 48.1469 1.54689L49.8929 3.29289L48.1469 5.03889C48.1003 5.08534 48.0634 5.14051 48.0382 5.20126C48.013 5.26201 48 5.32713 48 5.39289C48 5.45866 48.013 5.52378 48.0382 5.58453C48.0634 5.64527 48.1003 5.70045 48.1469 5.74689L48.8389 6.43889C48.8853 6.48546 48.9405 6.5224 49.0013 6.54761C49.062 6.57281 49.1271 6.58579 49.1929 6.58579C49.2587 6.58579 49.3238 6.57281 49.3845 6.54761C49.4453 6.5224 49.5004 6.48546 49.5469 6.43889L51.2929 4.69289L53.0389 6.43889C53.0853 6.48546 53.1405 6.5224 53.2013 6.54761C53.262 6.57281 53.3271 6.58579 53.3929 6.58579C53.4587 6.58579 53.5238 6.57281 53.5845 6.54761C53.6453 6.5224 53.7004 6.48546 53.7469 6.43889L54.4389 5.74689C54.4855 5.70045 54.5224 5.64527 54.5476 5.58453C54.5728 5.52378 54.5858 5.45866 54.5858 5.39289C54.5858 5.32713 54.5728 5.26201 54.5476 5.20126C54.5224 5.14051 54.4855 5.08534 54.4389 5.03889L52.6929 3.29289L54.4389 1.54689C54.4855 1.50045 54.5224 1.44527 54.5476 1.38453C54.5728 1.32378 54.5858 1.25866 54.5858 1.19289C54.5858 1.12713 54.5728 1.06201 54.5476 1.00126C54.5224 0.940515 54.4855 0.88534 54.4389 0.838894Z" fill="#FF3030"/>
<defs>
<clipPath id="clip0_41_3010">
<rect width="16" height="16" fill="white" transform="translate(96)"/>
</clipPath>
</defs>
</svg>
