<svg width="65" height="81" viewBox="0 0 65 81" fill="none" xmlns="http://www.w3.org/2000/svg">
<rect x="0.5" y="0.5" width="64" height="80" fill="white"/>
<rect x="0.5" y="0.5" width="64" height="80" stroke="#DBDBE4"/>
<path d="M51.4259 56.8321L48.6571 59.6298C48.2918 59.9967 47.7976 60.2027 47.2825 60.2027C46.7673 60.2027 46.2731 59.9967 45.9078 59.6298L22.7437 36.2633C22.1096 36.4489 21.4539 36.5483 20.7938 36.5588C19.5524 36.5579 18.329 36.2576 17.2256 35.6828C16.1221 35.108 15.1704 34.2754 14.4495 33.2541C13.7287 32.2328 13.2595 31.0524 13.081 29.811C12.9025 28.5696 13.0199 27.3031 13.4234 26.1168L18.376 31.1211L19.4094 30.0769L22.1782 27.2792L23.2116 26.235L18.259 21.2307C19.4331 20.823 20.6865 20.7044 21.9151 20.8848C23.1436 21.0651 24.3118 21.5392 25.3226 22.2676C26.3333 22.996 27.1574 23.9576 27.7262 25.0726C28.2951 26.1876 28.5923 27.4236 28.5932 28.6781C28.5828 29.345 28.4844 30.0076 28.3007 30.6483L51.4259 54.0541C51.789 54.4233 51.9929 54.9226 51.9929 55.4431C51.9929 55.9636 51.789 56.463 51.4259 56.8321Z" fill="#DBDBE4"/>
<path d="M13.567 54.0541C13.2038 54.4233 13 54.9226 13 55.4431C13 55.9636 13.2038 56.463 13.567 56.8321L16.3358 59.6298C16.7011 59.9967 17.1953 60.2027 17.7104 60.2027C18.2255 60.2027 18.7197 59.9967 19.0851 59.6298L29.7507 48.8725L24.2327 43.2969M48.0988 20.7973L40.2994 24.7377V28.6781L36.0682 32.9534L39.9679 36.8938L44.1991 32.6185H48.0988L51.9985 24.7377L48.0988 20.7973Z" fill="#DBDBE4"/>
<path fill-rule="evenodd" clip-rule="evenodd" d="M47.8105 57.6369L24.8574 34.4464L26.3894 32.8984L49.3426 56.0888L47.8105 57.6369Z" fill="white"/>
<path fill-rule="evenodd" clip-rule="evenodd" d="M26.0892 48.3742L17.7742 56.7748L16.2422 55.2267L24.5572 46.8261L26.0892 48.3742Z" fill="white"/>
<path fill-rule="evenodd" clip-rule="evenodd" d="M48.4701 26.0459L40.155 34.4465L38.623 32.8984L46.9381 24.4978L48.4701 26.0459Z" fill="white"/>
</svg>
