<svg width="28" height="28" viewBox="0 0 28 28" fill="none" xmlns="http://www.w3.org/2000/svg">
<circle cx="14" cy="14" r="10" fill="white"/>
<circle cx="14" cy="14" r="10.5" stroke="black" stroke-opacity="0.3"/>
<path d="M15.6187 14.9375C15.3732 15.2295 15.0791 15.4644 14.7363 15.6421C14.3978 15.8198 14.0254 15.9087 13.6191 15.9087C13.0859 15.9087 12.6204 15.7775 12.2227 15.5151C11.8291 15.2528 11.5244 14.8846 11.3086 14.4106C11.0928 13.9325 10.9849 13.4056 10.9849 12.8301C10.9849 12.2122 11.1012 11.6558 11.334 11.1606C11.571 10.6655 11.9053 10.2868 12.3369 10.0244C12.7686 9.76204 13.2721 9.63086 13.8477 9.63086C14.7617 9.63086 15.4811 9.97363 16.0059 10.6592C16.5348 11.3405 16.7993 12.2715 16.7993 13.4521V13.7949C16.7993 15.5934 16.4438 16.9074 15.7329 17.7368C15.022 18.562 13.9492 18.9852 12.5146 19.0063H12.2861V18.0161H12.5337C13.5028 17.9992 14.2476 17.7474 14.7681 17.2607C15.2886 16.7699 15.5721 15.9954 15.6187 14.9375ZM13.8096 14.9375C14.2031 14.9375 14.5649 14.8169 14.895 14.5757C15.2293 14.3345 15.4727 14.0361 15.625 13.6807V13.2109C15.625 12.4408 15.4578 11.8145 15.1235 11.332C14.7892 10.8496 14.366 10.6084 13.854 10.6084C13.3377 10.6084 12.923 10.8073 12.6099 11.2051C12.2967 11.5986 12.1401 12.1191 12.1401 12.7666C12.1401 13.3971 12.2904 13.9176 12.5908 14.3281C12.8955 14.7344 13.3018 14.9375 13.8096 14.9375Z" fill="black"/>
</svg>
