<svg width="16" height="17" viewBox="0 0 16 17" fill="none" xmlns="http://www.w3.org/2000/svg">
<path fill-rule="evenodd" clip-rule="evenodd" d="M1.26015 5.65386C1.02816 5.65386 0.840101 5.83467 0.840101 6.0577V14.9423C0.840101 15.1654 1.02816 15.3462 1.26015 15.3462H14.7018C14.9338 15.3462 15.1218 15.1654 15.1218 14.9423V6.0577C15.1218 5.83467 14.9338 5.65386 14.7018 5.65386H1.26015ZM0 6.0577C0 5.38859 0.56419 4.84616 1.26015 4.84616H14.7018C15.3977 4.84616 15.9619 5.38859 15.9619 6.0577V14.9423C15.9619 15.6114 15.3977 16.1539 14.7018 16.1539H1.26015C0.564189 16.1539 0 15.6114 0 14.9423V6.0577Z" fill="black"/>
<path fill-rule="evenodd" clip-rule="evenodd" d="M6.98941 11.1701L0.509766 6.03982L1.17098 5.26789L7.65062 10.3982C7.84266 10.5503 8.1198 10.5503 8.31184 10.3982L14.7915 5.26789L15.4527 6.03982L8.97305 11.1701C8.39694 11.6263 7.56552 11.6263 6.98941 11.1701Z" fill="black"/>
<path d="M1.96176 4.84615L6.00022 4.84615L6.00022 -1.9091e-07L10.0387 0L10.0387 4.84615L14.0771 4.84617L8.01946 9.69231L1.96176 4.84615Z" fill="#3AA12A"/>
</svg>
