<svg width="16" height="16" viewBox="0 0 16 16" fill="none" xmlns="http://www.w3.org/2000/svg">
<path d="M0.5 10.5L5.5 15.5M5.5 10.5L0.5 15.5" stroke="#F51717" stroke-linecap="round"/>
<path d="M3 2H13C13.5523 2 14 2.44772 14 3V13C14 13.1025 13.9846 13.2015 13.9559 13.2946C13.9488 13.2788 13.9408 13.2633 13.9319 13.2481L10.0061 6.51807L7.08218 11.3912C7.02872 11.4803 7.00435 11.5838 7.01245 11.6874C7.05038 12.1728 7.68917 12.3232 7.93967 11.9057L9.99394 8.48193L13.0681 13.7519C13.1227 13.8454 13.2029 13.9147 13.2946 13.9559C13.2015 13.9846 13.1025 14 13 14H7.5C7.22386 14 7 14.2239 7 14.5C7 14.7761 7.22386 15 7.5 15H13C14.1046 15 15 14.1046 15 13V3C15 1.89543 14.1046 1 13 1H3C1.89543 1 1 1.89543 1 3V8.5C1 8.77614 1.22386 9 1.5 9C1.77614 9 2 8.77614 2 8.5V3C2 2.44772 2.44772 2 3 2Z" fill="#7B7B7B"/>
<path fill-rule="evenodd" clip-rule="evenodd" d="M5 7C6.10457 7 7 6.10457 7 5C7 3.89543 6.10457 3 5 3C3.89543 3 3 3.89543 3 5C3 6.10457 3.89543 7 5 7ZM5 6C5.55228 6 6 5.55228 6 5C6 4.44772 5.55228 4 5 4C4.44772 4 4 4.44772 4 5C4 5.55228 4.44772 6 5 6Z" fill="#7B7B7B"/>
</svg>
