<svg width="65" height="81" viewBox="0 0 65 81" fill="none" xmlns="http://www.w3.org/2000/svg">
<rect x="0.5" y="0.5" width="64" height="80" fill="white"/>
<rect x="0.5" y="0.5" width="64" height="80" stroke="#DBDBE4"/>
<path fill-rule="evenodd" clip-rule="evenodd" d="M32.5006 63.0487C44.8258 63.0487 54.8173 52.9533 54.8173 40.5C54.8173 28.0467 44.8258 17.9514 32.5006 17.9514C20.1755 17.9514 10.184 28.0467 10.184 40.5C10.184 52.9533 20.1755 63.0487 32.5006 63.0487ZM32.5006 65.6757C46.2617 65.6757 57.4173 54.4042 57.4173 40.5C57.4173 26.5959 46.2617 15.3243 32.5006 15.3243C18.7396 15.3243 7.58398 26.5959 7.58398 40.5C7.58398 54.4042 18.7396 65.6757 32.5006 65.6757Z" fill="#DBDBE4"/>
<path d="M17.1055 53.1114C17.1055 51.1717 18.6617 49.5992 20.5815 49.5992H44.9138C46.8336 49.5992 48.3899 51.1717 48.3899 53.1114V53.1114C48.3899 55.0511 46.8336 56.6236 44.9138 56.6236H20.5815C18.6617 56.6236 17.1055 55.0511 17.1055 53.1114V53.1114Z" fill="#DBDBE4"/>
<path d="M42.0962 52.7497V53.5076C42.0962 53.8707 42.0605 54.1807 41.989 54.4376C41.9197 54.6924 41.8188 54.8994 41.6864 55.0587C41.554 55.2179 41.3954 55.3347 41.2105 55.409C41.0276 55.4833 40.8227 55.5205 40.5958 55.5205C40.4151 55.5205 40.247 55.4971 40.0915 55.4504C39.9381 55.4037 39.7994 55.3305 39.6754 55.2307C39.5514 55.1309 39.4453 55.0024 39.357 54.8453C39.2709 54.6861 39.2036 54.496 39.1553 54.2752C39.1091 54.0544 39.0859 53.7985 39.0859 53.5076V52.7497C39.0859 52.3845 39.1217 52.0766 39.1931 51.826C39.2646 51.5734 39.3665 51.3685 39.4989 51.2114C39.6313 51.0521 39.7889 50.9364 39.9717 50.8642C40.1566 50.792 40.3625 50.7559 40.5895 50.7559C40.7723 50.7559 40.9404 50.7793 41.0938 50.826C41.2493 50.8706 41.388 50.9417 41.5099 51.0394C41.6339 51.137 41.739 51.2644 41.8251 51.4216C41.9134 51.5766 41.9806 51.7645 42.0269 51.9853C42.0731 52.204 42.0962 52.4588 42.0962 52.7497ZM41.3365 53.6159V52.635C41.3365 52.4503 41.326 52.2878 41.305 52.1477C41.284 52.0055 41.2525 51.8855 41.2105 51.7878C41.1705 51.688 41.1201 51.6073 41.0592 51.5458C40.9982 51.4821 40.9289 51.4364 40.8511 51.4088C40.7734 51.3791 40.6862 51.3642 40.5895 51.3642C40.4718 51.3642 40.3667 51.3876 40.2743 51.4343C40.1818 51.4789 40.1041 51.5511 40.041 51.6509C39.978 51.7507 39.9297 51.8823 39.896 52.0458C39.8645 52.2072 39.8487 52.4036 39.8487 52.635V53.6159C39.8487 53.8028 39.8593 53.9673 39.8803 54.1096C39.9013 54.2518 39.9328 54.3739 39.9748 54.4759C40.0169 54.5756 40.0673 54.6584 40.1261 54.7243C40.1871 54.788 40.2564 54.8347 40.3342 54.8644C40.414 54.8941 40.5012 54.909 40.5958 54.909C40.7156 54.909 40.8217 54.8856 40.9142 54.8389C41.0066 54.7922 41.0844 54.7179 41.1474 54.616C41.2105 54.5119 41.2577 54.3771 41.2893 54.2115C41.3208 54.0459 41.3365 53.8474 41.3365 53.6159Z" fill="white"/>
<path d="M38.2974 52.7497V53.5076C38.2974 53.8707 38.2616 54.1807 38.1902 54.4376C38.1209 54.6924 38.02 54.8994 37.8876 55.0587C37.7552 55.2179 37.5966 55.3347 37.4116 55.409C37.2288 55.4833 37.0239 55.5205 36.797 55.5205C36.6162 55.5205 36.4481 55.4971 36.2926 55.4504C36.1392 55.4037 36.0005 55.3305 35.8766 55.2307C35.7526 55.1309 35.6464 55.0024 35.5582 54.8453C35.472 54.6861 35.4048 54.496 35.3565 54.2752C35.3102 54.0544 35.2871 53.7985 35.2871 53.5076V52.7497C35.2871 52.3845 35.3228 52.0766 35.3943 51.826C35.4657 51.5734 35.5676 51.3685 35.7 51.2114C35.8324 51.0521 35.99 50.9364 36.1729 50.8642C36.3578 50.792 36.5637 50.7559 36.7907 50.7559C36.9735 50.7559 37.1416 50.7793 37.295 50.826C37.4505 50.8706 37.5892 50.9417 37.7111 51.0394C37.8351 51.137 37.9401 51.2644 38.0263 51.4216C38.1145 51.5766 38.1818 51.7645 38.228 51.9853C38.2743 52.204 38.2974 52.4588 38.2974 52.7497ZM37.5377 53.6159V52.635C37.5377 52.4503 37.5272 52.2878 37.5062 52.1477C37.4852 52.0055 37.4537 51.8855 37.4116 51.7878C37.3717 51.688 37.3213 51.6073 37.2603 51.5458C37.1994 51.4821 37.13 51.4364 37.0523 51.4088C36.9745 51.3791 36.8873 51.3642 36.7907 51.3642C36.673 51.3642 36.5679 51.3876 36.4755 51.4343C36.383 51.4789 36.3052 51.5511 36.2422 51.6509C36.1792 51.7507 36.1308 51.8823 36.0972 52.0458C36.0657 52.2072 36.0499 52.4036 36.0499 52.635V53.6159C36.0499 53.8028 36.0604 53.9673 36.0814 54.1096C36.1025 54.2518 36.134 54.3739 36.176 54.4759C36.218 54.5756 36.2685 54.6584 36.3273 54.7243C36.3882 54.788 36.4576 54.8347 36.5353 54.8644C36.6152 54.8941 36.7024 54.909 36.797 54.909C36.9167 54.909 37.0229 54.8856 37.1153 54.8389C37.2078 54.7922 37.2855 54.7179 37.3486 54.616C37.4116 54.5119 37.4589 54.3771 37.4904 54.2115C37.522 54.0459 37.5377 53.8474 37.5377 53.6159Z" fill="white"/>
<path d="M34.5005 52.7497V53.5076C34.5005 53.8707 34.4648 54.1807 34.3933 54.4376C34.324 54.6924 34.2231 54.8994 34.0907 55.0587C33.9583 55.2179 33.7997 55.3347 33.6148 55.409C33.4319 55.4833 33.227 55.5205 33.0001 55.5205C32.8194 55.5205 32.6513 55.4971 32.4958 55.4504C32.3424 55.4037 32.2037 55.3305 32.0797 55.2307C31.9557 55.1309 31.8496 55.0024 31.7613 54.8453C31.6752 54.6861 31.6079 54.496 31.5596 54.2752C31.5133 54.0544 31.4902 53.7985 31.4902 53.5076V52.7497C31.4902 52.3845 31.526 52.0766 31.5974 51.826C31.6689 51.5734 31.7708 51.3685 31.9032 51.2114C32.0355 51.0521 32.1932 50.9364 32.376 50.8642C32.5609 50.792 32.7668 50.7559 32.9938 50.7559C33.1766 50.7559 33.3447 50.7793 33.4981 50.826C33.6536 50.8706 33.7923 50.9417 33.9142 51.0394C34.0382 51.137 34.1433 51.2644 34.2294 51.4216C34.3177 51.5766 34.3849 51.7645 34.4311 51.9853C34.4774 52.204 34.5005 52.4588 34.5005 52.7497ZM33.7408 53.6159V52.635C33.7408 52.4503 33.7303 52.2878 33.7093 52.1477C33.6883 52.0055 33.6568 51.8855 33.6148 51.7878C33.5748 51.688 33.5244 51.6073 33.4635 51.5458C33.4025 51.4821 33.3332 51.4364 33.2554 51.4088C33.1777 51.3791 33.0905 51.3642 32.9938 51.3642C32.8761 51.3642 32.771 51.3876 32.6786 51.4343C32.5861 51.4789 32.5084 51.5511 32.4453 51.6509C32.3823 51.7507 32.3339 51.8823 32.3003 52.0458C32.2688 52.2072 32.253 52.4036 32.253 52.635V53.6159C32.253 53.8028 32.2636 53.9673 32.2846 54.1096C32.3056 54.2518 32.3371 54.3739 32.3791 54.4759C32.4212 54.5756 32.4716 54.6584 32.5304 54.7243C32.5914 54.788 32.6607 54.8347 32.7385 54.8644C32.8183 54.8941 32.9055 54.909 33.0001 54.909C33.1199 54.909 33.226 54.8856 33.3185 54.8389C33.4109 54.7922 33.4887 54.7179 33.5517 54.616C33.6148 54.5119 33.662 54.3771 33.6936 54.2115C33.7251 54.0459 33.7408 53.8474 33.7408 53.6159Z" fill="white"/>
<path d="M30.7017 52.7497V53.5076C30.7017 53.8707 30.6659 54.1807 30.5945 54.4376C30.5251 54.6924 30.4243 54.8994 30.2919 55.0587C30.1595 55.2179 30.0008 55.3347 29.8159 55.409C29.6331 55.4833 29.4282 55.5205 29.2013 55.5205C29.0205 55.5205 28.8524 55.4971 28.6969 55.4504C28.5435 55.4037 28.4048 55.3305 28.2808 55.2307C28.1569 55.1309 28.0507 55.0024 27.9625 54.8453C27.8763 54.6861 27.8091 54.496 27.7608 54.2752C27.7145 54.0544 27.6914 53.7985 27.6914 53.5076V52.7497C27.6914 52.3845 27.7271 52.0766 27.7986 51.826C27.87 51.5734 27.9719 51.3685 28.1043 51.2114C28.2367 51.0521 28.3943 50.9364 28.5771 50.8642C28.7621 50.792 28.968 50.7559 29.195 50.7559C29.3778 50.7559 29.5459 50.7793 29.6993 50.826C29.8548 50.8706 29.9935 50.9417 30.1154 51.0394C30.2394 51.137 30.3444 51.2644 30.4306 51.4216C30.5188 51.5766 30.5861 51.7645 30.6323 51.9853C30.6786 52.204 30.7017 52.4588 30.7017 52.7497ZM29.942 53.6159V52.635C29.942 52.4503 29.9315 52.2878 29.9105 52.1477C29.8895 52.0055 29.858 51.8855 29.8159 51.7878C29.776 51.688 29.7256 51.6073 29.6646 51.5458C29.6037 51.4821 29.5343 51.4364 29.4566 51.4088C29.3788 51.3791 29.2916 51.3642 29.195 51.3642C29.0773 51.3642 28.9722 51.3876 28.8798 51.4343C28.7873 51.4789 28.7095 51.5511 28.6465 51.6509C28.5835 51.7507 28.5351 51.8823 28.5015 52.0458C28.47 52.2072 28.4542 52.4036 28.4542 52.635V53.6159C28.4542 53.8028 28.4647 53.9673 28.4857 54.1096C28.5068 54.2518 28.5383 54.3739 28.5803 54.4759C28.6223 54.5756 28.6728 54.6584 28.7316 54.7243C28.7925 54.788 28.8619 54.8347 28.9396 54.8644C29.0195 54.8941 29.1067 54.909 29.2013 54.909C29.321 54.909 29.4272 54.8856 29.5196 54.8389C29.6121 54.7922 29.6898 54.7179 29.7529 54.616C29.8159 54.5119 29.8632 54.3771 29.8947 54.2115C29.9262 54.0459 29.942 53.8474 29.942 53.6159Z" fill="white"/>
<path d="M26.9028 52.7497V53.5077C26.9028 53.8708 26.8671 54.1808 26.7957 54.4377C26.7263 54.6925 26.6255 54.8995 26.4931 55.0587C26.3607 55.218 26.202 55.3348 26.0171 55.4091C25.8343 55.4834 25.6294 55.5205 25.4024 55.5205C25.2217 55.5205 25.0536 55.4972 24.8981 55.4505C24.7447 55.4038 24.606 55.3305 24.482 55.2307C24.358 55.1309 24.2519 55.0025 24.1637 54.8454C24.0775 54.6861 24.0103 54.4961 23.9619 54.2753C23.9157 54.0544 23.8926 53.7986 23.8926 53.5077V52.7497C23.8926 52.3845 23.9283 52.0766 23.9997 51.8261C24.0712 51.5734 24.1731 51.3685 24.3055 51.2114C24.4379 51.0522 24.5955 50.9365 24.7783 50.8643C24.9632 50.7921 25.1692 50.756 25.3961 50.756C25.579 50.756 25.7471 50.7793 25.9005 50.826C26.056 50.8706 26.1947 50.9418 26.3165 51.0394C26.4405 51.1371 26.5456 51.2645 26.6318 51.4216C26.72 51.5766 26.7873 51.7645 26.8335 51.9853C26.8797 52.204 26.9028 52.4588 26.9028 52.7497ZM26.1432 53.616V52.6351C26.1432 52.4503 26.1327 52.2879 26.1117 52.1478C26.0906 52.0055 26.0591 51.8855 26.0171 51.7879C25.9772 51.6881 25.9267 51.6074 25.8658 51.5458C25.8049 51.4821 25.7355 51.4365 25.6578 51.4089C25.58 51.3792 25.4928 51.3643 25.3961 51.3643C25.2785 51.3643 25.1734 51.3876 25.0809 51.4344C24.9885 51.4789 24.9107 51.5511 24.8477 51.6509C24.7846 51.7507 24.7363 51.8824 24.7027 52.0459C24.6711 52.2072 24.6554 52.4036 24.6554 52.6351V53.616C24.6554 53.8028 24.6659 53.9674 24.6869 54.1097C24.7079 54.2519 24.7394 54.374 24.7815 54.4759C24.8235 54.5757 24.8739 54.6585 24.9328 54.7243C24.9937 54.788 25.0631 54.8347 25.1408 54.8645C25.2207 54.8942 25.3079 54.9091 25.4024 54.9091C25.5222 54.9091 25.6283 54.8857 25.7208 54.839C25.8133 54.7923 25.891 54.718 25.9541 54.616C26.0171 54.512 26.0644 54.3772 26.0959 54.2116C26.1274 54.046 26.1432 53.8474 26.1432 53.616Z" fill="white"/>
<path d="M19.0508 44.8853L19.8987 46.8999L13.917 49.47L13.0692 47.4554L19.0508 44.8853Z" fill="#DBDBE4"/>
<rect x="18.416" y="39.4054" width="2.18919" height="6.5" transform="rotate(90 18.416 39.4054)" fill="#DBDBE4"/>
<path d="M20.0332 33.9371L19.2382 35.9736L13.1916 33.5637L13.9866 31.5272L20.0332 33.9371Z" fill="#DBDBE4"/>
<path d="M23.4492 29.8505L21.9172 31.3985L17.321 26.7545L18.853 25.2066L23.4492 29.8505Z" fill="#DBDBE4"/>
<path d="M28.2168 27.3279L26.2105 28.1545L23.7563 22.073L25.7626 21.2465L28.2168 27.3279Z" fill="#DBDBE4"/>
<path d="M45.9492 44.8853L45.1013 46.8999L51.083 49.47L51.9308 47.4554L45.9492 44.8853Z" fill="#DBDBE4"/>
<path d="M46.584 39.4054L46.584 41.5946L53.084 41.5946L53.084 39.4054L46.584 39.4054Z" fill="#DBDBE4"/>
<path d="M44.9668 33.9371L45.7618 35.9736L51.8084 33.5637L51.0134 31.5272L44.9668 33.9371Z" fill="#DBDBE4"/>
<path d="M41.5508 29.8505L43.0828 31.3985L47.679 26.7545L46.147 25.2066L41.5508 29.8505Z" fill="#DBDBE4"/>
<path d="M36.7832 27.3279L38.7895 28.1545L41.2437 22.073L39.2374 21.2465L36.7832 27.3279Z" fill="#DBDBE4"/>
<path d="M33.584 26.9131L31.4173 26.9131L31.4173 20.3455L33.584 20.3455L33.584 26.9131Z" fill="#DBDBE4"/>
<path d="M23.4531 28.6273C23.4531 34.068 19.0879 38.4786 13.7031 38.4786C8.31835 38.4786 3.95312 34.068 3.95312 28.6273C3.95312 23.1865 8.31835 18.7759 13.7031 18.7759C19.0879 18.7759 23.4531 23.1865 23.4531 28.6273Z" fill="white"/>
<path d="M7.85313 29.6124V27.6422H15.6531L12.2406 24.1942L13.6251 22.7953L19.3971 28.6273L13.6251 34.4593L12.2406 33.0604L15.6531 29.6124H7.85313ZM23.4531 28.6273C23.4531 31.24 22.4259 33.7458 20.5974 35.5932C18.7689 37.4407 16.289 38.4786 13.7031 38.4786C12.4227 38.4786 11.1549 38.2238 9.97196 37.7288C8.78904 37.2337 7.71421 36.508 6.80883 35.5932C4.98035 33.7458 3.95313 31.24 3.95312 28.6273C3.95313 26.0146 4.98035 23.5088 6.80883 21.6613C8.63731 19.8138 11.1173 18.7759 13.7031 18.7759C14.9835 18.7759 16.2514 19.0308 17.4343 19.5258C18.6172 20.0209 19.692 20.7466 20.5974 21.6613C21.5028 22.5761 22.221 23.6621 22.711 24.8573C23.2009 26.0526 23.4531 27.3336 23.4531 28.6273ZM21.5031 28.6273C21.5031 26.5371 20.6813 24.5325 19.2186 23.0545C17.7558 21.5765 15.7718 20.7462 13.7031 20.7462C11.6344 20.7462 9.65048 21.5765 8.18769 23.0545C6.72491 24.5325 5.90313 26.5371 5.90313 28.6273C5.90313 30.7175 6.72491 32.7221 8.18769 34.2001C9.65048 35.678 11.6344 36.5084 13.7031 36.5084C15.7718 36.5084 17.7558 35.678 19.2186 34.2001C20.6813 32.7221 21.5031 30.7175 21.5031 28.6273Z" fill="#DBDBE4"/>
<path d="M19.7102 46.0199L30.064 39.2683L31.5186 42.4599L19.7102 46.0199Z" fill="#DBDBE4"/>
<path d="M35.2582 40.0875C35.2582 41.6255 34.0243 42.8722 32.5022 42.8722C30.98 42.8722 29.7461 41.6255 29.7461 40.0875C29.7461 38.5496 30.98 37.3028 32.5022 37.3028C34.0243 37.3028 35.2582 38.5496 35.2582 40.0875Z" fill="#DBDBE4"/>
</svg>
