<svg width="28" height="28" viewBox="0 0 28 28" fill="none" xmlns="http://www.w3.org/2000/svg">
<circle cx="14" cy="14" r="10" fill="white"/>
<circle cx="14" cy="14" r="10.5" stroke="black" stroke-opacity="0.3"/>
<path d="M15.7266 9.75146V10.748H15.5107C14.5967 10.765 13.8688 11.0358 13.3271 11.5605C12.7855 12.0853 12.4723 12.8237 12.3877 13.7759C12.8743 13.2173 13.5387 12.938 14.3809 12.938C15.1849 12.938 15.826 13.2215 16.3042 13.7886C16.7866 14.3556 17.0278 15.0877 17.0278 15.9849C17.0278 16.937 16.7676 17.6987 16.2471 18.27C15.7308 18.8413 15.0368 19.127 14.165 19.127C13.2806 19.127 12.5633 18.7884 12.0132 18.1113C11.4631 17.43 11.188 16.554 11.188 15.4834V15.0327C11.188 13.3315 11.5498 12.0324 12.2734 11.1353C13.0013 10.2339 14.0825 9.77262 15.5171 9.75146H15.7266ZM14.1841 13.9155C13.7821 13.9155 13.4118 14.0361 13.0732 14.2773C12.7347 14.5186 12.4998 14.8211 12.3687 15.1851V15.6167C12.3687 16.3784 12.54 16.992 12.8828 17.4575C13.2256 17.923 13.653 18.1558 14.165 18.1558C14.694 18.1558 15.1087 17.9611 15.4092 17.5718C15.7139 17.1825 15.8662 16.6725 15.8662 16.042C15.8662 15.4072 15.7118 14.8952 15.4028 14.5059C15.0981 14.1123 14.6919 13.9155 14.1841 13.9155Z" fill="black"/>
</svg>
