<svg width="355" height="89" viewBox="0 0 355 89" fill="none" xmlns="http://www.w3.org/2000/svg">
<path d="M88.6719 26.375V27.9297H82.6328V26.375H88.6719ZM83.1172 21.625V33H81.1562V21.625H83.1172ZM90.1797 21.625V33H88.2266V21.625H90.1797ZM97.0938 31.3047V27.2734C97.0938 26.9714 97.0391 26.7109 96.9297 26.4922C96.8203 26.2734 96.6536 26.1042 96.4297 25.9844C96.2109 25.8646 95.9349 25.8047 95.6016 25.8047C95.2943 25.8047 95.0286 25.8568 94.8047 25.9609C94.5807 26.0651 94.4062 26.2057 94.2812 26.3828C94.1562 26.5599 94.0938 26.7604 94.0938 26.9844H92.2188C92.2188 26.651 92.2995 26.3281 92.4609 26.0156C92.6224 25.7031 92.8568 25.4245 93.1641 25.1797C93.4714 24.9349 93.8385 24.7422 94.2656 24.6016C94.6927 24.4609 95.1719 24.3906 95.7031 24.3906C96.3385 24.3906 96.901 24.4974 97.3906 24.7109C97.8854 24.9245 98.2734 25.2474 98.5547 25.6797C98.8411 26.1068 98.9844 26.6432 98.9844 27.2891V31.0469C98.9844 31.4323 99.0104 31.7786 99.0625 32.0859C99.1198 32.388 99.2005 32.651 99.3047 32.875V33H97.375C97.2865 32.7969 97.2161 32.5391 97.1641 32.2266C97.1172 31.9089 97.0938 31.6016 97.0938 31.3047ZM97.3672 27.8594L97.3828 29.0234H96.0312C95.6823 29.0234 95.375 29.0573 95.1094 29.125C94.8438 29.1875 94.6224 29.2812 94.4453 29.4062C94.2682 29.5312 94.1354 29.6823 94.0469 29.8594C93.9583 30.0365 93.9141 30.237 93.9141 30.4609C93.9141 30.6849 93.9661 30.8906 94.0703 31.0781C94.1745 31.2604 94.3255 31.4036 94.5234 31.5078C94.7266 31.612 94.9714 31.6641 95.2578 31.6641C95.6432 31.6641 95.9792 31.5859 96.2656 31.4297C96.5573 31.2682 96.7865 31.0729 96.9531 30.8438C97.1198 30.6094 97.2083 30.388 97.2188 30.1797L97.8281 31.0156C97.7656 31.2292 97.6589 31.4583 97.5078 31.7031C97.3568 31.9479 97.1589 32.1823 96.9141 32.4062C96.6745 32.625 96.3854 32.8047 96.0469 32.9453C95.7135 33.0859 95.3281 33.1562 94.8906 33.1562C94.3385 33.1562 93.8464 33.0469 93.4141 32.8281C92.9818 32.6042 92.6432 32.3047 92.3984 31.9297C92.1536 31.5495 92.0312 31.1198 92.0312 30.6406C92.0312 30.1927 92.1146 29.7969 92.2812 29.4531C92.4531 29.1042 92.7031 28.8125 93.0312 28.5781C93.3646 28.3438 93.7708 28.1667 94.25 28.0469C94.7292 27.9219 95.276 27.8594 95.8906 27.8594H97.3672ZM108.859 24.5469V33H106.969V24.5469H108.859ZM111.633 24.5469V26.0312H104.242V24.5469H111.633ZM112.234 28.8672V28.6875C112.234 28.0781 112.323 27.513 112.5 26.9922C112.677 26.4661 112.932 26.0104 113.266 25.625C113.604 25.2344 114.016 24.9323 114.5 24.7188C114.99 24.5 115.542 24.3906 116.156 24.3906C116.776 24.3906 117.328 24.5 117.812 24.7188C118.302 24.9323 118.716 25.2344 119.055 25.625C119.393 26.0104 119.651 26.4661 119.828 26.9922C120.005 27.513 120.094 28.0781 120.094 28.6875V28.8672C120.094 29.4766 120.005 30.0417 119.828 30.5625C119.651 31.0833 119.393 31.5391 119.055 31.9297C118.716 32.3151 118.305 32.6172 117.82 32.8359C117.336 33.0495 116.786 33.1562 116.172 33.1562C115.552 33.1562 114.997 33.0495 114.508 32.8359C114.023 32.6172 113.612 32.3151 113.273 31.9297C112.935 31.5391 112.677 31.0833 112.5 30.5625C112.323 30.0417 112.234 29.4766 112.234 28.8672ZM114.117 28.6875V28.8672C114.117 29.2474 114.156 29.6068 114.234 29.9453C114.312 30.2839 114.435 30.5807 114.602 30.8359C114.768 31.0911 114.982 31.2917 115.242 31.4375C115.503 31.5833 115.812 31.6562 116.172 31.6562C116.521 31.6562 116.823 31.5833 117.078 31.4375C117.339 31.2917 117.552 31.0911 117.719 30.8359C117.885 30.5807 118.008 30.2839 118.086 29.9453C118.169 29.6068 118.211 29.2474 118.211 28.8672V28.6875C118.211 28.3125 118.169 27.9583 118.086 27.625C118.008 27.2865 117.883 26.987 117.711 26.7266C117.544 26.4661 117.331 26.263 117.07 26.1172C116.815 25.9661 116.51 25.8906 116.156 25.8906C115.802 25.8906 115.495 25.9661 115.234 26.1172C114.979 26.263 114.768 26.4661 114.602 26.7266C114.435 26.987 114.312 27.2865 114.234 27.625C114.156 27.9583 114.117 28.3125 114.117 28.6875ZM123.703 24.5469V33H121.82V24.5469H123.703ZM129.219 24.5469L125.414 29.6328H123.266L123.016 27.9297H124.586L126.867 24.5469H129.219ZM127.016 33L124.469 29.3125L125.953 28.2422L129.492 33H127.016ZM134.117 33.1562C133.492 33.1562 132.927 33.0547 132.422 32.8516C131.922 32.6432 131.495 32.3542 131.141 31.9844C130.792 31.6146 130.523 31.1797 130.336 30.6797C130.148 30.1797 130.055 29.6406 130.055 29.0625V28.75C130.055 28.0885 130.151 27.4896 130.344 26.9531C130.536 26.4167 130.805 25.9583 131.148 25.5781C131.492 25.1927 131.898 24.8984 132.367 24.6953C132.836 24.4922 133.344 24.3906 133.891 24.3906C134.495 24.3906 135.023 24.4922 135.477 24.6953C135.93 24.8984 136.305 25.1849 136.602 25.5547C136.904 25.9193 137.128 26.3542 137.273 26.8594C137.424 27.3646 137.5 27.9219 137.5 28.5312V29.3359H130.969V27.9844H135.641V27.8359C135.63 27.4974 135.562 27.1797 135.438 26.8828C135.318 26.5859 135.133 26.3464 134.883 26.1641C134.633 25.9818 134.299 25.8906 133.883 25.8906C133.57 25.8906 133.292 25.9583 133.047 26.0938C132.807 26.224 132.607 26.4141 132.445 26.6641C132.284 26.9141 132.159 27.2161 132.07 27.5703C131.987 27.9193 131.945 28.3125 131.945 28.75V29.0625C131.945 29.4323 131.995 29.776 132.094 30.0938C132.198 30.4062 132.349 30.6797 132.547 30.9141C132.745 31.1484 132.984 31.3333 133.266 31.4688C133.547 31.599 133.867 31.6641 134.227 31.6641C134.68 31.6641 135.083 31.5729 135.438 31.3906C135.792 31.2083 136.099 30.9505 136.359 30.6172L137.352 31.5781C137.169 31.8438 136.932 32.099 136.641 32.3438C136.349 32.5833 135.992 32.7786 135.57 32.9297C135.154 33.0807 134.669 33.1562 134.117 33.1562ZM144.742 28.0781V29.5625H140.367V28.0781H144.742ZM140.914 24.5469V33H139.031V24.5469H140.914ZM146.102 24.5469V33H144.219V24.5469H146.102ZM151.836 33.1562C151.211 33.1562 150.646 33.0547 150.141 32.8516C149.641 32.6432 149.214 32.3542 148.859 31.9844C148.51 31.6146 148.242 31.1797 148.055 30.6797C147.867 30.1797 147.773 29.6406 147.773 29.0625V28.75C147.773 28.0885 147.87 27.4896 148.062 26.9531C148.255 26.4167 148.523 25.9583 148.867 25.5781C149.211 25.1927 149.617 24.8984 150.086 24.6953C150.555 24.4922 151.062 24.3906 151.609 24.3906C152.214 24.3906 152.742 24.4922 153.195 24.6953C153.648 24.8984 154.023 25.1849 154.32 25.5547C154.622 25.9193 154.846 26.3542 154.992 26.8594C155.143 27.3646 155.219 27.9219 155.219 28.5312V29.3359H148.688V27.9844H153.359V27.8359C153.349 27.4974 153.281 27.1797 153.156 26.8828C153.036 26.5859 152.852 26.3464 152.602 26.1641C152.352 25.9818 152.018 25.8906 151.602 25.8906C151.289 25.8906 151.01 25.9583 150.766 26.0938C150.526 26.224 150.326 26.4141 150.164 26.6641C150.003 26.9141 149.878 27.2161 149.789 27.5703C149.706 27.9193 149.664 28.3125 149.664 28.75V29.0625C149.664 29.4323 149.714 29.776 149.812 30.0938C149.917 30.4062 150.068 30.6797 150.266 30.9141C150.464 31.1484 150.703 31.3333 150.984 31.4688C151.266 31.599 151.586 31.6641 151.945 31.6641C152.398 31.6641 152.802 31.5729 153.156 31.3906C153.51 31.2083 153.818 30.9505 154.078 30.6172L155.07 31.5781C154.888 31.8438 154.651 32.099 154.359 32.3438C154.068 32.5833 153.711 32.7786 153.289 32.9297C152.872 33.0807 152.388 33.1562 151.836 33.1562ZM162.617 30.25L165.938 24.5469H167.82V33H165.938V27.2891L162.617 33H160.734V24.5469H162.617V30.25ZM175.492 24.5469V26.0469H171.367V24.5469H175.492ZM176.969 24.5469V33H175.086V24.5469H176.969ZM170.906 24.5469H172.766L172.539 28.7266C172.508 29.3464 172.445 29.8932 172.352 30.3672C172.263 30.8359 172.143 31.2396 171.992 31.5781C171.841 31.9115 171.656 32.1823 171.438 32.3906C171.219 32.599 170.964 32.7526 170.672 32.8516C170.38 32.9505 170.052 33 169.688 33H169.102L169.094 31.4531L169.391 31.4297C169.583 31.4141 169.75 31.3646 169.891 31.2812C170.031 31.1927 170.151 31.0677 170.25 30.9062C170.354 30.7448 170.438 30.5365 170.5 30.2812C170.568 30.026 170.62 29.724 170.656 29.375C170.698 29.026 170.729 28.6198 170.75 28.1562L170.906 24.5469ZM180.914 30.25L184.234 24.5469H186.117V33H184.234V27.2891L180.914 33H179.031V24.5469H180.914V30.25ZM202.133 28.875V29.0391C202.133 29.638 202.065 30.1901 201.93 30.6953C201.799 31.1953 201.604 31.6302 201.344 32C201.083 32.3698 200.76 32.6562 200.375 32.8594C199.995 33.0625 199.552 33.1641 199.047 33.1641C198.604 33.1641 198.219 33.0885 197.891 32.9375C197.562 32.7865 197.286 32.5755 197.062 32.3047C196.839 32.0286 196.659 31.7057 196.523 31.3359C196.388 30.9609 196.289 30.5495 196.227 30.1016V27.6562C196.289 27.1771 196.385 26.7396 196.516 26.3438C196.651 25.9427 196.831 25.5964 197.055 25.3047C197.284 25.013 197.56 24.7891 197.883 24.6328C198.206 24.4714 198.589 24.3906 199.031 24.3906C199.438 24.3906 199.805 24.4635 200.133 24.6094C200.461 24.75 200.75 24.9531 201 25.2188C201.25 25.4792 201.458 25.7943 201.625 26.1641C201.792 26.5286 201.917 26.9401 202 27.3984C202.089 27.8568 202.133 28.349 202.133 28.875ZM200.25 29.0391V28.875C200.25 28.5469 200.229 28.2344 200.188 27.9375C200.146 27.6406 200.081 27.3698 199.992 27.125C199.909 26.875 199.799 26.6589 199.664 26.4766C199.529 26.2891 199.365 26.1458 199.172 26.0469C198.984 25.9427 198.766 25.8906 198.516 25.8906C198.177 25.8906 197.896 25.9479 197.672 26.0625C197.453 26.1719 197.286 26.3281 197.172 26.5312C197.062 26.7292 196.992 26.9583 196.961 27.2188V30.5469C196.997 30.7656 197.073 30.9583 197.188 31.125C197.307 31.2917 197.477 31.4245 197.695 31.5234C197.914 31.6172 198.193 31.6641 198.531 31.6641C198.844 31.6641 199.107 31.599 199.32 31.4688C199.539 31.3333 199.716 31.1458 199.852 30.9062C199.992 30.6667 200.094 30.388 200.156 30.0703C200.219 29.7526 200.25 29.4089 200.25 29.0391ZM191.773 29.0391V28.875C191.773 28.349 191.815 27.8568 191.898 27.3984C191.982 26.9401 192.107 26.5286 192.273 26.1641C192.445 25.7943 192.656 25.4792 192.906 25.2188C193.156 24.9531 193.445 24.75 193.773 24.6094C194.102 24.4635 194.469 24.3906 194.875 24.3906C195.312 24.3906 195.69 24.4714 196.008 24.6328C196.326 24.7891 196.594 25.013 196.812 25.3047C197.036 25.5964 197.214 25.9427 197.344 26.3438C197.479 26.7396 197.578 27.1771 197.641 27.6562V30.0078C197.583 30.4661 197.487 30.888 197.352 31.2734C197.216 31.6589 197.039 31.9922 196.82 32.2734C196.602 32.5547 196.331 32.7734 196.008 32.9297C195.685 33.0859 195.302 33.1641 194.859 33.1641C194.359 33.1641 193.917 33.0625 193.531 32.8594C193.146 32.6562 192.823 32.3698 192.562 32C192.302 31.6302 192.104 31.1953 191.969 30.6953C191.839 30.1901 191.773 29.638 191.773 29.0391ZM193.656 28.875V29.0391C193.656 29.4089 193.685 29.7526 193.742 30.0703C193.805 30.388 193.901 30.6667 194.031 30.9062C194.161 31.1406 194.333 31.3255 194.547 31.4609C194.76 31.5964 195.023 31.6641 195.336 31.6641C195.68 31.6641 195.961 31.612 196.18 31.5078C196.398 31.4036 196.565 31.2604 196.68 31.0781C196.799 30.8958 196.878 30.6875 196.914 30.4531V27.2188C196.883 26.9583 196.81 26.7292 196.695 26.5312C196.581 26.3281 196.414 26.1719 196.195 26.0625C195.977 25.9479 195.695 25.8906 195.352 25.8906C195.039 25.8906 194.773 25.9688 194.555 26.125C194.341 26.2812 194.167 26.4974 194.031 26.7734C193.901 27.0443 193.805 27.362 193.742 27.7266C193.685 28.0859 193.656 28.4688 193.656 28.875ZM195.969 36.25V21H197.859V36.25H195.969ZM209.32 24.5469V26.0469H205.195V24.5469H209.32ZM210.797 24.5469V33H208.914V24.5469H210.797ZM204.734 24.5469H206.594L206.367 28.7266C206.336 29.3464 206.273 29.8932 206.18 30.3672C206.091 30.8359 205.971 31.2396 205.82 31.5781C205.669 31.9115 205.484 32.1823 205.266 32.3906C205.047 32.599 204.792 32.7526 204.5 32.8516C204.208 32.9505 203.88 33 203.516 33H202.93L202.922 31.4531L203.219 31.4297C203.411 31.4141 203.578 31.3646 203.719 31.2812C203.859 31.1927 203.979 31.0677 204.078 30.9062C204.182 30.7448 204.266 30.5365 204.328 30.2812C204.396 30.026 204.448 29.724 204.484 29.375C204.526 29.026 204.557 28.6198 204.578 28.1562L204.734 24.5469ZM216.523 33.1562C215.898 33.1562 215.333 33.0547 214.828 32.8516C214.328 32.6432 213.901 32.3542 213.547 31.9844C213.198 31.6146 212.93 31.1797 212.742 30.6797C212.555 30.1797 212.461 29.6406 212.461 29.0625V28.75C212.461 28.0885 212.557 27.4896 212.75 26.9531C212.943 26.4167 213.211 25.9583 213.555 25.5781C213.898 25.1927 214.305 24.8984 214.773 24.6953C215.242 24.4922 215.75 24.3906 216.297 24.3906C216.901 24.3906 217.43 24.4922 217.883 24.6953C218.336 24.8984 218.711 25.1849 219.008 25.5547C219.31 25.9193 219.534 26.3542 219.68 26.8594C219.831 27.3646 219.906 27.9219 219.906 28.5312V29.3359H213.375V27.9844H218.047V27.8359C218.036 27.4974 217.969 27.1797 217.844 26.8828C217.724 26.5859 217.539 26.3464 217.289 26.1641C217.039 25.9818 216.706 25.8906 216.289 25.8906C215.977 25.8906 215.698 25.9583 215.453 26.0938C215.214 26.224 215.013 26.4141 214.852 26.6641C214.69 26.9141 214.565 27.2161 214.477 27.5703C214.393 27.9193 214.352 28.3125 214.352 28.75V29.0625C214.352 29.4323 214.401 29.776 214.5 30.0938C214.604 30.4062 214.755 30.6797 214.953 30.9141C215.151 31.1484 215.391 31.3333 215.672 31.4688C215.953 31.599 216.273 31.6641 216.633 31.6641C217.086 31.6641 217.49 31.5729 217.844 31.3906C218.198 31.2083 218.505 30.9505 218.766 30.6172L219.758 31.5781C219.576 31.8438 219.339 32.099 219.047 32.3438C218.755 32.5833 218.398 32.7786 217.977 32.9297C217.56 33.0807 217.076 33.1562 216.523 33.1562ZM221.438 24.5469H223.32V31.5H226V24.5469H227.898V31.5H230.57V24.5469H232.453V33H221.438V24.5469ZM236.516 24.5469V33H234.633V24.5469H236.516ZM242.031 24.5469L238.227 29.6328H236.078L235.828 27.9297H237.398L239.68 24.5469H242.031ZM239.828 33L237.281 29.3125L238.766 28.2422L242.305 33H239.828ZM246.93 33.1562C246.305 33.1562 245.74 33.0547 245.234 32.8516C244.734 32.6432 244.307 32.3542 243.953 31.9844C243.604 31.6146 243.336 31.1797 243.148 30.6797C242.961 30.1797 242.867 29.6406 242.867 29.0625V28.75C242.867 28.0885 242.964 27.4896 243.156 26.9531C243.349 26.4167 243.617 25.9583 243.961 25.5781C244.305 25.1927 244.711 24.8984 245.18 24.6953C245.648 24.4922 246.156 24.3906 246.703 24.3906C247.307 24.3906 247.836 24.4922 248.289 24.6953C248.742 24.8984 249.117 25.1849 249.414 25.5547C249.716 25.9193 249.94 26.3542 250.086 26.8594C250.237 27.3646 250.312 27.9219 250.312 28.5312V29.3359H243.781V27.9844H248.453V27.8359C248.443 27.4974 248.375 27.1797 248.25 26.8828C248.13 26.5859 247.945 26.3464 247.695 26.1641C247.445 25.9818 247.112 25.8906 246.695 25.8906C246.383 25.8906 246.104 25.9583 245.859 26.0938C245.62 26.224 245.419 26.4141 245.258 26.6641C245.096 26.9141 244.971 27.2161 244.883 27.5703C244.799 27.9193 244.758 28.3125 244.758 28.75V29.0625C244.758 29.4323 244.807 29.776 244.906 30.0938C245.01 30.4062 245.161 30.6797 245.359 30.9141C245.557 31.1484 245.797 31.3333 246.078 31.4688C246.359 31.599 246.68 31.6641 247.039 31.6641C247.492 31.6641 247.896 31.5729 248.25 31.3906C248.604 31.2083 248.911 30.9505 249.172 30.6172L250.164 31.5781C249.982 31.8438 249.745 32.099 249.453 32.3438C249.161 32.5833 248.805 32.7786 248.383 32.9297C247.966 33.0807 247.482 33.1562 246.93 33.1562Z" fill="black"/>
<path d="M84.8438 45.3447H82.3213L82.3076 44.2852H84.5977C84.9759 44.2852 85.3063 44.2214 85.5889 44.0938C85.8714 43.9661 86.0902 43.7839 86.2451 43.5469C86.4046 43.3053 86.4844 43.0182 86.4844 42.6855C86.4844 42.321 86.4137 42.0247 86.2725 41.7969C86.1357 41.5645 85.9238 41.3958 85.6367 41.291C85.3542 41.1816 84.9941 41.127 84.5566 41.127H82.6152V50H81.2959V40.0469H84.5566C85.0671 40.0469 85.5228 40.0993 85.9238 40.2041C86.3249 40.3044 86.6644 40.4639 86.9424 40.6826C87.2249 40.8968 87.4391 41.1702 87.585 41.5029C87.7308 41.8356 87.8037 42.2344 87.8037 42.6992C87.8037 43.1094 87.6989 43.4808 87.4893 43.8135C87.2796 44.1416 86.988 44.4105 86.6143 44.6201C86.2451 44.8298 85.8122 44.9642 85.3154 45.0234L84.8438 45.3447ZM84.7822 50H81.8018L82.5469 48.9268H84.7822C85.2015 48.9268 85.557 48.8538 85.8486 48.708C86.1449 48.5622 86.3704 48.3571 86.5254 48.0928C86.6803 47.8239 86.7578 47.5072 86.7578 47.1426C86.7578 46.7734 86.6917 46.4544 86.5596 46.1855C86.4274 45.9167 86.2201 45.7093 85.9375 45.5635C85.6549 45.4176 85.2904 45.3447 84.8438 45.3447H82.9639L82.9775 44.2852H85.5479L85.8281 44.668C86.3066 44.709 86.7122 44.8457 87.0449 45.0781C87.3776 45.306 87.6305 45.5977 87.8037 45.9531C87.9814 46.3086 88.0703 46.7005 88.0703 47.1289C88.0703 47.7487 87.9336 48.2728 87.6602 48.7012C87.3913 49.125 87.0107 49.4486 86.5186 49.6719C86.0264 49.8906 85.4476 50 84.7822 50ZM92.7871 49.0977C93.0879 49.0977 93.3659 49.0361 93.6211 48.9131C93.8763 48.79 94.0859 48.6214 94.25 48.4072C94.4141 48.1885 94.5075 47.9401 94.5303 47.6621H95.7334C95.7106 48.0996 95.5625 48.5075 95.2891 48.8857C95.0202 49.2594 94.667 49.5625 94.2295 49.7949C93.792 50.0228 93.3112 50.1367 92.7871 50.1367C92.2311 50.1367 91.7458 50.0387 91.3311 49.8428C90.9209 49.6468 90.5791 49.3779 90.3057 49.0361C90.0368 48.6943 89.834 48.3024 89.6973 47.8604C89.5651 47.4137 89.499 46.9421 89.499 46.4453V46.1582C89.499 45.6615 89.5651 45.1921 89.6973 44.75C89.834 44.3034 90.0368 43.9092 90.3057 43.5674C90.5791 43.2256 90.9209 42.9567 91.3311 42.7607C91.7458 42.5648 92.2311 42.4668 92.7871 42.4668C93.3659 42.4668 93.8717 42.5853 94.3047 42.8223C94.7376 43.0547 95.0771 43.3737 95.3232 43.7793C95.5739 44.1803 95.7106 44.6361 95.7334 45.1465H94.5303C94.5075 44.8411 94.4209 44.5654 94.2705 44.3193C94.1247 44.0732 93.9242 43.8773 93.6689 43.7314C93.4183 43.5811 93.1243 43.5059 92.7871 43.5059C92.3997 43.5059 92.0739 43.5833 91.8096 43.7383C91.5498 43.8887 91.3424 44.0938 91.1875 44.3535C91.0371 44.6087 90.9277 44.8936 90.8594 45.208C90.7956 45.5179 90.7637 45.8346 90.7637 46.1582V46.4453C90.7637 46.7689 90.7956 47.0879 90.8594 47.4023C90.9232 47.7168 91.0303 48.0016 91.1807 48.2568C91.3356 48.512 91.543 48.7171 91.8027 48.8721C92.0671 49.0225 92.3952 49.0977 92.7871 49.0977ZM100.17 42.6035V50H98.8984V42.6035H100.17ZM102.651 42.6035V43.6289H96.4648V42.6035H102.651ZM108.147 48.7354V44.9277C108.147 44.6361 108.088 44.3831 107.97 44.1689C107.856 43.9502 107.683 43.7816 107.45 43.6631C107.218 43.5446 106.931 43.4854 106.589 43.4854C106.27 43.4854 105.99 43.54 105.748 43.6494C105.511 43.7588 105.324 43.9023 105.188 44.0801C105.055 44.2578 104.989 44.4492 104.989 44.6543H103.725C103.725 44.39 103.793 44.1279 103.93 43.8682C104.066 43.6084 104.262 43.3737 104.518 43.1641C104.777 42.9499 105.087 42.7812 105.447 42.6582C105.812 42.5306 106.217 42.4668 106.664 42.4668C107.202 42.4668 107.676 42.5579 108.086 42.7402C108.501 42.9225 108.824 43.1982 109.057 43.5674C109.294 43.932 109.412 44.39 109.412 44.9414V48.3867C109.412 48.6328 109.433 48.8949 109.474 49.1729C109.519 49.4508 109.585 49.6901 109.672 49.8906V50H108.353C108.289 49.8542 108.239 49.6605 108.202 49.4189C108.166 49.1729 108.147 48.945 108.147 48.7354ZM108.366 45.5156L108.38 46.4043H107.102C106.742 46.4043 106.42 46.4339 106.138 46.4932C105.855 46.5479 105.618 46.6322 105.427 46.7461C105.235 46.86 105.09 47.0036 104.989 47.1768C104.889 47.3454 104.839 47.5436 104.839 47.7715C104.839 48.0039 104.891 48.2158 104.996 48.4072C105.101 48.5986 105.258 48.7513 105.468 48.8652C105.682 48.9746 105.944 49.0293 106.254 49.0293C106.641 49.0293 106.983 48.9473 107.279 48.7832C107.576 48.6191 107.81 48.4186 107.983 48.1816C108.161 47.9447 108.257 47.7145 108.271 47.4912L108.811 48.0996C108.779 48.291 108.692 48.5029 108.551 48.7354C108.41 48.9678 108.22 49.1911 107.983 49.4053C107.751 49.6149 107.473 49.7904 107.149 49.9316C106.83 50.0684 106.47 50.1367 106.069 50.1367C105.568 50.1367 105.128 50.0387 104.75 49.8428C104.376 49.6468 104.085 49.3848 103.875 49.0566C103.67 48.724 103.567 48.3525 103.567 47.9424C103.567 47.5459 103.645 47.1973 103.8 46.8965C103.955 46.5911 104.178 46.3382 104.47 46.1377C104.761 45.9326 105.112 45.7777 105.522 45.6729C105.933 45.568 106.391 45.5156 106.896 45.5156H108.366ZM114.874 46.7461H112.447L112.434 45.7344H114.416C114.808 45.7344 115.134 45.6956 115.394 45.6182C115.658 45.5407 115.856 45.4245 115.988 45.2695C116.12 45.1146 116.187 44.9232 116.187 44.6953C116.187 44.5176 116.148 44.3626 116.07 44.2305C115.997 44.0938 115.886 43.9821 115.735 43.8955C115.585 43.8044 115.398 43.7383 115.175 43.6973C114.956 43.6517 114.699 43.6289 114.402 43.6289H112.782V50H111.518V42.6035H114.402C114.872 42.6035 115.293 42.6445 115.667 42.7266C116.045 42.8086 116.367 42.9339 116.631 43.1025C116.9 43.2666 117.105 43.4762 117.246 43.7314C117.387 43.9867 117.458 44.2874 117.458 44.6338C117.458 44.8571 117.412 45.069 117.321 45.2695C117.23 45.4701 117.096 45.6478 116.918 45.8027C116.74 45.9577 116.521 46.0853 116.262 46.1855C116.002 46.2812 115.703 46.3428 115.366 46.3701L114.874 46.7461ZM114.874 50H111.989L112.618 48.9746H114.874C115.225 48.9746 115.517 48.9313 115.749 48.8447C115.981 48.7536 116.155 48.626 116.269 48.4619C116.387 48.2933 116.446 48.0928 116.446 47.8604C116.446 47.6279 116.387 47.4297 116.269 47.2656C116.155 47.097 115.981 46.9694 115.749 46.8828C115.517 46.7917 115.225 46.7461 114.874 46.7461H112.953L112.967 45.7344H115.366L115.824 46.1172C116.23 46.1491 116.574 46.2493 116.856 46.418C117.139 46.5866 117.353 46.8008 117.499 47.0605C117.645 47.3158 117.718 47.5938 117.718 47.8945C117.718 48.2409 117.652 48.5462 117.52 48.8105C117.392 49.0749 117.205 49.2959 116.959 49.4736C116.713 49.6468 116.414 49.779 116.063 49.8701C115.713 49.9567 115.316 50 114.874 50ZM120.452 45.1465H122.674C123.271 45.1465 123.774 45.2513 124.185 45.4609C124.595 45.666 124.905 45.9508 125.114 46.3154C125.328 46.6755 125.436 47.0856 125.436 47.5459C125.436 47.8877 125.376 48.209 125.258 48.5098C125.139 48.806 124.962 49.0658 124.725 49.2891C124.492 49.5124 124.203 49.6878 123.856 49.8154C123.515 49.9385 123.12 50 122.674 50H119.529V42.6035H120.794V48.9609H122.674C123.038 48.9609 123.33 48.8949 123.549 48.7627C123.768 48.6305 123.925 48.4596 124.021 48.25C124.116 48.0404 124.164 47.8216 124.164 47.5938C124.164 47.3704 124.116 47.1517 124.021 46.9375C123.925 46.7233 123.768 46.5456 123.549 46.4043C123.33 46.2585 123.038 46.1855 122.674 46.1855H120.452V45.1465ZM129.551 42.6035V50H128.279V42.6035H129.551ZM132.032 42.6035V43.6289H125.846V42.6035H132.032ZM135.799 50.1367C135.284 50.1367 134.817 50.0501 134.397 49.877C133.983 49.6992 133.625 49.4508 133.324 49.1318C133.028 48.8128 132.8 48.4346 132.641 47.9971C132.481 47.5596 132.401 47.0811 132.401 46.5615V46.2744C132.401 45.6729 132.49 45.1374 132.668 44.668C132.846 44.194 133.087 43.793 133.393 43.4648C133.698 43.1367 134.044 42.8883 134.432 42.7197C134.819 42.5511 135.22 42.4668 135.635 42.4668C136.163 42.4668 136.619 42.5579 137.002 42.7402C137.389 42.9225 137.706 43.1777 137.952 43.5059C138.198 43.8294 138.381 44.2122 138.499 44.6543C138.618 45.0918 138.677 45.5703 138.677 46.0898V46.6572H133.153V45.625H137.412V45.5293C137.394 45.2012 137.326 44.8822 137.207 44.5723C137.093 44.2624 136.911 44.0072 136.66 43.8066C136.41 43.6061 136.068 43.5059 135.635 43.5059C135.348 43.5059 135.083 43.5674 134.842 43.6904C134.6 43.8089 134.393 43.9867 134.22 44.2236C134.047 44.4606 133.912 44.75 133.816 45.0918C133.721 45.4336 133.673 45.8278 133.673 46.2744V46.5615C133.673 46.9124 133.721 47.2428 133.816 47.5527C133.917 47.8581 134.06 48.127 134.247 48.3594C134.438 48.5918 134.669 48.7741 134.938 48.9062C135.211 49.0384 135.521 49.1045 135.867 49.1045C136.314 49.1045 136.692 49.0133 137.002 48.8311C137.312 48.6488 137.583 48.4049 137.815 48.0996L138.581 48.708C138.422 48.9495 138.219 49.1797 137.973 49.3984C137.727 49.6172 137.424 49.7949 137.063 49.9316C136.708 50.0684 136.286 50.1367 135.799 50.1367ZM146.641 42.6035V50H145.369V42.6035H146.641ZM149.122 42.6035V43.6289H142.936V42.6035H149.122ZM149.744 46.3838V46.2266C149.744 45.6934 149.822 45.1989 149.977 44.7432C150.132 44.2829 150.355 43.8841 150.646 43.5469C150.938 43.2051 151.291 42.9408 151.706 42.7539C152.121 42.5625 152.586 42.4668 153.101 42.4668C153.62 42.4668 154.087 42.5625 154.502 42.7539C154.921 42.9408 155.277 43.2051 155.568 43.5469C155.865 43.8841 156.09 44.2829 156.245 44.7432C156.4 45.1989 156.478 45.6934 156.478 46.2266V46.3838C156.478 46.917 156.4 47.4115 156.245 47.8672C156.09 48.3229 155.865 48.7217 155.568 49.0635C155.277 49.4007 154.924 49.665 154.509 49.8564C154.099 50.0433 153.634 50.1367 153.114 50.1367C152.595 50.1367 152.128 50.0433 151.713 49.8564C151.298 49.665 150.943 49.4007 150.646 49.0635C150.355 48.7217 150.132 48.3229 149.977 47.8672C149.822 47.4115 149.744 46.917 149.744 46.3838ZM151.009 46.2266V46.3838C151.009 46.7529 151.052 47.1016 151.139 47.4297C151.225 47.7533 151.355 48.0404 151.528 48.291C151.706 48.5417 151.927 48.7399 152.191 48.8857C152.456 49.027 152.763 49.0977 153.114 49.0977C153.461 49.0977 153.764 49.027 154.023 48.8857C154.288 48.7399 154.507 48.5417 154.68 48.291C154.853 48.0404 154.983 47.7533 155.069 47.4297C155.16 47.1016 155.206 46.7529 155.206 46.3838V46.2266C155.206 45.862 155.16 45.5179 155.069 45.1943C154.983 44.8662 154.851 44.5768 154.673 44.3262C154.5 44.071 154.281 43.8704 154.017 43.7246C153.757 43.5788 153.451 43.5059 153.101 43.5059C152.754 43.5059 152.449 43.5788 152.185 43.7246C151.925 43.8704 151.706 44.071 151.528 44.3262C151.355 44.5768 151.225 44.8662 151.139 45.1943C151.052 45.5179 151.009 45.862 151.009 46.2266ZM159.438 42.6035V50H158.173V42.6035H159.438ZM164.291 42.6035L160.784 46.8418H159.014L158.822 45.7344H160.271L162.753 42.6035H164.291ZM162.931 50L160.21 46.6504L161.023 45.7344L164.537 50H162.931ZM168.598 50.1367C168.083 50.1367 167.616 50.0501 167.196 49.877C166.782 49.6992 166.424 49.4508 166.123 49.1318C165.827 48.8128 165.599 48.4346 165.439 47.9971C165.28 47.5596 165.2 47.0811 165.2 46.5615V46.2744C165.2 45.6729 165.289 45.1374 165.467 44.668C165.645 44.194 165.886 43.793 166.191 43.4648C166.497 43.1367 166.843 42.8883 167.23 42.7197C167.618 42.5511 168.019 42.4668 168.434 42.4668C168.962 42.4668 169.418 42.5579 169.801 42.7402C170.188 42.9225 170.505 43.1777 170.751 43.5059C170.997 43.8294 171.179 44.2122 171.298 44.6543C171.416 45.0918 171.476 45.5703 171.476 46.0898V46.6572H165.952V45.625H170.211V45.5293C170.193 45.2012 170.124 44.8822 170.006 44.5723C169.892 44.2624 169.71 44.0072 169.459 43.8066C169.208 43.6061 168.867 43.5059 168.434 43.5059C168.146 43.5059 167.882 43.5674 167.641 43.6904C167.399 43.8089 167.192 43.9867 167.019 44.2236C166.845 44.4606 166.711 44.75 166.615 45.0918C166.52 45.4336 166.472 45.8278 166.472 46.2744V46.5615C166.472 46.9124 166.52 47.2428 166.615 47.5527C166.715 47.8581 166.859 48.127 167.046 48.3594C167.237 48.5918 167.467 48.7741 167.736 48.9062C168.01 49.0384 168.32 49.1045 168.666 49.1045C169.113 49.1045 169.491 49.0133 169.801 48.8311C170.111 48.6488 170.382 48.4049 170.614 48.0996L171.38 48.708C171.22 48.9495 171.018 49.1797 170.771 49.3984C170.525 49.6172 170.222 49.7949 169.862 49.9316C169.507 50.0684 169.085 50.1367 168.598 50.1367ZM177.97 45.8096V46.835H174.06V45.8096H177.97ZM174.326 42.6035V50H173.062V42.6035H174.326ZM178.995 42.6035V50H177.724V42.6035H178.995ZM185.872 47.9971L189.283 42.6035H190.555V50H189.283V44.6064L185.872 50H184.614V42.6035H185.872V47.9971ZM197.527 42.6035V43.6494H193.952V42.6035H197.527ZM198.642 42.6035V50H197.377V42.6035H198.642ZM193.645 42.6035H194.916L194.725 46.1719C194.693 46.7233 194.64 47.2109 194.567 47.6348C194.499 48.054 194.403 48.4141 194.28 48.7148C194.162 49.0156 194.011 49.2617 193.829 49.4531C193.651 49.64 193.437 49.779 193.187 49.8701C192.936 49.9567 192.646 50 192.318 50H191.922V48.8857L192.195 48.8652C192.391 48.8516 192.558 48.806 192.694 48.7285C192.836 48.651 192.954 48.5371 193.05 48.3867C193.146 48.2318 193.223 48.0335 193.282 47.792C193.346 47.5505 193.394 47.2633 193.426 46.9307C193.462 46.598 193.49 46.2106 193.508 45.7686L193.645 42.6035ZM202.046 47.9971L205.457 42.6035H206.729V50H205.457V44.6064L202.046 50H200.788V42.6035H202.046V47.9971ZM220.735 46.4316V46.5752C220.735 47.0947 220.678 47.5732 220.564 48.0107C220.451 48.4437 220.28 48.8197 220.052 49.1387C219.828 49.4577 219.55 49.7061 219.218 49.8838C218.885 50.057 218.5 50.1436 218.062 50.1436C217.702 50.1436 217.386 50.0957 217.112 50C216.839 49.8997 216.606 49.7562 216.415 49.5693C216.228 49.3825 216.078 49.1592 215.964 48.8994C215.854 48.6351 215.779 48.3389 215.738 48.0107V44.7295C215.779 44.3786 215.854 44.0641 215.964 43.7861C216.078 43.5081 216.228 43.2712 216.415 43.0752C216.606 42.8792 216.837 42.7288 217.105 42.624C217.374 42.5192 217.689 42.4668 218.049 42.4668C218.404 42.4668 218.723 42.5306 219.006 42.6582C219.293 42.7812 219.544 42.959 219.758 43.1914C219.977 43.4238 220.157 43.7041 220.298 44.0322C220.444 44.3558 220.553 44.7204 220.626 45.126C220.699 45.5316 220.735 45.9668 220.735 46.4316ZM219.471 46.5752V46.4316C219.471 46.1126 219.448 45.8096 219.402 45.5225C219.361 45.2308 219.295 44.9642 219.204 44.7227C219.118 44.4766 219.004 44.2624 218.862 44.0801C218.721 43.8978 218.55 43.7565 218.35 43.6562C218.154 43.556 217.928 43.5059 217.673 43.5059C217.399 43.5059 217.172 43.54 216.989 43.6084C216.812 43.6768 216.673 43.7679 216.572 43.8818C216.472 43.9912 216.399 44.1074 216.354 44.2305V48.5166C216.408 48.6169 216.488 48.7126 216.593 48.8037C216.698 48.8903 216.839 48.9632 217.017 49.0225C217.194 49.0771 217.418 49.1045 217.687 49.1045C218.006 49.1045 218.277 49.0407 218.5 48.9131C218.728 48.7809 218.912 48.5986 219.054 48.3662C219.2 48.1338 219.304 47.8649 219.368 47.5596C219.437 47.2542 219.471 46.9261 219.471 46.5752ZM211.951 46.5752V46.4316C211.951 45.9668 211.988 45.5316 212.061 45.126C212.133 44.7204 212.243 44.3558 212.389 44.0322C212.535 43.7041 212.715 43.4238 212.929 43.1914C213.147 42.959 213.398 42.7812 213.681 42.6582C213.968 42.5306 214.289 42.4668 214.645 42.4668C214.995 42.4668 215.301 42.5192 215.561 42.624C215.825 42.7288 216.048 42.8792 216.23 43.0752C216.413 43.2712 216.559 43.5081 216.668 43.7861C216.777 44.0641 216.855 44.3786 216.9 44.7295V47.8809C216.859 48.2272 216.784 48.5394 216.675 48.8174C216.565 49.0954 216.42 49.3346 216.237 49.5352C216.055 49.7311 215.829 49.8815 215.561 49.9863C215.296 50.0911 214.986 50.1436 214.631 50.1436C214.193 50.1436 213.808 50.057 213.476 49.8838C213.143 49.7061 212.863 49.4577 212.635 49.1387C212.411 48.8197 212.241 48.4437 212.122 48.0107C212.008 47.5732 211.951 47.0947 211.951 46.5752ZM213.223 46.4316V46.5752C213.223 46.9261 213.252 47.2542 213.312 47.5596C213.375 47.8649 213.473 48.1338 213.605 48.3662C213.742 48.5986 213.92 48.7809 214.139 48.9131C214.357 49.0407 214.626 49.1045 214.945 49.1045C215.219 49.1045 215.444 49.0703 215.622 49.002C215.8 48.9336 215.941 48.8447 216.046 48.7354C216.151 48.626 216.23 48.512 216.285 48.3936V44.2305C216.24 44.1074 216.164 43.9912 216.06 43.8818C215.959 43.7679 215.82 43.6768 215.643 43.6084C215.465 43.54 215.237 43.5059 214.959 43.5059C214.64 43.5059 214.369 43.5833 214.146 43.7383C213.922 43.8932 213.742 44.1051 213.605 44.374C213.473 44.6429 213.375 44.9551 213.312 45.3105C213.252 45.6615 213.223 46.0352 213.223 46.4316ZM215.656 52.8438V39.5H216.928V52.8438H215.656ZM227.236 42.6035V43.6494H223.661V42.6035H227.236ZM228.351 42.6035V50H227.086V42.6035H228.351ZM223.354 42.6035H224.625L224.434 46.1719C224.402 46.7233 224.349 47.2109 224.276 47.6348C224.208 48.054 224.112 48.4141 223.989 48.7148C223.871 49.0156 223.72 49.2617 223.538 49.4531C223.36 49.64 223.146 49.779 222.896 49.8701C222.645 49.9567 222.355 50 222.027 50H221.631V48.8857L221.904 48.8652C222.1 48.8516 222.267 48.806 222.403 48.7285C222.545 48.651 222.663 48.5371 222.759 48.3867C222.854 48.2318 222.932 48.0335 222.991 47.792C223.055 47.5505 223.103 47.2633 223.135 46.9307C223.171 46.598 223.199 46.2106 223.217 45.7686L223.354 42.6035ZM233.457 50.1367C232.942 50.1367 232.475 50.0501 232.056 49.877C231.641 49.6992 231.283 49.4508 230.982 49.1318C230.686 48.8128 230.458 48.4346 230.299 47.9971C230.139 47.5596 230.06 47.0811 230.06 46.5615V46.2744C230.06 45.6729 230.148 45.1374 230.326 44.668C230.504 44.194 230.745 43.793 231.051 43.4648C231.356 43.1367 231.702 42.8883 232.09 42.7197C232.477 42.5511 232.878 42.4668 233.293 42.4668C233.822 42.4668 234.277 42.5579 234.66 42.7402C235.048 42.9225 235.364 43.1777 235.61 43.5059C235.856 43.8294 236.039 44.2122 236.157 44.6543C236.276 45.0918 236.335 45.5703 236.335 46.0898V46.6572H230.812V45.625H235.07V45.5293C235.052 45.2012 234.984 44.8822 234.865 44.5723C234.751 44.2624 234.569 44.0072 234.318 43.8066C234.068 43.6061 233.726 43.5059 233.293 43.5059C233.006 43.5059 232.742 43.5674 232.5 43.6904C232.258 43.8089 232.051 43.9867 231.878 44.2236C231.705 44.4606 231.57 44.75 231.475 45.0918C231.379 45.4336 231.331 45.8278 231.331 46.2744V46.5615C231.331 46.9124 231.379 47.2428 231.475 47.5527C231.575 47.8581 231.718 48.127 231.905 48.3594C232.097 48.5918 232.327 48.7741 232.596 48.9062C232.869 49.0384 233.179 49.1045 233.525 49.1045C233.972 49.1045 234.35 49.0133 234.66 48.8311C234.97 48.6488 235.241 48.4049 235.474 48.0996L236.239 48.708C236.08 48.9495 235.877 49.1797 235.631 49.3984C235.385 49.6172 235.082 49.7949 234.722 49.9316C234.366 50.0684 233.945 50.1367 233.457 50.1367ZM237.921 42.6035H239.186V48.9609H241.893V42.6035H243.164V48.9609H245.864V42.6035H247.129V50H237.921V42.6035ZM250.52 42.6035V50H249.255V42.6035H250.52ZM255.373 42.6035L251.866 46.8418H250.096L249.904 45.7344H251.354L253.835 42.6035H255.373ZM254.013 50L251.292 46.6504L252.105 45.7344L255.619 50H254.013ZM258.798 49.2344L260.855 42.6035H262.209L259.242 51.1416C259.174 51.3239 259.083 51.5199 258.969 51.7295C258.859 51.9437 258.718 52.1465 258.545 52.3379C258.372 52.5293 258.162 52.6842 257.916 52.8027C257.674 52.9258 257.385 52.9873 257.048 52.9873C256.948 52.9873 256.82 52.9736 256.665 52.9463C256.51 52.9189 256.401 52.8962 256.337 52.8779L256.33 51.8525C256.367 51.8571 256.424 51.8617 256.501 51.8662C256.583 51.8753 256.64 51.8799 256.672 51.8799C256.959 51.8799 257.203 51.8411 257.403 51.7637C257.604 51.6908 257.772 51.5654 257.909 51.3877C258.05 51.2145 258.171 50.9753 258.271 50.6699L258.798 49.2344ZM257.287 42.6035L259.208 48.3457L259.536 49.6787L258.627 50.1436L255.906 42.6035H257.287ZM84.5771 62.7461H82.1504L82.1367 61.7344H84.1191C84.5111 61.7344 84.8369 61.6956 85.0967 61.6182C85.361 61.5407 85.5592 61.4245 85.6914 61.2695C85.8236 61.1146 85.8896 60.9232 85.8896 60.6953C85.8896 60.5176 85.8509 60.3626 85.7734 60.2305C85.7005 60.0938 85.5889 59.9821 85.4385 59.8955C85.2881 59.8044 85.1012 59.7383 84.8779 59.6973C84.6592 59.6517 84.4017 59.6289 84.1055 59.6289H82.4854V66H81.2207V58.6035H84.1055C84.5749 58.6035 84.9964 58.6445 85.3701 58.7266C85.7484 58.8086 86.0697 58.9339 86.334 59.1025C86.6029 59.2666 86.8079 59.4762 86.9492 59.7314C87.0905 59.9867 87.1611 60.2874 87.1611 60.6338C87.1611 60.8571 87.1156 61.069 87.0244 61.2695C86.9333 61.4701 86.7988 61.6478 86.6211 61.8027C86.4434 61.9577 86.2246 62.0853 85.9648 62.1855C85.7051 62.2812 85.4066 62.3428 85.0693 62.3701L84.5771 62.7461ZM84.5771 66H81.6924L82.3213 64.9746H84.5771C84.9281 64.9746 85.2197 64.9313 85.4521 64.8447C85.6846 64.7536 85.8577 64.626 85.9717 64.4619C86.0902 64.2933 86.1494 64.0928 86.1494 63.8604C86.1494 63.6279 86.0902 63.4297 85.9717 63.2656C85.8577 63.097 85.6846 62.9694 85.4521 62.8828C85.2197 62.7917 84.9281 62.7461 84.5771 62.7461H82.6562L82.6699 61.7344H85.0693L85.5273 62.1172C85.9329 62.1491 86.277 62.2493 86.5596 62.418C86.8421 62.5866 87.0563 62.8008 87.2021 63.0605C87.348 63.3158 87.4209 63.5938 87.4209 63.8945C87.4209 64.2409 87.3548 64.5462 87.2227 64.8105C87.0951 65.0749 86.9082 65.2959 86.6621 65.4736C86.416 65.6468 86.1175 65.779 85.7666 65.8701C85.4157 65.9567 85.0192 66 84.5771 66ZM93.9629 58.6035V66H92.6982V58.6035H93.9629ZM98.8164 58.6035L95.3096 62.8418H93.5391L93.3477 61.7344H94.7969L97.2783 58.6035H98.8164ZM97.4561 66L94.7354 62.6504L95.5488 61.7344L99.0625 66H97.4561ZM99.6777 62.3838V62.2266C99.6777 61.6934 99.7552 61.1989 99.9102 60.7432C100.065 60.2829 100.288 59.8841 100.58 59.5469C100.872 59.2051 101.225 58.9408 101.64 58.7539C102.054 58.5625 102.519 58.4668 103.034 58.4668C103.554 58.4668 104.021 58.5625 104.436 58.7539C104.855 58.9408 105.21 59.2051 105.502 59.5469C105.798 59.8841 106.024 60.2829 106.179 60.7432C106.334 61.1989 106.411 61.6934 106.411 62.2266V62.3838C106.411 62.917 106.334 63.4115 106.179 63.8672C106.024 64.3229 105.798 64.7217 105.502 65.0635C105.21 65.4007 104.857 65.665 104.442 65.8564C104.032 66.0433 103.567 66.1367 103.048 66.1367C102.528 66.1367 102.061 66.0433 101.646 65.8564C101.232 65.665 100.876 65.4007 100.58 65.0635C100.288 64.7217 100.065 64.3229 99.9102 63.8672C99.7552 63.4115 99.6777 62.917 99.6777 62.3838ZM100.942 62.2266V62.3838C100.942 62.7529 100.986 63.1016 101.072 63.4297C101.159 63.7533 101.289 64.0404 101.462 64.291C101.64 64.5417 101.861 64.7399 102.125 64.8857C102.389 65.027 102.697 65.0977 103.048 65.0977C103.394 65.0977 103.697 65.027 103.957 64.8857C104.221 64.7399 104.44 64.5417 104.613 64.291C104.786 64.0404 104.916 63.7533 105.003 63.4297C105.094 63.1016 105.14 62.7529 105.14 62.3838V62.2266C105.14 61.862 105.094 61.5179 105.003 61.1943C104.916 60.8662 104.784 60.5768 104.606 60.3262C104.433 60.071 104.215 59.8704 103.95 59.7246C103.69 59.5788 103.385 59.5059 103.034 59.5059C102.688 59.5059 102.382 59.5788 102.118 59.7246C101.858 59.8704 101.64 60.071 101.462 60.3262C101.289 60.5768 101.159 60.8662 101.072 61.1943C100.986 61.5179 100.942 61.862 100.942 62.2266ZM112.249 64.3184L114.765 58.6035H115.981L112.687 66H111.812L108.53 58.6035H109.747L112.249 64.3184ZM109.378 58.6035V66H108.113V58.6035H109.378ZM115.079 66V58.6035H116.351V66H115.079ZM123.316 58.6035V59.6494H119.577V58.6035H123.316ZM119.762 58.6035V66H118.497V58.6035H119.762ZM124.438 58.6035V66H123.166V58.6035H124.438ZM127.507 61.1465H129.729C130.326 61.1465 130.829 61.2513 131.239 61.4609C131.649 61.666 131.959 61.9508 132.169 62.3154C132.383 62.6755 132.49 63.0856 132.49 63.5459C132.49 63.8877 132.431 64.209 132.312 64.5098C132.194 64.806 132.016 65.0658 131.779 65.2891C131.547 65.5124 131.257 65.6878 130.911 65.8154C130.569 65.9385 130.175 66 129.729 66H126.584V58.6035H127.849V64.9609H129.729C130.093 64.9609 130.385 64.8949 130.604 64.7627C130.822 64.6305 130.979 64.4596 131.075 64.25C131.171 64.0404 131.219 63.8216 131.219 63.5938C131.219 63.3704 131.171 63.1517 131.075 62.9375C130.979 62.7233 130.822 62.5456 130.604 62.4043C130.385 62.2585 130.093 62.1855 129.729 62.1855H127.507V61.1465ZM138.28 61.7412V62.7734H134.35V61.7412H138.28ZM135.45 58.6035V66H134.186V58.6035H135.45ZM137.2 62.3838V62.2266C137.2 61.6934 137.278 61.1989 137.433 60.7432C137.588 60.2829 137.811 59.8841 138.103 59.5469C138.399 59.2051 138.752 58.9408 139.162 58.7539C139.577 58.5625 140.042 58.4668 140.557 58.4668C141.081 58.4668 141.55 58.5625 141.965 58.7539C142.38 58.9408 142.733 59.2051 143.024 59.5469C143.321 59.8841 143.546 60.2829 143.701 60.7432C143.856 61.1989 143.934 61.6934 143.934 62.2266V62.3838C143.934 62.917 143.856 63.4115 143.701 63.8672C143.546 64.3229 143.323 64.7217 143.031 65.0635C142.74 65.4007 142.386 65.665 141.972 65.8564C141.557 66.0433 141.09 66.1367 140.57 66.1367C140.051 66.1367 139.584 66.0433 139.169 65.8564C138.754 65.665 138.399 65.4007 138.103 65.0635C137.811 64.7217 137.588 64.3229 137.433 63.8672C137.278 63.4115 137.2 62.917 137.2 62.3838ZM138.472 62.2266V62.3838C138.472 62.7529 138.515 63.1016 138.602 63.4297C138.688 63.7533 138.818 64.0404 138.991 64.291C139.169 64.5417 139.388 64.7399 139.647 64.8857C139.912 65.027 140.219 65.0977 140.57 65.0977C140.921 65.0977 141.227 65.027 141.486 64.8857C141.751 64.7399 141.969 64.5417 142.143 64.291C142.316 64.0404 142.446 63.7533 142.532 63.4297C142.623 63.1016 142.669 62.7529 142.669 62.3838V62.2266C142.669 61.862 142.623 61.5179 142.532 61.1943C142.446 60.8662 142.313 60.5768 142.136 60.3262C141.963 60.071 141.744 59.8704 141.479 59.7246C141.215 59.5788 140.908 59.5059 140.557 59.5059C140.21 59.5059 139.907 59.5788 139.647 59.7246C139.388 59.8704 139.169 60.071 138.991 60.3262C138.818 60.5768 138.688 60.8662 138.602 61.1943C138.515 61.5179 138.472 61.862 138.472 62.2266ZM148.514 58.6035V66H147.242V58.6035H148.514ZM150.995 58.6035V59.6289H144.809V58.6035H150.995ZM154.762 66.1367C154.247 66.1367 153.78 66.0501 153.36 65.877C152.946 65.6992 152.588 65.4508 152.287 65.1318C151.991 64.8128 151.763 64.4346 151.604 63.9971C151.444 63.5596 151.364 63.0811 151.364 62.5615V62.2744C151.364 61.6729 151.453 61.1374 151.631 60.668C151.809 60.194 152.05 59.793 152.355 59.4648C152.661 59.1367 153.007 58.8883 153.395 58.7197C153.782 58.5511 154.183 58.4668 154.598 58.4668C155.126 58.4668 155.582 58.5579 155.965 58.7402C156.352 58.9225 156.669 59.1777 156.915 59.5059C157.161 59.8294 157.343 60.2122 157.462 60.6543C157.58 61.0918 157.64 61.5703 157.64 62.0898V62.6572H152.116V61.625H156.375V61.5293C156.357 61.2012 156.288 60.8822 156.17 60.5723C156.056 60.2624 155.874 60.0072 155.623 59.8066C155.372 59.6061 155.031 59.5059 154.598 59.5059C154.311 59.5059 154.046 59.5674 153.805 59.6904C153.563 59.8089 153.356 59.9867 153.183 60.2236C153.009 60.4606 152.875 60.75 152.779 61.0918C152.684 61.4336 152.636 61.8278 152.636 62.2744V62.5615C152.636 62.9124 152.684 63.2428 152.779 63.5527C152.88 63.8581 153.023 64.127 153.21 64.3594C153.401 64.5918 153.632 64.7741 153.9 64.9062C154.174 65.0384 154.484 65.1045 154.83 65.1045C155.277 65.1045 155.655 65.0133 155.965 64.8311C156.275 64.6488 156.546 64.4049 156.778 64.0996L157.544 64.708C157.384 64.9495 157.182 65.1797 156.936 65.3984C156.689 65.6172 156.386 65.7949 156.026 65.9316C155.671 66.0684 155.249 66.1367 154.762 66.1367ZM160.381 60.0254V68.8438H159.109V58.6035H160.271L160.381 60.0254ZM165.364 62.2402V62.3838C165.364 62.9215 165.3 63.4206 165.173 63.8809C165.045 64.3366 164.858 64.7331 164.612 65.0703C164.371 65.4076 164.072 65.6696 163.717 65.8564C163.361 66.0433 162.953 66.1367 162.493 66.1367C162.024 66.1367 161.609 66.0592 161.249 65.9043C160.889 65.7493 160.584 65.5238 160.333 65.2275C160.082 64.9313 159.882 64.5758 159.731 64.1611C159.586 63.7464 159.485 63.2793 159.431 62.7598V61.9941C159.485 61.4473 159.588 60.9574 159.738 60.5244C159.889 60.0915 160.087 59.7223 160.333 59.417C160.584 59.1071 160.887 58.8724 161.242 58.7129C161.598 58.5488 162.008 58.4668 162.473 58.4668C162.938 58.4668 163.35 58.5579 163.71 58.7402C164.07 58.918 164.373 59.1732 164.619 59.5059C164.865 59.8385 165.05 60.2373 165.173 60.7021C165.3 61.1624 165.364 61.6751 165.364 62.2402ZM164.093 62.3838V62.2402C164.093 61.8711 164.054 61.5247 163.977 61.2012C163.899 60.873 163.778 60.5859 163.614 60.3398C163.455 60.0892 163.25 59.8932 162.999 59.752C162.748 59.6061 162.45 59.5332 162.104 59.5332C161.785 59.5332 161.507 59.5879 161.27 59.6973C161.037 59.8066 160.839 59.9548 160.675 60.1416C160.511 60.3239 160.376 60.5335 160.271 60.7705C160.171 61.0029 160.096 61.2445 160.046 61.4951V63.2656C160.137 63.5846 160.265 63.8854 160.429 64.168C160.593 64.446 160.812 64.6715 161.085 64.8447C161.358 65.0133 161.702 65.0977 162.117 65.0977C162.459 65.0977 162.753 65.027 162.999 64.8857C163.25 64.7399 163.455 64.5417 163.614 64.291C163.778 64.0404 163.899 63.7533 163.977 63.4297C164.054 63.1016 164.093 62.7529 164.093 62.3838ZM166.998 65.3301C166.998 65.1159 167.064 64.9359 167.196 64.79C167.333 64.6396 167.529 64.5645 167.784 64.5645C168.039 64.5645 168.233 64.6396 168.365 64.79C168.502 64.9359 168.57 65.1159 168.57 65.3301C168.57 65.5397 168.502 65.7174 168.365 65.8633C168.233 66.0091 168.039 66.082 167.784 66.082C167.529 66.082 167.333 66.0091 167.196 65.8633C167.064 65.7174 166.998 65.5397 166.998 65.3301Z" fill="black"/>
<path d="M27.8631 49.6244C30.9135 49.6244 33.3759 52.0867 33.3759 55.1371C33.3759 58.1874 30.9135 60.6498 27.8631 60.6498C24.8127 60.6498 22.3504 58.1874 22.3504 55.1371C22.3504 52.0867 24.8127 49.6244 27.8631 49.6244ZM27.8631 53.2995C26.8525 53.2995 26.0256 54.1264 26.0256 55.1371C26.0256 56.1477 26.8525 56.9746 27.8631 56.9746C28.8738 56.9746 29.7007 56.1477 29.7007 55.1371C29.7007 54.1264 28.8738 53.2995 27.8631 53.2995ZM40.6886 24.1191L42.0301 25.4972L48.9946 18.5329C49.3253 18.2021 49.7847 18 50.2993 18C50.8138 18 51.2732 18.2021 51.6039 18.5329L64.5957 31.5244V31.5428C64.853 31.8552 65 32.2595 65 32.7005C65 33.2517 64.7611 33.7479 64.3752 34.097L57.521 40.9695L58.8808 42.3109L36.9592 64.233C34.6255 66.5667 31.4097 68 27.8631 68C20.7517 68 15 62.2484 15 55.1371C15 51.5906 16.4333 48.3749 18.7671 46.0412L40.6886 24.1191ZM34.3682 61.642L53.6804 42.3109L40.6886 29.3194L21.3581 48.6321C19.7042 50.3043 18.6752 52.6012 18.6752 55.1371C18.6752 60.2087 22.7914 64.3249 27.8631 64.3249C30.399 64.3249 32.696 63.2958 34.3682 61.642ZM50.4279 24.7806L53.0557 27.3716L50.4279 29.9441L47.8369 27.3716L50.4279 24.7806ZM55.6283 29.9441L58.2193 32.5718L55.6283 35.1628L53.0557 32.5718L55.6283 29.9441ZM60.5714 32.7005L50.2993 22.4285L44.6578 28.1066L54.8932 38.3602L60.5714 32.7005Z" fill="#616264"/>
<path d="M50.4366 24.7787L53.0644 27.3696L50.4366 29.9422L47.8456 27.3696L50.4366 24.7787ZM55.637 29.9422L58.228 32.5699L55.637 35.1609L53.0644 32.5699L55.637 29.9422Z" fill="#FABC42"/>
<path d="M27.8462 49.626C30.8966 49.626 33.359 52.0883 33.359 55.1387C33.359 58.189 30.8966 60.6513 27.8462 60.6513C24.7958 60.6513 22.3334 58.189 22.3334 55.1387C22.3334 52.0883 24.7958 49.626 27.8462 49.626ZM27.8462 53.3011C26.8355 53.3011 26.0086 54.128 26.0086 55.1387C26.0086 56.1493 26.8355 56.9762 27.8462 56.9762C28.8569 56.9762 29.6838 56.1493 29.6838 55.1387C29.6838 54.128 28.8569 53.3011 27.8462 53.3011Z" fill="#518AB5"/>
</svg>
