<svg width="16" height="16" viewBox="0 0 16 16" fill="none" xmlns="http://www.w3.org/2000/svg">
<g clip-path="url(#clip0_41_2986)">
<circle cx="8" cy="8" r="8" fill="#F7B352"/>
<circle cx="8" cy="8" r="8" fill="url(#paint0_radial_41_2986)" fill-opacity="0.6"/>
<circle cx="8" cy="8" r="7.5" stroke="#815635" stroke-opacity="0.3"/>
<path d="M8.5 3H7.5C7.22386 3 7 3.22386 7 3.5V9.5C7 9.77614 7.22386 10 7.5 10H8.5C8.77614 10 9 9.77614 9 9.5V3.5C9 3.22386 8.77614 3 8.5 3Z" fill="#815635"/>
<path d="M8 13C8.55228 13 9 12.5523 9 12C9 11.4477 8.55228 11 8 11C7.44772 11 7 11.4477 7 12C7 12.5523 7.44772 13 8 13Z" fill="#815635"/>
</g>
<defs>
<radialGradient id="paint0_radial_41_2986" cx="0" cy="0" r="1" gradientUnits="userSpaceOnUse" gradientTransform="translate(8 8) rotate(90) scale(8)">
<stop stop-color="white"/>
<stop offset="1" stop-color="white" stop-opacity="0"/>
</radialGradient>
<clipPath id="clip0_41_2986">
<rect width="16" height="16" fill="white"/>
</clipPath>
</defs>
</svg>
