<svg width="24" height="24" viewBox="0 0 24 24" fill="none" xmlns="http://www.w3.org/2000/svg">
<g clip-path="url(#clip0_148_1369)">
<path d="M12 24C18.6274 24 24 18.6274 24 12C24 5.37258 18.6274 0 12 0C5.37258 0 0 5.37258 0 12C0 18.6274 5.37258 24 12 24Z" fill="#2CA3DB"/>
<path d="M8.28448 12.8406L9.64998 16.6171C9.64998 16.6171 9.82048 16.9706 10.003 16.9706C10.1855 16.9706 12.903 14.1441 12.903 14.1441L15.924 8.30908L8.33298 11.8661L8.28448 12.8406Z" fill="#C8DAEA"/>
<path d="M10.0935 13.8091L9.83148 16.5926C9.83148 16.5926 9.72198 17.4456 10.5745 16.5926C11.427 15.7396 12.2435 15.0821 12.2435 15.0821L10.0935 13.8091Z" fill="#A9C6D8"/>
<path d="M8.30898 12.9753L5.50298 12.0608C5.50298 12.0608 5.16798 11.9248 5.27548 11.6163C5.29748 11.5523 5.34248 11.4983 5.47548 11.4048C6.09748 10.9713 16.9855 7.0578 16.9855 7.0578C17.1424 7.00267 17.3113 6.99076 17.4745 7.0233C17.5194 7.03722 17.5598 7.06278 17.5915 7.09739C17.6233 7.13199 17.6454 7.1744 17.6555 7.2203C17.6749 7.30129 17.683 7.38458 17.6795 7.4678C17.6795 7.5398 17.67 7.6068 17.6635 7.7118C17.597 8.7813 15.6135 16.7673 15.6135 16.7673C15.6135 16.7673 15.495 17.2343 15.0695 17.2503C14.9647 17.254 14.8602 17.2365 14.7624 17.1989C14.6645 17.1613 14.5753 17.1043 14.5 17.0313C13.665 16.3128 10.7795 14.3738 10.142 13.9473C10.1281 13.9374 10.1165 13.9246 10.1079 13.9099C10.0993 13.8951 10.0938 13.8788 10.092 13.8618C10.083 13.8168 10.132 13.7618 10.132 13.7618C10.132 13.7618 15.156 9.2958 15.2895 8.8273C15.3 8.7913 15.261 8.77329 15.2085 8.78879C14.8745 8.91179 9.08998 12.5643 8.45148 12.9678C8.40521 12.9814 8.35641 12.9839 8.30898 12.9753Z" fill="white"/>
</g>
<defs>
<clipPath id="clip0_148_1369">
<rect width="24" height="24" fill="white"/>
</clipPath>
</defs>
</svg>
