<svg width="169" height="25" viewBox="0 0 169 25" fill="none" xmlns="http://www.w3.org/2000/svg">
<path d="M25.8555 15.8987C25.4762 15.8661 24.9246 15.8099 24.5705 15.7284C24.1712 15.6227 23.7962 15.4797 23.6266 15.3883C22.4399 14.7442 21.632 13.4924 21.632 12.0482C21.632 9.94417 23.335 8.24252 25.438 8.24252C27.4967 8.24252 29.1698 9.87863 29.237 11.9238L32.3045 11.9238C32.2407 8.18532 29.1927 5.17432 25.438 5.17432C21.641 5.17432 18.5625 8.25146 18.5625 12.0482C18.5625 14.724 20.0969 17.0374 22.3322 18.1696C22.6764 18.3697 23.3226 18.5812 23.5068 18.63C24.138 18.7953 24.9857 18.9087 25.6731 18.9602C25.9281 18.9798 27.1719 18.9891 27.4349 18.9918L27.4349 18.9951L46.3424 18.9951C45.2661 18.1988 44.3947 17.1462 43.8135 15.9263L27.5263 15.9263C27.2949 15.9263 26.08 15.9179 25.8555 15.8987Z" fill="#D91920"/>
<path d="M-2.11212e-07 7.91051L3.52835 7.91051L3.52835 24.1152L6.61649 24.1152L6.61649 4.81967L-2.51498e-07 4.81967L-2.11212e-07 7.91051Z" fill="#D91920"/>
<path d="M3.52734 3.21412L8.22439 3.21412L8.22439 24.1152L11.4376 24.1152L11.4376 0.000282914L3.52734 0.000283017L3.52734 3.21412Z" fill="#D91920"/>
<path d="M89.2639 22.2354C87.5216 22.2354 85.8916 21.755 84.4867 20.9321L27.5204 20.9477C27.2291 20.9477 25.953 20.9371 25.6671 20.9178C24.7115 20.8546 23.6087 20.6877 22.7392 20.435C22.5763 20.3875 21.902 20.1397 21.7305 20.0599C18.7032 18.6585 16.5946 15.5973 16.5946 12.0467C16.5946 7.17439 20.5578 3.2065 25.432 3.2065C30.2628 3.2065 34.1994 7.10893 34.2662 11.9224L37.4584 11.9224C37.392 5.34676 32.0239 0.0172681 25.432 0.0172682C18.8003 0.0172683 13.4023 5.41324 13.4023 12.0467C13.4023 16.6197 15.9731 20.5963 19.7402 22.6277C20.4191 22.9885 21.3956 23.3576 21.7265 23.459C22.7997 23.7805 24.1171 23.9909 25.2897 24.0814C25.6881 24.1103 27.0782 24.1263 27.4835 24.1279L168.827 24.099L168.827 20.9321L94.0407 20.9321C92.6345 21.755 91.0062 22.2354 89.2639 22.2354Z" fill="#D91920"/>
<path d="M70.2744 13.2659C70.9885 13.8633 72.1522 14.1616 73.7651 14.1616C74.2329 14.1616 74.6053 14.1519 74.8823 14.1336C75.1589 14.1153 75.5939 14.0621 76.1843 13.9763L76.1843 19.0195L79.8047 19.0195L79.8047 6.09012L76.1843 6.09012L76.1843 11.1319C75.507 11.2187 75.125 11.2613 75.0389 11.2613C74.9534 11.2613 74.88 11.2613 74.8181 11.2613C74.0794 11.2742 73.562 11.1502 73.2668 10.8922C72.9708 10.6332 72.8229 10.1105 72.8229 9.32191L72.8229 6.09012L69.2031 6.09012L69.2031 9.83959C69.2031 11.5269 69.5602 12.6684 70.2744 13.2659Z" fill="#D91920"/>
<path d="M112.307 13.8467L116.703 13.8467L116.703 19.0195L120.323 19.0195L120.323 6.09012L116.703 6.09012L116.703 10.7449L112.307 10.7449L112.307 6.09012L108.687 6.09012L108.688 19.0195L112.307 19.0195L112.307 13.8467Z" fill="#D91920"/>
<path d="M126.146 9.80239C126.762 9.14972 127.524 8.82287 128.436 8.82287C129.335 8.82287 130.095 9.14972 130.717 9.80239C131.338 10.4551 131.65 11.3725 131.65 12.5544C131.65 13.7497 131.338 14.6687 130.717 15.3157C130.095 15.9624 129.335 16.2856 128.436 16.2856C127.524 16.2856 126.762 15.9624 126.146 15.3157C125.529 14.6687 125.223 13.7497 125.223 12.5544C125.223 11.3725 125.529 10.4551 126.146 9.80239ZM128.436 19.3887C130.443 19.3887 132.102 18.7759 133.414 17.55C134.725 16.3255 135.381 14.6607 135.381 12.5544C135.369 10.4614 134.71 8.79929 133.403 7.5674C132.099 6.33627 130.443 5.72046 128.436 5.72046C126.417 5.72046 124.754 6.33627 123.45 7.5674C122.144 8.79929 121.492 10.4614 121.492 12.5544C121.492 14.6607 122.144 16.3255 123.45 17.55C124.754 18.7759 126.417 19.3887 128.436 19.3887Z" fill="#D91920"/>
<path d="M142.984 19.3887C143.698 19.3887 144.335 19.3112 144.896 19.1566C145.455 19.0037 145.981 18.7603 146.474 18.4278L146.474 14.7522C146.017 15.2076 145.532 15.5558 145.016 15.7962C144.498 16.0362 143.962 16.1559 143.408 16.1559C142.399 16.1559 141.591 15.8261 140.989 15.1677C140.385 14.5091 140.091 13.6755 140.102 12.6658C140.091 11.5942 140.391 10.7081 141.008 10.0059C141.623 9.3037 142.423 8.95259 143.408 8.95259C143.975 8.95259 144.519 9.08852 145.044 9.35919C145.565 9.63088 146.044 10.0122 146.474 10.5039L146.474 6.75513C145.994 6.43535 145.452 6.18264 144.85 5.99777C144.245 5.81323 143.605 5.72046 142.928 5.72046C141.081 5.72046 139.527 6.33891 138.265 7.5771C137.002 8.81427 136.371 10.474 136.371 12.5544C136.371 14.6108 136.987 16.264 138.219 17.5131C139.45 18.7636 141.037 19.3887 142.984 19.3887Z" fill="#D91920"/>
<path d="M150.641 19.0195L154.261 19.0195L154.261 9.19287L157.106 9.19287L157.106 6.09012L147.797 6.09012L147.797 9.19287L150.641 9.19287L150.641 19.0195Z" fill="#D91920"/>
<path d="M162.019 16.4334L162.019 13.718L163.572 13.718C164.162 13.718 164.611 13.8228 164.92 14.0323C165.226 14.2417 165.381 14.5858 165.381 15.0669C165.381 15.5224 165.242 15.8632 164.965 16.091C164.689 16.3197 164.223 16.4334 163.572 16.4334L162.019 16.4334ZM167.726 18.0211C168.576 17.3561 169.001 16.3709 169.001 15.0669C169.001 13.7862 168.576 12.8126 167.726 12.148C166.877 11.483 165.61 11.1449 163.923 11.1319L162.019 11.1319L162.019 6.09012L158.398 6.09012L158.398 19.0195L163.923 19.0195C165.61 19.0195 166.877 18.686 167.726 18.0211Z" fill="#D91920"/>
<path d="M90.7125 9.94955C90.3227 9.56627 89.8418 9.37501 89.2732 9.37501C88.6621 9.37501 88.1675 9.57989 87.7905 9.99381C87.4143 10.4061 87.2117 10.9095 87.1836 11.5029L91.3637 11.5029C91.3194 10.8516 91.1032 10.3336 90.7125 9.94955Z" fill="#D91920"/>
<path d="M85.1147 8.65215C86.1374 7.60913 87.5248 7.08813 89.2731 7.08813C91.2486 7.08813 92.7024 7.7145 93.6353 8.96733C94.5648 10.2202 95.0023 11.7502 94.9461 13.5607L87.0975 13.5607C87.0694 14.2711 87.2507 14.873 87.6414 15.3644C88.0321 15.8571 88.5913 16.0958 89.3148 16.0809C89.828 16.0958 90.257 15.9868 90.6068 15.7547C90.9541 15.5246 91.178 15.1978 91.2776 14.7776L94.8593 14.7776C94.4771 15.907 93.8294 16.7874 92.9203 17.4175C92.0096 18.0465 90.8086 18.3624 89.3148 18.3624C87.6388 18.3624 86.2659 17.8653 85.1994 16.8739C84.1332 15.8821 83.6002 14.4949 83.6002 12.7135C83.5856 11.049 84.0912 9.69551 85.1147 8.65215ZM89.2688 20.999C93.8302 20.999 97.5294 17.3001 97.5294 12.7384C97.5294 8.17532 93.8302 4.47709 89.2688 4.47709C84.7064 4.47709 81.0078 8.17532 81.0078 12.7384C81.0078 17.3001 84.7064 20.999 89.2688 20.999Z" fill="#D91920"/>
<path d="M49.1694 9.80239C49.7852 9.14972 50.5485 8.82287 51.4599 8.82287C52.3586 8.82287 53.1187 9.14972 53.7404 9.80239C54.3622 10.4551 54.673 11.3725 54.673 12.5544C54.673 13.7497 54.3622 14.6687 53.7404 15.3157C53.1187 15.9624 52.3586 16.2856 51.4599 16.2856C50.5485 16.2856 49.7852 15.9624 49.1694 15.3157C48.5536 14.6687 48.2458 13.7497 48.2458 12.5544C48.2458 11.3725 48.5536 10.4551 49.1694 9.80239ZM51.4599 19.3887C53.4661 19.3887 55.1256 18.7759 56.4369 17.55C57.7485 16.3255 58.4039 14.6607 58.4039 12.5544C58.3919 10.4614 57.7323 8.79929 56.428 7.5674C55.1223 6.33627 53.4661 5.72046 51.4599 5.72046C49.44 5.72046 47.7776 6.33627 46.473 7.5674C45.1676 8.79929 44.5156 10.4614 44.5156 12.5544C44.5156 14.6607 45.1676 16.3255 46.473 17.55C47.7776 18.7759 49.44 19.3887 51.4599 19.3887Z" fill="#D91920"/>
<path d="M61.4583 19.0195L65.0781 19.0195L65.0781 9.19287L67.9219 9.19287L67.9219 6.09012L58.6133 6.09012L58.6133 9.19287L61.4583 9.19287L61.4583 19.0195Z" fill="#D91920"/>
<path d="M100.829 19.0195L104.449 19.0195L104.449 9.19287L107.292 9.19287L107.292 6.09012L97.9844 6.09012L97.9844 9.19287L100.829 9.19287L100.829 19.0195Z" fill="#D91920"/>
</svg>
