<svg width="24" height="24" viewBox="0 0 24 24" fill="none" xmlns="http://www.w3.org/2000/svg">
<path d="M21.5 4.5H2.5V19H21.5V4.5Z" fill="#FFDD00"/>
<path d="M20 3H4C3.46957 3 2.96086 3.21071 2.58579 3.58579C2.21071 3.96086 2 4.46957 2 5V17.5H22V5C22 4.46957 21.7893 3.96086 21.4142 3.58579C21.0391 3.21071 20.5304 3 20 3ZM3 16V5H21V16H3Z" fill="#444444"/>
<path d="M15.5 17V18.5H8.5V17H0C0 18.0609 0.421427 19.0783 1.17157 19.8284C1.92172 20.5786 2.93913 21 4 21H20C21.0609 21 22.0783 20.5786 22.8284 19.8284C23.5786 19.0783 24 18.0609 24 17H15.5Z" fill="#444444"/>
<path d="M8 17H16V18.3333C16 18.5101 15.9473 18.6797 15.8536 18.8047C15.7598 18.9298 15.6326 19 15.5 19H8.5C8.36739 19 8.24021 18.9298 8.14645 18.8047C8.05268 18.6797 8 18.5101 8 18.3333V17Z" fill="#B3B3B3"/>
<path d="M10.5 13C10.3674 13 10.2402 12.9473 10.1464 12.8535C10.0527 12.7598 10 12.6326 10 12.5V8.99996C10.0002 8.91228 10.0234 8.82619 10.0674 8.75032C10.1113 8.67445 10.1745 8.61148 10.2504 8.56771C10.3264 8.52395 10.4126 8.50093 10.5003 8.50098C10.5879 8.50102 10.6741 8.52412 10.75 8.56796L13.75 10.318C13.8255 10.362 13.8882 10.425 13.9318 10.5008C13.9753 10.5766 13.9983 10.6625 13.9983 10.75C13.9983 10.8374 13.9753 10.9233 13.9318 10.9991C13.8882 11.0749 13.8255 11.1379 13.75 11.182L10.75 12.932C10.674 12.9761 10.5878 12.9995 10.5 13Z" fill="#E0282F"/>
</svg>
