<svg width="412" height="318" viewBox="0 0 412 318" fill="none" xmlns="http://www.w3.org/2000/svg">
<path d="M202.537 17.9999C204.077 15.3334 207.925 15.3333 209.465 17.9999L370.546 297C372.085 299.667 370.161 303 367.082 303H44.9197C41.8408 303 39.9164 299.667 41.4559 297L202.537 17.9999Z" fill="#F2DA37" stroke="#83720F" stroke-width="6"/>
<path d="M206 276C219.255 276 230 265.255 230 252C230 238.745 219.255 228 206 228C192.745 228 182 238.745 182 252C182 265.255 192.745 276 206 276Z" fill="#302C0B"/>
<path d="M185.991 114.905C185.459 109.049 190.07 104 195.95 104H215.392C221.146 104 225.714 108.845 225.374 114.59L220.056 204.59C219.744 209.874 215.367 214 210.073 214H204.132C198.96 214 194.641 210.056 194.173 204.905L185.991 114.905Z" fill="#302C0B"/>
</svg>
