<svg width="355" height="89" viewBox="0 0 355 89" fill="none" xmlns="http://www.w3.org/2000/svg">
<path d="M82.2256 48.0469V49.127H77.4268V58H76.1143V48.0469H82.2256ZM77.1191 52.1006H79.833C80.5622 52.1006 81.1774 52.2236 81.6787 52.4697C82.18 52.7113 82.5605 53.0508 82.8203 53.4883C83.0801 53.9258 83.21 54.4385 83.21 55.0264C83.21 55.4639 83.137 55.8649 82.9912 56.2295C82.8454 56.5895 82.6289 56.904 82.3418 57.1729C82.0547 57.4372 81.7015 57.6423 81.2822 57.7881C80.863 57.9294 80.3799 58 79.833 58H76.1143V48.0469H77.4336V56.9268H79.833C80.3206 56.9268 80.7148 56.8379 81.0156 56.6602C81.321 56.4779 81.5443 56.2409 81.6855 55.9492C81.8268 55.6576 81.8975 55.3454 81.8975 55.0127C81.8975 54.68 81.8268 54.3747 81.6855 54.0967C81.5443 53.8187 81.321 53.5977 81.0156 53.4336C80.7148 53.265 80.3206 53.1807 79.833 53.1807H77.1191V52.1006ZM86.874 57.2344L88.9316 50.6035H90.2852L87.3184 59.1416C87.25 59.3239 87.1589 59.5199 87.0449 59.7295C86.9355 59.9437 86.7943 60.1465 86.6211 60.3379C86.4479 60.5293 86.2383 60.6842 85.9922 60.8027C85.7507 60.9258 85.4613 60.9873 85.124 60.9873C85.0238 60.9873 84.8962 60.9736 84.7412 60.9463C84.5863 60.9189 84.4769 60.8962 84.4131 60.8779L84.4062 59.8525C84.4427 59.8571 84.4997 59.8617 84.5771 59.8662C84.6592 59.8753 84.7161 59.8799 84.748 59.8799C85.0352 59.8799 85.279 59.8411 85.4795 59.7637C85.68 59.6908 85.8486 59.5654 85.9854 59.3877C86.1266 59.2145 86.2474 58.9753 86.3477 58.6699L86.874 57.2344ZM85.3633 50.6035L87.2842 56.3457L87.6123 57.6787L86.7031 58.1436L83.9824 50.6035H85.3633ZM92.377 50.6035H93.6416L93.5322 53.3721C93.5049 54.0739 93.4251 54.68 93.293 55.1904C93.1608 55.7008 92.9922 56.1361 92.7871 56.4961C92.582 56.8516 92.3519 57.1501 92.0967 57.3916C91.846 57.6331 91.5863 57.8359 91.3174 58H90.6885L90.7227 56.9678L90.9824 56.9609C91.1328 56.7832 91.2786 56.6009 91.4199 56.4141C91.5612 56.2227 91.6911 55.9971 91.8096 55.7373C91.9281 55.473 92.026 55.1517 92.1035 54.7734C92.1855 54.3906 92.238 53.9235 92.2607 53.3721L92.377 50.6035ZM92.6914 50.6035H97.1416V58H95.877V51.7725H92.6914V50.6035ZM90.4014 56.9609H98.0918V60.1807H96.8271V58H91.666V60.1807H90.3945L90.4014 56.9609ZM102.562 58.1367C102.048 58.1367 101.58 58.0501 101.161 57.877C100.746 57.6992 100.389 57.4508 100.088 57.1318C99.7917 56.8128 99.5638 56.4346 99.4043 55.9971C99.2448 55.5596 99.165 55.0811 99.165 54.5615V54.2744C99.165 53.6729 99.2539 53.1374 99.4316 52.668C99.6094 52.194 99.8509 51.793 100.156 51.4648C100.462 51.1367 100.808 50.8883 101.195 50.7197C101.583 50.5511 101.984 50.4668 102.398 50.4668C102.927 50.4668 103.383 50.5579 103.766 50.7402C104.153 50.9225 104.47 51.1777 104.716 51.5059C104.962 51.8294 105.144 52.2122 105.263 52.6543C105.381 53.0918 105.44 53.5703 105.44 54.0898V54.6572H99.917V53.625H104.176V53.5293C104.158 53.2012 104.089 52.8822 103.971 52.5723C103.857 52.2624 103.674 52.0072 103.424 51.8066C103.173 51.6061 102.831 51.5059 102.398 51.5059C102.111 51.5059 101.847 51.5674 101.605 51.6904C101.364 51.8089 101.157 51.9867 100.983 52.2236C100.81 52.4606 100.676 52.75 100.58 53.0918C100.484 53.4336 100.437 53.8278 100.437 54.2744V54.5615C100.437 54.9124 100.484 55.2428 100.58 55.5527C100.68 55.8581 100.824 56.127 101.011 56.3594C101.202 56.5918 101.432 56.7741 101.701 56.9062C101.975 57.0384 102.285 57.1045 102.631 57.1045C103.077 57.1045 103.456 57.0133 103.766 56.8311C104.076 56.6488 104.347 56.4049 104.579 56.0996L105.345 56.708C105.185 56.9495 104.982 57.1797 104.736 57.3984C104.49 57.6172 104.187 57.7949 103.827 57.9316C103.472 58.0684 103.05 58.1367 102.562 58.1367ZM109.85 50.6035V58H108.578V50.6035H109.85ZM112.331 50.6035V51.6289H106.145V50.6035H112.331ZM120.521 54.7461H118.094L118.08 53.7344H120.062C120.454 53.7344 120.78 53.6956 121.04 53.6182C121.304 53.5407 121.503 53.4245 121.635 53.2695C121.767 53.1146 121.833 52.9232 121.833 52.6953C121.833 52.5176 121.794 52.3626 121.717 52.2305C121.644 52.0938 121.532 51.9821 121.382 51.8955C121.231 51.8044 121.045 51.7383 120.821 51.6973C120.603 51.6517 120.345 51.6289 120.049 51.6289H118.429V58H117.164V50.6035H120.049C120.518 50.6035 120.94 50.6445 121.313 50.7266C121.692 50.8086 122.013 50.9339 122.277 51.1025C122.546 51.2666 122.751 51.4762 122.893 51.7314C123.034 51.9867 123.104 52.2874 123.104 52.6338C123.104 52.8571 123.059 53.069 122.968 53.2695C122.877 53.4701 122.742 53.6478 122.564 53.8027C122.387 53.9577 122.168 54.0853 121.908 54.1855C121.648 54.2812 121.35 54.3428 121.013 54.3701L120.521 54.7461ZM120.521 58H117.636L118.265 56.9746H120.521C120.871 56.9746 121.163 56.9313 121.396 56.8447C121.628 56.7536 121.801 56.626 121.915 56.4619C122.034 56.2933 122.093 56.0928 122.093 55.8604C122.093 55.6279 122.034 55.4297 121.915 55.2656C121.801 55.097 121.628 54.9694 121.396 54.8828C121.163 54.7917 120.871 54.7461 120.521 54.7461H118.6L118.613 53.7344H121.013L121.471 54.1172C121.876 54.1491 122.22 54.2493 122.503 54.418C122.785 54.5866 123 54.8008 123.146 55.0605C123.291 55.3158 123.364 55.5938 123.364 55.8945C123.364 56.2409 123.298 56.5462 123.166 56.8105C123.038 57.0749 122.852 57.2959 122.605 57.4736C122.359 57.6468 122.061 57.779 121.71 57.8701C121.359 57.9567 120.963 58 120.521 58ZM126.099 53.1465H128.32C128.917 53.1465 129.421 53.2513 129.831 53.4609C130.241 53.666 130.551 53.9508 130.761 54.3154C130.975 54.6755 131.082 55.0856 131.082 55.5459C131.082 55.8877 131.023 56.209 130.904 56.5098C130.786 56.806 130.608 57.0658 130.371 57.2891C130.139 57.5124 129.849 57.6878 129.503 57.8154C129.161 57.9385 128.767 58 128.32 58H125.176V50.6035H126.44V56.9609H128.32C128.685 56.9609 128.977 56.8949 129.195 56.7627C129.414 56.6305 129.571 56.4596 129.667 56.25C129.763 56.0404 129.811 55.8216 129.811 55.5938C129.811 55.3704 129.763 55.1517 129.667 54.9375C129.571 54.7233 129.414 54.5456 129.195 54.4043C128.977 54.2585 128.685 54.1855 128.32 54.1855H126.099V53.1465ZM133.714 50.6035V58H132.449V50.6035H133.714ZM140.857 50.6035V51.6494H137.118V50.6035H140.857ZM137.303 50.6035V58H136.038V50.6035H137.303ZM141.979 50.6035V58H140.707V50.6035H141.979ZM146.087 57.2344L148.145 50.6035H149.498L146.531 59.1416C146.463 59.3239 146.372 59.5199 146.258 59.7295C146.148 59.9437 146.007 60.1465 145.834 60.3379C145.661 60.5293 145.451 60.6842 145.205 60.8027C144.964 60.9258 144.674 60.9873 144.337 60.9873C144.237 60.9873 144.109 60.9736 143.954 60.9463C143.799 60.9189 143.69 60.8962 143.626 60.8779L143.619 59.8525C143.656 59.8571 143.713 59.8617 143.79 59.8662C143.872 59.8753 143.929 59.8799 143.961 59.8799C144.248 59.8799 144.492 59.8411 144.692 59.7637C144.893 59.6908 145.062 59.5654 145.198 59.3877C145.34 59.2145 145.46 58.9753 145.561 58.6699L146.087 57.2344ZM144.576 50.6035L146.497 56.3457L146.825 57.6787L145.916 58.1436L143.195 50.6035H144.576ZM160.921 56.9609L160.798 60.1943H159.67V58H158.706V56.9609H160.921ZM150.674 50.6035H151.938V56.9609H154.646V50.6035H155.917V56.9609H158.617V50.6035H159.882V58H150.674V50.6035ZM165.385 58.1367C164.87 58.1367 164.403 58.0501 163.983 57.877C163.569 57.6992 163.211 57.4508 162.91 57.1318C162.614 56.8128 162.386 56.4346 162.227 55.9971C162.067 55.5596 161.987 55.0811 161.987 54.5615V54.2744C161.987 53.6729 162.076 53.1374 162.254 52.668C162.432 52.194 162.673 51.793 162.979 51.4648C163.284 51.1367 163.63 50.8883 164.018 50.7197C164.405 50.5511 164.806 50.4668 165.221 50.4668C165.749 50.4668 166.205 50.5579 166.588 50.7402C166.975 50.9225 167.292 51.1777 167.538 51.5059C167.784 51.8294 167.966 52.2122 168.085 52.6543C168.203 53.0918 168.263 53.5703 168.263 54.0898V54.6572H162.739V53.625H166.998V53.5293C166.98 53.2012 166.911 52.8822 166.793 52.5723C166.679 52.2624 166.497 52.0072 166.246 51.8066C165.995 51.6061 165.654 51.5059 165.221 51.5059C164.934 51.5059 164.669 51.5674 164.428 51.6904C164.186 51.8089 163.979 51.9867 163.806 52.2236C163.632 52.4606 163.498 52.75 163.402 53.0918C163.307 53.4336 163.259 53.8278 163.259 54.2744V54.5615C163.259 54.9124 163.307 55.2428 163.402 55.5527C163.503 55.8581 163.646 56.127 163.833 56.3594C164.024 56.5918 164.255 56.7741 164.523 56.9062C164.797 57.0384 165.107 57.1045 165.453 57.1045C165.9 57.1045 166.278 57.0133 166.588 56.8311C166.898 56.6488 167.169 56.4049 167.401 56.0996L168.167 56.708C168.007 56.9495 167.805 57.1797 167.559 57.3984C167.312 57.6172 167.009 57.7949 166.649 57.9316C166.294 58.0684 165.872 58.1367 165.385 58.1367ZM174.757 53.8096V54.835H170.847V53.8096H174.757ZM171.113 50.6035V58H169.849V50.6035H171.113ZM175.782 50.6035V58H174.511V50.6035H175.782ZM186.31 53.8096V54.835H182.399V53.8096H186.31ZM182.666 50.6035V58H181.401V50.6035H182.666ZM187.335 50.6035V58H186.063V50.6035H187.335ZM189.037 54.3838V54.2266C189.037 53.6934 189.115 53.1989 189.27 52.7432C189.424 52.2829 189.648 51.8841 189.939 51.5469C190.231 51.2051 190.584 50.9408 190.999 50.7539C191.414 50.5625 191.879 50.4668 192.394 50.4668C192.913 50.4668 193.38 50.5625 193.795 50.7539C194.214 50.9408 194.57 51.2051 194.861 51.5469C195.158 51.8841 195.383 52.2829 195.538 52.7432C195.693 53.1989 195.771 53.6934 195.771 54.2266V54.3838C195.771 54.917 195.693 55.4115 195.538 55.8672C195.383 56.3229 195.158 56.7217 194.861 57.0635C194.57 57.4007 194.216 57.665 193.802 57.8564C193.392 58.0433 192.927 58.1367 192.407 58.1367C191.888 58.1367 191.421 58.0433 191.006 57.8564C190.591 57.665 190.236 57.4007 189.939 57.0635C189.648 56.7217 189.424 56.3229 189.27 55.8672C189.115 55.4115 189.037 54.917 189.037 54.3838ZM190.302 54.2266V54.3838C190.302 54.7529 190.345 55.1016 190.432 55.4297C190.518 55.7533 190.648 56.0404 190.821 56.291C190.999 56.5417 191.22 56.7399 191.484 56.8857C191.749 57.027 192.056 57.0977 192.407 57.0977C192.754 57.0977 193.057 57.027 193.316 56.8857C193.581 56.7399 193.799 56.5417 193.973 56.291C194.146 56.0404 194.276 55.7533 194.362 55.4297C194.453 55.1016 194.499 54.7529 194.499 54.3838V54.2266C194.499 53.862 194.453 53.5179 194.362 53.1943C194.276 52.8662 194.144 52.5768 193.966 52.3262C193.793 52.071 193.574 51.8704 193.31 51.7246C193.05 51.5788 192.744 51.5059 192.394 51.5059C192.047 51.5059 191.742 51.5788 191.478 51.7246C191.218 51.8704 190.999 52.071 190.821 52.3262C190.648 52.5768 190.518 52.8662 190.432 53.1943C190.345 53.5179 190.302 53.862 190.302 54.2266ZM200.829 54.7461H198.402L198.389 53.7344H200.371C200.763 53.7344 201.089 53.6956 201.349 53.6182C201.613 53.5407 201.811 53.4245 201.943 53.2695C202.076 53.1146 202.142 52.9232 202.142 52.6953C202.142 52.5176 202.103 52.3626 202.025 52.2305C201.952 52.0938 201.841 51.9821 201.69 51.8955C201.54 51.8044 201.353 51.7383 201.13 51.6973C200.911 51.6517 200.654 51.6289 200.357 51.6289H198.737V58H197.473V50.6035H200.357C200.827 50.6035 201.248 50.6445 201.622 50.7266C202 50.8086 202.322 50.9339 202.586 51.1025C202.855 51.2666 203.06 51.4762 203.201 51.7314C203.342 51.9867 203.413 52.2874 203.413 52.6338C203.413 52.8571 203.368 53.069 203.276 53.2695C203.185 53.4701 203.051 53.6478 202.873 53.8027C202.695 53.9577 202.477 54.0853 202.217 54.1855C201.957 54.2812 201.659 54.3428 201.321 54.3701L200.829 54.7461ZM200.829 58H197.944L198.573 56.9746H200.829C201.18 56.9746 201.472 56.9313 201.704 56.8447C201.937 56.7536 202.11 56.626 202.224 56.4619C202.342 56.2933 202.401 56.0928 202.401 55.8604C202.401 55.6279 202.342 55.4297 202.224 55.2656C202.11 55.097 201.937 54.9694 201.704 54.8828C201.472 54.7917 201.18 54.7461 200.829 54.7461H198.908L198.922 53.7344H201.321L201.779 54.1172C202.185 54.1491 202.529 54.2493 202.812 54.418C203.094 54.5866 203.308 54.8008 203.454 55.0605C203.6 55.3158 203.673 55.5938 203.673 55.8945C203.673 56.2409 203.607 56.5462 203.475 56.8105C203.347 57.0749 203.16 57.2959 202.914 57.4736C202.668 57.6468 202.369 57.779 202.019 57.8701C201.668 57.9567 201.271 58 200.829 58ZM206.407 53.1465H208.629C209.226 53.1465 209.729 53.2513 210.14 53.4609C210.55 53.666 210.86 53.9508 211.069 54.3154C211.284 54.6755 211.391 55.0856 211.391 55.5459C211.391 55.8877 211.331 56.209 211.213 56.5098C211.094 56.806 210.917 57.0658 210.68 57.2891C210.447 57.5124 210.158 57.6878 209.812 57.8154C209.47 57.9385 209.076 58 208.629 58H205.484V50.6035H206.749V56.9609H208.629C208.993 56.9609 209.285 56.8949 209.504 56.7627C209.723 56.6305 209.88 56.4596 209.976 56.25C210.071 56.0404 210.119 55.8216 210.119 55.5938C210.119 55.3704 210.071 55.1517 209.976 54.9375C209.88 54.7233 209.723 54.5456 209.504 54.4043C209.285 54.2585 208.993 54.1855 208.629 54.1855H206.407V53.1465ZM214.022 50.6035V58H212.758V50.6035H214.022ZM217.604 55.9971L221.016 50.6035H222.287V58H221.016V52.6064L217.604 58H216.347V50.6035H217.604V55.9971ZM220.325 47.9238H221.351C221.351 48.2793 221.269 48.596 221.104 48.874C220.94 49.1475 220.706 49.3617 220.4 49.5166C220.095 49.6715 219.733 49.749 219.313 49.749C218.68 49.749 218.179 49.5804 217.81 49.2432C217.445 48.9014 217.263 48.4616 217.263 47.9238H218.288C218.288 48.1927 218.366 48.4297 218.521 48.6348C218.675 48.8398 218.94 48.9424 219.313 48.9424C219.678 48.9424 219.938 48.8398 220.093 48.6348C220.248 48.4297 220.325 48.1927 220.325 47.9238ZM230.75 57.0977C231.051 57.0977 231.329 57.0361 231.584 56.9131C231.839 56.79 232.049 56.6214 232.213 56.4072C232.377 56.1885 232.47 55.9401 232.493 55.6621H233.696C233.674 56.0996 233.525 56.5075 233.252 56.8857C232.983 57.2594 232.63 57.5625 232.192 57.7949C231.755 58.0228 231.274 58.1367 230.75 58.1367C230.194 58.1367 229.709 58.0387 229.294 57.8428C228.884 57.6468 228.542 57.3779 228.269 57.0361C228 56.6943 227.797 56.3024 227.66 55.8604C227.528 55.4137 227.462 54.9421 227.462 54.4453V54.1582C227.462 53.6615 227.528 53.1921 227.66 52.75C227.797 52.3034 228 51.9092 228.269 51.5674C228.542 51.2256 228.884 50.9567 229.294 50.7607C229.709 50.5648 230.194 50.4668 230.75 50.4668C231.329 50.4668 231.835 50.5853 232.268 50.8223C232.701 51.0547 233.04 51.3737 233.286 51.7793C233.537 52.1803 233.674 52.6361 233.696 53.1465H232.493C232.47 52.8411 232.384 52.5654 232.233 52.3193C232.088 52.0732 231.887 51.8773 231.632 51.7314C231.381 51.5811 231.087 51.5059 230.75 51.5059C230.363 51.5059 230.037 51.5833 229.772 51.7383C229.513 51.8887 229.305 52.0938 229.15 52.3535C229 52.6087 228.891 52.8936 228.822 53.208C228.758 53.5179 228.727 53.8346 228.727 54.1582V54.4453C228.727 54.7689 228.758 55.0879 228.822 55.4023C228.886 55.7168 228.993 56.0016 229.144 56.2568C229.299 56.512 229.506 56.7171 229.766 56.8721C230.03 57.0225 230.358 57.0977 230.75 57.0977ZM238.188 58.1367C237.673 58.1367 237.205 58.0501 236.786 57.877C236.371 57.6992 236.014 57.4508 235.713 57.1318C235.417 56.8128 235.189 56.4346 235.029 55.9971C234.87 55.5596 234.79 55.0811 234.79 54.5615V54.2744C234.79 53.6729 234.879 53.1374 235.057 52.668C235.234 52.194 235.476 51.793 235.781 51.4648C236.087 51.1367 236.433 50.8883 236.82 50.7197C237.208 50.5511 237.609 50.4668 238.023 50.4668C238.552 50.4668 239.008 50.5579 239.391 50.7402C239.778 50.9225 240.095 51.1777 240.341 51.5059C240.587 51.8294 240.769 52.2122 240.888 52.6543C241.006 53.0918 241.065 53.5703 241.065 54.0898V54.6572H235.542V53.625H239.801V53.5293C239.783 53.2012 239.714 52.8822 239.596 52.5723C239.482 52.2624 239.299 52.0072 239.049 51.8066C238.798 51.6061 238.456 51.5059 238.023 51.5059C237.736 51.5059 237.472 51.5674 237.23 51.6904C236.989 51.8089 236.782 51.9867 236.608 52.2236C236.435 52.4606 236.301 52.75 236.205 53.0918C236.109 53.4336 236.062 53.8278 236.062 54.2744V54.5615C236.062 54.9124 236.109 55.2428 236.205 55.5527C236.305 55.8581 236.449 56.127 236.636 56.3594C236.827 56.5918 237.057 56.7741 237.326 56.9062C237.6 57.0384 237.91 57.1045 238.256 57.1045C238.702 57.1045 239.081 57.0133 239.391 56.8311C239.701 56.6488 239.972 56.4049 240.204 56.0996L240.97 56.708C240.81 56.9495 240.607 57.1797 240.361 57.3984C240.115 57.6172 239.812 57.7949 239.452 57.9316C239.097 58.0684 238.675 58.1367 238.188 58.1367ZM243.807 52.0254V60.8438H242.535V50.6035H243.697L243.807 52.0254ZM248.79 54.2402V54.3838C248.79 54.9215 248.726 55.4206 248.599 55.8809C248.471 56.3366 248.284 56.7331 248.038 57.0703C247.797 57.4076 247.498 57.6696 247.143 57.8564C246.787 58.0433 246.379 58.1367 245.919 58.1367C245.45 58.1367 245.035 58.0592 244.675 57.9043C244.315 57.7493 244.009 57.5238 243.759 57.2275C243.508 56.9313 243.308 56.5758 243.157 56.1611C243.011 55.7464 242.911 55.2793 242.856 54.7598V53.9941C242.911 53.4473 243.014 52.9574 243.164 52.5244C243.314 52.0915 243.513 51.7223 243.759 51.417C244.009 51.1071 244.312 50.8724 244.668 50.7129C245.023 50.5488 245.434 50.4668 245.898 50.4668C246.363 50.4668 246.776 50.5579 247.136 50.7402C247.496 50.918 247.799 51.1732 248.045 51.5059C248.291 51.8385 248.476 52.2373 248.599 52.7021C248.726 53.1624 248.79 53.6751 248.79 54.2402ZM247.519 54.3838V54.2402C247.519 53.8711 247.48 53.5247 247.402 53.2012C247.325 52.873 247.204 52.5859 247.04 52.3398C246.881 52.0892 246.675 51.8932 246.425 51.752C246.174 51.6061 245.876 51.5332 245.529 51.5332C245.21 51.5332 244.932 51.5879 244.695 51.6973C244.463 51.8066 244.265 51.9548 244.101 52.1416C243.937 52.3239 243.802 52.5335 243.697 52.7705C243.597 53.0029 243.522 53.2445 243.472 53.4951V55.2656C243.563 55.5846 243.69 55.8854 243.854 56.168C244.019 56.446 244.237 56.6715 244.511 56.8447C244.784 57.0133 245.128 57.0977 245.543 57.0977C245.885 57.0977 246.179 57.027 246.425 56.8857C246.675 56.7399 246.881 56.5417 247.04 56.291C247.204 56.0404 247.325 55.7533 247.402 55.4297C247.48 55.1016 247.519 54.7529 247.519 54.3838ZM252.871 50.6035V58H251.6V50.6035H252.871ZM255.353 50.6035V51.6289H249.166V50.6035H255.353ZM257.964 55.9971L261.375 50.6035H262.646V58H261.375V52.6064L257.964 58H256.706V50.6035H257.964V55.9971ZM273.181 54.4316V54.5752C273.181 55.0947 273.124 55.5732 273.01 56.0107C272.896 56.4437 272.725 56.8197 272.497 57.1387C272.274 57.4577 271.996 57.7061 271.663 57.8838C271.33 58.057 270.945 58.1436 270.508 58.1436C270.148 58.1436 269.831 58.0957 269.558 58C269.284 57.8997 269.052 57.7562 268.86 57.5693C268.674 57.3825 268.523 57.1592 268.409 56.8994C268.3 56.6351 268.225 56.3389 268.184 56.0107V52.7295C268.225 52.3786 268.3 52.0641 268.409 51.7861C268.523 51.5081 268.674 51.2712 268.86 51.0752C269.052 50.8792 269.282 50.7288 269.551 50.624C269.82 50.5192 270.134 50.4668 270.494 50.4668C270.85 50.4668 271.169 50.5306 271.451 50.6582C271.738 50.7812 271.989 50.959 272.203 51.1914C272.422 51.4238 272.602 51.7041 272.743 52.0322C272.889 52.3558 272.998 52.7204 273.071 53.126C273.144 53.5316 273.181 53.9668 273.181 54.4316ZM271.916 54.5752V54.4316C271.916 54.1126 271.893 53.8096 271.848 53.5225C271.807 53.2308 271.741 52.9642 271.649 52.7227C271.563 52.4766 271.449 52.2624 271.308 52.0801C271.166 51.8978 270.995 51.7565 270.795 51.6562C270.599 51.556 270.373 51.5059 270.118 51.5059C269.845 51.5059 269.617 51.54 269.435 51.6084C269.257 51.6768 269.118 51.7679 269.018 51.8818C268.917 51.9912 268.844 52.1074 268.799 52.2305V56.5166C268.854 56.6169 268.933 56.7126 269.038 56.8037C269.143 56.8903 269.284 56.9632 269.462 57.0225C269.64 57.0771 269.863 57.1045 270.132 57.1045C270.451 57.1045 270.722 57.0407 270.945 56.9131C271.173 56.7809 271.358 56.5986 271.499 56.3662C271.645 56.1338 271.75 55.8649 271.813 55.5596C271.882 55.2542 271.916 54.9261 271.916 54.5752ZM264.396 54.5752V54.4316C264.396 53.9668 264.433 53.5316 264.506 53.126C264.579 52.7204 264.688 52.3558 264.834 52.0322C264.98 51.7041 265.16 51.4238 265.374 51.1914C265.593 50.959 265.843 50.7812 266.126 50.6582C266.413 50.5306 266.734 50.4668 267.09 50.4668C267.441 50.4668 267.746 50.5192 268.006 50.624C268.27 50.7288 268.493 50.8792 268.676 51.0752C268.858 51.2712 269.004 51.5081 269.113 51.7861C269.223 52.0641 269.3 52.3786 269.346 52.7295V55.8809C269.305 56.2272 269.229 56.5394 269.12 56.8174C269.011 57.0954 268.865 57.3346 268.683 57.5352C268.5 57.7311 268.275 57.8815 268.006 57.9863C267.742 58.0911 267.432 58.1436 267.076 58.1436C266.639 58.1436 266.254 58.057 265.921 57.8838C265.588 57.7061 265.308 57.4577 265.08 57.1387C264.857 56.8197 264.686 56.4437 264.567 56.0107C264.453 55.5732 264.396 55.0947 264.396 54.5752ZM265.668 54.4316V54.5752C265.668 54.9261 265.698 55.2542 265.757 55.5596C265.821 55.8649 265.919 56.1338 266.051 56.3662C266.188 56.5986 266.365 56.7809 266.584 56.9131C266.803 57.0407 267.072 57.1045 267.391 57.1045C267.664 57.1045 267.89 57.0703 268.067 57.002C268.245 56.9336 268.386 56.8447 268.491 56.7354C268.596 56.626 268.676 56.512 268.73 56.3936V52.2305C268.685 52.1074 268.61 51.9912 268.505 51.8818C268.405 51.7679 268.266 51.6768 268.088 51.6084C267.91 51.54 267.682 51.5059 267.404 51.5059C267.085 51.5059 266.814 51.5833 266.591 51.7383C266.368 51.8932 266.188 52.1051 266.051 52.374C265.919 52.6429 265.821 52.9551 265.757 53.3105C265.698 53.6615 265.668 54.0352 265.668 54.4316ZM268.102 60.8438V47.5H269.373V60.8438H268.102ZM276.202 55.9971L279.613 50.6035H280.885V58H279.613V52.6064L276.202 58H274.944V50.6035H276.202V55.9971ZM284.289 50.6035V58H283.024V50.6035H284.289ZM289.143 50.6035L285.636 54.8418H283.865L283.674 53.7344H285.123L287.604 50.6035H289.143ZM287.782 58L285.062 54.6504L285.875 53.7344L289.389 58H287.782ZM294.851 56.7354V52.9277C294.851 52.6361 294.791 52.3831 294.673 52.1689C294.559 51.9502 294.386 51.7816 294.153 51.6631C293.921 51.5446 293.634 51.4854 293.292 51.4854C292.973 51.4854 292.693 51.54 292.451 51.6494C292.214 51.7588 292.027 51.9023 291.891 52.0801C291.758 52.2578 291.692 52.4492 291.692 52.6543H290.428C290.428 52.39 290.496 52.1279 290.633 51.8682C290.77 51.6084 290.965 51.3737 291.221 51.1641C291.48 50.9499 291.79 50.7812 292.15 50.6582C292.515 50.5306 292.921 50.4668 293.367 50.4668C293.905 50.4668 294.379 50.5579 294.789 50.7402C295.204 50.9225 295.527 51.1982 295.76 51.5674C295.997 51.932 296.115 52.39 296.115 52.9414V56.3867C296.115 56.6328 296.136 56.8949 296.177 57.1729C296.222 57.4508 296.288 57.6901 296.375 57.8906V58H295.056C294.992 57.8542 294.942 57.6605 294.905 57.4189C294.869 57.1729 294.851 56.945 294.851 56.7354ZM295.069 53.5156L295.083 54.4043H293.805C293.445 54.4043 293.123 54.4339 292.841 54.4932C292.558 54.5479 292.321 54.6322 292.13 54.7461C291.938 54.86 291.793 55.0036 291.692 55.1768C291.592 55.3454 291.542 55.5436 291.542 55.7715C291.542 56.0039 291.594 56.2158 291.699 56.4072C291.804 56.5986 291.961 56.7513 292.171 56.8652C292.385 56.9746 292.647 57.0293 292.957 57.0293C293.344 57.0293 293.686 56.9473 293.982 56.7832C294.279 56.6191 294.513 56.4186 294.687 56.1816C294.864 55.9447 294.96 55.7145 294.974 55.4912L295.514 56.0996C295.482 56.291 295.395 56.5029 295.254 56.7354C295.113 56.9678 294.924 57.1911 294.687 57.4053C294.454 57.6149 294.176 57.7904 293.853 57.9316C293.534 58.0684 293.174 58.1367 292.772 58.1367C292.271 58.1367 291.831 58.0387 291.453 57.8428C291.079 57.6468 290.788 57.3848 290.578 57.0566C290.373 56.724 290.271 56.3525 290.271 55.9424C290.271 55.5459 290.348 55.1973 290.503 54.8965C290.658 54.5911 290.881 54.3382 291.173 54.1377C291.465 53.9326 291.815 53.7777 292.226 53.6729C292.636 53.568 293.094 53.5156 293.6 53.5156H295.069ZM301.01 50.6035V58H299.738V50.6035H301.01ZM303.491 50.6035V51.6289H297.305V50.6035H303.491ZM304.756 57.3301C304.756 57.1159 304.822 56.9359 304.954 56.79C305.091 56.6396 305.287 56.5645 305.542 56.5645C305.797 56.5645 305.991 56.6396 306.123 56.79C306.26 56.9359 306.328 57.1159 306.328 57.3301C306.328 57.5397 306.26 57.7174 306.123 57.8633C305.991 58.0091 305.797 58.082 305.542 58.082C305.287 58.082 305.091 58.0091 304.954 57.8633C304.822 57.7174 304.756 57.5397 304.756 57.3301Z" fill="black"/>
<path d="M83.6719 34.375V35.9297H77.6328V34.375H83.6719ZM78.1172 29.625V41H76.1562V29.625H78.1172ZM85.1797 29.625V41H83.2266V29.625H85.1797ZM91.0547 41.1562C90.4297 41.1562 89.8646 41.0547 89.3594 40.8516C88.8594 40.6432 88.4323 40.3542 88.0781 39.9844C87.7292 39.6146 87.4609 39.1797 87.2734 38.6797C87.0859 38.1797 86.9922 37.6406 86.9922 37.0625V36.75C86.9922 36.0885 87.0885 35.4896 87.2812 34.9531C87.474 34.4167 87.7422 33.9583 88.0859 33.5781C88.4297 33.1927 88.8359 32.8984 89.3047 32.6953C89.7734 32.4922 90.2812 32.3906 90.8281 32.3906C91.4323 32.3906 91.9609 32.4922 92.4141 32.6953C92.8672 32.8984 93.2422 33.1849 93.5391 33.5547C93.8411 33.9193 94.0651 34.3542 94.2109 34.8594C94.362 35.3646 94.4375 35.9219 94.4375 36.5312V37.3359H87.9062V35.9844H92.5781V35.8359C92.5677 35.4974 92.5 35.1797 92.375 34.8828C92.2552 34.5859 92.0703 34.3464 91.8203 34.1641C91.5703 33.9818 91.237 33.8906 90.8203 33.8906C90.5078 33.8906 90.2292 33.9583 89.9844 34.0938C89.7448 34.224 89.5443 34.4141 89.3828 34.6641C89.2214 34.9141 89.0964 35.2161 89.0078 35.5703C88.9245 35.9193 88.8828 36.3125 88.8828 36.75V37.0625C88.8828 37.4323 88.9323 37.776 89.0312 38.0938C89.1354 38.4062 89.2865 38.6797 89.4844 38.9141C89.6823 39.1484 89.9219 39.3333 90.2031 39.4688C90.4844 39.599 90.8047 39.6641 91.1641 39.6641C91.6172 39.6641 92.0208 39.5729 92.375 39.3906C92.7292 39.2083 93.0365 38.9505 93.2969 38.6172L94.2891 39.5781C94.1068 39.8438 93.8698 40.099 93.5781 40.3438C93.2865 40.5833 92.9297 40.7786 92.5078 40.9297C92.0911 41.0807 91.6068 41.1562 91.0547 41.1562ZM99.7344 32.5469V41H97.8438V32.5469H99.7344ZM102.508 32.5469V34.0312H95.1172V32.5469H102.508ZM111.203 39.6562C111.51 39.6562 111.786 39.5964 112.031 39.4766C112.281 39.3516 112.482 39.1797 112.633 38.9609C112.789 38.7422 112.875 38.4896 112.891 38.2031H114.664C114.654 38.75 114.492 39.2474 114.18 39.6953C113.867 40.1432 113.453 40.5 112.938 40.7656C112.422 41.026 111.852 41.1562 111.227 41.1562C110.581 41.1562 110.018 41.0469 109.539 40.8281C109.06 40.6042 108.661 40.2969 108.344 39.9062C108.026 39.5156 107.786 39.0651 107.625 38.5547C107.469 38.0443 107.391 37.4974 107.391 36.9141V36.6406C107.391 36.0573 107.469 35.5104 107.625 35C107.786 34.4844 108.026 34.0312 108.344 33.6406C108.661 33.25 109.06 32.9453 109.539 32.7266C110.018 32.5026 110.578 32.3906 111.219 32.3906C111.896 32.3906 112.49 32.526 113 32.7969C113.51 33.0625 113.911 33.4349 114.203 33.9141C114.5 34.388 114.654 34.9401 114.664 35.5703H112.891C112.875 35.2578 112.797 34.9766 112.656 34.7266C112.521 34.4714 112.328 34.2682 112.078 34.1172C111.833 33.9661 111.539 33.8906 111.195 33.8906C110.815 33.8906 110.5 33.9688 110.25 34.125C110 34.276 109.805 34.4844 109.664 34.75C109.523 35.0104 109.422 35.3047 109.359 35.6328C109.302 35.9557 109.273 36.2917 109.273 36.6406V36.9141C109.273 37.263 109.302 37.6016 109.359 37.9297C109.417 38.2578 109.516 38.5521 109.656 38.8125C109.802 39.0677 110 39.2734 110.25 39.4297C110.5 39.5807 110.818 39.6562 111.203 39.6562ZM119.836 41.1562C119.211 41.1562 118.646 41.0547 118.141 40.8516C117.641 40.6432 117.214 40.3542 116.859 39.9844C116.51 39.6146 116.242 39.1797 116.055 38.6797C115.867 38.1797 115.773 37.6406 115.773 37.0625V36.75C115.773 36.0885 115.87 35.4896 116.062 34.9531C116.255 34.4167 116.523 33.9583 116.867 33.5781C117.211 33.1927 117.617 32.8984 118.086 32.6953C118.555 32.4922 119.062 32.3906 119.609 32.3906C120.214 32.3906 120.742 32.4922 121.195 32.6953C121.648 32.8984 122.023 33.1849 122.32 33.5547C122.622 33.9193 122.846 34.3542 122.992 34.8594C123.143 35.3646 123.219 35.9219 123.219 36.5312V37.3359H116.688V35.9844H121.359V35.8359C121.349 35.4974 121.281 35.1797 121.156 34.8828C121.036 34.5859 120.852 34.3464 120.602 34.1641C120.352 33.9818 120.018 33.8906 119.602 33.8906C119.289 33.8906 119.01 33.9583 118.766 34.0938C118.526 34.224 118.326 34.4141 118.164 34.6641C118.003 34.9141 117.878 35.2161 117.789 35.5703C117.706 35.9193 117.664 36.3125 117.664 36.75V37.0625C117.664 37.4323 117.714 37.776 117.812 38.0938C117.917 38.4062 118.068 38.6797 118.266 38.9141C118.464 39.1484 118.703 39.3333 118.984 39.4688C119.266 39.599 119.586 39.6641 119.945 39.6641C120.398 39.6641 120.802 39.5729 121.156 39.3906C121.51 39.2083 121.818 38.9505 122.078 38.6172L123.07 39.5781C122.888 39.8438 122.651 40.099 122.359 40.3438C122.068 40.5833 121.711 40.7786 121.289 40.9297C120.872 41.0807 120.388 41.1562 119.836 41.1562ZM126.578 34.1719V44.25H124.695V32.5469H126.43L126.578 34.1719ZM132.086 36.6953V36.8594C132.086 37.474 132.013 38.0443 131.867 38.5703C131.727 39.0911 131.516 39.5469 131.234 39.9375C130.958 40.3229 130.617 40.6224 130.211 40.8359C129.805 41.0495 129.336 41.1562 128.805 41.1562C128.279 41.1562 127.818 41.0599 127.422 40.8672C127.031 40.6693 126.701 40.3906 126.43 40.0312C126.159 39.6719 125.94 39.25 125.773 38.7656C125.612 38.276 125.497 37.7396 125.43 37.1562V36.5234C125.497 35.9036 125.612 35.3411 125.773 34.8359C125.94 34.3307 126.159 33.8958 126.43 33.5312C126.701 33.1667 127.031 32.8854 127.422 32.6875C127.812 32.4896 128.268 32.3906 128.789 32.3906C129.32 32.3906 129.792 32.4948 130.203 32.7031C130.615 32.9062 130.961 33.1979 131.242 33.5781C131.523 33.9531 131.734 34.4062 131.875 34.9375C132.016 35.4635 132.086 36.0495 132.086 36.6953ZM130.203 36.8594V36.6953C130.203 36.3047 130.167 35.9427 130.094 35.6094C130.021 35.2708 129.906 34.974 129.75 34.7188C129.594 34.4635 129.393 34.2656 129.148 34.125C128.909 33.9792 128.62 33.9062 128.281 33.9062C127.948 33.9062 127.661 33.9635 127.422 34.0781C127.182 34.1875 126.982 34.3411 126.82 34.5391C126.659 34.737 126.534 34.9688 126.445 35.2344C126.357 35.4948 126.294 35.7786 126.258 36.0859V37.6016C126.32 37.9766 126.427 38.3203 126.578 38.6328C126.729 38.9453 126.943 39.1953 127.219 39.3828C127.5 39.5651 127.859 39.6562 128.297 39.6562C128.635 39.6562 128.924 39.5833 129.164 39.4375C129.404 39.2917 129.599 39.0911 129.75 38.8359C129.906 38.5755 130.021 38.276 130.094 37.9375C130.167 37.599 130.203 37.2396 130.203 36.8594ZM137.094 32.5469V41H135.203V32.5469H137.094ZM139.867 32.5469V34.0312H132.477V32.5469H139.867ZM143.07 38.25L146.391 32.5469H148.273V41H146.391V35.2891L143.07 41H141.188V32.5469H143.07V38.25ZM160.305 36.875V37.0391C160.305 37.638 160.237 38.1901 160.102 38.6953C159.971 39.1953 159.776 39.6302 159.516 40C159.255 40.3698 158.932 40.6562 158.547 40.8594C158.167 41.0625 157.724 41.1641 157.219 41.1641C156.776 41.1641 156.391 41.0885 156.062 40.9375C155.734 40.7865 155.458 40.5755 155.234 40.3047C155.01 40.0286 154.831 39.7057 154.695 39.3359C154.56 38.9609 154.461 38.5495 154.398 38.1016V35.6562C154.461 35.1771 154.557 34.7396 154.688 34.3438C154.823 33.9427 155.003 33.5964 155.227 33.3047C155.456 33.013 155.732 32.7891 156.055 32.6328C156.378 32.4714 156.76 32.3906 157.203 32.3906C157.609 32.3906 157.977 32.4635 158.305 32.6094C158.633 32.75 158.922 32.9531 159.172 33.2188C159.422 33.4792 159.63 33.7943 159.797 34.1641C159.964 34.5286 160.089 34.9401 160.172 35.3984C160.26 35.8568 160.305 36.349 160.305 36.875ZM158.422 37.0391V36.875C158.422 36.5469 158.401 36.2344 158.359 35.9375C158.318 35.6406 158.253 35.3698 158.164 35.125C158.081 34.875 157.971 34.6589 157.836 34.4766C157.701 34.2891 157.536 34.1458 157.344 34.0469C157.156 33.9427 156.938 33.8906 156.688 33.8906C156.349 33.8906 156.068 33.9479 155.844 34.0625C155.625 34.1719 155.458 34.3281 155.344 34.5312C155.234 34.7292 155.164 34.9583 155.133 35.2188V38.5469C155.169 38.7656 155.245 38.9583 155.359 39.125C155.479 39.2917 155.648 39.4245 155.867 39.5234C156.086 39.6172 156.365 39.6641 156.703 39.6641C157.016 39.6641 157.279 39.599 157.492 39.4688C157.711 39.3333 157.888 39.1458 158.023 38.9062C158.164 38.6667 158.266 38.388 158.328 38.0703C158.391 37.7526 158.422 37.4089 158.422 37.0391ZM149.945 37.0391V36.875C149.945 36.349 149.987 35.8568 150.07 35.3984C150.154 34.9401 150.279 34.5286 150.445 34.1641C150.617 33.7943 150.828 33.4792 151.078 33.2188C151.328 32.9531 151.617 32.75 151.945 32.6094C152.273 32.4635 152.641 32.3906 153.047 32.3906C153.484 32.3906 153.862 32.4714 154.18 32.6328C154.497 32.7891 154.766 33.013 154.984 33.3047C155.208 33.5964 155.385 33.9427 155.516 34.3438C155.651 34.7396 155.75 35.1771 155.812 35.6562V38.0078C155.755 38.4661 155.659 38.888 155.523 39.2734C155.388 39.6589 155.211 39.9922 154.992 40.2734C154.773 40.5547 154.503 40.7734 154.18 40.9297C153.857 41.0859 153.474 41.1641 153.031 41.1641C152.531 41.1641 152.089 41.0625 151.703 40.8594C151.318 40.6562 150.995 40.3698 150.734 40C150.474 39.6302 150.276 39.1953 150.141 38.6953C150.01 38.1901 149.945 37.638 149.945 37.0391ZM151.828 36.875V37.0391C151.828 37.4089 151.857 37.7526 151.914 38.0703C151.977 38.388 152.073 38.6667 152.203 38.9062C152.333 39.1406 152.505 39.3255 152.719 39.4609C152.932 39.5964 153.195 39.6641 153.508 39.6641C153.852 39.6641 154.133 39.612 154.352 39.5078C154.57 39.4036 154.737 39.2604 154.852 39.0781C154.971 38.8958 155.049 38.6875 155.086 38.4531V35.2188C155.055 34.9583 154.982 34.7292 154.867 34.5312C154.753 34.3281 154.586 34.1719 154.367 34.0625C154.148 33.9479 153.867 33.8906 153.523 33.8906C153.211 33.8906 152.945 33.9688 152.727 34.125C152.513 34.2812 152.339 34.4974 152.203 34.7734C152.073 35.0443 151.977 35.362 151.914 35.7266C151.857 36.0859 151.828 36.4688 151.828 36.875ZM154.141 44.25V29H156.031V44.25H154.141ZM163.867 38.25L167.188 32.5469H169.07V41H167.188V35.2891L163.867 41H161.984V32.5469H163.867V38.25ZM173.094 32.5469V41H171.211V32.5469H173.094ZM178.609 32.5469L174.805 37.6328H172.656L172.406 35.9297H173.977L176.258 32.5469H178.609ZM176.406 41L173.859 37.3125L175.344 36.2422L178.883 41H176.406ZM184.672 39.3047V35.2734C184.672 34.9714 184.617 34.7109 184.508 34.4922C184.398 34.2734 184.232 34.1042 184.008 33.9844C183.789 33.8646 183.513 33.8047 183.18 33.8047C182.872 33.8047 182.607 33.8568 182.383 33.9609C182.159 34.0651 181.984 34.2057 181.859 34.3828C181.734 34.5599 181.672 34.7604 181.672 34.9844H179.797C179.797 34.651 179.878 34.3281 180.039 34.0156C180.201 33.7031 180.435 33.4245 180.742 33.1797C181.049 32.9349 181.417 32.7422 181.844 32.6016C182.271 32.4609 182.75 32.3906 183.281 32.3906C183.917 32.3906 184.479 32.4974 184.969 32.7109C185.464 32.9245 185.852 33.2474 186.133 33.6797C186.419 34.1068 186.562 34.6432 186.562 35.2891V39.0469C186.562 39.4323 186.589 39.7786 186.641 40.0859C186.698 40.388 186.779 40.651 186.883 40.875V41H184.953C184.865 40.7969 184.794 40.5391 184.742 40.2266C184.695 39.9089 184.672 39.6016 184.672 39.3047ZM184.945 35.8594L184.961 37.0234H183.609C183.26 37.0234 182.953 37.0573 182.688 37.125C182.422 37.1875 182.201 37.2812 182.023 37.4062C181.846 37.5312 181.714 37.6823 181.625 37.8594C181.536 38.0365 181.492 38.237 181.492 38.4609C181.492 38.6849 181.544 38.8906 181.648 39.0781C181.753 39.2604 181.904 39.4036 182.102 39.5078C182.305 39.612 182.549 39.6641 182.836 39.6641C183.221 39.6641 183.557 39.5859 183.844 39.4297C184.135 39.2682 184.365 39.0729 184.531 38.8438C184.698 38.6094 184.786 38.388 184.797 38.1797L185.406 39.0156C185.344 39.2292 185.237 39.4583 185.086 39.7031C184.935 39.9479 184.737 40.1823 184.492 40.4062C184.253 40.625 183.964 40.8047 183.625 40.9453C183.292 41.0859 182.906 41.1562 182.469 41.1562C181.917 41.1562 181.424 41.0469 180.992 40.8281C180.56 40.6042 180.221 40.3047 179.977 39.9297C179.732 39.5495 179.609 39.1198 179.609 38.6406C179.609 38.1927 179.693 37.7969 179.859 37.4531C180.031 37.1042 180.281 36.8125 180.609 36.5781C180.943 36.3438 181.349 36.1667 181.828 36.0469C182.307 35.9219 182.854 35.8594 183.469 35.8594H184.945ZM192.328 32.5469V41H190.438V32.5469H192.328ZM195.102 32.5469V34.0312H187.711V32.5469H195.102ZM201 39.3047V35.2734C201 34.9714 200.945 34.7109 200.836 34.4922C200.727 34.2734 200.56 34.1042 200.336 33.9844C200.117 33.8646 199.841 33.8047 199.508 33.8047C199.201 33.8047 198.935 33.8568 198.711 33.9609C198.487 34.0651 198.312 34.2057 198.188 34.3828C198.062 34.5599 198 34.7604 198 34.9844H196.125C196.125 34.651 196.206 34.3281 196.367 34.0156C196.529 33.7031 196.763 33.4245 197.07 33.1797C197.378 32.9349 197.745 32.7422 198.172 32.6016C198.599 32.4609 199.078 32.3906 199.609 32.3906C200.245 32.3906 200.807 32.4974 201.297 32.7109C201.792 32.9245 202.18 33.2474 202.461 33.6797C202.747 34.1068 202.891 34.6432 202.891 35.2891V39.0469C202.891 39.4323 202.917 39.7786 202.969 40.0859C203.026 40.388 203.107 40.651 203.211 40.875V41H201.281C201.193 40.7969 201.122 40.5391 201.07 40.2266C201.023 39.9089 201 39.6016 201 39.3047ZM201.273 35.8594L201.289 37.0234H199.938C199.589 37.0234 199.281 37.0573 199.016 37.125C198.75 37.1875 198.529 37.2812 198.352 37.4062C198.174 37.5312 198.042 37.6823 197.953 37.8594C197.865 38.0365 197.82 38.237 197.82 38.4609C197.82 38.6849 197.872 38.8906 197.977 39.0781C198.081 39.2604 198.232 39.4036 198.43 39.5078C198.633 39.612 198.878 39.6641 199.164 39.6641C199.549 39.6641 199.885 39.5859 200.172 39.4297C200.464 39.2682 200.693 39.0729 200.859 38.8438C201.026 38.6094 201.115 38.388 201.125 38.1797L201.734 39.0156C201.672 39.2292 201.565 39.4583 201.414 39.7031C201.263 39.9479 201.065 40.1823 200.82 40.4062C200.581 40.625 200.292 40.8047 199.953 40.9453C199.62 41.0859 199.234 41.1562 198.797 41.1562C198.245 41.1562 197.753 41.0469 197.32 40.8281C196.888 40.6042 196.549 40.3047 196.305 39.9297C196.06 39.5495 195.938 39.1198 195.938 38.6406C195.938 38.1927 196.021 37.7969 196.188 37.4531C196.359 37.1042 196.609 36.8125 196.938 36.5781C197.271 36.3438 197.677 36.1667 198.156 36.0469C198.635 35.9219 199.182 35.8594 199.797 35.8594H201.273Z" fill="black"/>
<rect x="22" y="29" width="31" height="31" rx="15.5" fill="#A2A8B0"/>
<path fill-rule="evenodd" clip-rule="evenodd" d="M35.3712 34.3331C34.9252 34.4018 34.5903 34.647 34.0264 35.3178C33.7348 35.6648 33.4865 35.9072 33.3001 36.0272C33.1392 36.1307 32.8878 36.2505 32.478 36.4187C31.8068 36.6943 31.5187 36.8815 31.3242 37.1683C31.1393 37.4411 31.0564 37.7777 30.9791 38.5711C30.8939 39.445 30.8558 39.5644 30.4581 40.2029C30.2082 40.6041 30.035 40.9326 29.9594 41.1488C29.9079 41.296 29.9012 41.3448 29.9011 41.5749C29.901 41.8143 29.9064 41.8503 29.9695 42.0323C30.0502 42.2649 30.2168 42.5861 30.444 42.9469C30.8511 43.5936 30.9243 43.827 31.011 44.7555C31.0859 45.5575 31.1833 45.8641 31.4536 46.1482C31.6806 46.3868 31.8974 46.509 32.6038 46.7966C33.358 47.1035 33.529 47.2342 34.2233 48.0329C34.5068 48.359 34.7473 48.565 34.9728 48.6748C35.2028 48.7868 35.3525 48.8175 35.6647 48.8167C35.9654 48.816 36.1302 48.7901 36.6395 48.6634C37.1104 48.5462 37.2057 48.532 37.52 48.5315C37.8429 48.531 37.9615 48.5483 38.5159 48.6767C39.2228 48.8405 39.3961 48.8581 39.696 48.7968C40.1257 48.709 40.4223 48.4896 40.9583 47.8632C41.5068 47.2223 41.7372 47.0522 42.4363 46.7726C43.0796 46.5153 43.342 46.3648 43.5718 46.1213C43.8745 45.8004 43.9521 45.5393 44.0395 44.5476C44.1125 43.7182 44.1514 43.5974 44.5551 42.9447C45.0178 42.1965 45.0985 41.9883 45.0982 41.5437C45.0981 41.3205 45.0896 41.2464 45.0496 41.1176C44.989 40.9227 44.8119 40.5855 44.5855 40.2341C44.1599 39.5738 44.1015 39.4031 44.0302 38.6127C43.9655 37.8954 43.9023 37.5794 43.768 37.303C43.5768 36.9094 43.2902 36.7107 42.3734 36.3359C41.6817 36.0532 41.4472 35.8787 40.9066 35.2451C40.5815 34.8641 40.4709 34.7507 40.3188 34.6428C39.945 34.3775 39.5677 34.2816 39.1238 34.339C39.0201 34.3524 38.7135 34.4141 38.4425 34.4759C37.7931 34.6242 37.6876 34.639 37.3733 34.6257C37.1075 34.6145 37.0299 34.6012 36.5042 34.4765C36.3423 34.4381 36.1297 34.3916 36.0318 34.3732C35.8471 34.3385 35.4805 34.3162 35.3712 34.3331ZM38.1251 36.212C38.5212 36.2358 38.7861 36.2845 39.1307 36.3968C40.7881 36.9367 42.0627 38.1556 42.6646 39.7761C42.902 40.4153 42.9415 40.732 42.9217 41.8348C42.9083 42.5862 42.893 42.6977 42.7396 43.1652C42.5655 43.6957 42.3599 44.115 42.0467 44.5781C41.3428 45.6187 40.3388 46.3632 39.0924 46.7686C38.6043 46.9273 38.2926 46.9672 37.5515 46.9658C36.7793 46.9642 36.3793 46.9123 35.8638 46.7467C35.0418 46.4826 34.344 46.0666 33.7279 45.4732C32.7726 44.5532 32.2081 43.4061 32.0679 42.0999C32.0306 41.7525 32.0525 41.0085 32.1093 40.6915C32.3088 39.5787 32.7755 38.6362 33.4993 37.8845C34.0864 37.2748 34.8971 36.7472 35.6647 36.4753C35.8976 36.3927 36.3822 36.2623 36.6081 36.2213C36.7897 36.1883 37.6459 36.1831 38.1251 36.212ZM36.9084 37.1568C34.9392 37.4351 33.4012 38.9274 33.0618 40.8889C33.0183 41.1401 33.0023 41.7075 33.0313 41.9693C33.1361 42.9166 33.4908 43.7451 34.0862 44.4332C34.8227 45.2846 35.8145 45.8349 36.8938 45.9913C37.1752 46.032 37.7725 46.033 38.0546 45.9932C38.9216 45.8709 39.6978 45.5453 40.3293 45.0393C40.9564 44.5367 41.5233 43.7068 41.7942 42.8946C41.9148 42.5331 41.9451 42.3259 41.9583 41.7724C41.9749 41.0774 41.92 40.5968 41.7735 40.1537C41.6169 39.6799 41.2173 39.0088 40.8506 38.6036C40.193 37.8771 39.2507 37.3635 38.2538 37.1883C37.9189 37.1295 37.2181 37.1131 36.9084 37.1568Z" fill="white"/>
<path fill-rule="evenodd" clip-rule="evenodd" d="M33.6188 48.987C33.3604 49.6885 32.2293 53.0518 32.0607 53.6198L31.9741 53.9116L32.0272 53.9175C32.0795 53.9233 32.8452 53.7938 33.719 53.6313L34.1659 53.5482L34.8851 54.3022C35.2807 54.7169 35.6085 55.0519 35.6136 55.0465C35.6239 55.0357 36.3283 52.9441 36.7118 51.7854C37.0198 50.8547 37.2744 50.0469 37.2744 50.0001C37.2744 49.9507 37.1822 49.9333 36.46 49.8463C35.5267 49.7339 35.3867 49.7026 34.9526 49.5089C34.672 49.3837 34.2409 49.1554 33.9823 48.9951C33.8648 48.9222 33.7492 48.8519 33.7253 48.8388C33.6843 48.8164 33.6788 48.824 33.6188 48.987ZM40.9654 49.0415C40.7761 49.1431 40.4897 49.2974 40.3288 49.3842C39.827 49.6552 39.4712 49.7487 38.5754 49.8451C37.8255 49.9258 37.7114 49.9425 37.7114 49.9717C37.7114 50.0462 39.1524 54.4213 39.3577 54.9701C39.379 55.0272 39.3804 55.0276 39.4398 54.9953C39.5108 54.9568 39.9176 54.5368 40.4446 53.9578L40.82 53.5453L40.9292 53.5675C41.3877 53.6607 43.0126 53.9313 43.0264 53.9168C43.0437 53.8987 42.0556 50.9187 41.5475 49.4568C41.377 48.9662 41.3349 48.8567 41.3172 48.8567C41.3129 48.8567 41.1546 48.9398 40.9654 49.0415Z" fill="white"/>
<path fill-rule="evenodd" clip-rule="evenodd" d="M36.9181 37.157C34.9489 37.4353 33.4109 38.9276 33.0715 40.8891C33.0281 41.1402 33.012 41.7077 33.041 41.9695C33.1458 42.9168 33.5005 43.7452 34.0959 44.4334C34.8324 45.2848 35.8242 45.8351 36.9035 45.9914C37.1849 46.0322 37.7822 46.0332 38.0643 45.9933C38.9313 45.871 39.7075 45.5455 40.339 45.0394C40.9661 44.5369 41.533 43.707 41.804 42.8948C41.9245 42.5333 41.9549 42.3261 41.968 41.7726C41.9846 41.0776 41.9297 40.5969 41.7832 40.1538C41.6266 39.6801 41.227 39.0089 40.8603 38.6038C40.2027 37.8773 39.2604 37.3636 38.2635 37.1885C37.9286 37.1296 37.2278 37.1132 36.9181 37.157Z" fill="#F3C213"/>
<circle cx="37" cy="44" r="24" stroke="#B6B6B6" stroke-width="4"/>
<path d="M19.5 27.5L53.5 61.5" stroke="#B6B6B6" stroke-width="2"/>
</svg>
