<svg width="129" height="28" viewBox="0 0 129 28" fill="none" xmlns="http://www.w3.org/2000/svg">
<rect x="1.04102" y="0.5" width="127" height="27" rx="1.5" fill="white" stroke="#B3B3B3"/>
<path d="M45.2935 9.04688V19H43.5846V10.4141H39.1617V19H37.4527V9.04688H45.2935ZM46.8795 15.3838V15.2266C46.8795 14.6934 46.957 14.1989 47.1119 13.7432C47.2668 13.2829 47.4902 12.8841 47.7818 12.5469C48.078 12.2051 48.4381 11.9408 48.8619 11.7539C49.2903 11.5625 49.7734 11.4668 50.3111 11.4668C50.8534 11.4668 51.3365 11.5625 51.7603 11.7539C52.1887 11.9408 52.551 12.2051 52.8473 12.5469C53.1435 12.8841 53.3691 13.2829 53.524 13.7432C53.679 14.1989 53.7564 14.6934 53.7564 15.2266V15.3838C53.7564 15.917 53.679 16.4115 53.524 16.8672C53.3691 17.3229 53.1435 17.7217 52.8473 18.0635C52.551 18.4007 52.191 18.665 51.7672 18.8564C51.3433 19.0433 50.8626 19.1367 50.3248 19.1367C49.7825 19.1367 49.2971 19.0433 48.8687 18.8564C48.4449 18.665 48.0849 18.4007 47.7887 18.0635C47.4924 17.7217 47.2668 17.3229 47.1119 16.8672C46.957 16.4115 46.8795 15.917 46.8795 15.3838ZM48.5269 15.2266V15.3838C48.5269 15.7165 48.5611 16.0309 48.6295 16.3271C48.6978 16.6234 48.8049 16.8831 48.9508 17.1064C49.0966 17.3298 49.2834 17.5052 49.5113 17.6328C49.7392 17.7604 50.0103 17.8242 50.3248 17.8242C50.6301 17.8242 50.8945 17.7604 51.1178 17.6328C51.3456 17.5052 51.5325 17.3298 51.6783 17.1064C51.8241 16.8831 51.9312 16.6234 51.9996 16.3271C52.0725 16.0309 52.109 15.7165 52.109 15.3838V15.2266C52.109 14.8984 52.0725 14.5885 51.9996 14.2969C51.9312 14.0007 51.8219 13.7386 51.6715 13.5107C51.5256 13.2829 51.3388 13.1051 51.1109 12.9775C50.8876 12.8454 50.621 12.7793 50.3111 12.7793C50.0012 12.7793 49.7323 12.8454 49.5045 12.9775C49.2812 13.1051 49.0966 13.2829 48.9508 13.5107C48.8049 13.7386 48.6978 14.0007 48.6295 14.2969C48.5611 14.5885 48.5269 14.8984 48.5269 15.2266ZM59.5328 17.0039L61.734 11.6035H63.1627L60.0933 19H58.9723L55.9098 11.6035H57.3385L59.5328 17.0039ZM56.9146 11.6035V19H55.2672V11.6035H56.9146ZM62.151 19V11.6035H63.8053V19H62.151ZM65.3365 15.3838V15.2266C65.3365 14.6934 65.414 14.1989 65.5689 13.7432C65.7239 13.2829 65.9472 12.8841 66.2389 12.5469C66.5351 12.2051 66.8951 11.9408 67.3189 11.7539C67.7473 11.5625 68.2304 11.4668 68.7682 11.4668C69.3105 11.4668 69.7935 11.5625 70.2174 11.7539C70.6458 11.9408 71.0081 12.2051 71.3043 12.5469C71.6005 12.8841 71.8261 13.2829 71.981 13.7432C72.136 14.1989 72.2135 14.6934 72.2135 15.2266V15.3838C72.2135 15.917 72.136 16.4115 71.981 16.8672C71.8261 17.3229 71.6005 17.7217 71.3043 18.0635C71.0081 18.4007 70.648 18.665 70.2242 18.8564C69.8004 19.0433 69.3196 19.1367 68.7818 19.1367C68.2395 19.1367 67.7542 19.0433 67.3258 18.8564C66.9019 18.665 66.5419 18.4007 66.2457 18.0635C65.9495 17.7217 65.7239 17.3229 65.5689 16.8672C65.414 16.4115 65.3365 15.917 65.3365 15.3838ZM66.984 15.2266V15.3838C66.984 15.7165 67.0182 16.0309 67.0865 16.3271C67.1549 16.6234 67.262 16.8831 67.4078 17.1064C67.5536 17.3298 67.7405 17.5052 67.9683 17.6328C68.1962 17.7604 68.4674 17.8242 68.7818 17.8242C69.0872 17.8242 69.3515 17.7604 69.5748 17.6328C69.8027 17.5052 69.9895 17.3298 70.1353 17.1064C70.2812 16.8831 70.3883 16.6234 70.4566 16.3271C70.5295 16.0309 70.566 15.7165 70.566 15.3838V15.2266C70.566 14.8984 70.5295 14.5885 70.4566 14.2969C70.3883 14.0007 70.2789 13.7386 70.1285 13.5107C69.9827 13.2829 69.7958 13.1051 69.568 12.9775C69.3446 12.8454 69.078 12.7793 68.7682 12.7793C68.4583 12.7793 68.1894 12.8454 67.9615 12.9775C67.7382 13.1051 67.5536 13.2829 67.4078 13.5107C67.262 13.7386 67.1549 14.0007 67.0865 14.2969C67.0182 14.5885 66.984 14.8984 66.984 15.2266ZM84.525 17.6943L84.3951 21.1943H82.8844V19H81.9957V17.6943H84.525ZM73.6012 11.6035H75.2486V17.6875H77.6002V11.6035H79.2545V17.6875H81.5992V11.6035H83.2467V19H73.6012V11.6035ZM86.9039 13.9551H89.0846C89.7226 13.9551 90.2649 14.0622 90.7115 14.2764C91.1581 14.4906 91.4976 14.7891 91.7301 15.1719C91.967 15.5501 92.0855 15.9831 92.0855 16.4707C92.0855 16.8307 92.0195 17.1657 91.8873 17.4756C91.7551 17.7809 91.5592 18.0475 91.2994 18.2754C91.0442 18.5033 90.7297 18.681 90.356 18.8086C89.9869 18.9362 89.5631 19 89.0846 19H85.8101V11.6035H87.4644V17.6943H89.0846C89.4127 17.6943 89.6747 17.6374 89.8707 17.5234C90.0667 17.4095 90.2079 17.2614 90.2945 17.0791C90.3857 16.8968 90.4312 16.7031 90.4312 16.498C90.4312 16.2884 90.3857 16.0902 90.2945 15.9033C90.2079 15.7165 90.0667 15.5638 89.8707 15.4453C89.6747 15.3268 89.4127 15.2676 89.0846 15.2676H86.9039V13.9551Z" fill="#303135"/>
</svg>
