<svg width="66" height="81" viewBox="0 0 66 81" fill="none" xmlns="http://www.w3.org/2000/svg">
<rect x="1.45117" y="0.5" width="64" height="80" fill="white"/>
<rect x="1.45117" y="0.5" width="64" height="80" stroke="#8080AD"/>
<path fill-rule="evenodd" clip-rule="evenodd" d="M11.7839 55.8243C11.5239 58.0135 12.9539 60.2027 16.1172 60.2027H50.7839C53.9472 60.2027 55.3772 58.0135 55.1172 55.8243V33.9324C54.8572 31.7432 53.0805 29.5541 50.7839 29.5541H42.1172V25.1757L37.7839 20.7973H29.1172L24.7839 25.1757V29.5541H16.1172C13.6256 29.5541 12.0439 31.7432 11.7839 33.9324V55.8243ZM14.3839 34.1145V55.9814L14.3654 56.1373C14.314 56.5696 14.4374 56.8924 14.6122 57.0916C14.7621 57.2624 15.1547 57.5757 16.1172 57.5757H50.7839C51.7464 57.5757 52.139 57.2624 52.2889 57.0916C52.4637 56.8924 52.5871 56.5696 52.5357 56.1373L52.5172 55.9814V34.1198C52.4309 33.6284 52.18 33.1087 51.8199 32.7216C51.4408 32.3142 51.0726 32.1811 50.7839 32.1811H16.1172C15.6929 32.1811 15.3469 32.346 15.0367 32.6904C14.7191 33.0429 14.4749 33.5598 14.3839 34.1145ZM29.1172 25.1757V29.5541H37.7839V25.1757H29.1172Z" fill="#5B81C2"/>
<path d="M24.6152 44.8696C24.6152 50.3103 20.25 54.7209 14.8652 54.7209C9.48046 54.7209 5.11523 50.3103 5.11523 44.8696C5.11523 39.4288 9.48046 35.0182 14.8652 35.0182C20.25 35.0182 24.6152 39.4288 24.6152 44.8696Z" fill="white"/>
<path d="M9.01523 45.8547V43.8844H16.8152L13.4027 40.4365L14.7872 39.0376L20.5592 44.8696L14.7872 50.7016L13.4027 49.3027L16.8152 45.8547H9.01523ZM24.6152 44.8696C24.6152 47.4823 23.588 49.988 21.7595 51.8355C19.931 53.683 17.4511 54.7209 14.8652 54.7209C13.5848 54.7209 12.317 54.4661 11.1341 53.971C9.95115 53.476 8.87631 52.7503 7.97094 51.8355C6.14246 49.988 5.11523 47.4823 5.11523 44.8696C5.11523 42.2568 6.14246 39.7511 7.97094 37.9036C9.79942 36.0561 12.2794 35.0182 14.8652 35.0182C16.1456 35.0182 17.4135 35.273 18.5964 35.7681C19.7793 36.2632 20.8542 36.9888 21.7595 37.9036C22.6649 38.8184 23.3831 39.9044 23.8731 41.0996C24.363 42.2948 24.6152 43.5759 24.6152 44.8696ZM22.6652 44.8696C22.6652 42.7794 21.8435 40.7748 20.3807 39.2968C18.9179 37.8188 16.9339 36.9885 14.8652 36.9885C12.7965 36.9885 10.8126 37.8188 9.3498 39.2968C7.88702 40.7748 7.06523 42.7794 7.06523 44.8696C7.06523 46.9598 7.88702 48.9643 9.3498 50.4423C10.8126 51.9203 12.7965 52.7507 14.8652 52.7507C16.9339 52.7507 18.9179 51.9203 20.3807 50.4423C21.8435 48.9643 22.6652 46.9598 22.6652 44.8696Z" fill="#5B81C2"/>
<path d="M26.9512 43.8846H39.9512V47.1683H26.9512V43.8846Z" fill="#EB7F81"/>
<path d="M31.8262 52.094L31.8262 38.9589L35.0762 38.9589L35.0762 52.094L31.8262 52.094Z" fill="#EB7F81"/>
</svg>
