<svg width="23" height="22" viewBox="0 0 23 22" fill="none" xmlns="http://www.w3.org/2000/svg">
<rect x="1" y="0.5" width="21" height="21" rx="1.5" stroke="#8F91A5"/>
<path d="M15.1899 13.3856L14.9159 13.7076L14.5939 13.9816C13.6321 14.8 12.385 15.2966 11.0289 15.2966C9.57651 15.2966 8.18363 14.7197 7.15666 13.6927C6.12968 12.6657 5.55273 11.2729 5.55273 9.8205C5.55273 8.36814 6.12968 6.97526 7.15666 5.94828C8.18363 4.92131 9.57651 4.34436 11.0289 4.34436C12.4812 4.34436 13.8741 4.92131 14.9011 5.94828C15.9281 6.97526 16.505 8.36814 16.505 9.8205C16.505 11.1767 16.0084 12.4237 15.1899 13.3856ZM15.6662 14.6106V14.4578H15.819H16.3382L18.6569 16.7765L17.9849 17.4485L15.6662 15.1298V14.6106ZM11.0289 5.18317C8.45422 5.18317 6.39155 7.24584 6.39155 9.8205C6.39155 12.3952 8.45422 14.4578 11.0289 14.4578C13.6035 14.4578 15.6662 12.3952 15.6662 9.8205C15.6662 7.24584 13.6035 5.18317 11.0289 5.18317Z" fill="#BABBC0" stroke="#8F91A5"/>
</svg>
