<svg width="65" height="81" viewBox="0 0 65 81" fill="none" xmlns="http://www.w3.org/2000/svg">
<rect x="0.5" y="0.5" width="64" height="80" fill="white"/>
<rect x="0.5" y="0.5" width="64" height="80" stroke="#DBDBE4"/>
<path d="M8.57422 33.9903C8.57422 32.7813 9.54427 31.8011 10.7409 31.8011H31.6916C32.8882 31.8011 33.8583 32.7813 33.8583 33.9903V49.4818C33.8583 50.6908 32.8882 51.671 31.6916 51.671H10.7409C9.54427 51.671 8.57422 50.6908 8.57422 49.4818V33.9903Z" fill="#DBDBE4"/>
<path d="M8.57422 33.9903C8.57422 32.7813 9.54427 31.8011 10.7409 31.8011H31.6916C32.8882 31.8011 33.8583 32.7813 33.8583 33.9903V44.5746H8.57422V33.9903Z" fill="#DBDBE4"/>
<path d="M49.6313 50.6541C49.6313 52.5234 48.1315 54.0388 46.2815 54.0388C44.4314 54.0388 42.9316 52.5234 42.9316 50.6541C42.9316 48.7849 44.4314 47.2695 46.2815 47.2695C48.1315 47.2695 49.6313 48.7849 49.6313 50.6541Z" fill="#BCC0D3"/>
<path fill-rule="evenodd" clip-rule="evenodd" d="M26.5587 50.6541C26.5587 53.7696 24.059 56.2952 20.9756 56.2952C17.8922 56.2952 15.3926 53.7696 15.3926 50.6541C15.3926 47.5387 17.8922 45.0131 20.9756 45.0131C24.059 45.0131 26.5587 47.5387 26.5587 50.6541ZM20.9756 54.0388C22.8257 54.0388 24.3254 52.5234 24.3254 50.6541C24.3254 48.7848 22.8257 47.2695 20.9756 47.2695C19.1256 47.2695 17.6258 48.7848 17.6258 50.6541C17.6258 52.5234 19.1256 54.0388 20.9756 54.0388Z" fill="#DBDBE4"/>
<path d="M29.6465 25.7994C29.6465 25.1948 30.1315 24.7048 30.7298 24.7048H32.7772C33.3755 24.7048 33.8605 25.1948 33.8605 25.7994V37.8029C33.8605 38.4074 33.3755 38.8975 32.7772 38.8975H30.7298C30.1315 38.8975 29.6465 38.4074 29.6465 37.8029V25.7994Z" fill="#DBDBE4"/>
<path d="M40.8848 45.6692C40.8848 45.0647 40.3997 44.5746 39.8014 44.5746H27.9214C27.3231 44.5746 26.8381 45.0647 26.8381 45.6692V50.5764C26.8381 51.1809 27.3231 51.6709 27.9214 51.6709H39.8014C40.3997 51.6709 40.8848 51.1809 40.8848 50.5764V45.6692Z" fill="#DBDBE4"/>
<path d="M17.6285 50.6541C17.6285 52.5234 19.1282 54.0388 20.9783 54.0388C22.8284 54.0388 24.3281 52.5234 24.3281 50.6541C24.3281 48.7849 22.8284 47.2695 20.9783 47.2695C19.1282 47.2695 17.6285 48.7849 17.6285 50.6541Z" fill="white"/>
<path fill-rule="evenodd" clip-rule="evenodd" d="M38.403 26.9631C37.2064 26.9631 36.2363 27.9433 36.2363 29.1523V49.5947C36.2363 50.8037 37.2064 51.7839 38.403 51.7839H54.1686C55.3652 51.7839 56.3353 50.8037 56.3353 49.5947V40.0488C56.3353 39.6088 56.2041 39.1791 55.9588 38.8155L48.6058 27.9191C48.2022 27.321 47.5321 26.9631 46.8156 26.9631H38.403ZM38.897 29.2183C38.6576 29.2183 38.4636 29.4144 38.4636 29.6562V37.8062C38.4636 38.048 38.6576 38.2441 38.897 38.2441H51.0811C51.4214 38.2441 51.6289 37.8658 51.4485 37.5742L46.4072 29.4241C46.328 29.2961 46.1891 29.2183 46.0397 29.2183H38.897Z" fill="#DBDBE4"/>
<path fill-rule="evenodd" clip-rule="evenodd" d="M51.8829 50.6541C51.8829 53.7696 49.3833 56.2952 46.2998 56.2952C43.2164 56.2952 40.7168 53.7696 40.7168 50.6541C40.7168 47.5387 43.2164 45.0131 46.2998 45.0131C49.3833 45.0131 51.8829 47.5387 51.8829 50.6541ZM46.2998 54.0388C48.1499 54.0388 49.6497 52.5234 49.6497 50.6541C49.6497 48.7848 48.1499 47.2695 46.2998 47.2695C44.4498 47.2695 42.95 48.7848 42.95 50.6541C42.95 52.5234 44.4498 54.0388 46.2998 54.0388Z" fill="#DBDBE4"/>
<path d="M42.941 50.6541C42.941 52.5234 44.4407 54.0388 46.2908 54.0388C48.1409 54.0388 49.6406 52.5234 49.6406 50.6541C49.6406 48.7849 48.1409 47.2695 46.2908 47.2695C44.4407 47.2695 42.941 48.7849 42.941 50.6541Z" fill="white"/>
<path fill-rule="evenodd" clip-rule="evenodd" d="M44.3571 42.8307H38.6484V40.6415H44.3571V42.8307Z" fill="white"/>
<path fill-rule="evenodd" clip-rule="evenodd" d="M29.6436 38.07H10.8672V35.8808H29.6436V38.07Z" fill="white"/>
<path fill-rule="evenodd" clip-rule="evenodd" d="M29.6436 42.5749H10.8672V40.3857H29.6436V42.5749Z" fill="white"/>
</svg>
