<svg width="66" height="80" viewBox="0 0 66 80" fill="none" xmlns="http://www.w3.org/2000/svg">
<rect x="1.45117" y="0.5" width="64" height="79" fill="white"/>
<rect x="1.45117" y="0.5" width="64" height="79" stroke="#8080AD"/>
<path fill-rule="evenodd" clip-rule="evenodd" d="M33.4518 62.2703C45.777 62.2703 55.7685 52.2995 55.7685 40C55.7685 27.7005 45.777 17.7297 33.4518 17.7297C21.1267 17.7297 11.1352 27.7005 11.1352 40C11.1352 52.2995 21.1267 62.2703 33.4518 62.2703ZM33.4518 64.8649C47.2129 64.8649 58.3685 53.7325 58.3685 40C58.3685 26.2675 47.2129 15.1351 33.4518 15.1351C19.6907 15.1351 8.53516 26.2675 8.53516 40C8.53516 53.7325 19.6907 64.8649 33.4518 64.8649Z" fill="#2CA149"/>
<path d="M18.0566 52.4557C18.0566 50.5399 19.6129 48.9869 21.5327 48.9869H45.865C47.7848 48.9869 49.341 50.5399 49.341 52.4557V52.4557C49.341 54.3715 47.7848 55.9245 45.865 55.9245H21.5327C19.6129 55.9245 18.0566 54.3715 18.0566 52.4557V52.4557Z" fill="#2CA149"/>
<path d="M31.6528 52.0984V52.847C31.6528 53.2056 31.6171 53.5118 31.5457 53.7655C31.4763 54.0172 31.3755 54.2216 31.2431 54.3789C31.1107 54.5362 30.952 54.6515 30.7671 54.7249C30.5843 54.7983 30.3794 54.835 30.1524 54.835C29.9717 54.835 29.8036 54.812 29.6481 54.7658C29.4947 54.7197 29.356 54.6473 29.232 54.5488C29.108 54.4502 29.0019 54.3233 28.9137 54.1682C28.8275 54.0109 28.7603 53.8232 28.7119 53.6051C28.6657 53.387 28.6426 53.1343 28.6426 52.847V52.0984C28.6426 51.7377 28.6783 51.4336 28.7497 51.1862C28.8212 50.9366 28.9231 50.7343 29.0555 50.5791C29.1879 50.4218 29.3455 50.3075 29.5283 50.2362C29.7132 50.1649 29.9192 50.1293 30.1461 50.1293C30.329 50.1293 30.4971 50.1523 30.6505 50.1985C30.806 50.2425 30.9447 50.3128 31.0665 50.4092C31.1905 50.5057 31.2956 50.6315 31.3818 50.7867C31.47 50.9398 31.5373 51.1254 31.5835 51.3435C31.6297 51.5595 31.6528 51.8111 31.6528 52.0984ZM30.8932 52.954V51.9851C30.8932 51.8027 30.8827 51.6423 30.8617 51.5039C30.8406 51.3634 30.8091 51.2449 30.7671 51.1484C30.7272 51.0499 30.6767 50.9702 30.6158 50.9094C30.5549 50.8465 30.4855 50.8014 30.4078 50.7741C30.33 50.7448 30.2428 50.7301 30.1461 50.7301C30.0285 50.7301 29.9234 50.7531 29.8309 50.7993C29.7385 50.8433 29.6607 50.9146 29.5977 51.0132C29.5346 51.1117 29.4863 51.2417 29.4527 51.4032C29.4211 51.5626 29.4054 51.7566 29.4054 51.9851V52.954C29.4054 53.1385 29.4159 53.301 29.4369 53.4415C29.4579 53.582 29.4894 53.7026 29.5315 53.8033C29.5735 53.9018 29.6239 53.9836 29.6828 54.0486C29.7437 54.1115 29.8131 54.1577 29.8908 54.187C29.9707 54.2164 30.0579 54.2311 30.1524 54.2311C30.2722 54.2311 30.3783 54.208 30.4708 54.1619C30.5633 54.1157 30.641 54.0423 30.7041 53.9417C30.7671 53.8389 30.8144 53.7058 30.8459 53.5422C30.8774 53.3786 30.8932 53.1826 30.8932 52.954Z" fill="white"/>
<path d="M27.854 52.0984V52.8471C27.854 53.2057 27.8183 53.5119 27.7468 53.7656C27.6775 54.0172 27.5766 54.2217 27.4442 54.379C27.3118 54.5363 27.1532 54.6516 26.9683 54.725C26.7854 54.7984 26.5806 54.8351 26.3536 54.8351C26.1729 54.8351 26.0048 54.812 25.8493 54.7659C25.6959 54.7197 25.5572 54.6474 25.4332 54.5488C25.3092 54.4503 25.2031 54.3234 25.1148 54.1682C25.0287 54.0109 24.9614 53.8233 24.9131 53.6052C24.8669 53.3871 24.8438 53.1344 24.8438 52.8471V52.0984C24.8438 51.7378 24.8795 51.4337 24.9509 51.1862C25.0224 50.9367 25.1243 50.7343 25.2567 50.5791C25.3891 50.4219 25.5467 50.3076 25.7295 50.2363C25.9144 50.165 26.1204 50.1293 26.3473 50.1293C26.5301 50.1293 26.6982 50.1524 26.8516 50.1985C27.0071 50.2426 27.1458 50.3128 27.2677 50.4093C27.3917 50.5058 27.4968 50.6316 27.5829 50.7868C27.6712 50.9398 27.7384 51.1254 27.7847 51.3435C27.8309 51.5595 27.854 51.8112 27.854 52.0984ZM27.0944 52.954V51.9852C27.0944 51.8028 27.0838 51.6423 27.0628 51.5039C27.0418 51.3634 27.0103 51.245 26.9683 51.1485C26.9283 51.0499 26.8779 50.9702 26.817 50.9094C26.756 50.8465 26.6867 50.8014 26.6089 50.7742C26.5312 50.7448 26.444 50.7301 26.3473 50.7301C26.2296 50.7301 26.1246 50.7532 26.0321 50.7993C25.9396 50.8434 25.8619 50.9147 25.7988 51.0132C25.7358 51.1118 25.6875 51.2418 25.6538 51.4033C25.6223 51.5627 25.6066 51.7566 25.6066 51.9852V52.954C25.6066 53.1386 25.6171 53.3011 25.6381 53.4416C25.6591 53.5821 25.6906 53.7027 25.7326 53.8033C25.7747 53.9019 25.8251 53.9837 25.8839 54.0487C25.9449 54.1116 26.0142 54.1577 26.092 54.1871C26.1718 54.2165 26.259 54.2311 26.3536 54.2311C26.4734 54.2311 26.5795 54.2081 26.672 54.1619C26.7644 54.1158 26.8422 54.0424 26.9052 53.9417C26.9683 53.839 27.0156 53.7058 27.0471 53.5423C27.0786 53.3787 27.0944 53.1826 27.0944 52.954Z" fill="white"/>
<path d="M20.002 44.3312L20.8498 46.3209L14.8682 48.8593L14.0203 46.8695L20.002 44.3312Z" fill="#2CA149"/>
<rect x="19.3672" y="38.9189" width="2.16216" height="6.5" transform="rotate(90 19.3672 38.9189)" fill="#2CA149"/>
<path d="M20.9844 33.5181L20.1893 35.5295L14.1427 33.1493L14.9378 31.138L20.9844 33.5181Z" fill="#2CA149"/>
<path d="M24.3984 29.4821L22.8664 31.0109L18.2702 26.4243L19.8022 24.8954L24.3984 29.4821Z" fill="#2CA149"/>
<path d="M29.168 26.9905L27.1617 27.8069L24.7074 21.8005L26.7137 20.9841L29.168 26.9905Z" fill="#2CA149"/>
<path d="M46.9004 44.3312L46.0525 46.3209L52.0341 48.8593L52.882 46.8695L46.9004 44.3312Z" fill="#2CA149"/>
<path d="M47.5352 38.9189L47.5352 41.0811L54.0352 41.0811L54.0352 38.9189L47.5352 38.9189Z" fill="#2CA149"/>
<path d="M45.918 33.5181L46.713 35.5295L52.7596 33.1493L51.9646 31.138L45.918 33.5181Z" fill="#2CA149"/>
<path d="M42.5039 29.4821L44.036 31.0109L48.6322 26.4243L47.1001 24.8954L42.5039 29.4821Z" fill="#2CA149"/>
<path d="M37.7344 26.9905L39.7407 27.8069L42.1949 21.8005L40.1886 20.9841L37.7344 26.9905Z" fill="#2CA149"/>
<path d="M34.5352 26.5809L32.3685 26.5809L32.3685 20.0944L34.5352 20.0944L34.5352 26.5809Z" fill="#2CA149"/>
<path d="M61.5586 27.9532C61.5586 33.3268 57.1934 37.6829 51.8086 37.6829C46.4238 37.6829 42.0586 33.3268 42.0586 27.9532C42.0586 22.5796 46.4238 18.2234 51.8086 18.2234C57.1934 18.2234 61.5586 22.5796 61.5586 27.9532Z" fill="white"/>
<path d="M45.9586 28.9262V26.9802H53.7586L50.3461 23.5748L51.7306 22.1932L57.5026 27.9532L51.7306 33.7132L50.3461 32.3316L53.7586 28.9262H45.9586ZM61.5586 27.9532C61.5586 30.5337 60.5314 33.0085 58.7029 34.8331C56.8744 36.6578 54.3945 37.6829 51.8086 37.6829C50.5282 37.6829 49.2604 37.4312 48.0774 36.9423C46.8945 36.4533 45.8197 35.7366 44.9143 34.8331C43.0858 33.0085 42.0586 30.5337 42.0586 27.9532C42.0586 25.3727 43.0858 22.8979 44.9143 21.0732C46.7428 19.2485 49.2227 18.2234 51.8086 18.2234C53.089 18.2234 54.3568 18.4751 55.5398 18.9641C56.7227 19.453 57.7975 20.1697 58.7029 21.0732C59.6083 21.9767 60.3264 23.0493 60.8164 24.2298C61.3064 25.4102 61.5586 26.6755 61.5586 27.9532ZM59.6086 27.9532C59.6086 25.8888 58.7868 23.909 57.324 22.4492C55.8612 20.9895 53.8773 20.1694 51.8086 20.1694C49.7399 20.1694 47.7559 20.9895 46.2932 22.4492C44.8304 23.909 44.0086 25.8888 44.0086 27.9532C44.0086 30.0176 44.8304 31.9974 46.2932 33.4571C47.7559 34.9169 49.7399 35.737 51.8086 35.737C53.8773 35.737 55.8612 34.9169 57.324 33.4571C58.7868 31.9974 59.6086 30.0176 59.6086 27.9532Z" fill="#2CA149"/>
<path d="M45.8132 45.4518L35.4594 38.7835L34.0048 41.9357L45.8132 45.4518Z" fill="#2CA149"/>
<path d="M36.2075 39.5926C36.2075 41.1116 34.9735 42.343 33.4514 42.343C31.9292 42.343 30.6953 41.1116 30.6953 39.5926C30.6953 38.0737 31.9292 36.8423 33.4514 36.8423C34.9735 36.8423 36.2075 38.0737 36.2075 39.5926Z" fill="#2CA149"/>
<path d="M43.6086 53.4887C43.6086 53.7814 43.5406 54.0279 43.4047 54.228C43.2689 54.4282 43.0834 54.58 42.8483 54.6833C42.6153 54.7844 42.3522 54.835 42.0588 54.835C41.7655 54.835 41.5013 54.7844 41.2662 54.6833C41.0311 54.58 40.8456 54.4282 40.7097 54.228C40.5738 54.0279 40.5059 53.7814 40.5059 53.4887C40.5059 53.295 40.5436 53.1196 40.6191 52.9624C40.6946 52.8031 40.8014 52.6665 40.9394 52.5524C41.0796 52.4362 41.2435 52.3468 41.4312 52.2844C41.621 52.222 41.828 52.1908 42.0524 52.1908C42.35 52.1908 42.6164 52.2457 42.8515 52.3554C43.0866 52.4652 43.271 52.617 43.4047 52.8107C43.5406 53.0044 43.6086 53.2304 43.6086 53.4887ZM42.8256 53.4499C42.8256 53.2928 42.7933 53.1551 42.7285 53.0367C42.6638 52.9183 42.5732 52.8268 42.4568 52.7623C42.3403 52.6977 42.2055 52.6654 42.0524 52.6654C41.8971 52.6654 41.7623 52.6977 41.6479 52.7623C41.5336 52.8268 41.4441 52.9183 41.3794 53.0367C41.3169 53.1551 41.2856 53.2928 41.2856 53.4499C41.2856 53.6092 41.3169 53.747 41.3794 53.8632C41.442 53.9773 41.5315 54.0645 41.6479 54.1247C41.7644 54.185 41.9014 54.2151 42.0588 54.2151C42.2163 54.2151 42.3522 54.185 42.4665 54.1247C42.5808 54.0645 42.6692 53.9773 42.7318 53.8632C42.7943 53.747 42.8256 53.6092 42.8256 53.4499ZM43.5018 51.3061C43.5018 51.5408 43.4392 51.7495 43.3141 51.9325C43.1912 52.1155 43.0208 52.2597 42.803 52.3651C42.5851 52.4684 42.3371 52.5201 42.0588 52.5201C41.7784 52.5201 41.5282 52.4684 41.3082 52.3651C41.0904 52.2597 40.9189 52.1155 40.7938 51.9325C40.6709 51.7495 40.6094 51.5408 40.6094 51.3061C40.6094 51.0263 40.6709 50.7906 40.7938 50.5991C40.9189 50.4054 41.0904 50.2579 41.3082 50.1568C41.5261 50.0556 41.7752 50.005 42.0556 50.005C42.336 50.005 42.5851 50.0556 42.803 50.1568C43.0208 50.2579 43.1912 50.4054 43.3141 50.5991C43.4392 50.7906 43.5018 51.0263 43.5018 51.3061ZM42.7221 51.332C42.7221 51.1921 42.694 51.0694 42.638 50.9639C42.584 50.8563 42.5075 50.7723 42.4082 50.7121C42.309 50.6518 42.1915 50.6217 42.0556 50.6217C41.9197 50.6217 41.8022 50.6507 41.7029 50.7088C41.6037 50.767 41.5272 50.8488 41.4732 50.9542C41.4193 51.0597 41.3923 51.1856 41.3923 51.332C41.3923 51.4762 41.4193 51.6021 41.4732 51.7097C41.5272 51.8152 41.6037 51.8981 41.7029 51.9583C41.8043 52.0186 41.9229 52.0487 42.0588 52.0487C42.1947 52.0487 42.3123 52.0186 42.4115 51.9583C42.5107 51.8981 42.5873 51.8152 42.6412 51.7097C42.6951 51.6021 42.7221 51.4762 42.7221 51.332Z" fill="white"/>
<path d="M35.7843 53.4887C35.7843 53.7814 35.7164 54.0279 35.5805 54.228C35.4446 54.4282 35.2591 54.58 35.024 54.6833C34.7911 54.7844 34.5279 54.835 34.2346 54.835C33.9413 54.835 33.6771 54.7844 33.4419 54.6833C33.2068 54.58 33.0214 54.4282 32.8855 54.228C32.7496 54.0279 32.6816 53.7814 32.6816 53.4887C32.6816 53.295 32.7194 53.1196 32.7949 52.9624C32.8704 52.8031 32.9771 52.6665 33.1152 52.5524C33.2554 52.4362 33.4193 52.3468 33.607 52.2844C33.7968 52.222 34.0038 52.1908 34.2281 52.1908C34.5258 52.1908 34.7922 52.2457 35.0273 52.3554C35.2624 52.4652 35.4468 52.617 35.5805 52.8107C35.7164 53.0044 35.7843 53.2304 35.7843 53.4887ZM35.0014 53.4499C35.0014 53.2928 34.969 53.1551 34.9043 53.0367C34.8396 52.9183 34.749 52.8268 34.6326 52.7623C34.5161 52.6977 34.3813 52.6654 34.2281 52.6654C34.0728 52.6654 33.938 52.6977 33.8237 52.7623C33.7094 52.8268 33.6199 52.9183 33.5552 53.0367C33.4926 53.1551 33.4614 53.2928 33.4614 53.4499C33.4614 53.6092 33.4926 53.747 33.5552 53.8632C33.6177 53.9773 33.7072 54.0645 33.8237 54.1247C33.9402 54.185 34.0772 54.2151 34.2346 54.2151C34.3921 54.2151 34.5279 54.185 34.6423 54.1247C34.7566 54.0645 34.845 53.9773 34.9076 53.8632C34.9701 53.747 35.0014 53.6092 35.0014 53.4499ZM35.6776 51.3061C35.6776 51.5408 35.615 51.7495 35.4899 51.9325C35.367 52.1155 35.1966 52.2597 34.9787 52.3651C34.7609 52.4684 34.5129 52.5201 34.2346 52.5201C33.9542 52.5201 33.704 52.4684 33.484 52.3651C33.2662 52.2597 33.0947 52.1155 32.9696 51.9325C32.8466 51.7495 32.7852 51.5408 32.7852 51.3061C32.7852 51.0263 32.8466 50.7906 32.9696 50.5991C33.0947 50.4054 33.2662 50.2579 33.484 50.1568C33.7019 50.0556 33.951 50.005 34.2314 50.005C34.5118 50.005 34.7609 50.0556 34.9787 50.1568C35.1966 50.2579 35.367 50.4054 35.4899 50.5991C35.615 50.7906 35.6776 51.0263 35.6776 51.3061ZM34.8979 51.332C34.8979 51.1921 34.8698 51.0694 34.8137 50.9639C34.7598 50.8563 34.6832 50.7723 34.584 50.7121C34.4848 50.6518 34.3673 50.6217 34.2314 50.6217C34.0955 50.6217 33.9779 50.6507 33.8787 50.7088C33.7795 50.767 33.7029 50.8488 33.649 50.9542C33.5951 51.0597 33.5681 51.1856 33.5681 51.332C33.5681 51.4762 33.5951 51.6021 33.649 51.7097C33.7029 51.8152 33.7795 51.8981 33.8787 51.9583C33.9801 52.0186 34.0987 52.0487 34.2346 52.0487C34.3705 52.0487 34.488 52.0186 34.5873 51.9583C34.6865 51.8981 34.7631 51.8152 34.817 51.7097C34.8709 51.6021 34.8979 51.4762 34.8979 51.332Z" fill="white"/>
<path d="M39.5832 53.4887C39.5832 53.7814 39.5152 54.0279 39.3793 54.228C39.2435 54.4282 39.058 54.58 38.8229 54.6833C38.5899 54.7844 38.3268 54.835 38.0334 54.835C37.7401 54.835 37.4759 54.7844 37.2408 54.6833C37.0057 54.58 36.8202 54.4282 36.6843 54.228C36.5484 54.0279 36.4805 53.7814 36.4805 53.4887C36.4805 53.295 36.5182 53.1196 36.5937 52.9624C36.6692 52.8031 36.776 52.6665 36.914 52.5524C37.0542 52.4362 37.2181 52.3468 37.4058 52.2844C37.5956 52.222 37.8026 52.1908 38.027 52.1908C38.3246 52.1908 38.591 52.2457 38.8261 52.3554C39.0612 52.4652 39.2456 52.617 39.3793 52.8107C39.5152 53.0044 39.5832 53.2304 39.5832 53.4887ZM38.8002 53.4499C38.8002 53.2928 38.7679 53.1551 38.7032 53.0367C38.6384 52.9183 38.5479 52.8268 38.4314 52.7623C38.3149 52.6977 38.1801 52.6654 38.027 52.6654C37.8717 52.6654 37.7369 52.6977 37.6225 52.7623C37.5082 52.8268 37.4187 52.9183 37.354 53.0367C37.2915 53.1551 37.2602 53.2928 37.2602 53.4499C37.2602 53.6092 37.2915 53.747 37.354 53.8632C37.4166 53.9773 37.5061 54.0645 37.6225 54.1247C37.739 54.185 37.876 54.2151 38.0334 54.2151C38.1909 54.2151 38.3268 54.185 38.4411 54.1247C38.5554 54.0645 38.6438 53.9773 38.7064 53.8632C38.7689 53.747 38.8002 53.6092 38.8002 53.4499ZM39.4764 51.3061C39.4764 51.5408 39.4139 51.7495 39.2888 51.9325C39.1658 52.1155 38.9954 52.2597 38.7776 52.3651C38.5597 52.4684 38.3117 52.5201 38.0334 52.5201C37.753 52.5201 37.5028 52.4684 37.2828 52.3651C37.065 52.2597 36.8935 52.1155 36.7684 51.9325C36.6455 51.7495 36.584 51.5408 36.584 51.3061C36.584 51.0263 36.6455 50.7906 36.7684 50.5991C36.8935 50.4054 37.065 50.2579 37.2828 50.1568C37.5007 50.0556 37.7498 50.005 38.0302 50.005C38.3106 50.005 38.5597 50.0556 38.7776 50.1568C38.9954 50.2579 39.1658 50.4054 39.2888 50.5991C39.4139 50.7906 39.4764 51.0263 39.4764 51.3061ZM38.6967 51.332C38.6967 51.1921 38.6686 51.0694 38.6126 50.9639C38.5586 50.8563 38.4821 50.7723 38.3829 50.7121C38.2836 50.6518 38.1661 50.6217 38.0302 50.6217C37.8943 50.6217 37.7768 50.6507 37.6775 50.7088C37.5783 50.767 37.5018 50.8488 37.4478 50.9542C37.3939 51.0597 37.367 51.1856 37.367 51.332C37.367 51.4762 37.3939 51.6021 37.4478 51.7097C37.5018 51.8152 37.5783 51.8981 37.6775 51.9583C37.7789 52.0186 37.8976 52.0487 38.0334 52.0487C38.1693 52.0487 38.2869 52.0186 38.3861 51.9583C38.4853 51.8981 38.5619 51.8152 38.6158 51.7097C38.6697 51.6021 38.6967 51.4762 38.6967 51.332Z" fill="white"/>
</svg>
