<svg width="65" height="62" viewBox="0 0 65 62" fill="none" xmlns="http://www.w3.org/2000/svg">
<path opacity="0.99" d="M27.3326 6.84848C26.6316 7.86498 25.9319 8.87838 25.7776 9.10082C25.6225 9.32264 25.2578 9.85388 24.9664 10.2814C24.6751 10.7082 24.2947 11.2606 24.121 11.5085L23.806 11.959C18.8807 11.9981 17.9606 12.0298 17.3319 12.1056C16.8694 12.1621 16.1417 12.2783 15.7134 12.3653C15.2857 12.4523 14.7254 12.5797 14.4683 12.6487C14.2119 12.7176 13.7773 12.8469 13.5034 12.9351C13.2295 13.0233 12.7813 13.1849 12.5074 13.2942C12.2335 13.4036 11.743 13.6161 11.418 13.7658C11.0924 13.9156 10.6025 14.1604 10.3286 14.3089C10.0547 14.4574 9.48076 14.8134 9.05247 15.0998C8.6248 15.3863 7.98112 15.8666 7.62318 16.1667C7.26461 16.4668 6.74668 16.9377 6.47153 17.213C6.19638 17.4882 5.78676 17.9213 5.56141 18.1761C5.33606 18.4302 4.98372 18.862 4.77767 19.1354C4.57162 19.4088 4.23546 19.8841 4.03003 20.1917C3.82398 20.4992 3.49965 21.0305 3.30854 21.3722C3.11742 21.714 2.84476 22.2452 2.70221 22.5528C2.55965 22.8603 2.38784 23.2518 2.32061 23.4226C2.25275 23.5935 2.11207 23.9706 2.00748 24.2614C1.9029 24.5516 1.74852 25.0269 1.66386 25.3177C1.57982 25.6079 1.42419 26.2373 1.31836 26.7157C1.12725 27.5806 1 28.3056 1 29.8243C1.00177 30.7057 1.09861 32.2263 1.14592 32.5563C1.18514 32.8297 1.28412 33.3466 1.36629 33.7057C1.44909 34.0643 1.5848 34.5818 1.66821 34.8552C1.75163 35.1286 1.89419 35.548 1.98445 35.7872C2.07471 36.0264 2.34115 36.6136 2.57708 37.092C2.81239 37.5705 3.16474 38.1993 3.36021 38.49C3.55505 38.7802 3.87067 39.2276 4.06116 39.4842C4.25164 39.7402 4.81502 40.3572 5.31365 40.8542C5.81727 41.3569 6.52444 41.9832 6.9048 42.2647C7.28142 42.543 7.86969 42.9388 8.21208 43.1438C8.55446 43.3489 9.21246 43.6975 9.67498 43.9187C10.1369 44.1398 10.8515 44.4449 11.2624 44.5965C11.6733 44.7481 12.3176 44.9581 12.6942 45.0632C13.0708 45.1682 13.7008 45.3241 14.0948 45.4099C14.4883 45.495 15.1886 45.6224 15.6511 45.6926C16.113 45.7628 16.8134 45.851 17.2074 45.8889C17.6008 45.9274 19.6744 45.9722 21.814 45.9889L25.7047 46.0188C26.0683 45.5049 26.4903 44.9084 26.8775 44.3617C27.2647 43.8149 28.0161 42.7524 28.5471 42.0006C29.0781 41.2488 29.9727 39.9837 30.5348 39.1897C31.0963 38.3956 31.8676 37.3051 32.248 36.7664C32.6283 36.2278 33.4718 35.0323 34.1217 34.1096C34.7722 33.1869 35.6201 31.9846 36.0067 31.4379C36.3933 30.8911 37.1639 29.8006 37.7186 29.0147C38.2739 28.2287 39.2905 26.7884 39.9771 25.8148C40.6643 24.8405 41.5633 23.5686 41.9754 22.9877C42.3875 22.4067 42.9427 21.6263 43.2098 21.2535L43.6954 20.575C46.3361 20.6303 47.3053 20.6856 47.7728 20.7484C48.2011 20.8062 48.8448 20.9217 49.2046 21.0056C49.5638 21.0901 49.9983 21.2032 50.1695 21.2566C50.3407 21.3107 50.7329 21.4555 51.041 21.5779C51.3492 21.7009 51.8304 21.9283 52.1111 22.0836C52.3913 22.239 52.8501 22.5478 53.1314 22.7702C53.4122 22.992 53.8212 23.3978 54.0397 23.6712C54.2582 23.9445 54.5452 24.3776 54.6771 24.6342C54.8097 24.8902 54.9878 25.296 55.073 25.5352C55.159 25.7744 55.2741 26.2354 55.3295 26.5604C55.3855 26.886 55.4304 27.4918 55.4304 27.9118C55.4297 28.3828 55.3837 28.9395 55.309 29.3719C55.2424 29.7565 55.1011 30.3362 54.9946 30.6612C54.8888 30.9855 54.6603 31.5311 54.4879 31.8728C54.3148 32.2145 54.0166 32.7178 53.8249 32.9912C53.6338 33.2646 53.1526 33.8114 52.7567 34.2059C52.2537 34.7067 51.821 35.0665 51.3212 35.3983C50.9271 35.6592 50.3251 36.0134 49.9828 36.1843C49.6404 36.3551 49.0938 36.5956 48.7688 36.7186C48.4433 36.8423 47.9253 37.0106 47.6172 37.0939C47.3091 37.1772 46.7208 37.307 46.3099 37.3828C45.5965 37.5145 45.3625 37.522 41.0982 37.5549L36.6342 37.5891C35.7079 38.9374 35.2292 39.6364 34.9727 40.0123C34.7162 40.3882 34.2942 41.0033 34.0352 41.3792C33.7756 41.7552 33.3896 42.3144 33.1767 42.6219C32.9645 42.9295 32.1091 44.1734 31.2762 45.3869C30.4433 46.5997 29.3782 48.1375 28.9094 48.8042C28.44 49.4703 27.7839 50.4209 27.4509 50.9168C27.1172 51.412 26.0328 52.992 25.0399 54.4273C24.0476 55.8626 23.0976 57.2327 22.9296 57.4719C22.7608 57.7111 22.6233 57.9279 22.6233 57.9534C22.6233 57.9789 24.9484 58 27.7901 58H32.957C34.0034 56.4349 34.7642 55.3233 35.3225 54.5205C35.8809 53.7171 36.5956 52.6826 36.91 52.2216C37.2243 51.7599 37.6476 51.1436 37.8493 50.8509C38.0517 50.5583 38.8752 49.3653 39.6801 48.1997L41.1431 46.0809C45.8362 46.0268 46.4008 46.0008 47.197 45.8908C47.7193 45.8187 48.4613 45.6919 48.8467 45.6093C49.232 45.5267 49.7991 45.3875 50.1073 45.3011C50.4154 45.2141 50.9476 45.0476 51.29 44.9321C51.6324 44.8159 52.1647 44.6164 52.4728 44.4884C52.7809 44.361 53.3835 44.079 53.8112 43.8621C54.2395 43.6453 54.8695 43.293 55.2119 43.0786C55.5542 42.8649 56.0448 42.5399 56.3013 42.3572C56.5584 42.1739 57.034 41.8042 57.3595 41.5364C57.6845 41.268 58.33 40.6616 58.7938 40.1888C59.2576 39.7159 59.8054 39.1188 60.0108 38.8628C60.2169 38.6062 60.5549 38.1589 60.7616 37.8687C60.9683 37.5779 61.2446 37.1728 61.3748 36.9678C61.5049 36.7627 61.8018 36.2315 62.034 35.7872C62.2662 35.343 62.5955 34.6297 62.7654 34.2028C62.936 33.7753 63.1607 33.1323 63.2653 32.7737C63.3705 32.4146 63.5243 31.7858 63.6077 31.3757C63.6911 30.9657 63.797 30.3642 63.843 30.0399C63.8953 29.6702 64 28.875 64 27.8821C64 26.6674 63.9003 26.1143 63.815 25.5662C63.754 25.1729 63.6314 24.5441 63.5423 24.1682C63.4539 23.7923 63.2566 23.1213 63.1035 22.677C62.9503 22.2328 62.6478 21.5058 62.4305 21.0615C62.2139 20.6173 61.9026 20.0438 61.7395 19.7878C61.5771 19.5312 61.2583 19.0702 61.0317 18.7626C60.8045 18.455 60.4123 17.9797 60.159 17.7063C59.9062 17.4329 59.4599 16.9899 59.1673 16.7215C58.8747 16.4531 58.3836 16.0436 58.0754 15.8113C57.7673 15.5795 57.207 15.2023 56.8304 14.9731C56.4538 14.7444 55.9358 14.4505 55.6788 14.3213C55.4223 14.1914 54.9174 13.9603 54.5582 13.8081C54.1984 13.6552 53.5684 13.4166 53.1576 13.2787C52.7467 13.1401 51.9904 12.9239 51.4768 12.7978C50.9632 12.6716 50.1228 12.5002 49.6092 12.4163C49.0957 12.3324 48.1856 12.2237 47.5861 12.1746C46.8048 12.11 45.4664 12.0845 42.855 12.0826L39.2133 12.0808C37.8674 13.9845 37.0973 15.0762 36.6329 15.7355C36.1692 16.3941 35.6469 17.1347 35.4732 17.382C35.2989 17.6287 34.6247 18.5855 33.9742 19.5082C33.3243 20.4309 32.4272 21.7028 31.9815 22.3353C31.5364 22.9672 30.8884 23.8899 30.5416 24.3857C30.1955 24.8809 29.8886 25.3146 29.86 25.3488C29.8314 25.3829 29.6434 25.6483 29.4423 25.939C29.2412 26.2292 28.9169 26.6909 28.7214 26.9642C28.5259 27.2376 27.6264 28.5095 26.7219 29.7913C25.818 31.0725 24.225 33.3336 23.1817 34.8148L21.2849 37.5077C18.8726 37.4543 17.8218 37.3946 17.3942 37.3412C16.9659 37.2878 16.3359 37.1858 15.9935 37.1156C15.6511 37.0448 15.0628 36.8889 14.6862 36.7683C14.3096 36.6478 13.735 36.4247 13.4101 36.2725C13.0845 36.1209 12.6226 35.8655 12.3829 35.7064C12.1433 35.5468 11.7268 35.2063 11.4566 34.949C11.1871 34.6924 10.8472 34.3147 10.7015 34.1096C10.5558 33.9046 10.3597 33.5827 10.2651 33.3951C10.1705 33.2068 10.0242 32.8713 9.94017 32.6495C9.85614 32.427 9.73412 31.9728 9.66938 31.6398C9.58908 31.2322 9.55048 30.7643 9.54986 30.2107C9.54924 29.6813 9.59094 29.1433 9.66689 28.704C9.73225 28.3281 9.85925 27.7825 9.94951 27.4924C10.0404 27.2016 10.1898 26.7822 10.2819 26.5604C10.3747 26.3379 10.605 25.8769 10.7943 25.5352C10.9835 25.1934 11.2773 24.7318 11.4467 24.51C11.616 24.2875 11.8961 23.9421 12.0685 23.742C12.2416 23.5419 12.607 23.1896 12.8809 22.9591C13.1548 22.7286 13.5259 22.4378 13.7058 22.3135C13.8857 22.1887 14.2635 21.9625 14.5462 21.8103C14.8288 21.658 15.2558 21.4524 15.4955 21.3536C15.7352 21.2548 16.1834 21.0994 16.4915 21.0087C16.7997 20.9174 17.3736 20.7819 17.7677 20.7068C18.4605 20.575 18.6411 20.5701 23.3859 20.5521L28.2881 20.5334C28.8428 19.74 29.1491 19.2994 29.3271 19.0428C29.5045 18.7862 29.832 18.3103 30.0542 17.9859C30.2771 17.661 30.739 16.9899 31.0814 16.4947C31.4237 15.9989 31.9728 15.2023 32.3015 14.7239C32.6302 14.2455 33.1904 13.4346 33.5459 12.922C33.9014 12.4094 34.4025 11.6825 34.659 11.3066C34.9154 10.9307 35.8673 9.54632 36.7743 8.23095C37.6813 6.91496 38.5378 5.67788 38.6779 5.48154C38.8186 5.28519 38.9331 5.09631 38.9331 5.06213C38.9331 5.02113 37.1708 5 33.77 5H28.6063L27.3326 6.84848Z" fill="#4238B4"/>
</svg>
