<svg width="66" height="81" viewBox="0 0 66 81" fill="none" xmlns="http://www.w3.org/2000/svg">
<rect x="1.45117" y="0.5" width="64" height="80" fill="white"/>
<rect x="1.45117" y="0.5" width="64" height="80" stroke="#8080AD"/>
<path fill-rule="evenodd" clip-rule="evenodd" d="M33.4518 63.0487C45.777 63.0487 55.7685 52.9533 55.7685 40.5C55.7685 28.0467 45.777 17.9514 33.4518 17.9514C21.1267 17.9514 11.1352 28.0467 11.1352 40.5C11.1352 52.9533 21.1267 63.0487 33.4518 63.0487ZM33.4518 65.6757C47.2129 65.6757 58.3685 54.4042 58.3685 40.5C58.3685 26.5959 47.2129 15.3243 33.4518 15.3243C19.6907 15.3243 8.53516 26.5959 8.53516 40.5C8.53516 54.4042 19.6907 65.6757 33.4518 65.6757Z" fill="#5B81C2"/>
<path d="M18.0566 53.1114C18.0566 51.1717 19.6129 49.5992 21.5327 49.5992H45.865C47.7848 49.5992 49.341 51.1717 49.341 53.1114V53.1114C49.341 55.0511 47.7848 56.6236 45.865 56.6236H21.5327C19.6129 56.6236 18.0566 55.0511 18.0566 53.1114V53.1114Z" fill="#5B81C2"/>
<path d="M43.0474 52.7497V53.5076C43.0474 53.8707 43.0116 54.1807 42.9402 54.4376C42.8709 54.6924 42.77 54.8994 42.6376 55.0587C42.5052 55.2179 42.3466 55.3347 42.1616 55.409C41.9788 55.4833 41.7739 55.5205 41.547 55.5205C41.3662 55.5205 41.1981 55.4971 41.0426 55.4504C40.8892 55.4037 40.7505 55.3305 40.6266 55.2307C40.5026 55.1309 40.3964 55.0024 40.3082 54.8453C40.222 54.6861 40.1548 54.496 40.1065 54.2752C40.0602 54.0544 40.0371 53.7985 40.0371 53.5076V52.7497C40.0371 52.3845 40.0728 52.0766 40.1443 51.826C40.2157 51.5734 40.3176 51.3685 40.45 51.2114C40.5824 51.0521 40.74 50.9364 40.9229 50.8642C41.1078 50.792 41.3137 50.7559 41.5407 50.7559C41.7235 50.7559 41.8916 50.7793 42.045 50.826C42.2005 50.8706 42.3392 50.9417 42.4611 51.0394C42.5851 51.137 42.6901 51.2644 42.7763 51.4216C42.8645 51.5766 42.9318 51.7645 42.978 51.9853C43.0243 52.204 43.0474 52.4588 43.0474 52.7497ZM42.2877 53.6159V52.635C42.2877 52.4503 42.2772 52.2878 42.2562 52.1477C42.2352 52.0055 42.2037 51.8855 42.1616 51.7878C42.1217 51.688 42.0713 51.6073 42.0103 51.5458C41.9494 51.4821 41.88 51.4364 41.8023 51.4088C41.7245 51.3791 41.6373 51.3642 41.5407 51.3642C41.423 51.3642 41.3179 51.3876 41.2255 51.4343C41.133 51.4789 41.0552 51.5511 40.9922 51.6509C40.9292 51.7507 40.8808 51.8823 40.8472 52.0458C40.8157 52.2072 40.7999 52.4036 40.7999 52.635V53.6159C40.7999 53.8028 40.8104 53.9673 40.8314 54.1096C40.8525 54.2518 40.884 54.3739 40.926 54.4759C40.968 54.5756 41.0185 54.6584 41.0773 54.7243C41.1382 54.788 41.2076 54.8347 41.2853 54.8644C41.3652 54.8941 41.4524 54.909 41.547 54.909C41.6667 54.909 41.7729 54.8856 41.8653 54.8389C41.9578 54.7922 42.0355 54.7179 42.0986 54.616C42.1616 54.5119 42.2089 54.3771 42.2404 54.2115C42.272 54.0459 42.2877 53.8474 42.2877 53.6159Z" fill="white"/>
<path d="M39.2485 52.7497V53.5076C39.2485 53.8707 39.2128 54.1807 39.1414 54.4376C39.072 54.6924 38.9712 54.8994 38.8388 55.0587C38.7064 55.2179 38.5477 55.3347 38.3628 55.409C38.18 55.4833 37.9751 55.5205 37.7481 55.5205C37.5674 55.5205 37.3993 55.4971 37.2438 55.4504C37.0904 55.4037 36.9517 55.3305 36.8277 55.2307C36.7037 55.1309 36.5976 55.0024 36.5094 54.8453C36.4232 54.6861 36.356 54.496 36.3076 54.2752C36.2614 54.0544 36.2383 53.7985 36.2383 53.5076V52.7497C36.2383 52.3845 36.274 52.0766 36.3455 51.826C36.4169 51.5734 36.5188 51.3685 36.6512 51.2114C36.7836 51.0521 36.9412 50.9364 37.124 50.8642C37.3089 50.792 37.5149 50.7559 37.7418 50.7559C37.9247 50.7559 38.0928 50.7793 38.2462 50.826C38.4017 50.8706 38.5404 50.9417 38.6623 51.0394C38.7862 51.137 38.8913 51.2644 38.9775 51.4216C39.0657 51.5766 39.133 51.7645 39.1792 51.9853C39.2254 52.204 39.2485 52.4588 39.2485 52.7497ZM38.4889 53.6159V52.635C38.4889 52.4503 38.4784 52.2878 38.4574 52.1477C38.4363 52.0055 38.4048 51.8855 38.3628 51.7878C38.3229 51.688 38.2724 51.6073 38.2115 51.5458C38.1506 51.4821 38.0812 51.4364 38.0035 51.4088C37.9257 51.3791 37.8385 51.3642 37.7418 51.3642C37.6242 51.3642 37.5191 51.3876 37.4266 51.4343C37.3342 51.4789 37.2564 51.5511 37.1934 51.6509C37.1303 51.7507 37.082 51.8823 37.0484 52.0458C37.0169 52.2072 37.0011 52.4036 37.0011 52.635V53.6159C37.0011 53.8028 37.0116 53.9673 37.0326 54.1096C37.0536 54.2518 37.0851 54.3739 37.1272 54.4759C37.1692 54.5756 37.2196 54.6584 37.2785 54.7243C37.3394 54.788 37.4088 54.8347 37.4865 54.8644C37.5664 54.8941 37.6536 54.909 37.7481 54.909C37.8679 54.909 37.974 54.8856 38.0665 54.8389C38.159 54.7922 38.2367 54.7179 38.2998 54.616C38.3628 54.5119 38.4101 54.3771 38.4416 54.2115C38.4731 54.0459 38.4889 53.8474 38.4889 53.6159Z" fill="white"/>
<path d="M35.4517 52.7497V53.5076C35.4517 53.8707 35.4159 54.1807 35.3445 54.4376C35.2751 54.6924 35.1743 54.8994 35.0419 55.0587C34.9095 55.2179 34.7508 55.3347 34.5659 55.409C34.3831 55.4833 34.1782 55.5205 33.9513 55.5205C33.7705 55.5205 33.6024 55.4971 33.4469 55.4504C33.2935 55.4037 33.1548 55.3305 33.0308 55.2307C32.9069 55.1309 32.8007 55.0024 32.7125 54.8453C32.6263 54.6861 32.5591 54.496 32.5108 54.2752C32.4645 54.0544 32.4414 53.7985 32.4414 53.5076V52.7497C32.4414 52.3845 32.4771 52.0766 32.5486 51.826C32.62 51.5734 32.7219 51.3685 32.8543 51.2114C32.9867 51.0521 33.1443 50.9364 33.3271 50.8642C33.5121 50.792 33.718 50.7559 33.945 50.7559C34.1278 50.7559 34.2959 50.7793 34.4493 50.826C34.6048 50.8706 34.7435 50.9417 34.8654 51.0394C34.9894 51.137 35.0944 51.2644 35.1806 51.4216C35.2688 51.5766 35.3361 51.7645 35.3823 51.9853C35.4286 52.204 35.4517 52.4588 35.4517 52.7497ZM34.692 53.6159V52.635C34.692 52.4503 34.6815 52.2878 34.6605 52.1477C34.6395 52.0055 34.608 51.8855 34.5659 51.7878C34.526 51.688 34.4756 51.6073 34.4146 51.5458C34.3537 51.4821 34.2843 51.4364 34.2066 51.4088C34.1288 51.3791 34.0416 51.3642 33.945 51.3642C33.8273 51.3642 33.7222 51.3876 33.6298 51.4343C33.5373 51.4789 33.4595 51.5511 33.3965 51.6509C33.3335 51.7507 33.2851 51.8823 33.2515 52.0458C33.22 52.2072 33.2042 52.4036 33.2042 52.635V53.6159C33.2042 53.8028 33.2147 53.9673 33.2357 54.1096C33.2568 54.2518 33.2883 54.3739 33.3303 54.4759C33.3723 54.5756 33.4228 54.6584 33.4816 54.7243C33.5425 54.788 33.6119 54.8347 33.6896 54.8644C33.7695 54.8941 33.8567 54.909 33.9513 54.909C34.071 54.909 34.1772 54.8856 34.2696 54.8389C34.3621 54.7922 34.4398 54.7179 34.5029 54.616C34.5659 54.5119 34.6132 54.3771 34.6447 54.2115C34.6762 54.0459 34.692 53.8474 34.692 53.6159Z" fill="white"/>
<path d="M31.6528 52.7497V53.5076C31.6528 53.8707 31.6171 54.1807 31.5457 54.4376C31.4763 54.6924 31.3755 54.8994 31.2431 55.0587C31.1107 55.2179 30.952 55.3347 30.7671 55.409C30.5843 55.4833 30.3794 55.5205 30.1524 55.5205C29.9717 55.5205 29.8036 55.4971 29.6481 55.4504C29.4947 55.4037 29.356 55.3305 29.232 55.2307C29.108 55.1309 29.0019 55.0024 28.9137 54.8453C28.8275 54.6861 28.7603 54.496 28.7119 54.2752C28.6657 54.0544 28.6426 53.7985 28.6426 53.5076V52.7497C28.6426 52.3845 28.6783 52.0766 28.7497 51.826C28.8212 51.5734 28.9231 51.3685 29.0555 51.2114C29.1879 51.0521 29.3455 50.9364 29.5283 50.8642C29.7132 50.792 29.9192 50.7559 30.1461 50.7559C30.329 50.7559 30.4971 50.7793 30.6505 50.826C30.806 50.8706 30.9447 50.9417 31.0665 51.0394C31.1905 51.137 31.2956 51.2644 31.3818 51.4216C31.47 51.5766 31.5373 51.7645 31.5835 51.9853C31.6297 52.204 31.6528 52.4588 31.6528 52.7497ZM30.8932 53.6159V52.635C30.8932 52.4503 30.8827 52.2878 30.8617 52.1477C30.8406 52.0055 30.8091 51.8855 30.7671 51.7878C30.7272 51.688 30.6767 51.6073 30.6158 51.5458C30.5549 51.4821 30.4855 51.4364 30.4078 51.4088C30.33 51.3791 30.2428 51.3642 30.1461 51.3642C30.0285 51.3642 29.9234 51.3876 29.8309 51.4343C29.7385 51.4789 29.6607 51.5511 29.5977 51.6509C29.5346 51.7507 29.4863 51.8823 29.4527 52.0458C29.4211 52.2072 29.4054 52.4036 29.4054 52.635V53.6159C29.4054 53.8028 29.4159 53.9673 29.4369 54.1096C29.4579 54.2518 29.4894 54.3739 29.5315 54.4759C29.5735 54.5756 29.6239 54.6584 29.6828 54.7243C29.7437 54.788 29.8131 54.8347 29.8908 54.8644C29.9707 54.8941 30.0579 54.909 30.1524 54.909C30.2722 54.909 30.3783 54.8856 30.4708 54.8389C30.5633 54.7922 30.641 54.7179 30.7041 54.616C30.7671 54.5119 30.8144 54.3771 30.8459 54.2115C30.8774 54.0459 30.8932 53.8474 30.8932 53.6159Z" fill="white"/>
<path d="M27.854 52.7497V53.5077C27.854 53.8708 27.8183 54.1808 27.7468 54.4377C27.6775 54.6925 27.5766 54.8995 27.4442 55.0587C27.3118 55.218 27.1532 55.3348 26.9683 55.4091C26.7854 55.4834 26.5806 55.5205 26.3536 55.5205C26.1729 55.5205 26.0048 55.4972 25.8493 55.4505C25.6959 55.4038 25.5572 55.3305 25.4332 55.2307C25.3092 55.1309 25.2031 55.0025 25.1148 54.8454C25.0287 54.6861 24.9614 54.4961 24.9131 54.2753C24.8669 54.0544 24.8438 53.7986 24.8438 53.5077V52.7497C24.8438 52.3845 24.8795 52.0766 24.9509 51.8261C25.0224 51.5734 25.1243 51.3685 25.2567 51.2114C25.3891 51.0522 25.5467 50.9365 25.7295 50.8643C25.9144 50.7921 26.1204 50.756 26.3473 50.756C26.5301 50.756 26.6982 50.7793 26.8516 50.826C27.0071 50.8706 27.1458 50.9418 27.2677 51.0394C27.3917 51.1371 27.4968 51.2645 27.5829 51.4216C27.6712 51.5766 27.7384 51.7645 27.7847 51.9853C27.8309 52.204 27.854 52.4588 27.854 52.7497ZM27.0944 53.616V52.6351C27.0944 52.4503 27.0838 52.2879 27.0628 52.1478C27.0418 52.0055 27.0103 51.8855 26.9683 51.7879C26.9283 51.6881 26.8779 51.6074 26.817 51.5458C26.756 51.4821 26.6867 51.4365 26.6089 51.4089C26.5312 51.3792 26.444 51.3643 26.3473 51.3643C26.2296 51.3643 26.1246 51.3876 26.0321 51.4344C25.9396 51.4789 25.8619 51.5511 25.7988 51.6509C25.7358 51.7507 25.6875 51.8824 25.6538 52.0459C25.6223 52.2072 25.6066 52.4036 25.6066 52.6351V53.616C25.6066 53.8028 25.6171 53.9674 25.6381 54.1097C25.6591 54.2519 25.6906 54.374 25.7326 54.4759C25.7747 54.5757 25.8251 54.6585 25.8839 54.7243C25.9449 54.788 26.0142 54.8347 26.092 54.8645C26.1718 54.8942 26.259 54.9091 26.3536 54.9091C26.4734 54.9091 26.5795 54.8857 26.672 54.839C26.7644 54.7923 26.8422 54.718 26.9052 54.616C26.9683 54.512 27.0156 54.3772 27.0471 54.2116C27.0786 54.046 27.0944 53.8474 27.0944 53.616Z" fill="white"/>
<path d="M20.002 44.8853L20.8498 46.8999L14.8682 49.47L14.0203 47.4554L20.002 44.8853Z" fill="#5B81C2"/>
<rect x="19.3672" y="39.4054" width="2.18919" height="6.5" transform="rotate(90 19.3672 39.4054)" fill="#5B81C2"/>
<path d="M20.9844 33.9371L20.1893 35.9736L14.1427 33.5637L14.9378 31.5272L20.9844 33.9371Z" fill="#5B81C2"/>
<path d="M24.3984 29.8505L22.8664 31.3985L18.2702 26.7545L19.8022 25.2066L24.3984 29.8505Z" fill="#5B81C2"/>
<path d="M29.168 27.3279L27.1617 28.1545L24.7074 22.073L26.7137 21.2465L29.168 27.3279Z" fill="#5B81C2"/>
<path d="M46.9004 44.8853L46.0525 46.8999L52.0341 49.47L52.882 47.4554L46.9004 44.8853Z" fill="#5B81C2"/>
<path d="M47.5352 39.4054L47.5352 41.5946L54.0352 41.5946L54.0352 39.4054L47.5352 39.4054Z" fill="#5B81C2"/>
<path d="M45.918 33.9371L46.713 35.9736L52.7596 33.5637L51.9646 31.5272L45.918 33.9371Z" fill="#5B81C2"/>
<path d="M42.5039 29.8505L44.036 31.3985L48.6322 26.7545L47.1001 25.2066L42.5039 29.8505Z" fill="#5B81C2"/>
<path d="M37.7344 27.3279L39.7407 28.1545L42.1949 22.073L40.1886 21.2465L37.7344 27.3279Z" fill="#5B81C2"/>
<path d="M34.5352 26.9131L32.3685 26.9131L32.3685 20.3455L34.5352 20.3455L34.5352 26.9131Z" fill="#5B81C2"/>
<path d="M24.4043 28.6273C24.4043 34.068 20.0391 38.4786 14.6543 38.4786C9.26952 38.4786 4.9043 34.068 4.9043 28.6273C4.9043 23.1865 9.26952 18.7759 14.6543 18.7759C20.0391 18.7759 24.4043 23.1865 24.4043 28.6273Z" fill="white"/>
<path d="M8.8043 29.6124V27.6422H16.6043L13.1918 24.1942L14.5763 22.7953L20.3483 28.6273L14.5763 34.4593L13.1918 33.0604L16.6043 29.6124H8.8043ZM24.4043 28.6273C24.4043 31.24 23.3771 33.7458 21.5486 35.5932C19.7201 37.4407 17.2402 38.4786 14.6543 38.4786C13.3739 38.4786 12.1061 38.2238 10.9231 37.7288C9.74021 37.2337 8.66538 36.508 7.76001 35.5932C5.93153 33.7458 4.9043 31.24 4.9043 28.6273C4.9043 26.0146 5.93153 23.5088 7.76001 21.6613C9.58849 19.8138 12.0684 18.7759 14.6543 18.7759C15.9347 18.7759 17.2025 19.0308 18.3855 19.5258C19.5684 20.0209 20.6432 20.7466 21.5486 21.6613C22.454 22.5761 23.1721 23.6621 23.6621 24.8573C24.1521 26.0526 24.4043 27.3336 24.4043 28.6273ZM22.4543 28.6273C22.4543 26.5371 21.6325 24.5325 20.1697 23.0545C18.7069 21.5765 16.723 20.7462 14.6543 20.7462C12.5856 20.7462 10.6016 21.5765 9.13886 23.0545C7.67608 24.5325 6.8543 26.5371 6.8543 28.6273C6.8543 30.7175 7.67608 32.7221 9.13886 34.2001C10.6016 35.678 12.5856 36.5084 14.6543 36.5084C16.723 36.5084 18.7069 35.678 20.1697 34.2001C21.6325 32.7221 22.4543 30.7175 22.4543 28.6273Z" fill="#5B81C2"/>
<path d="M20.6614 46.0199L31.0152 39.2683L32.4698 42.4599L20.6614 46.0199Z" fill="#5B81C2"/>
<path d="M36.2075 40.0875C36.2075 41.6255 34.9735 42.8722 33.4514 42.8722C31.9292 42.8722 30.6953 41.6255 30.6953 40.0875C30.6953 38.5496 31.9292 37.3028 33.4514 37.3028C34.9735 37.3028 36.2075 38.5496 36.2075 40.0875Z" fill="#5B81C2"/>
</svg>
