<svg width="355" height="89" viewBox="0 0 355 89" fill="none" xmlns="http://www.w3.org/2000/svg">
<path d="M87.875 26.2969H89.8281C89.7656 27.0417 89.5573 27.7057 89.2031 28.2891C88.849 28.8672 88.3516 29.3229 87.7109 29.6562C87.0703 29.9896 86.2917 30.1562 85.375 30.1562C84.6719 30.1562 84.0391 30.0312 83.4766 29.7812C82.9141 29.526 82.4323 29.1667 82.0312 28.7031C81.6302 28.2344 81.3229 27.6693 81.1094 27.0078C80.901 26.3464 80.7969 25.6068 80.7969 24.7891V23.8438C80.7969 23.026 80.9036 22.2865 81.1172 21.625C81.3359 20.9635 81.6484 20.3984 82.0547 19.9297C82.4609 19.4557 82.9479 19.0938 83.5156 18.8438C84.0885 18.5938 84.7318 18.4688 85.4453 18.4688C86.3516 18.4688 87.1172 18.6354 87.7422 18.9688C88.3672 19.3021 88.8516 19.763 89.1953 20.3516C89.5443 20.9401 89.7578 21.6146 89.8359 22.375H87.8828C87.8307 21.8854 87.7161 21.4661 87.5391 21.1172C87.3672 20.7682 87.112 20.5026 86.7734 20.3203C86.4349 20.1328 85.9922 20.0391 85.4453 20.0391C84.9974 20.0391 84.6068 20.1224 84.2734 20.2891C83.9401 20.4557 83.6615 20.7005 83.4375 21.0234C83.2135 21.3464 83.0443 21.7448 82.9297 22.2188C82.8203 22.6875 82.7656 23.224 82.7656 23.8281V24.7891C82.7656 25.362 82.8151 25.8828 82.9141 26.3516C83.0182 26.8151 83.1745 27.2135 83.3828 27.5469C83.5964 27.8802 83.8672 28.138 84.1953 28.3203C84.5234 28.5026 84.9167 28.5938 85.375 28.5938C85.9323 28.5938 86.3828 28.5052 86.7266 28.3281C87.0755 28.151 87.3385 27.8932 87.5156 27.5547C87.6979 27.2109 87.8177 26.7917 87.875 26.2969ZM95.1484 30.1562C94.5234 30.1562 93.9583 30.0547 93.4531 29.8516C92.9531 29.6432 92.526 29.3542 92.1719 28.9844C91.8229 28.6146 91.5547 28.1797 91.3672 27.6797C91.1797 27.1797 91.0859 26.6406 91.0859 26.0625V25.75C91.0859 25.0885 91.1823 24.4896 91.375 23.9531C91.5677 23.4167 91.8359 22.9583 92.1797 22.5781C92.5234 22.1927 92.9297 21.8984 93.3984 21.6953C93.8672 21.4922 94.375 21.3906 94.9219 21.3906C95.526 21.3906 96.0547 21.4922 96.5078 21.6953C96.9609 21.8984 97.3359 22.1849 97.6328 22.5547C97.9349 22.9193 98.1589 23.3542 98.3047 23.8594C98.4557 24.3646 98.5312 24.9219 98.5312 25.5312V26.3359H92V24.9844H96.6719V24.8359C96.6615 24.4974 96.5938 24.1797 96.4688 23.8828C96.349 23.5859 96.1641 23.3464 95.9141 23.1641C95.6641 22.9818 95.3307 22.8906 94.9141 22.8906C94.6016 22.8906 94.3229 22.9583 94.0781 23.0938C93.8385 23.224 93.638 23.4141 93.4766 23.6641C93.3151 23.9141 93.1901 24.2161 93.1016 24.5703C93.0182 24.9193 92.9766 25.3125 92.9766 25.75V26.0625C92.9766 26.4323 93.026 26.776 93.125 27.0938C93.2292 27.4062 93.3802 27.6797 93.5781 27.9141C93.776 28.1484 94.0156 28.3333 94.2969 28.4688C94.5781 28.599 94.8984 28.6641 95.2578 28.6641C95.7109 28.6641 96.1146 28.5729 96.4688 28.3906C96.8229 28.2083 97.1302 27.9505 97.3906 27.6172L98.3828 28.5781C98.2005 28.8438 97.9635 29.099 97.6719 29.3438C97.3802 29.5833 97.0234 29.7786 96.6016 29.9297C96.1849 30.0807 95.7005 30.1562 95.1484 30.1562ZM101.891 23.1719V33.25H100.008V21.5469H101.742L101.891 23.1719ZM107.398 25.6953V25.8594C107.398 26.474 107.326 27.0443 107.18 27.5703C107.039 28.0911 106.828 28.5469 106.547 28.9375C106.271 29.3229 105.93 29.6224 105.523 29.8359C105.117 30.0495 104.648 30.1562 104.117 30.1562C103.591 30.1562 103.13 30.0599 102.734 29.8672C102.344 29.6693 102.013 29.3906 101.742 29.0312C101.471 28.6719 101.253 28.25 101.086 27.7656C100.924 27.276 100.81 26.7396 100.742 26.1562V25.5234C100.81 24.9036 100.924 24.3411 101.086 23.8359C101.253 23.3307 101.471 22.8958 101.742 22.5312C102.013 22.1667 102.344 21.8854 102.734 21.6875C103.125 21.4896 103.581 21.3906 104.102 21.3906C104.633 21.3906 105.104 21.4948 105.516 21.7031C105.927 21.9062 106.273 22.1979 106.555 22.5781C106.836 22.9531 107.047 23.4062 107.188 23.9375C107.328 24.4635 107.398 25.0495 107.398 25.6953ZM105.516 25.8594V25.6953C105.516 25.3047 105.479 24.9427 105.406 24.6094C105.333 24.2708 105.219 23.974 105.062 23.7188C104.906 23.4635 104.706 23.2656 104.461 23.125C104.221 22.9792 103.932 22.9062 103.594 22.9062C103.26 22.9062 102.974 22.9635 102.734 23.0781C102.495 23.1875 102.294 23.3411 102.133 23.5391C101.971 23.737 101.846 23.9688 101.758 24.2344C101.669 24.4948 101.607 24.7786 101.57 25.0859V26.6016C101.633 26.9766 101.74 27.3203 101.891 27.6328C102.042 27.9453 102.255 28.1953 102.531 28.3828C102.812 28.5651 103.172 28.6562 103.609 28.6562C103.948 28.6562 104.237 28.5833 104.477 28.4375C104.716 28.2917 104.911 28.0911 105.062 27.8359C105.219 27.5755 105.333 27.276 105.406 26.9375C105.479 26.599 105.516 26.2396 105.516 25.8594ZM113.109 26.3828H110.406L110.391 25.0547H112.609C112.974 25.0547 113.273 25.0182 113.508 24.9453C113.747 24.8724 113.924 24.763 114.039 24.6172C114.154 24.4661 114.211 24.2839 114.211 24.0703C114.211 23.8932 114.177 23.7396 114.109 23.6094C114.042 23.474 113.938 23.3646 113.797 23.2812C113.661 23.1927 113.49 23.1302 113.281 23.0938C113.078 23.0521 112.841 23.0312 112.57 23.0312H111.031V30H109.148V21.5469H112.57C113.112 21.5469 113.599 21.5938 114.031 21.6875C114.469 21.7812 114.841 21.9245 115.148 22.1172C115.456 22.3099 115.69 22.5547 115.852 22.8516C116.018 23.1432 116.102 23.487 116.102 23.8828C116.102 24.1432 116.044 24.388 115.93 24.6172C115.82 24.8464 115.656 25.0495 115.438 25.2266C115.219 25.4036 114.951 25.5495 114.633 25.6641C114.315 25.7734 113.951 25.8411 113.539 25.8672L113.109 26.3828ZM113.109 30H109.859L110.609 28.5156H113.109C113.443 28.5156 113.719 28.474 113.938 28.3906C114.156 28.3073 114.318 28.1875 114.422 28.0312C114.531 27.8698 114.586 27.6797 114.586 27.4609C114.586 27.237 114.534 27.0443 114.43 26.8828C114.326 26.7214 114.164 26.599 113.945 26.5156C113.732 26.4271 113.453 26.3828 113.109 26.3828H110.961L110.977 25.0547H113.531L114.07 25.5703C114.607 25.6068 115.052 25.7214 115.406 25.9141C115.76 26.1068 116.026 26.349 116.203 26.6406C116.38 26.9323 116.469 27.25 116.469 27.5938C116.469 27.9896 116.393 28.3385 116.242 28.6406C116.096 28.9427 115.878 29.1953 115.586 29.3984C115.299 29.5964 114.948 29.7474 114.531 29.8516C114.115 29.9505 113.641 30 113.109 30ZM120.039 27.25L123.359 21.5469H125.242V30H123.359V24.2891L120.039 30H118.156V21.5469H120.039V27.25ZM130.688 28.6562C130.995 28.6562 131.271 28.5964 131.516 28.4766C131.766 28.3516 131.966 28.1797 132.117 27.9609C132.273 27.7422 132.359 27.4896 132.375 27.2031H134.148C134.138 27.75 133.977 28.2474 133.664 28.6953C133.352 29.1432 132.938 29.5 132.422 29.7656C131.906 30.026 131.336 30.1562 130.711 30.1562C130.065 30.1562 129.503 30.0469 129.023 29.8281C128.544 29.6042 128.146 29.2969 127.828 28.9062C127.51 28.5156 127.271 28.0651 127.109 27.5547C126.953 27.0443 126.875 26.4974 126.875 25.9141V25.6406C126.875 25.0573 126.953 24.5104 127.109 24C127.271 23.4844 127.51 23.0312 127.828 22.6406C128.146 22.25 128.544 21.9453 129.023 21.7266C129.503 21.5026 130.062 21.3906 130.703 21.3906C131.38 21.3906 131.974 21.526 132.484 21.7969C132.995 22.0625 133.396 22.4349 133.688 22.9141C133.984 23.388 134.138 23.9401 134.148 24.5703H132.375C132.359 24.2578 132.281 23.9766 132.141 23.7266C132.005 23.4714 131.812 23.2682 131.562 23.1172C131.318 22.9661 131.023 22.8906 130.68 22.8906C130.299 22.8906 129.984 22.9688 129.734 23.125C129.484 23.276 129.289 23.4844 129.148 23.75C129.008 24.0104 128.906 24.3047 128.844 24.6328C128.786 24.9557 128.758 25.2917 128.758 25.6406V25.9141C128.758 26.263 128.786 26.6016 128.844 26.9297C128.901 27.2578 129 27.5521 129.141 27.8125C129.286 28.0677 129.484 28.2734 129.734 28.4297C129.984 28.5807 130.302 28.6562 130.688 28.6562ZM136.992 24.2344H139.484C140.214 24.2344 140.833 24.3568 141.344 24.6016C141.854 24.8464 142.242 25.1875 142.508 25.625C142.779 26.0573 142.914 26.5521 142.914 27.1094C142.914 27.5208 142.839 27.9036 142.688 28.2578C142.536 28.6068 142.312 28.9115 142.016 29.1719C141.724 29.4323 141.365 29.6354 140.938 29.7812C140.516 29.9271 140.031 30 139.484 30H135.742V21.5469H137.633V28.5078H139.484C139.859 28.5078 140.159 28.4427 140.383 28.3125C140.607 28.1823 140.768 28.013 140.867 27.8047C140.971 27.5964 141.023 27.375 141.023 27.1406C141.023 26.901 140.971 26.6745 140.867 26.4609C140.768 26.2474 140.607 26.0729 140.383 25.9375C140.159 25.8021 139.859 25.7344 139.484 25.7344H136.992V24.2344ZM146.242 21.5469V30H144.359V21.5469H146.242ZM155.945 30H153.516L153.531 28.4453H155.945C156.648 28.4453 157.237 28.2917 157.711 27.9844C158.19 27.6771 158.549 27.237 158.789 26.6641C159.034 26.0911 159.156 25.4089 159.156 24.6172V24C159.156 23.3854 159.086 22.8411 158.945 22.3672C158.81 21.8932 158.607 21.4948 158.336 21.1719C158.07 20.849 157.742 20.6042 157.352 20.4375C156.966 20.2708 156.521 20.1875 156.016 20.1875H153.469V18.625H156.016C156.771 18.625 157.461 18.7526 158.086 19.0078C158.711 19.2578 159.25 19.6198 159.703 20.0938C160.161 20.5677 160.513 21.1354 160.758 21.7969C161.003 22.4583 161.125 23.1979 161.125 24.0156V24.6172C161.125 25.4349 161.003 26.1745 160.758 26.8359C160.513 27.4974 160.161 28.0651 159.703 28.5391C159.245 29.0078 158.698 29.3698 158.062 29.625C157.432 29.875 156.727 30 155.945 30ZM154.602 18.625V30H152.641V18.625H154.602ZM169.078 27.0703C169.078 26.8359 169.042 26.6276 168.969 26.4453C168.901 26.263 168.779 26.0964 168.602 25.9453C168.424 25.7943 168.174 25.6484 167.852 25.5078C167.534 25.362 167.128 25.2135 166.633 25.0625C166.091 24.8958 165.591 24.7109 165.133 24.5078C164.68 24.2995 164.284 24.0599 163.945 23.7891C163.607 23.513 163.344 23.1979 163.156 22.8438C162.969 22.4844 162.875 22.0703 162.875 21.6016C162.875 21.138 162.971 20.7161 163.164 20.3359C163.362 19.9557 163.641 19.6276 164 19.3516C164.365 19.0703 164.794 18.8542 165.289 18.7031C165.784 18.5469 166.331 18.4688 166.93 18.4688C167.773 18.4688 168.5 18.625 169.109 18.9375C169.724 19.25 170.195 19.6693 170.523 20.1953C170.857 20.7214 171.023 21.3021 171.023 21.9375H169.078C169.078 21.5625 168.997 21.2318 168.836 20.9453C168.68 20.6536 168.44 20.4245 168.117 20.2578C167.799 20.0911 167.396 20.0078 166.906 20.0078C166.443 20.0078 166.057 20.0781 165.75 20.2188C165.443 20.3594 165.214 20.5495 165.062 20.7891C164.911 21.0286 164.836 21.2995 164.836 21.6016C164.836 21.8151 164.885 22.0104 164.984 22.1875C165.083 22.3594 165.234 22.5208 165.438 22.6719C165.641 22.8177 165.896 22.9557 166.203 23.0859C166.51 23.2161 166.872 23.3411 167.289 23.4609C167.919 23.6484 168.469 23.8568 168.938 24.0859C169.406 24.3099 169.797 24.5651 170.109 24.8516C170.422 25.138 170.656 25.4635 170.812 25.8281C170.969 26.1875 171.047 26.5964 171.047 27.0547C171.047 27.5339 170.951 27.9661 170.758 28.3516C170.565 28.7318 170.289 29.0573 169.93 29.3281C169.576 29.5938 169.148 29.7995 168.648 29.9453C168.154 30.0859 167.602 30.1562 166.992 30.1562C166.445 30.1562 165.906 30.0833 165.375 29.9375C164.849 29.7917 164.37 29.5703 163.938 29.2734C163.505 28.9714 163.161 28.5964 162.906 28.1484C162.651 27.6953 162.523 27.1667 162.523 26.5625H164.484C164.484 26.9323 164.547 27.2474 164.672 27.5078C164.802 27.7682 164.982 27.9818 165.211 28.1484C165.44 28.3099 165.706 28.4297 166.008 28.5078C166.315 28.5859 166.643 28.625 166.992 28.625C167.451 28.625 167.833 28.5599 168.141 28.4297C168.453 28.2995 168.688 28.1172 168.844 27.8828C169 27.6484 169.078 27.3776 169.078 27.0703ZM178.766 27.0703C178.766 26.8359 178.729 26.6276 178.656 26.4453C178.589 26.263 178.466 26.0964 178.289 25.9453C178.112 25.7943 177.862 25.6484 177.539 25.5078C177.221 25.362 176.815 25.2135 176.32 25.0625C175.779 24.8958 175.279 24.7109 174.82 24.5078C174.367 24.2995 173.971 24.0599 173.633 23.7891C173.294 23.513 173.031 23.1979 172.844 22.8438C172.656 22.4844 172.562 22.0703 172.562 21.6016C172.562 21.138 172.659 20.7161 172.852 20.3359C173.049 19.9557 173.328 19.6276 173.688 19.3516C174.052 19.0703 174.482 18.8542 174.977 18.7031C175.471 18.5469 176.018 18.4688 176.617 18.4688C177.461 18.4688 178.188 18.625 178.797 18.9375C179.411 19.25 179.883 19.6693 180.211 20.1953C180.544 20.7214 180.711 21.3021 180.711 21.9375H178.766C178.766 21.5625 178.685 21.2318 178.523 20.9453C178.367 20.6536 178.128 20.4245 177.805 20.2578C177.487 20.0911 177.083 20.0078 176.594 20.0078C176.13 20.0078 175.745 20.0781 175.438 20.2188C175.13 20.3594 174.901 20.5495 174.75 20.7891C174.599 21.0286 174.523 21.2995 174.523 21.6016C174.523 21.8151 174.573 22.0104 174.672 22.1875C174.771 22.3594 174.922 22.5208 175.125 22.6719C175.328 22.8177 175.583 22.9557 175.891 23.0859C176.198 23.2161 176.56 23.3411 176.977 23.4609C177.607 23.6484 178.156 23.8568 178.625 24.0859C179.094 24.3099 179.484 24.5651 179.797 24.8516C180.109 25.138 180.344 25.4635 180.5 25.8281C180.656 26.1875 180.734 26.5964 180.734 27.0547C180.734 27.5339 180.638 27.9661 180.445 28.3516C180.253 28.7318 179.977 29.0573 179.617 29.3281C179.263 29.5938 178.836 29.7995 178.336 29.9453C177.841 30.0859 177.289 30.1562 176.68 30.1562C176.133 30.1562 175.594 30.0833 175.062 29.9375C174.536 29.7917 174.057 29.5703 173.625 29.2734C173.193 28.9714 172.849 28.5964 172.594 28.1484C172.339 27.6953 172.211 27.1667 172.211 26.5625H174.172C174.172 26.9323 174.234 27.2474 174.359 27.5078C174.49 27.7682 174.669 27.9818 174.898 28.1484C175.128 28.3099 175.393 28.4297 175.695 28.5078C176.003 28.5859 176.331 28.625 176.68 28.625C177.138 28.625 177.521 28.5599 177.828 28.4297C178.141 28.2995 178.375 28.1172 178.531 27.8828C178.688 27.6484 178.766 27.3776 178.766 27.0703Z" fill="black"/>
<rect x="36" y="38" width="13" height="13" rx="6.5" fill="#619ADC"/>
<path fill-rule="evenodd" clip-rule="evenodd" d="M41.6072 40.2365C41.4202 40.2653 41.2798 40.3681 41.0433 40.6494C40.921 40.7949 40.8169 40.8966 40.7387 40.9469C40.6712 40.9903 40.5658 41.0405 40.394 41.1111C40.1125 41.2267 39.9917 41.3052 39.9101 41.4254C39.8326 41.5398 39.7978 41.681 39.7654 42.0137C39.7297 42.3802 39.7137 42.4302 39.5469 42.698C39.4421 42.8663 39.3695 43.004 39.3378 43.0947C39.3162 43.1564 39.3134 43.1769 39.3134 43.2734C39.3133 43.3738 39.3156 43.3889 39.342 43.4652C39.3759 43.5627 39.4457 43.6974 39.541 43.8487C39.7117 44.1199 39.7424 44.2178 39.7788 44.6071C39.8102 44.9435 39.851 45.072 39.9644 45.1912C40.0596 45.2912 40.1505 45.3425 40.4467 45.4631C40.763 45.5918 40.8347 45.6466 41.1259 45.9815C41.2448 46.1183 41.3456 46.2047 41.4402 46.2507C41.5366 46.2977 41.5994 46.3106 41.7303 46.3103C41.8564 46.3099 41.9256 46.2991 42.1391 46.2459C42.3366 46.1968 42.3766 46.1908 42.5084 46.1906C42.6438 46.1904 42.6935 46.1977 42.926 46.2515C43.2224 46.3202 43.2951 46.3276 43.4209 46.3019C43.6011 46.2651 43.7255 46.1731 43.9502 45.9104C44.1802 45.6416 44.2769 45.5703 44.57 45.453C44.8398 45.3451 44.9499 45.282 45.0462 45.1799C45.1732 45.0453 45.2057 44.9359 45.2423 44.52C45.273 44.1722 45.2893 44.1215 45.4586 43.8478C45.6526 43.534 45.6865 43.4467 45.6863 43.2603C45.6863 43.1667 45.6827 43.1356 45.666 43.0816C45.6405 42.9999 45.5663 42.8585 45.4713 42.7111C45.2929 42.4342 45.2684 42.3626 45.2385 42.0311C45.2113 41.7304 45.1848 41.5978 45.1285 41.4819C45.0483 41.3169 44.9281 41.2335 44.5437 41.0764C44.2536 40.9578 44.1553 40.8846 43.9285 40.6189C43.7922 40.4591 43.7458 40.4116 43.6821 40.3664C43.5253 40.2551 43.3671 40.2149 43.1809 40.239C43.1374 40.2446 43.0089 40.2704 42.8952 40.2964C42.6229 40.3586 42.5786 40.3648 42.4468 40.3592C42.3354 40.3545 42.3028 40.3489 42.0824 40.2966C42.0145 40.2805 41.9253 40.261 41.8843 40.2533C41.8068 40.2387 41.6531 40.2294 41.6072 40.2365ZM42.7621 41.0244C42.9282 41.0344 43.0393 41.0548 43.1838 41.1019C43.8788 41.3283 44.4134 41.8394 44.6658 42.519C44.7653 42.7871 44.7819 42.9199 44.7736 43.3823C44.768 43.6975 44.7616 43.7442 44.6972 43.9403C44.6242 44.1627 44.538 44.3386 44.4067 44.5328C44.1115 44.9692 43.6904 45.2814 43.1678 45.4513C42.9631 45.5179 42.8324 45.5347 42.5216 45.534C42.1977 45.5334 42.03 45.5116 41.8138 45.4422C41.4691 45.3314 41.1765 45.157 40.9181 44.9081C40.5175 44.5223 40.2808 44.0413 40.222 43.4935C40.2064 43.3478 40.2155 43.0358 40.2394 42.9029C40.323 42.4362 40.5187 42.041 40.8223 41.7258C41.0685 41.4701 41.4084 41.2488 41.7303 41.1348C41.828 41.1002 42.0312 41.0455 42.1259 41.0283C42.2021 41.0145 42.5612 41.0123 42.7621 41.0244ZM42.2519 41.4206C41.4261 41.5373 40.7811 42.1631 40.6388 42.9857C40.6206 43.091 40.6139 43.329 40.626 43.4388C40.67 43.836 40.8187 44.1834 41.0684 44.472C41.3772 44.829 41.7931 45.0598 42.2458 45.1254C42.3638 45.1425 42.6142 45.1429 42.7326 45.1262C43.0961 45.0749 43.4216 44.9384 43.6865 44.7262C43.9494 44.5154 44.1872 44.1674 44.3008 43.8268C44.3514 43.6752 44.3641 43.5883 44.3696 43.3562C44.3766 43.0647 44.3535 42.8632 44.2921 42.6774C44.2264 42.4787 44.0588 42.1972 43.9051 42.0273C43.6293 41.7227 43.2341 41.5073 42.8161 41.4338C42.6756 41.4091 42.3817 41.4023 42.2519 41.4206Z" fill="white"/>
<path fill-rule="evenodd" clip-rule="evenodd" d="M40.8724 46.3817C40.764 46.6759 40.2897 48.0863 40.219 48.3245L40.1827 48.4468L40.2049 48.4493C40.2269 48.4517 40.5479 48.3974 40.9144 48.3293L41.1018 48.2945L41.4034 48.6106C41.5693 48.7845 41.7068 48.925 41.7089 48.9228C41.7132 48.9183 42.0086 48.0411 42.1694 47.5552C42.2986 47.1649 42.4054 46.8262 42.4054 46.8065C42.4054 46.7858 42.3667 46.7785 42.0639 46.7421C41.6725 46.6949 41.6137 46.6818 41.4317 46.6005C41.314 46.548 41.1333 46.4523 41.0248 46.3851C40.9755 46.3545 40.927 46.325 40.9171 46.3196C40.8999 46.3101 40.8975 46.3133 40.8724 46.3817ZM43.9532 46.4045C43.8738 46.4472 43.7537 46.5118 43.6863 46.5483C43.4758 46.6619 43.3266 46.7011 42.951 46.7415C42.6365 46.7754 42.5886 46.7824 42.5886 46.7946C42.5886 46.8259 43.1929 48.6606 43.279 48.8907C43.288 48.9147 43.2885 48.9148 43.3135 48.9013C43.3432 48.8852 43.5138 48.709 43.7348 48.4662L43.8922 48.2932L43.938 48.3026C44.1303 48.3416 44.8117 48.4551 44.8175 48.449C44.8247 48.4414 44.4104 47.1917 44.1973 46.5787C44.1258 46.373 44.1082 46.327 44.1008 46.327C44.099 46.327 44.0326 46.3619 43.9532 46.4045Z" fill="white"/>
<path fill-rule="evenodd" clip-rule="evenodd" d="M42.2559 41.4207C41.4301 41.5374 40.7851 42.1632 40.6428 42.9858C40.6246 43.0911 40.6179 43.3291 40.63 43.4389C40.674 43.8361 40.8227 44.1836 41.0724 44.4721C41.3813 44.8292 41.7972 45.06 42.2498 45.1255C42.3678 45.1426 42.6183 45.143 42.7366 45.1263C43.1002 45.075 43.4257 44.9385 43.6905 44.7263C43.9535 44.5155 44.1912 44.1675 44.3048 43.8269C44.3554 43.6753 44.3681 43.5884 44.3736 43.3563C44.3806 43.0648 44.3576 42.8633 44.2961 42.6775C44.2304 42.4788 44.0629 42.1974 43.9091 42.0275C43.6333 41.7228 43.2382 41.5074 42.8201 41.4339C42.6797 41.4093 42.3858 41.4024 42.2559 41.4207Z" fill="#619ADC"/>
<path d="M29 61C25.4073 61 22.3424 59.7898 19.8055 57.3694C17.2685 54.9335 16 51.9658 16 48.4662C16 45.46 16.9218 42.7775 18.7655 40.4188C20.6248 38.06 23.0515 36.5569 26.0455 35.9094C27.0382 32.3635 29.0079 29.496 31.9545 27.3069C34.917 25.1023 38.2655 24 42 24C46.617 24 50.5248 25.5725 53.7236 28.7175C56.9382 31.8471 58.5455 35.6704 58.5455 40.1875C61.2715 40.4958 63.5248 41.6521 65.3055 43.6562C67.1018 45.6296 68 47.9421 68 50.5938C68 53.4921 66.9679 55.951 64.9036 57.9706C62.8394 59.9902 60.3261 61 57.3636 61M29 56.375H57.3636C59.0182 56.375 60.4127 55.8123 61.5473 54.6869C62.6976 53.5769 63.2727 52.2125 63.2727 50.5938C63.2727 48.975 62.6976 47.6106 61.5473 46.5006C60.4127 45.3752 59.0182 44.8125 57.3636 44.8125H53.8182V40.1875C53.8182 36.9963 52.6679 34.2675 50.3673 32.0013C48.0667 29.7504 45.2776 28.625 42 28.625C38.7382 28.625 35.9491 29.7504 33.6327 32.0013C31.3321 34.2675 30.1818 36.9963 30.1818 40.1875H29C26.7152 40.1875 24.7691 40.9815 23.1618 42.5694C21.5388 44.1419 20.7273 46.0458 20.7273 48.2812C20.7273 50.5167 21.5388 52.4438 23.1618 54.0625C24.7691 55.6042 26.7152 56.375 29 56.375Z" fill="#619ADC"/>
<path d="M88.6562 41.3262V42.3994H83.2695V41.3262H88.6562ZM83.4746 37.0469V47H82.1553V37.0469H83.4746ZM89.8047 37.0469V47H88.4922V37.0469H89.8047ZM94.0361 46.2344L96.0938 39.6035H97.4473L94.4805 48.1416C94.4121 48.3239 94.321 48.5199 94.207 48.7295C94.0977 48.9437 93.9564 49.1465 93.7832 49.3379C93.61 49.5293 93.4004 49.6842 93.1543 49.8027C92.9128 49.9258 92.6234 49.9873 92.2861 49.9873C92.1859 49.9873 92.0583 49.9736 91.9033 49.9463C91.7484 49.9189 91.639 49.8962 91.5752 49.8779L91.5684 48.8525C91.6048 48.8571 91.6618 48.8617 91.7393 48.8662C91.8213 48.8753 91.8783 48.8799 91.9102 48.8799C92.1973 48.8799 92.4411 48.8411 92.6416 48.7637C92.8421 48.6908 93.0107 48.5654 93.1475 48.3877C93.2887 48.2145 93.4095 47.9753 93.5098 47.6699L94.0361 46.2344ZM92.5254 39.6035L94.4463 45.3457L94.7744 46.6787L93.8652 47.1436L91.1445 39.6035H92.5254ZM100.831 43.7803L98.0283 39.6035H99.5527L101.467 42.666H102.943L102.759 43.7803H100.831ZM101.521 43.6504L99.375 47H97.7754L100.722 42.7344L101.521 43.6504ZM103.593 39.6035V47H102.328V39.6035H103.593ZM107.906 39.6035L105.104 43.7803H103.176L102.978 42.666H104.461L106.375 39.6035H107.906ZM106.553 47L104.399 43.6504L105.213 42.7344L108.152 47H106.553ZM112.254 47.1367C111.739 47.1367 111.272 47.0501 110.853 46.877C110.438 46.6992 110.08 46.4508 109.779 46.1318C109.483 45.8128 109.255 45.4346 109.096 44.9971C108.936 44.5596 108.856 44.0811 108.856 43.5615V43.2744C108.856 42.6729 108.945 42.1374 109.123 41.668C109.301 41.194 109.542 40.793 109.848 40.4648C110.153 40.1367 110.499 39.8883 110.887 39.7197C111.274 39.5511 111.675 39.4668 112.09 39.4668C112.618 39.4668 113.074 39.5579 113.457 39.7402C113.844 39.9225 114.161 40.1777 114.407 40.5059C114.653 40.8294 114.836 41.2122 114.954 41.6543C115.073 42.0918 115.132 42.5703 115.132 43.0898V43.6572H109.608V42.625H113.867V42.5293C113.849 42.2012 113.781 41.8822 113.662 41.5723C113.548 41.2624 113.366 41.0072 113.115 40.8066C112.865 40.6061 112.523 40.5059 112.09 40.5059C111.803 40.5059 111.538 40.5674 111.297 40.6904C111.055 40.8089 110.848 40.9867 110.675 41.2236C110.502 41.4606 110.367 41.75 110.271 42.0918C110.176 42.4336 110.128 42.8278 110.128 43.2744V43.5615C110.128 43.9124 110.176 44.2428 110.271 44.5527C110.372 44.8581 110.515 45.127 110.702 45.3594C110.894 45.5918 111.124 45.7741 111.393 45.9062C111.666 46.0384 111.976 46.1045 112.322 46.1045C112.769 46.1045 113.147 46.0133 113.457 45.8311C113.767 45.6488 114.038 45.4049 114.271 45.0996L115.036 45.708C114.877 45.9495 114.674 46.1797 114.428 46.3984C114.182 46.6172 113.879 46.7949 113.519 46.9316C113.163 47.0684 112.742 47.1367 112.254 47.1367ZM121.626 42.8096V43.835H117.716V42.8096H121.626ZM117.982 39.6035V47H116.718V39.6035H117.982ZM122.651 39.6035V47H121.38V39.6035H122.651ZM133.104 39.6035V40.6494H129.528V39.6035H133.104ZM134.218 39.6035V47H132.953V39.6035H134.218ZM129.221 39.6035H130.492L130.301 43.1719C130.269 43.7233 130.216 44.2109 130.144 44.6348C130.075 45.054 129.979 45.4141 129.856 45.7148C129.738 46.0156 129.588 46.2617 129.405 46.4531C129.228 46.64 129.013 46.779 128.763 46.8701C128.512 46.9567 128.223 47 127.895 47H127.498V45.8857L127.771 45.8652C127.967 45.8516 128.134 45.806 128.271 45.7285C128.412 45.651 128.53 45.5371 128.626 45.3867C128.722 45.2318 128.799 45.0335 128.858 44.792C128.922 44.5505 128.97 44.2633 129.002 43.9307C129.038 43.598 129.066 43.2106 129.084 42.7686L129.221 39.6035ZM135.92 43.3838V43.2266C135.92 42.6934 135.997 42.1989 136.152 41.7432C136.307 41.2829 136.531 40.8841 136.822 40.5469C137.114 40.2051 137.467 39.9408 137.882 39.7539C138.297 39.5625 138.761 39.4668 139.276 39.4668C139.796 39.4668 140.263 39.5625 140.678 39.7539C141.097 39.9408 141.452 40.2051 141.744 40.5469C142.04 40.8841 142.266 41.2829 142.421 41.7432C142.576 42.1989 142.653 42.6934 142.653 43.2266V43.3838C142.653 43.917 142.576 44.4115 142.421 44.8672C142.266 45.3229 142.04 45.7217 141.744 46.0635C141.452 46.4007 141.099 46.665 140.685 46.8564C140.274 47.0433 139.81 47.1367 139.29 47.1367C138.771 47.1367 138.303 47.0433 137.889 46.8564C137.474 46.665 137.118 46.4007 136.822 46.0635C136.531 45.7217 136.307 45.3229 136.152 44.8672C135.997 44.4115 135.92 43.917 135.92 43.3838ZM137.185 43.2266V43.3838C137.185 43.7529 137.228 44.1016 137.314 44.4297C137.401 44.7533 137.531 45.0404 137.704 45.291C137.882 45.5417 138.103 45.7399 138.367 45.8857C138.632 46.027 138.939 46.0977 139.29 46.0977C139.636 46.0977 139.939 46.027 140.199 45.8857C140.464 45.7399 140.682 45.5417 140.855 45.291C141.029 45.0404 141.159 44.7533 141.245 44.4297C141.336 44.1016 141.382 43.7529 141.382 43.3838V43.2266C141.382 42.862 141.336 42.5179 141.245 42.1943C141.159 41.8662 141.026 41.5768 140.849 41.3262C140.675 41.071 140.457 40.8704 140.192 40.7246C139.933 40.5788 139.627 40.5059 139.276 40.5059C138.93 40.5059 138.625 40.5788 138.36 40.7246C138.101 40.8704 137.882 41.071 137.704 41.3262C137.531 41.5768 137.401 41.8662 137.314 42.1943C137.228 42.5179 137.185 42.862 137.185 43.2266ZM149.018 39.6035V40.6494H145.6V47H144.335V39.6035H149.018ZM151.485 44.9971L154.896 39.6035H156.168V47H154.896V41.6064L151.485 47H150.228V39.6035H151.485V44.9971ZM163.216 42.8096V43.835H159.306V42.8096H163.216ZM159.572 39.6035V47H158.308V39.6035H159.572ZM164.241 39.6035V47H162.97V39.6035H164.241ZM167.427 45.4961V46.5146C167.427 46.9294 167.322 47.3669 167.112 47.8271C166.903 48.292 166.609 48.6794 166.23 48.9893L165.513 48.4902C165.659 48.2897 165.782 48.0846 165.882 47.875C165.982 47.6699 166.057 47.4557 166.107 47.2324C166.162 47.0137 166.189 46.7812 166.189 46.5352V45.4961H167.427ZM177.441 39.6035V40.6494H173.702V39.6035H177.441ZM173.887 39.6035V47H172.622V39.6035H173.887ZM178.562 39.6035V47H177.291V39.6035H178.562ZM184.954 45.7354V41.9277C184.954 41.6361 184.895 41.3831 184.776 41.1689C184.662 40.9502 184.489 40.7816 184.257 40.6631C184.024 40.5446 183.737 40.4854 183.396 40.4854C183.076 40.4854 182.796 40.54 182.555 40.6494C182.318 40.7588 182.131 40.9023 181.994 41.0801C181.862 41.2578 181.796 41.4492 181.796 41.6543H180.531C180.531 41.39 180.6 41.1279 180.736 40.8682C180.873 40.6084 181.069 40.3737 181.324 40.1641C181.584 39.9499 181.894 39.7812 182.254 39.6582C182.618 39.5306 183.024 39.4668 183.471 39.4668C184.008 39.4668 184.482 39.5579 184.893 39.7402C185.307 39.9225 185.631 40.1982 185.863 40.5674C186.1 40.932 186.219 41.39 186.219 41.9414V45.3867C186.219 45.6328 186.239 45.8949 186.28 46.1729C186.326 46.4508 186.392 46.6901 186.479 46.8906V47H185.159C185.095 46.8542 185.045 46.6605 185.009 46.4189C184.972 46.1729 184.954 45.945 184.954 45.7354ZM185.173 42.5156L185.187 43.4043H183.908C183.548 43.4043 183.227 43.4339 182.944 43.4932C182.662 43.5479 182.425 43.6322 182.233 43.7461C182.042 43.86 181.896 44.0036 181.796 44.1768C181.696 44.3454 181.646 44.5436 181.646 44.7715C181.646 45.0039 181.698 45.2158 181.803 45.4072C181.908 45.5986 182.065 45.7513 182.274 45.8652C182.489 45.9746 182.751 46.0293 183.061 46.0293C183.448 46.0293 183.79 45.9473 184.086 45.7832C184.382 45.6191 184.617 45.4186 184.79 45.1816C184.968 44.9447 185.063 44.7145 185.077 44.4912L185.617 45.0996C185.585 45.291 185.499 45.5029 185.357 45.7354C185.216 45.9678 185.027 46.1911 184.79 46.4053C184.558 46.6149 184.28 46.7904 183.956 46.9316C183.637 47.0684 183.277 47.1367 182.876 47.1367C182.375 47.1367 181.935 47.0387 181.557 46.8428C181.183 46.6468 180.891 46.3848 180.682 46.0566C180.477 45.724 180.374 45.3525 180.374 44.9424C180.374 44.5459 180.451 44.1973 180.606 43.8965C180.761 43.5911 180.985 43.3382 181.276 43.1377C181.568 42.9326 181.919 42.7777 182.329 42.6729C182.739 42.568 183.197 42.5156 183.703 42.5156H185.173ZM189.473 41.0254V49.8438H188.201V39.6035H189.363L189.473 41.0254ZM194.456 43.2402V43.3838C194.456 43.9215 194.392 44.4206 194.265 44.8809C194.137 45.3366 193.95 45.7331 193.704 46.0703C193.463 46.4076 193.164 46.6696 192.809 46.8564C192.453 47.0433 192.045 47.1367 191.585 47.1367C191.116 47.1367 190.701 47.0592 190.341 46.9043C189.981 46.7493 189.675 46.5238 189.425 46.2275C189.174 45.9313 188.974 45.5758 188.823 45.1611C188.677 44.7464 188.577 44.2793 188.522 43.7598V42.9941C188.577 42.4473 188.68 41.9574 188.83 41.5244C188.98 41.0915 189.179 40.7223 189.425 40.417C189.675 40.1071 189.979 39.8724 190.334 39.7129C190.689 39.5488 191.1 39.4668 191.564 39.4668C192.029 39.4668 192.442 39.5579 192.802 39.7402C193.162 39.918 193.465 40.1732 193.711 40.5059C193.957 40.8385 194.142 41.2373 194.265 41.7021C194.392 42.1624 194.456 42.6751 194.456 43.2402ZM193.185 43.3838V43.2402C193.185 42.8711 193.146 42.5247 193.068 42.2012C192.991 41.873 192.87 41.5859 192.706 41.3398C192.547 41.0892 192.341 40.8932 192.091 40.752C191.84 40.6061 191.542 40.5332 191.195 40.5332C190.876 40.5332 190.598 40.5879 190.361 40.6973C190.129 40.8066 189.931 40.9548 189.767 41.1416C189.603 41.3239 189.468 41.5335 189.363 41.7705C189.263 42.0029 189.188 42.2445 189.138 42.4951V44.2656C189.229 44.5846 189.356 44.8854 189.521 45.168C189.685 45.446 189.903 45.6715 190.177 45.8447C190.45 46.0133 190.794 46.0977 191.209 46.0977C191.551 46.0977 191.845 46.027 192.091 45.8857C192.341 45.7399 192.547 45.5417 192.706 45.291C192.87 45.0404 192.991 44.7533 193.068 44.4297C193.146 44.1016 193.185 43.7529 193.185 43.3838ZM195.734 43.3838V43.2266C195.734 42.6934 195.812 42.1989 195.967 41.7432C196.122 41.2829 196.345 40.8841 196.637 40.5469C196.928 40.2051 197.282 39.9408 197.696 39.7539C198.111 39.5625 198.576 39.4668 199.091 39.4668C199.61 39.4668 200.077 39.5625 200.492 39.7539C200.911 39.9408 201.267 40.2051 201.559 40.5469C201.855 40.8841 202.08 41.2829 202.235 41.7432C202.39 42.1989 202.468 42.6934 202.468 43.2266V43.3838C202.468 43.917 202.39 44.4115 202.235 44.8672C202.08 45.3229 201.855 45.7217 201.559 46.0635C201.267 46.4007 200.914 46.665 200.499 46.8564C200.089 47.0433 199.624 47.1367 199.104 47.1367C198.585 47.1367 198.118 47.0433 197.703 46.8564C197.288 46.665 196.933 46.4007 196.637 46.0635C196.345 45.7217 196.122 45.3229 195.967 44.8672C195.812 44.4115 195.734 43.917 195.734 43.3838ZM196.999 43.2266V43.3838C196.999 43.7529 197.042 44.1016 197.129 44.4297C197.215 44.7533 197.345 45.0404 197.519 45.291C197.696 45.5417 197.917 45.7399 198.182 45.8857C198.446 46.027 198.754 46.0977 199.104 46.0977C199.451 46.0977 199.754 46.027 200.014 45.8857C200.278 45.7399 200.497 45.5417 200.67 45.291C200.843 45.0404 200.973 44.7533 201.06 44.4297C201.151 44.1016 201.196 43.7529 201.196 43.3838V43.2266C201.196 42.862 201.151 42.5179 201.06 42.1943C200.973 41.8662 200.841 41.5768 200.663 41.3262C200.49 41.071 200.271 40.8704 200.007 40.7246C199.747 40.5788 199.442 40.5059 199.091 40.5059C198.744 40.5059 198.439 40.5788 198.175 40.7246C197.915 40.8704 197.696 41.071 197.519 41.3262C197.345 41.5768 197.215 41.8662 197.129 42.1943C197.042 42.5179 196.999 42.862 196.999 43.2266ZM208.887 39.6035V40.6494H205.312V39.6035H208.887ZM210.001 39.6035V47H208.736V39.6035H210.001ZM205.004 39.6035H206.275L206.084 43.1719C206.052 43.7233 206 44.2109 205.927 44.6348C205.858 45.054 205.763 45.4141 205.64 45.7148C205.521 46.0156 205.371 46.2617 205.188 46.4531C205.011 46.64 204.797 46.779 204.546 46.8701C204.295 46.9567 204.006 47 203.678 47H203.281V45.8857L203.555 45.8652C203.751 45.8516 203.917 45.806 204.054 45.7285C204.195 45.651 204.313 45.5371 204.409 45.3867C204.505 45.2318 204.582 45.0335 204.642 44.792C204.705 44.5505 204.753 44.2633 204.785 43.9307C204.822 43.598 204.849 43.2106 204.867 42.7686L205.004 39.6035ZM213.077 42.1465H215.299C215.896 42.1465 216.399 42.2513 216.81 42.4609C217.22 42.666 217.53 42.9508 217.739 43.3154C217.953 43.6755 218.061 44.0856 218.061 44.5459C218.061 44.8877 218.001 45.209 217.883 45.5098C217.764 45.806 217.587 46.0658 217.35 46.2891C217.117 46.5124 216.828 46.6878 216.481 46.8154C216.14 46.9385 215.745 47 215.299 47H212.154V39.6035H213.419V45.9609H215.299C215.663 45.9609 215.955 45.8949 216.174 45.7627C216.393 45.6305 216.55 45.4596 216.646 45.25C216.741 45.0404 216.789 44.8216 216.789 44.5938C216.789 44.3704 216.741 44.1517 216.646 43.9375C216.55 43.7233 216.393 43.5456 216.174 43.4043C215.955 43.2585 215.663 43.1855 215.299 43.1855H213.077V42.1465ZM220.788 45.4961V46.5146C220.788 46.9294 220.683 47.3669 220.474 47.8271C220.264 48.292 219.97 48.6794 219.592 48.9893L218.874 48.4902C219.02 48.2897 219.143 48.0846 219.243 47.875C219.343 47.6699 219.419 47.4557 219.469 47.2324C219.523 47.0137 219.551 46.7812 219.551 46.5352V45.4961H220.788ZM230.235 45.7354V41.9277C230.235 41.6361 230.176 41.3831 230.058 41.1689C229.944 40.9502 229.771 40.7816 229.538 40.6631C229.306 40.5446 229.019 40.4854 228.677 40.4854C228.358 40.4854 228.077 40.54 227.836 40.6494C227.599 40.7588 227.412 40.9023 227.275 41.0801C227.143 41.2578 227.077 41.4492 227.077 41.6543H225.812C225.812 41.39 225.881 41.1279 226.018 40.8682C226.154 40.6084 226.35 40.3737 226.605 40.1641C226.865 39.9499 227.175 39.7812 227.535 39.6582C227.9 39.5306 228.305 39.4668 228.752 39.4668C229.29 39.4668 229.764 39.5579 230.174 39.7402C230.589 39.9225 230.912 40.1982 231.145 40.5674C231.382 40.932 231.5 41.39 231.5 41.9414V45.3867C231.5 45.6328 231.521 45.8949 231.562 46.1729C231.607 46.4508 231.673 46.6901 231.76 46.8906V47H230.44C230.377 46.8542 230.326 46.6605 230.29 46.4189C230.254 46.1729 230.235 45.945 230.235 45.7354ZM230.454 42.5156L230.468 43.4043H229.189C228.829 43.4043 228.508 43.4339 228.226 43.4932C227.943 43.5479 227.706 43.6322 227.515 43.7461C227.323 43.86 227.177 44.0036 227.077 44.1768C226.977 44.3454 226.927 44.5436 226.927 44.7715C226.927 45.0039 226.979 45.2158 227.084 45.4072C227.189 45.5986 227.346 45.7513 227.556 45.8652C227.77 45.9746 228.032 46.0293 228.342 46.0293C228.729 46.0293 229.071 45.9473 229.367 45.7832C229.663 45.6191 229.898 45.4186 230.071 45.1816C230.249 44.9447 230.345 44.7145 230.358 44.4912L230.898 45.0996C230.867 45.291 230.78 45.5029 230.639 45.7354C230.497 45.9678 230.308 46.1911 230.071 46.4053C229.839 46.6149 229.561 46.7904 229.237 46.9316C228.918 47.0684 228.558 47.1367 228.157 47.1367C227.656 47.1367 227.216 47.0387 226.838 46.8428C226.464 46.6468 226.173 46.3848 225.963 46.0566C225.758 45.724 225.655 45.3525 225.655 44.9424C225.655 44.5459 225.733 44.1973 225.888 43.8965C226.043 43.5911 226.266 43.3382 226.558 43.1377C226.849 42.9326 227.2 42.7777 227.61 42.6729C228.021 42.568 228.479 42.5156 228.984 42.5156H230.454ZM234.822 39.6035H236.087L235.978 42.3721C235.95 43.0739 235.87 43.68 235.738 44.1904C235.606 44.7008 235.438 45.1361 235.232 45.4961C235.027 45.8516 234.797 46.1501 234.542 46.3916C234.291 46.6331 234.032 46.8359 233.763 47H233.134L233.168 45.9678L233.428 45.9609C233.578 45.7832 233.724 45.6009 233.865 45.4141C234.007 45.2227 234.136 44.9971 234.255 44.7373C234.373 44.473 234.471 44.1517 234.549 43.7734C234.631 43.3906 234.683 42.9235 234.706 42.3721L234.822 39.6035ZM235.137 39.6035H239.587V47H238.322V40.7725H235.137V39.6035ZM232.847 45.9609H240.537V49.1807H239.272V47H234.111V49.1807H232.84L232.847 45.9609ZM243.203 41.0254V49.8438H241.932V39.6035H243.094L243.203 41.0254ZM248.187 43.2402V43.3838C248.187 43.9215 248.123 44.4206 247.995 44.8809C247.868 45.3366 247.681 45.7331 247.435 46.0703C247.193 46.4076 246.895 46.6696 246.539 46.8564C246.184 47.0433 245.776 47.1367 245.315 47.1367C244.846 47.1367 244.431 47.0592 244.071 46.9043C243.711 46.7493 243.406 46.5238 243.155 46.2275C242.905 45.9313 242.704 45.5758 242.554 45.1611C242.408 44.7464 242.308 44.2793 242.253 43.7598V42.9941C242.308 42.4473 242.41 41.9574 242.561 41.5244C242.711 41.0915 242.909 40.7223 243.155 40.417C243.406 40.1071 243.709 39.8724 244.064 39.7129C244.42 39.5488 244.83 39.4668 245.295 39.4668C245.76 39.4668 246.172 39.5579 246.532 39.7402C246.892 39.918 247.195 40.1732 247.441 40.5059C247.688 40.8385 247.872 41.2373 247.995 41.7021C248.123 42.1624 248.187 42.6751 248.187 43.2402ZM246.915 43.3838V43.2402C246.915 42.8711 246.876 42.5247 246.799 42.2012C246.721 41.873 246.601 41.5859 246.437 41.3398C246.277 41.0892 246.072 40.8932 245.821 40.752C245.571 40.6061 245.272 40.5332 244.926 40.5332C244.607 40.5332 244.329 40.5879 244.092 40.6973C243.859 40.8066 243.661 40.9548 243.497 41.1416C243.333 41.3239 243.199 41.5335 243.094 41.7705C242.993 42.0029 242.918 42.2445 242.868 42.4951V44.2656C242.959 44.5846 243.087 44.8854 243.251 45.168C243.415 45.446 243.634 45.6715 243.907 45.8447C244.181 46.0133 244.525 46.0977 244.939 46.0977C245.281 46.0977 245.575 46.027 245.821 45.8857C246.072 45.7399 246.277 45.5417 246.437 45.291C246.601 45.0404 246.721 44.7533 246.799 44.4297C246.876 44.1016 246.915 43.7529 246.915 43.3838ZM252.869 47.1367C252.354 47.1367 251.887 47.0501 251.468 46.877C251.053 46.6992 250.695 46.4508 250.395 46.1318C250.098 45.8128 249.87 45.4346 249.711 44.9971C249.551 44.5596 249.472 44.0811 249.472 43.5615V43.2744C249.472 42.6729 249.561 42.1374 249.738 41.668C249.916 41.194 250.158 40.793 250.463 40.4648C250.768 40.1367 251.115 39.8883 251.502 39.7197C251.889 39.5511 252.29 39.4668 252.705 39.4668C253.234 39.4668 253.689 39.5579 254.072 39.7402C254.46 39.9225 254.776 40.1777 255.022 40.5059C255.269 40.8294 255.451 41.2122 255.569 41.6543C255.688 42.0918 255.747 42.5703 255.747 43.0898V43.6572H250.224V42.625H254.482V42.5293C254.464 42.2012 254.396 41.8822 254.277 41.5723C254.163 41.2624 253.981 41.0072 253.73 40.8066C253.48 40.6061 253.138 40.5059 252.705 40.5059C252.418 40.5059 252.154 40.5674 251.912 40.6904C251.671 40.8089 251.463 40.9867 251.29 41.2236C251.117 41.4606 250.982 41.75 250.887 42.0918C250.791 42.4336 250.743 42.8278 250.743 43.2744V43.5615C250.743 43.9124 250.791 44.2428 250.887 44.5527C250.987 44.8581 251.131 45.127 251.317 45.3594C251.509 45.5918 251.739 45.7741 252.008 45.9062C252.281 46.0384 252.591 46.1045 252.938 46.1045C253.384 46.1045 253.762 46.0133 254.072 45.8311C254.382 45.6488 254.653 45.4049 254.886 45.0996L255.651 45.708C255.492 45.9495 255.289 46.1797 255.043 46.3984C254.797 46.6172 254.494 46.7949 254.134 46.9316C253.778 47.0684 253.357 47.1367 252.869 47.1367ZM260.184 46.0977C260.484 46.0977 260.762 46.0361 261.018 45.9131C261.273 45.79 261.482 45.6214 261.646 45.4072C261.811 45.1885 261.904 44.9401 261.927 44.6621H263.13C263.107 45.0996 262.959 45.5075 262.686 45.8857C262.417 46.2594 262.063 46.5625 261.626 46.7949C261.188 47.0228 260.708 47.1367 260.184 47.1367C259.628 47.1367 259.142 47.0387 258.728 46.8428C258.317 46.6468 257.976 46.3779 257.702 46.0361C257.433 45.6943 257.23 45.3024 257.094 44.8604C256.962 44.4137 256.896 43.9421 256.896 43.4453V43.1582C256.896 42.6615 256.962 42.1921 257.094 41.75C257.23 41.3034 257.433 40.9092 257.702 40.5674C257.976 40.2256 258.317 39.9567 258.728 39.7607C259.142 39.5648 259.628 39.4668 260.184 39.4668C260.762 39.4668 261.268 39.5853 261.701 39.8223C262.134 40.0547 262.474 40.3737 262.72 40.7793C262.97 41.1803 263.107 41.6361 263.13 42.1465H261.927C261.904 41.8411 261.817 41.5654 261.667 41.3193C261.521 41.0732 261.321 40.8773 261.065 40.7314C260.815 40.5811 260.521 40.5059 260.184 40.5059C259.796 40.5059 259.47 40.5833 259.206 40.7383C258.946 40.8887 258.739 41.0938 258.584 41.3535C258.434 41.6087 258.324 41.8936 258.256 42.208C258.192 42.5179 258.16 42.8346 258.16 43.1582V43.4453C258.16 43.7689 258.192 44.0879 258.256 44.4023C258.32 44.7168 258.427 45.0016 258.577 45.2568C258.732 45.512 258.939 45.7171 259.199 45.8721C259.464 46.0225 259.792 46.0977 260.184 46.0977ZM270.984 46.0977C271.285 46.0977 271.563 46.0361 271.818 45.9131C272.074 45.79 272.283 45.6214 272.447 45.4072C272.611 45.1885 272.705 44.9401 272.728 44.6621H273.931C273.908 45.0996 273.76 45.5075 273.486 45.8857C273.217 46.2594 272.864 46.5625 272.427 46.7949C271.989 47.0228 271.508 47.1367 270.984 47.1367C270.428 47.1367 269.943 47.0387 269.528 46.8428C269.118 46.6468 268.776 46.3779 268.503 46.0361C268.234 45.6943 268.031 45.3024 267.895 44.8604C267.762 44.4137 267.696 43.9421 267.696 43.4453V43.1582C267.696 42.6615 267.762 42.1921 267.895 41.75C268.031 41.3034 268.234 40.9092 268.503 40.5674C268.776 40.2256 269.118 39.9567 269.528 39.7607C269.943 39.5648 270.428 39.4668 270.984 39.4668C271.563 39.4668 272.069 39.5853 272.502 39.8223C272.935 40.0547 273.274 40.3737 273.521 40.7793C273.771 41.1803 273.908 41.6361 273.931 42.1465H272.728C272.705 41.8411 272.618 41.5654 272.468 41.3193C272.322 41.0732 272.121 40.8773 271.866 40.7314C271.616 40.5811 271.322 40.5059 270.984 40.5059C270.597 40.5059 270.271 40.5833 270.007 40.7383C269.747 40.8887 269.54 41.0938 269.385 41.3535C269.234 41.6087 269.125 41.8936 269.057 42.208C268.993 42.5179 268.961 42.8346 268.961 43.1582V43.4453C268.961 43.7689 268.993 44.0879 269.057 44.4023C269.12 44.7168 269.228 45.0016 269.378 45.2568C269.533 45.512 269.74 45.7171 270 45.8721C270.264 46.0225 270.592 46.0977 270.984 46.0977ZM278.422 47.1367C277.907 47.1367 277.44 47.0501 277.021 46.877C276.606 46.6992 276.248 46.4508 275.947 46.1318C275.651 45.8128 275.423 45.4346 275.264 44.9971C275.104 44.5596 275.024 44.0811 275.024 43.5615V43.2744C275.024 42.6729 275.113 42.1374 275.291 41.668C275.469 41.194 275.71 40.793 276.016 40.4648C276.321 40.1367 276.667 39.8883 277.055 39.7197C277.442 39.5511 277.843 39.4668 278.258 39.4668C278.786 39.4668 279.242 39.5579 279.625 39.7402C280.012 39.9225 280.329 40.1777 280.575 40.5059C280.821 40.8294 281.004 41.2122 281.122 41.6543C281.241 42.0918 281.3 42.5703 281.3 43.0898V43.6572H275.776V42.625H280.035V42.5293C280.017 42.2012 279.949 41.8822 279.83 41.5723C279.716 41.2624 279.534 41.0072 279.283 40.8066C279.033 40.6061 278.691 40.5059 278.258 40.5059C277.971 40.5059 277.706 40.5674 277.465 40.6904C277.223 40.8089 277.016 40.9867 276.843 41.2236C276.67 41.4606 276.535 41.75 276.439 42.0918C276.344 42.4336 276.296 42.8278 276.296 43.2744V43.5615C276.296 43.9124 276.344 44.2428 276.439 44.5527C276.54 44.8581 276.683 45.127 276.87 45.3594C277.062 45.5918 277.292 45.7741 277.561 45.9062C277.834 46.0384 278.144 46.1045 278.49 46.1045C278.937 46.1045 279.315 46.0133 279.625 45.8311C279.935 45.6488 280.206 45.4049 280.438 45.0996L281.204 45.708C281.045 45.9495 280.842 46.1797 280.596 46.3984C280.35 46.6172 280.047 46.7949 279.687 46.9316C279.331 47.0684 278.91 47.1367 278.422 47.1367ZM284.041 41.0254V49.8438H282.77V39.6035H283.932L284.041 41.0254ZM289.024 43.2402V43.3838C289.024 43.9215 288.961 44.4206 288.833 44.8809C288.705 45.3366 288.519 45.7331 288.272 46.0703C288.031 46.4076 287.732 46.6696 287.377 46.8564C287.021 47.0433 286.614 47.1367 286.153 47.1367C285.684 47.1367 285.269 47.0592 284.909 46.9043C284.549 46.7493 284.244 46.5238 283.993 46.2275C283.743 45.9313 283.542 45.5758 283.392 45.1611C283.246 44.7464 283.146 44.2793 283.091 43.7598V42.9941C283.146 42.4473 283.248 41.9574 283.398 41.5244C283.549 41.0915 283.747 40.7223 283.993 40.417C284.244 40.1071 284.547 39.8724 284.902 39.7129C285.258 39.5488 285.668 39.4668 286.133 39.4668C286.598 39.4668 287.01 39.5579 287.37 39.7402C287.73 39.918 288.033 40.1732 288.279 40.5059C288.525 40.8385 288.71 41.2373 288.833 41.7021C288.961 42.1624 289.024 42.6751 289.024 43.2402ZM287.753 43.3838V43.2402C287.753 42.8711 287.714 42.5247 287.637 42.2012C287.559 41.873 287.438 41.5859 287.274 41.3398C287.115 41.0892 286.91 40.8932 286.659 40.752C286.409 40.6061 286.11 40.5332 285.764 40.5332C285.445 40.5332 285.167 40.5879 284.93 40.6973C284.697 40.8066 284.499 40.9548 284.335 41.1416C284.171 41.3239 284.036 41.5335 283.932 41.7705C283.831 42.0029 283.756 42.2445 283.706 42.4951V44.2656C283.797 44.5846 283.925 44.8854 284.089 45.168C284.253 45.446 284.472 45.6715 284.745 45.8447C285.019 46.0133 285.363 46.0977 285.777 46.0977C286.119 46.0977 286.413 46.027 286.659 45.8857C286.91 45.7399 287.115 45.5417 287.274 45.291C287.438 45.0404 287.559 44.7533 287.637 44.4297C287.714 44.1016 287.753 43.7529 287.753 43.3838ZM294.11 43.7461H291.684L291.67 42.7344H293.652C294.044 42.7344 294.37 42.6956 294.63 42.6182C294.894 42.5407 295.092 42.4245 295.225 42.2695C295.357 42.1146 295.423 41.9232 295.423 41.6953C295.423 41.5176 295.384 41.3626 295.307 41.2305C295.234 41.0938 295.122 40.9821 294.972 40.8955C294.821 40.8044 294.634 40.7383 294.411 40.6973C294.192 40.6517 293.935 40.6289 293.639 40.6289H292.019V47H290.754V39.6035H293.639C294.108 39.6035 294.53 39.6445 294.903 39.7266C295.282 39.8086 295.603 39.9339 295.867 40.1025C296.136 40.2666 296.341 40.4762 296.482 40.7314C296.624 40.9867 296.694 41.2874 296.694 41.6338C296.694 41.8571 296.649 42.069 296.558 42.2695C296.466 42.4701 296.332 42.6478 296.154 42.8027C295.977 42.9577 295.758 43.0853 295.498 43.1855C295.238 43.2812 294.94 43.3428 294.603 43.3701L294.11 43.7461ZM294.11 47H291.226L291.854 45.9746H294.11C294.461 45.9746 294.753 45.9313 294.985 45.8447C295.218 45.7536 295.391 45.626 295.505 45.4619C295.623 45.2933 295.683 45.0928 295.683 44.8604C295.683 44.6279 295.623 44.4297 295.505 44.2656C295.391 44.097 295.218 43.9694 294.985 43.8828C294.753 43.7917 294.461 43.7461 294.11 43.7461H292.189L292.203 42.7344H294.603L295.061 43.1172C295.466 43.1491 295.81 43.2493 296.093 43.418C296.375 43.5866 296.59 43.8008 296.735 44.0605C296.881 44.3158 296.954 44.5938 296.954 44.8945C296.954 45.2409 296.888 45.5462 296.756 45.8105C296.628 46.0749 296.441 46.2959 296.195 46.4736C295.949 46.6468 295.651 46.779 295.3 46.8701C294.949 46.9567 294.552 47 294.11 47ZM301.719 47.1367C301.204 47.1367 300.737 47.0501 300.317 46.877C299.903 46.6992 299.545 46.4508 299.244 46.1318C298.948 45.8128 298.72 45.4346 298.561 44.9971C298.401 44.5596 298.321 44.0811 298.321 43.5615V43.2744C298.321 42.6729 298.41 42.1374 298.588 41.668C298.766 41.194 299.007 40.793 299.312 40.4648C299.618 40.1367 299.964 39.8883 300.352 39.7197C300.739 39.5511 301.14 39.4668 301.555 39.4668C302.083 39.4668 302.539 39.5579 302.922 39.7402C303.309 39.9225 303.626 40.1777 303.872 40.5059C304.118 40.8294 304.3 41.2122 304.419 41.6543C304.537 42.0918 304.597 42.5703 304.597 43.0898V43.6572H299.073V42.625H303.332V42.5293C303.314 42.2012 303.245 41.8822 303.127 41.5723C303.013 41.2624 302.831 41.0072 302.58 40.8066C302.329 40.6061 301.988 40.5059 301.555 40.5059C301.268 40.5059 301.003 40.5674 300.762 40.6904C300.52 40.8089 300.313 40.9867 300.14 41.2236C299.966 41.4606 299.832 41.75 299.736 42.0918C299.641 42.4336 299.593 42.8278 299.593 43.2744V43.5615C299.593 43.9124 299.641 44.2428 299.736 44.5527C299.837 44.8581 299.98 45.127 300.167 45.3594C300.358 45.5918 300.589 45.7741 300.857 45.9062C301.131 46.0384 301.441 46.1045 301.787 46.1045C302.234 46.1045 302.612 46.0133 302.922 45.8311C303.232 45.6488 303.503 45.4049 303.735 45.0996L304.501 45.708C304.341 45.9495 304.139 46.1797 303.893 46.3984C303.646 46.6172 303.343 46.7949 302.983 46.9316C302.628 47.0684 302.206 47.1367 301.719 47.1367ZM307.338 41.0254V49.8438H306.066V39.6035H307.229L307.338 41.0254ZM312.321 43.2402V43.3838C312.321 43.9215 312.257 44.4206 312.13 44.8809C312.002 45.3366 311.815 45.7331 311.569 46.0703C311.328 46.4076 311.029 46.6696 310.674 46.8564C310.318 47.0433 309.91 47.1367 309.45 47.1367C308.981 47.1367 308.566 47.0592 308.206 46.9043C307.846 46.7493 307.541 46.5238 307.29 46.2275C307.039 45.9313 306.839 45.5758 306.688 45.1611C306.543 44.7464 306.442 44.2793 306.388 43.7598V42.9941C306.442 42.4473 306.545 41.9574 306.695 41.5244C306.846 41.0915 307.044 40.7223 307.29 40.417C307.541 40.1071 307.844 39.8724 308.199 39.7129C308.555 39.5488 308.965 39.4668 309.43 39.4668C309.895 39.4668 310.307 39.5579 310.667 39.7402C311.027 39.918 311.33 40.1732 311.576 40.5059C311.822 40.8385 312.007 41.2373 312.13 41.7021C312.257 42.1624 312.321 42.6751 312.321 43.2402ZM311.05 43.3838V43.2402C311.05 42.8711 311.011 42.5247 310.934 42.2012C310.856 41.873 310.735 41.5859 310.571 41.3398C310.412 41.0892 310.207 40.8932 309.956 40.752C309.705 40.6061 309.407 40.5332 309.061 40.5332C308.742 40.5332 308.464 40.5879 308.227 40.6973C307.994 40.8066 307.796 40.9548 307.632 41.1416C307.468 41.3239 307.333 41.5335 307.229 41.7705C307.128 42.0029 307.053 42.2445 307.003 42.4951V44.2656C307.094 44.5846 307.222 44.8854 307.386 45.168C307.55 45.446 307.769 45.6715 308.042 45.8447C308.315 46.0133 308.66 46.0977 309.074 46.0977C309.416 46.0977 309.71 46.027 309.956 45.8857C310.207 45.7399 310.412 45.5417 310.571 45.291C310.735 45.0404 310.856 44.7533 310.934 44.4297C311.011 44.1016 311.05 43.7529 311.05 43.3838ZM318.296 45.7354V41.9277C318.296 41.6361 318.237 41.3831 318.118 41.1689C318.004 40.9502 317.831 40.7816 317.599 40.6631C317.366 40.5446 317.079 40.4854 316.737 40.4854C316.418 40.4854 316.138 40.54 315.896 40.6494C315.66 40.7588 315.473 40.9023 315.336 41.0801C315.204 41.2578 315.138 41.4492 315.138 41.6543H313.873C313.873 41.39 313.941 41.1279 314.078 40.8682C314.215 40.6084 314.411 40.3737 314.666 40.1641C314.926 39.9499 315.236 39.7812 315.596 39.6582C315.96 39.5306 316.366 39.4668 316.812 39.4668C317.35 39.4668 317.824 39.5579 318.234 39.7402C318.649 39.9225 318.973 40.1982 319.205 40.5674C319.442 40.932 319.561 41.39 319.561 41.9414V45.3867C319.561 45.6328 319.581 45.8949 319.622 46.1729C319.668 46.4508 319.734 46.6901 319.82 46.8906V47H318.501C318.437 46.8542 318.387 46.6605 318.351 46.4189C318.314 46.1729 318.296 45.945 318.296 45.7354ZM318.515 42.5156L318.528 43.4043H317.25C316.89 43.4043 316.569 43.4339 316.286 43.4932C316.004 43.5479 315.767 43.6322 315.575 43.7461C315.384 43.86 315.238 44.0036 315.138 44.1768C315.037 44.3454 314.987 44.5436 314.987 44.7715C314.987 45.0039 315.04 45.2158 315.145 45.4072C315.249 45.5986 315.407 45.7513 315.616 45.8652C315.83 45.9746 316.092 46.0293 316.402 46.0293C316.79 46.0293 317.132 45.9473 317.428 45.7832C317.724 45.6191 317.959 45.4186 318.132 45.1816C318.31 44.9447 318.405 44.7145 318.419 44.4912L318.959 45.0996C318.927 45.291 318.84 45.5029 318.699 45.7354C318.558 45.9678 318.369 46.1911 318.132 46.4053C317.899 46.6149 317.621 46.7904 317.298 46.9316C316.979 47.0684 316.619 47.1367 316.218 47.1367C315.716 47.1367 315.277 47.0387 314.898 46.8428C314.525 46.6468 314.233 46.3848 314.023 46.0566C313.818 45.724 313.716 45.3525 313.716 44.9424C313.716 44.5459 313.793 44.1973 313.948 43.8965C314.103 43.5911 314.326 43.3382 314.618 43.1377C314.91 42.9326 315.261 42.7777 315.671 42.6729C316.081 42.568 316.539 42.5156 317.045 42.5156H318.515ZM326.39 44.9971L329.801 39.6035H331.072V47H329.801V41.6064L326.39 47H325.132V39.6035H326.39V44.9971ZM86.9814 58.8096V59.835H83.0713V58.8096H86.9814ZM83.3379 55.6035V63H82.0732V55.6035H83.3379ZM88.0068 55.6035V63H86.7354V55.6035H88.0068ZM93.1133 63.1367C92.5983 63.1367 92.1312 63.0501 91.7119 62.877C91.2972 62.6992 90.9395 62.4508 90.6387 62.1318C90.3424 61.8128 90.1146 61.4346 89.9551 60.9971C89.7956 60.5596 89.7158 60.0811 89.7158 59.5615V59.2744C89.7158 58.6729 89.8047 58.1374 89.9824 57.668C90.1602 57.194 90.4017 56.793 90.707 56.4648C91.0124 56.1367 91.3587 55.8883 91.7461 55.7197C92.1335 55.5511 92.5345 55.4668 92.9492 55.4668C93.4779 55.4668 93.9336 55.5579 94.3164 55.7402C94.7038 55.9225 95.0205 56.1777 95.2666 56.5059C95.5127 56.8294 95.695 57.2122 95.8135 57.6543C95.932 58.0918 95.9912 58.5703 95.9912 59.0898V59.6572H90.4678V58.625H94.7266V58.5293C94.7083 58.2012 94.64 57.8822 94.5215 57.5723C94.4076 57.2624 94.2253 57.0072 93.9746 56.8066C93.724 56.6061 93.3822 56.5059 92.9492 56.5059C92.6621 56.5059 92.3978 56.5674 92.1562 56.6904C91.9147 56.8089 91.7074 56.9867 91.5342 57.2236C91.361 57.4606 91.2266 57.75 91.1309 58.0918C91.0352 58.4336 90.9873 58.8278 90.9873 59.2744V59.5615C90.9873 59.9124 91.0352 60.2428 91.1309 60.5527C91.2311 60.8581 91.3747 61.127 91.5615 61.3594C91.7529 61.5918 91.9831 61.7741 92.252 61.9062C92.5254 62.0384 92.8353 62.1045 93.1816 62.1045C93.6283 62.1045 94.0065 62.0133 94.3164 61.8311C94.6263 61.6488 94.8975 61.4049 95.1299 61.0996L95.8955 61.708C95.736 61.9495 95.5332 62.1797 95.2871 62.3984C95.041 62.6172 94.738 62.7949 94.3779 62.9316C94.0225 63.0684 93.6009 63.1367 93.1133 63.1367ZM97.1328 59.3838V59.2266C97.1328 58.6934 97.2103 58.1989 97.3652 57.7432C97.5202 57.2829 97.7435 56.8841 98.0352 56.5469C98.3268 56.2051 98.68 55.9408 99.0947 55.7539C99.5094 55.5625 99.9743 55.4668 100.489 55.4668C101.009 55.4668 101.476 55.5625 101.891 55.7539C102.31 55.9408 102.665 56.2051 102.957 56.5469C103.253 56.8841 103.479 57.2829 103.634 57.7432C103.789 58.1989 103.866 58.6934 103.866 59.2266V59.3838C103.866 59.917 103.789 60.4115 103.634 60.8672C103.479 61.3229 103.253 61.7217 102.957 62.0635C102.665 62.4007 102.312 62.665 101.897 62.8564C101.487 63.0433 101.022 63.1367 100.503 63.1367C99.9834 63.1367 99.5163 63.0433 99.1016 62.8564C98.6868 62.665 98.3314 62.4007 98.0352 62.0635C97.7435 61.7217 97.5202 61.3229 97.3652 60.8672C97.2103 60.4115 97.1328 59.917 97.1328 59.3838ZM98.3975 59.2266V59.3838C98.3975 59.7529 98.4408 60.1016 98.5273 60.4297C98.6139 60.7533 98.7438 61.0404 98.917 61.291C99.0947 61.5417 99.3158 61.7399 99.5801 61.8857C99.8444 62.027 100.152 62.0977 100.503 62.0977C100.849 62.0977 101.152 62.027 101.412 61.8857C101.676 61.7399 101.895 61.5417 102.068 61.291C102.242 61.0404 102.371 60.7533 102.458 60.4297C102.549 60.1016 102.595 59.7529 102.595 59.3838V59.2266C102.595 58.862 102.549 58.5179 102.458 58.1943C102.371 57.8662 102.239 57.5768 102.062 57.3262C101.888 57.071 101.67 56.8704 101.405 56.7246C101.146 56.5788 100.84 56.5059 100.489 56.5059C100.143 56.5059 99.8376 56.5788 99.5732 56.7246C99.3135 56.8704 99.0947 57.071 98.917 57.3262C98.7438 57.5768 98.6139 57.8662 98.5273 58.1943C98.4408 58.5179 98.3975 58.862 98.3975 59.2266ZM110.196 52.3838H111.235C111.235 52.8304 111.167 53.1859 111.03 53.4502C110.894 53.71 110.707 53.9105 110.47 54.0518C110.237 54.193 109.973 54.3001 109.677 54.373C109.385 54.446 109.082 54.5166 108.768 54.585C108.376 54.667 108.011 54.7969 107.674 54.9746C107.341 55.1478 107.054 55.3939 106.812 55.7129C106.576 56.0319 106.4 56.4466 106.286 56.957C106.177 57.4674 106.147 58.0986 106.197 58.8506V59.4795H105.158V58.8506C105.158 58.0075 105.238 57.2715 105.397 56.6426C105.562 56.0137 105.792 55.4827 106.088 55.0498C106.384 54.6169 106.735 54.2728 107.141 54.0176C107.551 53.7624 108.002 53.5869 108.494 53.4912C108.85 53.4229 109.155 53.3499 109.41 53.2725C109.665 53.1904 109.859 53.0811 109.991 52.9443C110.128 52.8076 110.196 52.6208 110.196 52.3838ZM108.699 56.0273C109.182 56.0273 109.613 56.1117 109.991 56.2803C110.369 56.4489 110.691 56.6836 110.955 56.9844C111.219 57.2852 111.42 57.6406 111.557 58.0508C111.698 58.4564 111.769 58.8984 111.769 59.377V59.5273C111.769 60.0423 111.693 60.5208 111.543 60.9629C111.397 61.4004 111.181 61.7832 110.894 62.1113C110.611 62.4349 110.265 62.6878 109.854 62.8701C109.449 63.0524 108.986 63.1436 108.467 63.1436C107.947 63.1436 107.482 63.0524 107.072 62.8701C106.667 62.6878 106.32 62.4349 106.033 62.1113C105.746 61.7832 105.527 61.4004 105.377 60.9629C105.231 60.5208 105.158 60.0423 105.158 59.5273V59.377C105.158 59.263 105.179 59.1514 105.22 59.042C105.261 58.9326 105.311 58.821 105.37 58.707C105.434 58.5931 105.491 58.4723 105.541 58.3447C105.71 57.9346 105.94 57.554 106.231 57.2031C106.528 56.8522 106.881 56.5697 107.291 56.3555C107.706 56.1367 108.175 56.0273 108.699 56.0273ZM108.453 57.0596C107.988 57.0596 107.605 57.1667 107.305 57.3809C107.008 57.5951 106.787 57.8799 106.642 58.2354C106.496 58.5863 106.423 58.9668 106.423 59.377V59.5273C106.423 59.8737 106.464 60.2018 106.546 60.5117C106.628 60.8216 106.751 61.0973 106.915 61.3389C107.084 61.5758 107.296 61.7627 107.551 61.8994C107.811 62.0361 108.116 62.1045 108.467 62.1045C108.818 62.1045 109.121 62.0361 109.376 61.8994C109.631 61.7627 109.841 61.5758 110.005 61.3389C110.169 61.0973 110.292 60.8216 110.374 60.5117C110.456 60.2018 110.497 59.8737 110.497 59.5273V59.377C110.497 59.0671 110.456 58.7731 110.374 58.4951C110.292 58.2171 110.167 57.971 109.998 57.7568C109.834 57.5426 109.622 57.374 109.362 57.251C109.107 57.1234 108.804 57.0596 108.453 57.0596ZM113.949 55.6035L115.569 58.2969L117.21 55.6035H118.693L116.273 59.2539L118.769 63H117.306L115.597 60.2246L113.888 63H112.418L114.906 59.2539L112.493 55.6035H113.949ZM119.568 59.3838V59.2266C119.568 58.6934 119.646 58.1989 119.801 57.7432C119.956 57.2829 120.179 56.8841 120.471 56.5469C120.762 56.2051 121.116 55.9408 121.53 55.7539C121.945 55.5625 122.41 55.4668 122.925 55.4668C123.444 55.4668 123.911 55.5625 124.326 55.7539C124.745 55.9408 125.101 56.2051 125.393 56.5469C125.689 56.8841 125.914 57.2829 126.069 57.7432C126.224 58.1989 126.302 58.6934 126.302 59.2266V59.3838C126.302 59.917 126.224 60.4115 126.069 60.8672C125.914 61.3229 125.689 61.7217 125.393 62.0635C125.101 62.4007 124.748 62.665 124.333 62.8564C123.923 63.0433 123.458 63.1367 122.938 63.1367C122.419 63.1367 121.952 63.0433 121.537 62.8564C121.122 62.665 120.767 62.4007 120.471 62.0635C120.179 61.7217 119.956 61.3229 119.801 60.8672C119.646 60.4115 119.568 59.917 119.568 59.3838ZM120.833 59.2266V59.3838C120.833 59.7529 120.876 60.1016 120.963 60.4297C121.049 60.7533 121.179 61.0404 121.353 61.291C121.53 61.5417 121.751 61.7399 122.016 61.8857C122.28 62.027 122.588 62.0977 122.938 62.0977C123.285 62.0977 123.588 62.027 123.848 61.8857C124.112 61.7399 124.331 61.5417 124.504 61.291C124.677 61.0404 124.807 60.7533 124.894 60.4297C124.985 60.1016 125.03 59.7529 125.03 59.3838V59.2266C125.03 58.862 124.985 58.5179 124.894 58.1943C124.807 57.8662 124.675 57.5768 124.497 57.3262C124.324 57.071 124.105 56.8704 123.841 56.7246C123.581 56.5788 123.276 56.5059 122.925 56.5059C122.578 56.5059 122.273 56.5788 122.009 56.7246C121.749 56.8704 121.53 57.071 121.353 57.3262C121.179 57.5768 121.049 57.8662 120.963 58.1943C120.876 58.5179 120.833 58.862 120.833 59.2266ZM128.729 55.6035H129.993L129.884 58.3721C129.856 59.0739 129.777 59.68 129.645 60.1904C129.512 60.7008 129.344 61.1361 129.139 61.4961C128.934 61.8516 128.703 62.1501 128.448 62.3916C128.198 62.6331 127.938 62.8359 127.669 63H127.04L127.074 61.9678L127.334 61.9609C127.484 61.7832 127.63 61.6009 127.771 61.4141C127.913 61.2227 128.043 60.9971 128.161 60.7373C128.28 60.473 128.378 60.1517 128.455 59.7734C128.537 59.3906 128.59 58.9235 128.612 58.3721L128.729 55.6035ZM129.043 55.6035H133.493V63H132.229V56.7725H129.043V55.6035ZM126.753 61.9609H134.443V65.1807H133.179V63H128.018V65.1807H126.746L126.753 61.9609ZM137.212 60.9971L140.623 55.6035H141.895V63H140.623V57.6064L137.212 63H135.954V55.6035H137.212V60.9971ZM148.177 61.3184L150.692 55.6035H151.909L148.614 63H147.739L144.458 55.6035H145.675L148.177 61.3184ZM145.306 55.6035V63H144.041V55.6035H145.306ZM151.007 63V55.6035H152.278V63H151.007ZM153.98 59.3838V59.2266C153.98 58.6934 154.058 58.1989 154.213 57.7432C154.368 57.2829 154.591 56.8841 154.883 56.5469C155.174 56.2051 155.528 55.9408 155.942 55.7539C156.357 55.5625 156.822 55.4668 157.337 55.4668C157.856 55.4668 158.324 55.5625 158.738 55.7539C159.158 55.9408 159.513 56.2051 159.805 56.5469C160.101 56.8841 160.326 57.2829 160.481 57.7432C160.636 58.1989 160.714 58.6934 160.714 59.2266V59.3838C160.714 59.917 160.636 60.4115 160.481 60.8672C160.326 61.3229 160.101 61.7217 159.805 62.0635C159.513 62.4007 159.16 62.665 158.745 62.8564C158.335 63.0433 157.87 63.1367 157.351 63.1367C156.831 63.1367 156.364 63.0433 155.949 62.8564C155.535 62.665 155.179 62.4007 154.883 62.0635C154.591 61.7217 154.368 61.3229 154.213 60.8672C154.058 60.4115 153.98 59.917 153.98 59.3838ZM155.245 59.2266V59.3838C155.245 59.7529 155.288 60.1016 155.375 60.4297C155.462 60.7533 155.591 61.0404 155.765 61.291C155.942 61.5417 156.163 61.7399 156.428 61.8857C156.692 62.027 157 62.0977 157.351 62.0977C157.697 62.0977 158 62.027 158.26 61.8857C158.524 61.7399 158.743 61.5417 158.916 61.291C159.089 61.0404 159.219 60.7533 159.306 60.4297C159.397 60.1016 159.442 59.7529 159.442 59.3838V59.2266C159.442 58.862 159.397 58.5179 159.306 58.1943C159.219 57.8662 159.087 57.5768 158.909 57.3262C158.736 57.071 158.517 56.8704 158.253 56.7246C157.993 56.5788 157.688 56.5059 157.337 56.5059C156.991 56.5059 156.685 56.5788 156.421 56.7246C156.161 56.8704 155.942 57.071 155.765 57.3262C155.591 57.5768 155.462 57.8662 155.375 58.1943C155.288 58.5179 155.245 58.862 155.245 59.2266ZM167.14 60.9971L170.551 55.6035H171.822V63H170.551V57.6064L167.14 63H165.882V55.6035H167.14V60.9971ZM178.104 61.3184L180.62 55.6035H181.837L178.542 63H177.667L174.386 55.6035H175.603L178.104 61.3184ZM175.233 55.6035V63H173.969V55.6035H175.233ZM180.935 63V55.6035H182.206V63H180.935ZM187.312 63.1367C186.798 63.1367 186.33 63.0501 185.911 62.877C185.496 62.6992 185.139 62.4508 184.838 62.1318C184.542 61.8128 184.314 61.4346 184.154 60.9971C183.995 60.5596 183.915 60.0811 183.915 59.5615V59.2744C183.915 58.6729 184.004 58.1374 184.182 57.668C184.359 57.194 184.601 56.793 184.906 56.4648C185.212 56.1367 185.558 55.8883 185.945 55.7197C186.333 55.5511 186.734 55.4668 187.148 55.4668C187.677 55.4668 188.133 55.5579 188.516 55.7402C188.903 55.9225 189.22 56.1777 189.466 56.5059C189.712 56.8294 189.894 57.2122 190.013 57.6543C190.131 58.0918 190.19 58.5703 190.19 59.0898V59.6572H184.667V58.625H188.926V58.5293C188.908 58.2012 188.839 57.8822 188.721 57.5723C188.607 57.2624 188.424 57.0072 188.174 56.8066C187.923 56.6061 187.581 56.5059 187.148 56.5059C186.861 56.5059 186.597 56.5674 186.355 56.6904C186.114 56.8089 185.907 56.9867 185.733 57.2236C185.56 57.4606 185.426 57.75 185.33 58.0918C185.234 58.4336 185.187 58.8278 185.187 59.2744V59.5615C185.187 59.9124 185.234 60.2428 185.33 60.5527C185.43 60.8581 185.574 61.127 185.761 61.3594C185.952 61.5918 186.182 61.7741 186.451 61.9062C186.725 62.0384 187.035 62.1045 187.381 62.1045C187.827 62.1045 188.206 62.0133 188.516 61.8311C188.826 61.6488 189.097 61.4049 189.329 61.0996L190.095 61.708C189.935 61.9495 189.732 62.1797 189.486 62.3984C189.24 62.6172 188.937 62.7949 188.577 62.9316C188.222 63.0684 187.8 63.1367 187.312 63.1367ZM194.6 55.6035V63H193.328V55.6035H194.6ZM197.081 55.6035V56.6289H190.895V55.6035H197.081ZM199.364 58.1465H201.586C202.183 58.1465 202.687 58.2513 203.097 58.4609C203.507 58.666 203.817 58.9508 204.026 59.3154C204.241 59.6755 204.348 60.0856 204.348 60.5459C204.348 60.8877 204.288 61.209 204.17 61.5098C204.051 61.806 203.874 62.0658 203.637 62.2891C203.404 62.5124 203.115 62.6878 202.769 62.8154C202.427 62.9385 202.033 63 201.586 63H198.441V55.6035H199.706V61.9609H201.586C201.951 61.9609 202.242 61.8949 202.461 61.7627C202.68 61.6305 202.837 61.4596 202.933 61.25C203.028 61.0404 203.076 60.8216 203.076 60.5938C203.076 60.3704 203.028 60.1517 202.933 59.9375C202.837 59.7233 202.68 59.5456 202.461 59.4043C202.242 59.2585 201.951 59.1855 201.586 59.1855H199.364V58.1465ZM213.651 61.3184L216.167 55.6035H217.384L214.089 63H213.214L209.933 55.6035H211.149L213.651 61.3184ZM210.78 55.6035V63H209.516V55.6035H210.78ZM216.481 63V55.6035H217.753V63H216.481ZM219.455 59.3838V59.2266C219.455 58.6934 219.533 58.1989 219.688 57.7432C219.842 57.2829 220.066 56.8841 220.357 56.5469C220.649 56.2051 221.002 55.9408 221.417 55.7539C221.832 55.5625 222.297 55.4668 222.812 55.4668C223.331 55.4668 223.798 55.5625 224.213 55.7539C224.632 55.9408 224.988 56.2051 225.279 56.5469C225.576 56.8841 225.801 57.2829 225.956 57.7432C226.111 58.1989 226.188 58.6934 226.188 59.2266V59.3838C226.188 59.917 226.111 60.4115 225.956 60.8672C225.801 61.3229 225.576 61.7217 225.279 62.0635C224.988 62.4007 224.634 62.665 224.22 62.8564C223.81 63.0433 223.345 63.1367 222.825 63.1367C222.306 63.1367 221.839 63.0433 221.424 62.8564C221.009 62.665 220.654 62.4007 220.357 62.0635C220.066 61.7217 219.842 61.3229 219.688 60.8672C219.533 60.4115 219.455 59.917 219.455 59.3838ZM220.72 59.2266V59.3838C220.72 59.7529 220.763 60.1016 220.85 60.4297C220.936 60.7533 221.066 61.0404 221.239 61.291C221.417 61.5417 221.638 61.7399 221.902 61.8857C222.167 62.027 222.474 62.0977 222.825 62.0977C223.172 62.0977 223.475 62.027 223.734 61.8857C223.999 61.7399 224.217 61.5417 224.391 61.291C224.564 61.0404 224.694 60.7533 224.78 60.4297C224.871 60.1016 224.917 59.7529 224.917 59.3838V59.2266C224.917 58.862 224.871 58.5179 224.78 58.1943C224.694 57.8662 224.562 57.5768 224.384 57.3262C224.211 57.071 223.992 56.8704 223.728 56.7246C223.468 56.5788 223.162 56.5059 222.812 56.5059C222.465 56.5059 222.16 56.5788 221.896 56.7246C221.636 56.8704 221.417 57.071 221.239 57.3262C221.066 57.5768 220.936 57.8662 220.85 58.1943C220.763 58.5179 220.72 58.862 220.72 59.2266ZM232.519 52.3838H233.558C233.558 52.8304 233.489 53.1859 233.353 53.4502C233.216 53.71 233.029 53.9105 232.792 54.0518C232.56 54.193 232.295 54.3001 231.999 54.373C231.707 54.446 231.404 54.5166 231.09 54.585C230.698 54.667 230.333 54.7969 229.996 54.9746C229.663 55.1478 229.376 55.3939 229.135 55.7129C228.898 56.0319 228.722 56.4466 228.608 56.957C228.499 57.4674 228.469 58.0986 228.52 58.8506V59.4795H227.48V58.8506C227.48 58.0075 227.56 57.2715 227.72 56.6426C227.884 56.0137 228.114 55.4827 228.41 55.0498C228.706 54.6169 229.057 54.2728 229.463 54.0176C229.873 53.7624 230.324 53.5869 230.816 53.4912C231.172 53.4229 231.477 53.3499 231.732 53.2725C231.988 53.1904 232.181 53.0811 232.313 52.9443C232.45 52.8076 232.519 52.6208 232.519 52.3838ZM231.021 56.0273C231.505 56.0273 231.935 56.1117 232.313 56.2803C232.692 56.4489 233.013 56.6836 233.277 56.9844C233.542 57.2852 233.742 57.6406 233.879 58.0508C234.02 58.4564 234.091 58.8984 234.091 59.377V59.5273C234.091 60.0423 234.016 60.5208 233.865 60.9629C233.719 61.4004 233.503 61.7832 233.216 62.1113C232.933 62.4349 232.587 62.6878 232.177 62.8701C231.771 63.0524 231.309 63.1436 230.789 63.1436C230.27 63.1436 229.805 63.0524 229.395 62.8701C228.989 62.6878 228.643 62.4349 228.355 62.1113C228.068 61.7832 227.85 61.4004 227.699 60.9629C227.553 60.5208 227.48 60.0423 227.48 59.5273V59.377C227.48 59.263 227.501 59.1514 227.542 59.042C227.583 58.9326 227.633 58.821 227.692 58.707C227.756 58.5931 227.813 58.4723 227.863 58.3447C228.032 57.9346 228.262 57.554 228.554 57.2031C228.85 56.8522 229.203 56.5697 229.613 56.3555C230.028 56.1367 230.497 56.0273 231.021 56.0273ZM230.775 57.0596C230.311 57.0596 229.928 57.1667 229.627 57.3809C229.331 57.5951 229.11 57.8799 228.964 58.2354C228.818 58.5863 228.745 58.9668 228.745 59.377V59.5273C228.745 59.8737 228.786 60.2018 228.868 60.5117C228.95 60.8216 229.073 61.0973 229.237 61.3389C229.406 61.5758 229.618 61.7627 229.873 61.8994C230.133 62.0361 230.438 62.1045 230.789 62.1045C231.14 62.1045 231.443 62.0361 231.698 61.8994C231.953 61.7627 232.163 61.5758 232.327 61.3389C232.491 61.0973 232.614 60.8216 232.696 60.5117C232.778 60.2018 232.819 59.8737 232.819 59.5273V59.377C232.819 59.0671 232.778 58.7731 232.696 58.4951C232.614 58.2171 232.489 57.971 232.32 57.7568C232.156 57.5426 231.944 57.374 231.685 57.251C231.429 57.1234 231.126 57.0596 230.775 57.0596ZM235.547 62.3301C235.547 62.1159 235.613 61.9359 235.745 61.79C235.882 61.6396 236.078 61.5645 236.333 61.5645C236.588 61.5645 236.782 61.6396 236.914 61.79C237.051 61.9359 237.119 62.1159 237.119 62.3301C237.119 62.5397 237.051 62.7174 236.914 62.8633C236.782 63.0091 236.588 63.082 236.333 63.082C236.078 63.082 235.882 63.0091 235.745 62.8633C235.613 62.7174 235.547 62.5397 235.547 62.3301ZM247.619 55.6035V56.6494H243.88V55.6035H247.619ZM244.064 55.6035V63H242.8V55.6035H244.064ZM248.74 55.6035V63H247.469V55.6035H248.74ZM252.035 57.0254V65.8438H250.764V55.6035H251.926L252.035 57.0254ZM257.019 59.2402V59.3838C257.019 59.9215 256.955 60.4206 256.827 60.8809C256.7 61.3366 256.513 61.7331 256.267 62.0703C256.025 62.4076 255.727 62.6696 255.371 62.8564C255.016 63.0433 254.608 63.1367 254.147 63.1367C253.678 63.1367 253.263 63.0592 252.903 62.9043C252.543 62.7493 252.238 62.5238 251.987 62.2275C251.737 61.9313 251.536 61.5758 251.386 61.1611C251.24 60.7464 251.14 60.2793 251.085 59.7598V58.9941C251.14 58.4473 251.242 57.9574 251.393 57.5244C251.543 57.0915 251.741 56.7223 251.987 56.417C252.238 56.1071 252.541 55.8724 252.896 55.7129C253.252 55.5488 253.662 55.4668 254.127 55.4668C254.592 55.4668 255.004 55.5579 255.364 55.7402C255.724 55.918 256.027 56.1732 256.273 56.5059C256.52 56.8385 256.704 57.2373 256.827 57.7021C256.955 58.1624 257.019 58.6751 257.019 59.2402ZM255.747 59.3838V59.2402C255.747 58.8711 255.708 58.5247 255.631 58.2012C255.553 57.873 255.433 57.5859 255.269 57.3398C255.109 57.0892 254.904 56.8932 254.653 56.752C254.403 56.6061 254.104 56.5332 253.758 56.5332C253.439 56.5332 253.161 56.5879 252.924 56.6973C252.691 56.8066 252.493 56.9548 252.329 57.1416C252.165 57.3239 252.031 57.5335 251.926 57.7705C251.826 58.0029 251.75 58.2445 251.7 58.4951V60.2656C251.791 60.5846 251.919 60.8854 252.083 61.168C252.247 61.446 252.466 61.6715 252.739 61.8447C253.013 62.0133 253.357 62.0977 253.771 62.0977C254.113 62.0977 254.407 62.027 254.653 61.8857C254.904 61.7399 255.109 61.5417 255.269 61.291C255.433 61.0404 255.553 60.7533 255.631 60.4297C255.708 60.1016 255.747 59.7529 255.747 59.3838ZM259.999 60.9971L263.41 55.6035H264.682V63H263.41V57.6064L259.999 63H258.741V55.6035H259.999V60.9971ZM271.654 55.6035V56.6494H268.079V55.6035H271.654ZM272.769 55.6035V63H271.504V55.6035H272.769ZM267.771 55.6035H269.043L268.852 59.1719C268.82 59.7233 268.767 60.2109 268.694 60.6348C268.626 61.054 268.53 61.4141 268.407 61.7148C268.289 62.0156 268.138 62.2617 267.956 62.4531C267.778 62.64 267.564 62.779 267.313 62.8701C267.063 62.9567 266.773 63 266.445 63H266.049V61.8857L266.322 61.8652C266.518 61.8516 266.685 61.806 266.821 61.7285C266.963 61.651 267.081 61.5371 267.177 61.3867C267.272 61.2318 267.35 61.0335 267.409 60.792C267.473 60.5505 267.521 60.2633 267.553 59.9307C267.589 59.598 267.617 59.2106 267.635 58.7686L267.771 55.6035ZM274.471 59.3838V59.2266C274.471 58.6934 274.548 58.1989 274.703 57.7432C274.858 57.2829 275.081 56.8841 275.373 56.5469C275.665 56.2051 276.018 55.9408 276.433 55.7539C276.847 55.5625 277.312 55.4668 277.827 55.4668C278.347 55.4668 278.814 55.5625 279.229 55.7539C279.648 55.9408 280.003 56.2051 280.295 56.5469C280.591 56.8841 280.817 57.2829 280.972 57.7432C281.127 58.1989 281.204 58.6934 281.204 59.2266V59.3838C281.204 59.917 281.127 60.4115 280.972 60.8672C280.817 61.3229 280.591 61.7217 280.295 62.0635C280.003 62.4007 279.65 62.665 279.235 62.8564C278.825 63.0433 278.36 63.1367 277.841 63.1367C277.321 63.1367 276.854 63.0433 276.439 62.8564C276.025 62.665 275.669 62.4007 275.373 62.0635C275.081 61.7217 274.858 61.3229 274.703 60.8672C274.548 60.4115 274.471 59.917 274.471 59.3838ZM275.735 59.2266V59.3838C275.735 59.7529 275.779 60.1016 275.865 60.4297C275.952 60.7533 276.082 61.0404 276.255 61.291C276.433 61.5417 276.654 61.7399 276.918 61.8857C277.182 62.027 277.49 62.0977 277.841 62.0977C278.187 62.0977 278.49 62.027 278.75 61.8857C279.014 61.7399 279.233 61.5417 279.406 61.291C279.579 61.0404 279.709 60.7533 279.796 60.4297C279.887 60.1016 279.933 59.7529 279.933 59.3838V59.2266C279.933 58.862 279.887 58.5179 279.796 58.1943C279.709 57.8662 279.577 57.5768 279.399 57.3262C279.226 57.071 279.007 56.8704 278.743 56.7246C278.483 56.5788 278.178 56.5059 277.827 56.5059C277.481 56.5059 277.175 56.5788 276.911 56.7246C276.651 56.8704 276.433 57.071 276.255 57.3262C276.082 57.5768 275.952 57.8662 275.865 58.1943C275.779 58.5179 275.735 58.862 275.735 59.2266ZM284.882 59.7803L282.079 55.6035H283.604L285.518 58.666H286.994L286.81 59.7803H284.882ZM285.572 59.6504L283.426 63H281.826L284.772 58.7344L285.572 59.6504ZM287.644 55.6035V63H286.379V55.6035H287.644ZM291.957 55.6035L289.154 59.7803H287.227L287.028 58.666H288.512L290.426 55.6035H291.957ZM290.604 63L288.45 59.6504L289.264 58.7344L292.203 63H290.604ZM296.305 63.1367C295.79 63.1367 295.323 63.0501 294.903 62.877C294.489 62.6992 294.131 62.4508 293.83 62.1318C293.534 61.8128 293.306 61.4346 293.146 60.9971C292.987 60.5596 292.907 60.0811 292.907 59.5615V59.2744C292.907 58.6729 292.996 58.1374 293.174 57.668C293.352 57.194 293.593 56.793 293.898 56.4648C294.204 56.1367 294.55 55.8883 294.938 55.7197C295.325 55.5511 295.726 55.4668 296.141 55.4668C296.669 55.4668 297.125 55.5579 297.508 55.7402C297.895 55.9225 298.212 56.1777 298.458 56.5059C298.704 56.8294 298.886 57.2122 299.005 57.6543C299.123 58.0918 299.183 58.5703 299.183 59.0898V59.6572H293.659V58.625H297.918V58.5293C297.9 58.2012 297.831 57.8822 297.713 57.5723C297.599 57.2624 297.417 57.0072 297.166 56.8066C296.915 56.6061 296.574 56.5059 296.141 56.5059C295.854 56.5059 295.589 56.5674 295.348 56.6904C295.106 56.8089 294.899 56.9867 294.726 57.2236C294.552 57.4606 294.418 57.75 294.322 58.0918C294.227 58.4336 294.179 58.8278 294.179 59.2744V59.5615C294.179 59.9124 294.227 60.2428 294.322 60.5527C294.423 60.8581 294.566 61.127 294.753 61.3594C294.944 61.5918 295.174 61.7741 295.443 61.9062C295.717 62.0384 296.027 62.1045 296.373 62.1045C296.82 62.1045 297.198 62.0133 297.508 61.8311C297.818 61.6488 298.089 61.4049 298.321 61.0996L299.087 61.708C298.927 61.9495 298.725 62.1797 298.479 62.3984C298.232 62.6172 297.929 62.7949 297.569 62.9316C297.214 63.0684 296.792 63.1367 296.305 63.1367ZM305.677 58.8096V59.835H301.767V58.8096H305.677ZM302.033 55.6035V63H300.769V55.6035H302.033ZM306.702 55.6035V63H305.431V55.6035H306.702ZM310.106 60.9971L313.518 55.6035H314.789V63H313.518V57.6064L310.106 63H308.849V55.6035H310.106V60.9971ZM319.889 63.1367C319.374 63.1367 318.907 63.0501 318.487 62.877C318.073 62.6992 317.715 62.4508 317.414 62.1318C317.118 61.8128 316.89 61.4346 316.73 60.9971C316.571 60.5596 316.491 60.0811 316.491 59.5615V59.2744C316.491 58.6729 316.58 58.1374 316.758 57.668C316.936 57.194 317.177 56.793 317.482 56.4648C317.788 56.1367 318.134 55.8883 318.521 55.7197C318.909 55.5511 319.31 55.4668 319.725 55.4668C320.253 55.4668 320.709 55.5579 321.092 55.7402C321.479 55.9225 321.796 56.1777 322.042 56.5059C322.288 56.8294 322.47 57.2122 322.589 57.6543C322.707 58.0918 322.767 58.5703 322.767 59.0898V59.6572H317.243V58.625H321.502V58.5293C321.484 58.2012 321.415 57.8822 321.297 57.5723C321.183 57.2624 321.001 57.0072 320.75 56.8066C320.499 56.6061 320.158 56.5059 319.725 56.5059C319.438 56.5059 319.173 56.5674 318.932 56.6904C318.69 56.8089 318.483 56.9867 318.31 57.2236C318.136 57.4606 318.002 57.75 317.906 58.0918C317.811 58.4336 317.763 58.8278 317.763 59.2744V59.5615C317.763 59.9124 317.811 60.2428 317.906 60.5527C318.007 60.8581 318.15 61.127 318.337 61.3594C318.528 61.5918 318.758 61.7741 319.027 61.9062C319.301 62.0384 319.611 62.1045 319.957 62.1045C320.404 62.1045 320.782 62.0133 321.092 61.8311C321.402 61.6488 321.673 61.4049 321.905 61.0996L322.671 61.708C322.511 61.9495 322.309 62.1797 322.062 62.3984C321.816 62.6172 321.513 62.7949 321.153 62.9316C320.798 63.0684 320.376 63.1367 319.889 63.1367ZM324.264 62.3301C324.264 62.1159 324.33 61.9359 324.462 61.79C324.599 61.6396 324.795 61.5645 325.05 61.5645C325.305 61.5645 325.499 61.6396 325.631 61.79C325.768 61.9359 325.836 62.1159 325.836 62.3301C325.836 62.5397 325.768 62.7174 325.631 62.8633C325.499 63.0091 325.305 63.082 325.05 63.082C324.795 63.082 324.599 63.0091 324.462 62.8633C324.33 62.7174 324.264 62.5397 324.264 62.3301Z" fill="black"/>
</svg>
