<svg width="52" height="37" viewBox="0 0 52 37" fill="none" xmlns="http://www.w3.org/2000/svg">
<rect x="20" y="14" width="13" height="13" rx="6.5" fill="#619ADC"/>
<path fill-rule="evenodd" clip-rule="evenodd" d="M25.6074 16.2366C25.4203 16.2655 25.2799 16.3683 25.0434 16.6496C24.9211 16.7951 24.817 16.8968 24.7389 16.9471C24.6714 16.9905 24.5659 17.0407 24.3941 17.1113C24.1126 17.2268 23.9918 17.3053 23.9102 17.4256C23.8327 17.54 23.798 17.6812 23.7655 18.0139C23.7298 18.3804 23.7138 18.4304 23.547 18.6982C23.4423 18.8664 23.3696 19.0042 23.3379 19.0948C23.3163 19.1566 23.3135 19.1771 23.3135 19.2736C23.3134 19.374 23.3157 19.389 23.3422 19.4653C23.376 19.5629 23.4459 19.6976 23.5411 19.8489C23.7119 20.1201 23.7426 20.218 23.7789 20.6073C23.8103 20.9437 23.8512 21.0722 23.9645 21.1914C24.0597 21.2914 24.1506 21.3427 24.4469 21.4633C24.7631 21.592 24.8349 21.6468 25.126 21.9817C25.2449 22.1185 25.3457 22.2049 25.4403 22.2509C25.5367 22.2979 25.5995 22.3108 25.7304 22.3104C25.8566 22.3101 25.9257 22.2993 26.1393 22.2461C26.3367 22.197 26.3767 22.191 26.5085 22.1908C26.6439 22.1906 26.6937 22.1979 26.9261 22.2517C27.2226 22.3204 27.2952 22.3278 27.421 22.3021C27.6012 22.2653 27.7256 22.1733 27.9504 21.9106C28.1804 21.6418 28.277 21.5705 28.5702 21.4532C28.8399 21.3453 28.95 21.2822 29.0463 21.1801C29.1733 21.0455 29.2058 20.936 29.2425 20.5202C29.2731 20.1723 29.2894 20.1217 29.4587 19.848C29.6527 19.5342 29.6866 19.4469 29.6865 19.2605C29.6864 19.1669 29.6829 19.1358 29.6661 19.0818C29.6407 19 29.5664 18.8586 29.4714 18.7113C29.293 18.4344 29.2685 18.3628 29.2386 18.0313C29.2115 17.7305 29.1849 17.598 29.1286 17.4821C29.0484 17.3171 28.9282 17.2337 28.5438 17.0765C28.2537 16.958 28.1554 16.8848 27.9287 16.6191C27.7923 16.4593 27.746 16.4118 27.6822 16.3665C27.5254 16.2553 27.3672 16.2151 27.1811 16.2391C27.1376 16.2448 27.009 16.2706 26.8953 16.2966C26.623 16.3587 26.5788 16.3649 26.447 16.3594C26.3355 16.3547 26.3029 16.3491 26.0825 16.2968C26.0146 16.2807 25.9255 16.2612 25.8844 16.2535C25.8069 16.2389 25.6532 16.2296 25.6074 16.2366ZM26.7623 17.0246C26.9283 17.0346 27.0394 17.055 27.1839 17.1021C27.879 17.3285 28.4135 17.8396 28.6659 18.5192C28.7654 18.7872 28.782 18.9201 28.7737 19.3825C28.7681 19.6977 28.7617 19.7444 28.6974 19.9404C28.6244 20.1629 28.5381 20.3387 28.4068 20.5329C28.1116 20.9693 27.6906 21.2815 27.1679 21.4515C26.9632 21.5181 26.8325 21.5348 26.5217 21.5342C26.1979 21.5336 26.0301 21.5118 25.814 21.4424C25.4693 21.3316 25.1766 21.1572 24.9183 20.9083C24.5176 20.5225 24.2809 20.0414 24.2221 19.4937C24.2065 19.348 24.2157 19.036 24.2395 18.9031C24.3232 18.4364 24.5189 18.0412 24.8224 17.726C25.0686 17.4703 25.4086 17.249 25.7304 17.135C25.8281 17.1004 26.0313 17.0457 26.1261 17.0285C26.2022 17.0147 26.5613 17.0124 26.7623 17.0246ZM26.252 17.4208C25.4262 17.5375 24.7812 18.1633 24.6389 18.9859C24.6207 19.0912 24.614 19.3291 24.6261 19.439C24.6701 19.8362 24.8188 20.1836 25.0685 20.4722C25.3774 20.8292 25.7933 21.06 26.2459 21.1256C26.3639 21.1426 26.6144 21.1431 26.7327 21.1264C27.0962 21.0751 27.4218 20.9386 27.6866 20.7263C27.9496 20.5156 28.1873 20.1676 28.3009 19.827C28.3515 19.6754 28.3642 19.5885 28.3697 19.3564C28.3767 19.0649 28.3537 18.8634 28.2922 18.6775C28.2265 18.4789 28.059 18.1974 27.9052 18.0275C27.6294 17.7228 27.2342 17.5075 26.8162 17.434C26.6758 17.4093 26.3819 17.4024 26.252 17.4208Z" fill="white"/>
<path fill-rule="evenodd" clip-rule="evenodd" d="M24.8723 22.3824C24.764 22.6766 24.2896 24.087 24.2189 24.3252L24.1826 24.4476L24.2049 24.45C24.2268 24.4525 24.5479 24.3982 24.9143 24.33L25.1017 24.2952L25.4034 24.6114C25.5693 24.7853 25.7067 24.9257 25.7089 24.9235C25.7132 24.919 26.0085 24.0418 26.1694 23.5559C26.2986 23.1656 26.4053 22.8269 26.4053 22.8073C26.4053 22.7866 26.3666 22.7793 26.0638 22.7428C25.6724 22.6956 25.6137 22.6825 25.4316 22.6013C25.314 22.5488 25.1332 22.453 25.0248 22.3858C24.9755 22.3552 24.927 22.3258 24.917 22.3203C24.8998 22.3109 24.8975 22.3141 24.8723 22.3824ZM27.9531 22.4053C27.8738 22.4479 27.7537 22.5126 27.6862 22.549C27.4758 22.6626 27.3266 22.7018 26.9509 22.7423C26.6364 22.7761 26.5886 22.7831 26.5886 22.7954C26.5886 22.8266 27.1929 24.6613 27.279 24.8915C27.2879 24.9154 27.2885 24.9156 27.3134 24.902C27.3432 24.8859 27.5137 24.7097 27.7347 24.4669L27.8922 24.294L27.938 24.3033C28.1302 24.3423 28.8116 24.4558 28.8174 24.4498C28.8247 24.4421 28.4103 23.1925 28.1972 22.5794C28.1257 22.3737 28.1081 22.3278 28.1007 22.3278C28.0989 22.3278 28.0325 22.3626 27.9531 22.4053Z" fill="white"/>
<path fill-rule="evenodd" clip-rule="evenodd" d="M26.256 17.4206C25.4303 17.5373 24.7853 18.1631 24.6429 18.9856C24.6247 19.0909 24.618 19.3289 24.6302 19.4387C24.6741 19.836 24.8229 20.1834 25.0725 20.472C25.3814 20.829 25.7973 21.0598 26.2499 21.1253C26.3679 21.1424 26.6184 21.1428 26.7367 21.1261C27.1003 21.0748 27.4258 20.9383 27.6906 20.7261C27.9536 20.5154 28.1913 20.1673 28.3049 19.8267C28.3555 19.6751 28.3682 19.5882 28.3738 19.3561C28.3807 19.0647 28.3577 18.8631 28.2963 18.6773C28.2306 18.4786 28.063 18.1972 27.9092 18.0273C27.6335 17.7226 27.2383 17.5072 26.8202 17.4338C26.6798 17.4091 26.3859 17.4022 26.256 17.4206Z" fill="#619ADC"/>
<path d="M13 37C9.40727 37 6.34242 35.7898 3.80545 33.3694C1.26848 30.9335 0 27.9658 0 24.4662C0 21.46 0.921818 18.7775 2.76545 16.4188C4.62485 14.06 7.05151 12.5569 10.0455 11.9094C11.0382 8.36354 13.0079 5.49604 15.9545 3.30687C18.917 1.10229 22.2655 0 26 0C30.617 0 34.5248 1.5725 37.7236 4.7175C40.9382 7.84708 42.5455 11.6704 42.5455 16.1875C45.2715 16.4958 47.5248 17.6521 49.3055 19.6562C51.1018 21.6296 52 23.9421 52 26.5938C52 29.4921 50.9679 31.951 48.9036 33.9706C46.8394 35.9902 44.3261 37 41.3636 37M13 32.375H41.3636C43.0182 32.375 44.4127 31.8123 45.5473 30.6869C46.6976 29.5769 47.2727 28.2125 47.2727 26.5938C47.2727 24.975 46.6976 23.6106 45.5473 22.5006C44.4127 21.3752 43.0182 20.8125 41.3636 20.8125H37.8182V16.1875C37.8182 12.9963 36.6679 10.2675 34.3673 8.00125C32.0667 5.75042 29.2776 4.625 26 4.625C22.7382 4.625 19.9491 5.75042 17.6327 8.00125C15.3321 10.2675 14.1818 12.9963 14.1818 16.1875H13C10.7152 16.1875 8.76909 16.9815 7.16182 18.5694C5.53879 20.1419 4.72727 22.0458 4.72727 24.2812C4.72727 26.5167 5.53879 28.4438 7.16182 30.0625C8.76909 31.6042 10.7152 32.375 13 32.375Z" fill="#619ADC"/>
</svg>
