<svg width="128" height="28" viewBox="0 0 128 28" fill="none" xmlns="http://www.w3.org/2000/svg">
<rect x="0.5" y="0.5" width="127" height="27" rx="1.5" fill="#FFDF1A" stroke="#B19F2D"/>
<path d="M30.4537 9.06738V19.0205H28.7447V10.4346H24.3218V19.0205H22.6128V9.06738H30.4537ZM32.0396 15.4043V15.2471C32.0396 14.7139 32.1171 14.2194 32.272 13.7637C32.427 13.3034 32.6503 12.9046 32.9419 12.5674C33.2382 12.2256 33.5982 11.9613 34.022 11.7744C34.4504 11.583 34.9335 11.4873 35.4712 11.4873C36.0136 11.4873 36.4966 11.583 36.9205 11.7744C37.3488 11.9613 37.7112 12.2256 38.0074 12.5674C38.3036 12.9046 38.5292 13.3034 38.6841 13.7637C38.8391 14.2194 38.9166 14.7139 38.9166 15.2471V15.4043C38.9166 15.9375 38.8391 16.432 38.6841 16.8877C38.5292 17.3434 38.3036 17.7422 38.0074 18.084C37.7112 18.4212 37.3511 18.6855 36.9273 18.877C36.5035 19.0638 36.0227 19.1572 35.4849 19.1572C34.9426 19.1572 34.4572 19.0638 34.0289 18.877C33.605 18.6855 33.245 18.4212 32.9488 18.084C32.6526 17.7422 32.427 17.3434 32.272 16.8877C32.1171 16.432 32.0396 15.9375 32.0396 15.4043ZM33.6871 15.2471V15.4043C33.6871 15.737 33.7212 16.0514 33.7896 16.3477C33.858 16.6439 33.9651 16.9036 34.1109 17.127C34.2567 17.3503 34.4436 17.5257 34.6714 17.6533C34.8993 17.7809 35.1705 17.8447 35.4849 17.8447C35.7903 17.8447 36.0546 17.7809 36.2779 17.6533C36.5058 17.5257 36.6926 17.3503 36.8384 17.127C36.9843 16.9036 37.0914 16.6439 37.1597 16.3477C37.2326 16.0514 37.2691 15.737 37.2691 15.4043V15.2471C37.2691 14.9189 37.2326 14.609 37.1597 14.3174C37.0914 14.0212 36.982 13.7591 36.8316 13.5312C36.6858 13.3034 36.4989 13.1257 36.271 12.998C36.0477 12.8659 35.7811 12.7998 35.4712 12.7998C35.1613 12.7998 34.8925 12.8659 34.6646 12.998C34.4413 13.1257 34.2567 13.3034 34.1109 13.5312C33.9651 13.7591 33.858 14.0212 33.7896 14.3174C33.7212 14.609 33.6871 14.9189 33.6871 15.2471ZM41.1451 11.624H42.7925L42.7105 14.2285C42.6877 14.985 42.6011 15.6344 42.4507 16.1768C42.3003 16.7191 42.1044 17.1771 41.8628 17.5508C41.6213 17.9199 41.3479 18.223 41.0425 18.46C40.7418 18.6969 40.425 18.8838 40.0923 19.0205H39.607V17.7217L39.8394 17.708C40.0354 17.4984 40.204 17.2887 40.3453 17.0791C40.4911 16.8649 40.6141 16.6302 40.7144 16.375C40.8147 16.1152 40.8921 15.8122 40.9468 15.4658C41.0061 15.1195 41.0448 14.707 41.063 14.2285L41.1451 11.624ZM41.5826 11.624H46.272V19.0205H44.6314V13.0186H41.5826V11.624ZM39.231 17.708H47.2837V21.2217H45.6363V19.0205H40.899V21.2217H39.2242L39.231 17.708ZM50.1959 11.624V19.0205H48.5484V11.624H50.1959ZM55.022 11.624L51.6929 16.0742H49.813L49.5943 14.584H50.9683L52.9644 11.624H55.022ZM53.0943 19.0205L50.8658 15.7939L52.1646 14.8574L55.2613 19.0205H53.0943ZM61.1265 11.624V12.9365H57.5171V11.624H61.1265ZM62.4185 11.624V19.0205H60.771V11.624H62.4185ZM57.1138 11.624H58.7408L58.5425 15.2812C58.5152 15.8236 58.4605 16.3021 58.3785 16.7168C58.301 17.127 58.1962 17.4801 58.064 17.7764C57.9319 18.068 57.7701 18.305 57.5787 18.4873C57.3873 18.6696 57.164 18.804 56.9087 18.8906C56.6535 18.9772 56.3664 19.0205 56.0474 19.0205H55.5347L55.5279 17.667L55.7877 17.6465C55.9563 17.6328 56.1021 17.5895 56.2252 17.5166C56.3482 17.4391 56.453 17.3298 56.5396 17.1885C56.6308 17.0472 56.7037 16.8649 56.7584 16.6416C56.8176 16.4183 56.8632 16.154 56.8951 15.8486C56.9315 15.5433 56.9589 15.1878 56.9771 14.7822L57.1138 11.624ZM68.523 14.6113V15.9238H64.5582V14.6113H68.523ZM65.9664 11.624V19.0205H64.3189V11.624H65.9664ZM67.3062 15.4043V15.2471C67.3062 14.7139 67.3837 14.2194 67.5386 13.7637C67.6936 13.3034 67.9192 12.9046 68.2154 12.5674C68.5116 12.2256 68.8716 11.9613 69.2955 11.7744C69.7193 11.583 70.2001 11.4873 70.7378 11.4873C71.2847 11.4873 71.7701 11.583 72.1939 11.7744C72.6223 11.9613 72.9846 12.2256 73.2808 12.5674C73.577 12.9046 73.8026 13.3034 73.9576 13.7637C74.1125 14.2194 74.19 14.7139 74.19 15.2471V15.4043C74.19 15.9375 74.1125 16.432 73.9576 16.8877C73.8026 17.3434 73.577 17.7422 73.2808 18.084C72.9891 18.4212 72.6291 18.6855 72.2007 18.877C71.7769 19.0638 71.2938 19.1572 70.7515 19.1572C70.2092 19.1572 69.7261 19.0638 69.3023 18.877C68.8785 18.6855 68.5162 18.4212 68.2154 18.084C67.9192 17.7422 67.6936 17.3434 67.5386 16.8877C67.3837 16.432 67.3062 15.9375 67.3062 15.4043ZM68.9605 15.2471V15.4043C68.9605 15.737 68.9947 16.0514 69.063 16.3477C69.1314 16.6439 69.2385 16.9036 69.3843 17.127C69.5302 17.3503 69.717 17.5257 69.9449 17.6533C70.1727 17.7809 70.4416 17.8447 70.7515 17.8447C71.0614 17.8447 71.328 17.7809 71.5513 17.6533C71.7792 17.5257 71.966 17.3503 72.1119 17.127C72.2577 16.9036 72.3648 16.6439 72.4332 16.3477C72.5061 16.0514 72.5425 15.737 72.5425 15.4043V15.2471C72.5425 14.9189 72.5061 14.609 72.4332 14.3174C72.3648 14.0212 72.2577 13.7591 72.1119 13.5312C71.966 13.3034 71.7792 13.1257 71.5513 12.998C71.3235 12.8659 71.0523 12.7998 70.7378 12.7998C70.4325 12.7998 70.1659 12.8659 69.938 12.998C69.7147 13.1257 69.5302 13.3034 69.3843 13.5312C69.2385 13.7591 69.1314 14.0212 69.063 14.3174C68.9947 14.609 68.9605 14.9189 68.9605 15.2471ZM81.4976 11.624V19.0205H79.8502V11.624H81.4976ZM80.8003 14.8984V16.2041C80.5998 16.2907 80.3742 16.3704 80.1236 16.4434C79.8775 16.5117 79.6177 16.5687 79.3443 16.6143C79.0709 16.6553 78.7951 16.6758 78.5171 16.6758C77.8655 16.6758 77.3026 16.5755 76.8287 16.375C76.3593 16.1745 75.997 15.8669 75.7418 15.4521C75.4911 15.0329 75.3658 14.502 75.3658 13.8594V11.6172H77.0064V13.8594C77.0064 14.2285 77.0611 14.5225 77.1705 14.7412C77.2844 14.96 77.453 15.1172 77.6763 15.2129C77.8996 15.3086 78.1799 15.3564 78.5171 15.3564C78.7997 15.3564 79.0663 15.3382 79.3169 15.3018C79.5676 15.2607 79.816 15.2061 80.0621 15.1377C80.3082 15.0693 80.5543 14.9896 80.8003 14.8984ZM84.9566 16.6143L87.8619 11.624H89.5093V19.0205H87.8619V14.0234L84.9566 19.0205H83.3091V11.624H84.9566V16.6143ZM94.6841 11.624V19.0205H93.0298V11.624H94.6841ZM97.1109 11.624V12.9229H90.6441V11.624H97.1109ZM99.4351 13.9756H101.616C102.254 13.9756 102.796 14.0827 103.243 14.2969C103.689 14.5111 104.029 14.8096 104.261 15.1924C104.498 15.5706 104.617 16.0036 104.617 16.4912C104.617 16.8512 104.551 17.1862 104.419 17.4961C104.286 17.8014 104.09 18.068 103.831 18.2959C103.575 18.5238 103.261 18.7015 102.887 18.8291C102.518 18.9567 102.094 19.0205 101.616 19.0205H98.3414V11.624H99.9957V17.7148H101.616C101.944 17.7148 102.206 17.6579 102.402 17.5439C102.598 17.43 102.739 17.2819 102.826 17.0996C102.917 16.9173 102.962 16.7236 102.962 16.5186C102.962 16.3089 102.917 16.1107 102.826 15.9238C102.739 15.737 102.598 15.5843 102.402 15.4658C102.206 15.3473 101.944 15.2881 101.616 15.2881H99.4351V13.9756Z" fill="black"/>
</svg>
