<svg width="28" height="28" viewBox="0 0 28 28" fill="none" xmlns="http://www.w3.org/2000/svg">
<path d="M14 24C19.5228 24 24 19.5228 24 14C24 8.47715 19.5228 4 14 4C8.47715 4 4 8.47715 4 14C4 19.5228 8.47715 24 14 24Z" fill="white"/>
<path d="M14 24.5C19.799 24.5 24.5 19.799 24.5 14C24.5 8.20101 19.799 3.5 14 3.5C8.20101 3.5 3.5 8.20101 3.5 14C3.5 19.799 8.20101 24.5 14 24.5Z" stroke="black" stroke-opacity="0.3"/>
<path d="M12.8789 13.1768H13.7612C14.3156 13.1683 14.7515 13.0223 15.0688 12.7388C15.3862 12.4552 15.5449 12.0723 15.5449 11.5898C15.5449 10.5065 15.0054 9.96484 13.9263 9.96484C13.4185 9.96484 13.0122 10.1108 12.7075 10.4028C12.4071 10.6906 12.2568 11.0736 12.2568 11.5518H11.0825C11.0825 10.8197 11.3491 10.2124 11.8823 9.72998C12.4198 9.24333 13.1011 9 13.9263 9C14.798 9 15.4814 9.23063 15.9766 9.69189C16.4717 10.1532 16.7192 10.7943 16.7192 11.6152C16.7192 12.0173 16.5881 12.4066 16.3257 12.7832C16.0675 13.1598 15.7142 13.4412 15.2656 13.6274C15.7734 13.7882 16.1649 14.0549 16.4399 14.4272C16.7192 14.7996 16.8589 15.2546 16.8589 15.792C16.8589 16.6214 16.5881 17.2795 16.0464 17.7661C15.5047 18.2528 14.8001 18.4961 13.9326 18.4961C13.0651 18.4961 12.3584 18.2612 11.8125 17.7915C11.2708 17.3218 11 16.7018 11 15.9316H12.1807C12.1807 16.4183 12.3394 16.8076 12.6567 17.0996C12.9741 17.3916 13.3994 17.5376 13.9326 17.5376C14.4997 17.5376 14.9334 17.3895 15.2339 17.0933C15.5343 16.797 15.6846 16.3717 15.6846 15.8174C15.6846 15.2799 15.5195 14.8674 15.1895 14.5796C14.8594 14.2918 14.3833 14.1437 13.7612 14.1353H12.8789V13.1768Z" fill="black"/>
</svg>
