<svg width="16" height="16" viewBox="0 0 16 16" fill="none" xmlns="http://www.w3.org/2000/svg">
<path d="M2.65055 9.10343C2.44982 8.73086 2.44982 8.27029 2.65055 7.89657C3.38145 6.53771 5.42255 4.5 8.5 4.5C11.5775 4.5 13.6185 6.53771 14.3495 7.89657C14.5502 8.26914 14.5502 8.72971 14.3495 9.10343C13.6185 10.4623 11.5775 12.5 8.5 12.5C5.42255 12.5 3.38145 10.4623 2.65055 9.10343Z" stroke="#404040" stroke-opacity="0.7" stroke-linecap="round" stroke-linejoin="round"/>
<path d="M8.5 10C9.32843 10 10 9.32843 10 8.5C10 7.67157 9.32843 7 8.5 7C7.67157 7 7 7.67157 7 8.5C7 9.32843 7.67157 10 8.5 10Z" stroke="#404040" stroke-opacity="0.7" stroke-linecap="round" stroke-linejoin="round"/>
</svg>
