<svg width="25" height="25" viewBox="0 0 25 25" fill="none" xmlns="http://www.w3.org/2000/svg">
<circle cx="12.5" cy="12.5" r="12.5" fill="#009646"/>
<path d="M15.6992 15.7812V17H9.50391V15.9526L12.5127 12.6709C12.8428 12.2985 13.103 11.9769 13.2935 11.7061C13.4839 11.4352 13.6172 11.1919 13.6934 10.9761C13.7738 10.756 13.814 10.5423 13.814 10.335C13.814 10.043 13.759 9.78695 13.6489 9.56689C13.5431 9.34261 13.3866 9.16699 13.1792 9.04004C12.9718 8.90885 12.7201 8.84326 12.4238 8.84326C12.0811 8.84326 11.7933 8.91732 11.5605 9.06543C11.3278 9.21354 11.1522 9.41878 11.0337 9.68115C10.9152 9.93929 10.856 10.2355 10.856 10.5698H9.32617C9.32617 10.0324 9.44889 9.5415 9.69434 9.09717C9.93978 8.6486 10.2952 8.29313 10.7607 8.03076C11.2262 7.76416 11.7869 7.63086 12.4429 7.63086C13.0607 7.63086 13.5854 7.73454 14.0171 7.94189C14.4487 8.14925 14.7767 8.44336 15.001 8.82422C15.2295 9.20508 15.3438 9.65576 15.3438 10.1763C15.3438 10.464 15.2972 10.7497 15.2041 11.0332C15.111 11.3167 14.9777 11.6003 14.8042 11.8838C14.6349 12.1631 14.4339 12.4445 14.2012 12.728C13.9684 13.0073 13.7124 13.2909 13.4331 13.5786L11.4336 15.7812H15.6992Z" fill="white"/>
</svg>
