<svg width="66" height="81" viewBox="0 0 66 81" fill="none" xmlns="http://www.w3.org/2000/svg">
<rect x="1.45117" y="0.5" width="64" height="80" fill="white"/>
<rect x="1.45117" y="0.5" width="64" height="80" stroke="#8080AD"/>
<path fill-rule="evenodd" clip-rule="evenodd" d="M11.7839 55.8243C11.5239 58.0135 12.9539 60.2027 16.1172 60.2027H50.7839C53.9472 60.2027 55.3772 58.0135 55.1172 55.8243V33.9324C54.8572 31.7432 53.0805 29.5541 50.7839 29.5541H42.1172V25.1757L37.7839 20.7973H29.1172L24.7839 25.1757V29.5541H16.1172C13.6256 29.5541 12.0439 31.7432 11.7839 33.9324V55.8243ZM14.3839 34.1145V55.9814L14.3654 56.1373C14.314 56.5696 14.4374 56.8924 14.6122 57.0916C14.7621 57.2624 15.1547 57.5757 16.1172 57.5757H50.7839C51.7464 57.5757 52.139 57.2624 52.2889 57.0916C52.4637 56.8924 52.5871 56.5696 52.5357 56.1373L52.5172 55.9814V34.1198C52.4309 33.6284 52.18 33.1087 51.8199 32.7216C51.4408 32.3142 51.0726 32.1811 50.7839 32.1811H16.1172C15.6929 32.1811 15.3469 32.346 15.0367 32.6904C14.7191 33.0429 14.4749 33.5598 14.3839 34.1145ZM29.1172 25.1757V29.5541H37.7839V25.1757H29.1172Z" fill="#2CA149"/>
<path d="M61.8809 44.8364C61.8809 50.2771 57.5156 54.6877 52.1309 54.6877C46.7461 54.6877 42.3809 50.2771 42.3809 44.8364C42.3809 39.3956 46.7461 34.985 52.1309 34.985C57.5156 34.985 61.8809 39.3956 61.8809 44.8364Z" fill="white"/>
<path d="M46.2809 45.8215V43.8512H54.0809L50.6684 40.4033L52.0529 39.0044L57.8249 44.8364L52.0529 50.6684L50.6684 49.2695L54.0809 45.8215H46.2809ZM61.8809 44.8364C61.8809 47.4491 60.8536 49.9548 59.0252 51.8023C57.1967 53.6498 54.7167 54.6877 52.1309 54.6877C50.8505 54.6877 49.5826 54.4329 48.3997 53.9378C47.2168 53.4428 46.1419 52.7171 45.2366 51.8023C43.4081 49.9548 42.3809 47.4491 42.3809 44.8364C42.3809 42.2236 43.4081 39.7179 45.2366 37.8704C47.065 36.0229 49.545 34.985 52.1309 34.985C53.4112 34.985 54.6791 35.2398 55.862 35.7349C57.0449 36.23 58.1198 36.9556 59.0252 37.8704C59.9305 38.7852 60.6487 39.8712 61.1387 41.0664C61.6287 42.2616 61.8809 43.5427 61.8809 44.8364ZM59.9309 44.8364C59.9309 42.7462 59.1091 40.7416 57.6463 39.2636C56.1835 37.7856 54.1995 36.9553 52.1309 36.9553C50.0622 36.9553 48.0782 37.7856 46.6154 39.2636C45.1526 40.7416 44.3309 42.7462 44.3309 44.8364C44.3309 46.9266 45.1526 48.9311 46.6154 50.4091C48.0782 51.8871 50.0622 52.7174 52.1309 52.7174C54.1995 52.7174 56.1835 51.8871 57.6463 50.4091C59.1091 48.9311 59.9309 46.9266 59.9309 44.8364Z" fill="#2CA149"/>
<path d="M26.9512 43.2365H39.9512V46.5203H26.9512V43.2365Z" fill="#EB7F81"/>
<path d="M31.8262 51.446L31.8262 38.3108L35.0762 38.3108L35.0762 51.446L31.8262 51.446Z" fill="#EB7F81"/>
<path d="M26.9512 43.2365H39.9512V46.5203H26.9512V43.2365Z" fill="#EB7F81"/>
<path d="M31.8262 51.446L31.8262 38.3108L35.0762 38.3108L35.0762 51.446L31.8262 51.446Z" fill="#EB7F81"/>
</svg>
