<svg width="355" height="89" viewBox="0 0 355 89" fill="none" xmlns="http://www.w3.org/2000/svg">
<path d="M92.9824 48.9268V50H85.4492V48.9268H92.9824ZM85.6611 48.9268V52.4473H84.3555L84.3486 48.9268H85.6611ZM94.1309 48.9268L94.1172 52.4404H92.8115V48.9268H94.1309ZM91.6904 40.0469V41.127H87.3291V40.0469H91.6904ZM92.8252 40.0469V50H91.5127V40.0469H92.8252ZM86.8779 40.0469H88.1973L87.9922 44.0527C87.9648 44.6543 87.9079 45.2103 87.8213 45.7207C87.7347 46.2266 87.6276 46.6891 87.5 47.1084C87.3724 47.5277 87.2266 47.9036 87.0625 48.2363C86.8984 48.5645 86.723 48.8493 86.5361 49.0908C86.3493 49.3278 86.1533 49.5238 85.9482 49.6787C85.7477 49.8291 85.5449 49.9362 85.3398 50H84.7383V48.9268H85.1621C85.2806 48.7992 85.415 48.6146 85.5654 48.373C85.7204 48.1315 85.873 47.8193 86.0234 47.4365C86.1784 47.0492 86.3128 46.5775 86.4268 46.0215C86.5452 45.4655 86.625 44.8092 86.666 44.0527L86.8779 40.0469ZM95.1562 46.3838V46.2266C95.1562 45.6934 95.2337 45.1989 95.3887 44.7432C95.5436 44.2829 95.7669 43.8841 96.0586 43.5469C96.3503 43.2051 96.7035 42.9408 97.1182 42.7539C97.5329 42.5625 97.9977 42.4668 98.5127 42.4668C99.0322 42.4668 99.4993 42.5625 99.9141 42.7539C100.333 42.9408 100.689 43.2051 100.98 43.5469C101.277 43.8841 101.502 44.2829 101.657 44.7432C101.812 45.1989 101.89 45.6934 101.89 46.2266V46.3838C101.89 46.917 101.812 47.4115 101.657 47.8672C101.502 48.3229 101.277 48.7217 100.98 49.0635C100.689 49.4007 100.336 49.665 99.9209 49.8564C99.5107 50.0433 99.0459 50.1367 98.5264 50.1367C98.0068 50.1367 97.5397 50.0433 97.125 49.8564C96.7103 49.665 96.3548 49.4007 96.0586 49.0635C95.7669 48.7217 95.5436 48.3229 95.3887 47.8672C95.2337 47.4115 95.1562 46.917 95.1562 46.3838ZM96.4209 46.2266V46.3838C96.4209 46.7529 96.4642 47.1016 96.5508 47.4297C96.6374 47.7533 96.7673 48.0404 96.9404 48.291C97.1182 48.5417 97.3392 48.7399 97.6035 48.8857C97.8678 49.027 98.1755 49.0977 98.5264 49.0977C98.8727 49.0977 99.1758 49.027 99.4355 48.8857C99.6999 48.7399 99.9186 48.5417 100.092 48.291C100.265 48.0404 100.395 47.7533 100.481 47.4297C100.573 47.1016 100.618 46.7529 100.618 46.3838V46.2266C100.618 45.862 100.573 45.5179 100.481 45.1943C100.395 44.8662 100.263 44.5768 100.085 44.3262C99.9118 44.071 99.693 43.8704 99.4287 43.7246C99.1689 43.5788 98.8636 43.5059 98.5127 43.5059C98.1663 43.5059 97.861 43.5788 97.5967 43.7246C97.3369 43.8704 97.1182 44.071 96.9404 44.3262C96.7673 44.5768 96.6374 44.8662 96.5508 45.1943C96.4642 45.5179 96.4209 45.862 96.4209 46.2266ZM106.436 49.0977C106.736 49.0977 107.014 49.0361 107.27 48.9131C107.525 48.79 107.734 48.6214 107.898 48.4072C108.062 48.1885 108.156 47.9401 108.179 47.6621H109.382C109.359 48.0996 109.211 48.5075 108.938 48.8857C108.669 49.2594 108.315 49.5625 107.878 49.7949C107.44 50.0228 106.96 50.1367 106.436 50.1367C105.88 50.1367 105.394 50.0387 104.979 49.8428C104.569 49.6468 104.228 49.3779 103.954 49.0361C103.685 48.6943 103.482 48.3024 103.346 47.8604C103.214 47.4137 103.147 46.9421 103.147 46.4453V46.1582C103.147 45.6615 103.214 45.1921 103.346 44.75C103.482 44.3034 103.685 43.9092 103.954 43.5674C104.228 43.2256 104.569 42.9567 104.979 42.7607C105.394 42.5648 105.88 42.4668 106.436 42.4668C107.014 42.4668 107.52 42.5853 107.953 42.8223C108.386 43.0547 108.726 43.3737 108.972 43.7793C109.222 44.1803 109.359 44.6361 109.382 45.1465H108.179C108.156 44.8411 108.069 44.5654 107.919 44.3193C107.773 44.0732 107.573 43.8773 107.317 43.7314C107.067 43.5811 106.773 43.5059 106.436 43.5059C106.048 43.5059 105.722 43.5833 105.458 43.7383C105.198 43.8887 104.991 44.0938 104.836 44.3535C104.686 44.6087 104.576 44.8936 104.508 45.208C104.444 45.5179 104.412 45.8346 104.412 46.1582V46.4453C104.412 46.7689 104.444 47.0879 104.508 47.4023C104.572 47.7168 104.679 48.0016 104.829 48.2568C104.984 48.512 105.191 48.7171 105.451 48.8721C105.715 49.0225 106.044 49.0977 106.436 49.0977ZM113.818 42.6035V50H112.547V42.6035H113.818ZM116.3 42.6035V43.6289H110.113V42.6035H116.3ZM119.704 49.2344L121.762 42.6035H123.115L120.148 51.1416C120.08 51.3239 119.989 51.5199 119.875 51.7295C119.766 51.9437 119.624 52.1465 119.451 52.3379C119.278 52.5293 119.068 52.6842 118.822 52.8027C118.581 52.9258 118.291 52.9873 117.954 52.9873C117.854 52.9873 117.726 52.9736 117.571 52.9463C117.416 52.9189 117.307 52.8962 117.243 52.8779L117.236 51.8525C117.273 51.8571 117.33 51.8617 117.407 51.8662C117.489 51.8753 117.546 51.8799 117.578 51.8799C117.865 51.8799 118.109 51.8411 118.31 51.7637C118.51 51.6908 118.679 51.5654 118.815 51.3877C118.957 51.2145 119.077 50.9753 119.178 50.6699L119.704 49.2344ZM118.193 42.6035L120.114 48.3457L120.442 49.6787L119.533 50.1436L116.812 42.6035H118.193ZM129.186 42.6035V43.6494H125.446V42.6035H129.186ZM125.631 42.6035V50H124.366V42.6035H125.631ZM130.307 42.6035V50H129.035V42.6035H130.307ZM137.184 42.6035V50H135.919V42.6035H137.184ZM142.037 42.6035L138.53 46.8418H136.76L136.568 45.7344H138.018L140.499 42.6035H142.037ZM140.677 50L137.956 46.6504L138.77 45.7344L142.283 50H140.677ZM149.816 49.0977C150.117 49.0977 150.395 49.0361 150.65 48.9131C150.906 48.79 151.115 48.6214 151.279 48.4072C151.443 48.1885 151.537 47.9401 151.56 47.6621H152.763C152.74 48.0996 152.592 48.5075 152.318 48.8857C152.049 49.2594 151.696 49.5625 151.259 49.7949C150.821 50.0228 150.34 50.1367 149.816 50.1367C149.26 50.1367 148.775 50.0387 148.36 49.8428C147.95 49.6468 147.608 49.3779 147.335 49.0361C147.066 48.6943 146.863 48.3024 146.727 47.8604C146.594 47.4137 146.528 46.9421 146.528 46.4453V46.1582C146.528 45.6615 146.594 45.1921 146.727 44.75C146.863 44.3034 147.066 43.9092 147.335 43.5674C147.608 43.2256 147.95 42.9567 148.36 42.7607C148.775 42.5648 149.26 42.4668 149.816 42.4668C150.395 42.4668 150.901 42.5853 151.334 42.8223C151.767 43.0547 152.106 43.3737 152.353 43.7793C152.603 44.1803 152.74 44.6361 152.763 45.1465H151.56C151.537 44.8411 151.45 44.5654 151.3 44.3193C151.154 44.0732 150.953 43.8773 150.698 43.7314C150.448 43.5811 150.154 43.5059 149.816 43.5059C149.429 43.5059 149.103 43.5833 148.839 43.7383C148.579 43.8887 148.372 44.0938 148.217 44.3535C148.066 44.6087 147.957 44.8936 147.889 45.208C147.825 45.5179 147.793 45.8346 147.793 46.1582V46.4453C147.793 46.7689 147.825 47.0879 147.889 47.4023C147.952 47.7168 148.06 48.0016 148.21 48.2568C148.365 48.512 148.572 48.7171 148.832 48.8721C149.096 49.0225 149.424 49.0977 149.816 49.0977ZM157.254 50.1367C156.739 50.1367 156.272 50.0501 155.853 49.877C155.438 49.6992 155.08 49.4508 154.779 49.1318C154.483 48.8128 154.255 48.4346 154.096 47.9971C153.936 47.5596 153.856 47.0811 153.856 46.5615V46.2744C153.856 45.6729 153.945 45.1374 154.123 44.668C154.301 44.194 154.542 43.793 154.848 43.4648C155.153 43.1367 155.499 42.8883 155.887 42.7197C156.274 42.5511 156.675 42.4668 157.09 42.4668C157.618 42.4668 158.074 42.5579 158.457 42.7402C158.844 42.9225 159.161 43.1777 159.407 43.5059C159.653 43.8294 159.836 44.2122 159.954 44.6543C160.073 45.0918 160.132 45.5703 160.132 46.0898V46.6572H154.608V45.625H158.867V45.5293C158.849 45.2012 158.781 44.8822 158.662 44.5723C158.548 44.2624 158.366 44.0072 158.115 43.8066C157.865 43.6061 157.523 43.5059 157.09 43.5059C156.803 43.5059 156.538 43.5674 156.297 43.6904C156.055 43.8089 155.848 43.9867 155.675 44.2236C155.502 44.4606 155.367 44.75 155.271 45.0918C155.176 45.4336 155.128 45.8278 155.128 46.2744V46.5615C155.128 46.9124 155.176 47.2428 155.271 47.5527C155.372 47.8581 155.515 48.127 155.702 48.3594C155.894 48.5918 156.124 48.7741 156.393 48.9062C156.666 49.0384 156.976 49.1045 157.322 49.1045C157.769 49.1045 158.147 49.0133 158.457 48.8311C158.767 48.6488 159.038 48.4049 159.271 48.0996L160.036 48.708C159.877 48.9495 159.674 49.1797 159.428 49.3984C159.182 49.6172 158.879 49.7949 158.519 49.9316C158.163 50.0684 157.742 50.1367 157.254 50.1367ZM162.873 44.0254V52.8438H161.602V42.6035H162.764L162.873 44.0254ZM167.856 46.2402V46.3838C167.856 46.9215 167.793 47.4206 167.665 47.8809C167.537 48.3366 167.351 48.7331 167.104 49.0703C166.863 49.4076 166.564 49.6696 166.209 49.8564C165.854 50.0433 165.446 50.1367 164.985 50.1367C164.516 50.1367 164.101 50.0592 163.741 49.9043C163.381 49.7493 163.076 49.5238 162.825 49.2275C162.575 48.9313 162.374 48.5758 162.224 48.1611C162.078 47.7464 161.978 47.2793 161.923 46.7598V45.9941C161.978 45.4473 162.08 44.9574 162.23 44.5244C162.381 44.0915 162.579 43.7223 162.825 43.417C163.076 43.1071 163.379 42.8724 163.734 42.7129C164.09 42.5488 164.5 42.4668 164.965 42.4668C165.43 42.4668 165.842 42.5579 166.202 42.7402C166.562 42.918 166.865 43.1732 167.111 43.5059C167.357 43.8385 167.542 44.2373 167.665 44.7021C167.793 45.1624 167.856 45.6751 167.856 46.2402ZM166.585 46.3838V46.2402C166.585 45.8711 166.546 45.5247 166.469 45.2012C166.391 44.873 166.271 44.5859 166.106 44.3398C165.947 44.0892 165.742 43.8932 165.491 43.752C165.241 43.6061 164.942 43.5332 164.596 43.5332C164.277 43.5332 163.999 43.5879 163.762 43.6973C163.529 43.8066 163.331 43.9548 163.167 44.1416C163.003 44.3239 162.868 44.5335 162.764 44.7705C162.663 45.0029 162.588 45.2445 162.538 45.4951V47.2656C162.629 47.5846 162.757 47.8854 162.921 48.168C163.085 48.446 163.304 48.6715 163.577 48.8447C163.851 49.0133 164.195 49.0977 164.609 49.0977C164.951 49.0977 165.245 49.027 165.491 48.8857C165.742 48.7399 165.947 48.5417 166.106 48.291C166.271 48.0404 166.391 47.7533 166.469 47.4297C166.546 47.1016 166.585 46.7529 166.585 46.3838ZM171.938 42.6035V50H170.666V42.6035H171.938ZM174.419 42.6035V43.6289H168.232V42.6035H174.419ZM177.03 47.9971L180.441 42.6035H181.713V50H180.441V44.6064L177.03 50H175.772V42.6035H177.03V47.9971ZM192.247 46.4316V46.5752C192.247 47.0947 192.19 47.5732 192.076 48.0107C191.962 48.4437 191.791 48.8197 191.563 49.1387C191.34 49.4577 191.062 49.7061 190.729 49.8838C190.397 50.057 190.012 50.1436 189.574 50.1436C189.214 50.1436 188.897 50.0957 188.624 50C188.351 49.8997 188.118 49.7562 187.927 49.5693C187.74 49.3825 187.59 49.1592 187.476 48.8994C187.366 48.6351 187.291 48.3389 187.25 48.0107V44.7295C187.291 44.3786 187.366 44.0641 187.476 43.7861C187.59 43.5081 187.74 43.2712 187.927 43.0752C188.118 42.8792 188.348 42.7288 188.617 42.624C188.886 42.5192 189.201 42.4668 189.561 42.4668C189.916 42.4668 190.235 42.5306 190.518 42.6582C190.805 42.7812 191.055 42.959 191.27 43.1914C191.488 43.4238 191.668 43.7041 191.81 44.0322C191.955 44.3558 192.065 44.7204 192.138 45.126C192.211 45.5316 192.247 45.9668 192.247 46.4316ZM190.982 46.5752V46.4316C190.982 46.1126 190.96 45.8096 190.914 45.5225C190.873 45.2308 190.807 44.9642 190.716 44.7227C190.629 44.4766 190.515 44.2624 190.374 44.0801C190.233 43.8978 190.062 43.7565 189.861 43.6562C189.665 43.556 189.44 43.5059 189.185 43.5059C188.911 43.5059 188.683 43.54 188.501 43.6084C188.323 43.6768 188.184 43.7679 188.084 43.8818C187.984 43.9912 187.911 44.1074 187.865 44.2305V48.5166C187.92 48.6169 188 48.7126 188.104 48.8037C188.209 48.8903 188.351 48.9632 188.528 49.0225C188.706 49.0771 188.929 49.1045 189.198 49.1045C189.517 49.1045 189.788 49.0407 190.012 48.9131C190.24 48.7809 190.424 48.5986 190.565 48.3662C190.711 48.1338 190.816 47.8649 190.88 47.5596C190.948 47.2542 190.982 46.9261 190.982 46.5752ZM183.463 46.5752V46.4316C183.463 45.9668 183.499 45.5316 183.572 45.126C183.645 44.7204 183.755 44.3558 183.9 44.0322C184.046 43.7041 184.226 43.4238 184.44 43.1914C184.659 42.959 184.91 42.7812 185.192 42.6582C185.479 42.5306 185.801 42.4668 186.156 42.4668C186.507 42.4668 186.812 42.5192 187.072 42.624C187.337 42.7288 187.56 42.8792 187.742 43.0752C187.924 43.2712 188.07 43.5081 188.18 43.7861C188.289 44.0641 188.367 44.3786 188.412 44.7295V47.8809C188.371 48.2272 188.296 48.5394 188.187 48.8174C188.077 49.0954 187.931 49.3346 187.749 49.5352C187.567 49.7311 187.341 49.8815 187.072 49.9863C186.808 50.0911 186.498 50.1436 186.143 50.1436C185.705 50.1436 185.32 50.057 184.987 49.8838C184.655 49.7061 184.374 49.4577 184.146 49.1387C183.923 48.8197 183.752 48.4437 183.634 48.0107C183.52 47.5732 183.463 47.0947 183.463 46.5752ZM184.734 46.4316V46.5752C184.734 46.9261 184.764 47.2542 184.823 47.5596C184.887 47.8649 184.985 48.1338 185.117 48.3662C185.254 48.5986 185.432 48.7809 185.65 48.9131C185.869 49.0407 186.138 49.1045 186.457 49.1045C186.73 49.1045 186.956 49.0703 187.134 49.002C187.312 48.9336 187.453 48.8447 187.558 48.7354C187.662 48.626 187.742 48.512 187.797 48.3936V44.2305C187.751 44.1074 187.676 43.9912 187.571 43.8818C187.471 43.7679 187.332 43.6768 187.154 43.6084C186.977 43.54 186.749 43.5059 186.471 43.5059C186.152 43.5059 185.881 43.5833 185.657 43.7383C185.434 43.8932 185.254 44.1051 185.117 44.374C184.985 44.6429 184.887 44.9551 184.823 45.3105C184.764 45.6615 184.734 46.0352 184.734 46.4316ZM187.168 52.8438V39.5H188.439V52.8438H187.168ZM195.269 47.9971L198.68 42.6035H199.951V50H198.68V44.6064L195.269 50H194.011V42.6035H195.269V47.9971ZM203.355 42.6035V50H202.091V42.6035H203.355ZM208.209 42.6035L204.702 46.8418H202.932L202.74 45.7344H204.189L206.671 42.6035H208.209ZM206.849 50L204.128 46.6504L204.941 45.7344L208.455 50H206.849ZM213.917 48.7354V44.9277C213.917 44.6361 213.858 44.3831 213.739 44.1689C213.625 43.9502 213.452 43.7816 213.22 43.6631C212.987 43.5446 212.7 43.4854 212.358 43.4854C212.039 43.4854 211.759 43.54 211.518 43.6494C211.281 43.7588 211.094 43.9023 210.957 44.0801C210.825 44.2578 210.759 44.4492 210.759 44.6543H209.494C209.494 44.39 209.562 44.1279 209.699 43.8682C209.836 43.6084 210.032 43.3737 210.287 43.1641C210.547 42.9499 210.857 42.7812 211.217 42.6582C211.581 42.5306 211.987 42.4668 212.434 42.4668C212.971 42.4668 213.445 42.5579 213.855 42.7402C214.27 42.9225 214.594 43.1982 214.826 43.5674C215.063 43.932 215.182 44.39 215.182 44.9414V48.3867C215.182 48.6328 215.202 48.8949 215.243 49.1729C215.289 49.4508 215.355 49.6901 215.441 49.8906V50H214.122C214.058 49.8542 214.008 49.6605 213.972 49.4189C213.935 49.1729 213.917 48.945 213.917 48.7354ZM214.136 45.5156L214.149 46.4043H212.871C212.511 46.4043 212.19 46.4339 211.907 46.4932C211.625 46.5479 211.388 46.6322 211.196 46.7461C211.005 46.86 210.859 47.0036 210.759 47.1768C210.659 47.3454 210.608 47.5436 210.608 47.7715C210.608 48.0039 210.661 48.2158 210.766 48.4072C210.87 48.5986 211.028 48.7513 211.237 48.8652C211.451 48.9746 211.714 49.0293 212.023 49.0293C212.411 49.0293 212.753 48.9473 213.049 48.7832C213.345 48.6191 213.58 48.4186 213.753 48.1816C213.931 47.9447 214.026 47.7145 214.04 47.4912L214.58 48.0996C214.548 48.291 214.462 48.5029 214.32 48.7354C214.179 48.9678 213.99 49.1911 213.753 49.4053C213.521 49.6149 213.243 49.7904 212.919 49.9316C212.6 50.0684 212.24 50.1367 211.839 50.1367C211.338 50.1367 210.898 50.0387 210.52 49.8428C210.146 49.6468 209.854 49.3848 209.645 49.0566C209.439 48.724 209.337 48.3525 209.337 47.9424C209.337 47.5459 209.414 47.1973 209.569 46.8965C209.724 46.5911 209.948 46.3382 210.239 46.1377C210.531 45.9326 210.882 45.7777 211.292 45.6729C211.702 45.568 212.16 45.5156 212.666 45.5156H214.136ZM220.076 42.6035V50H218.805V42.6035H220.076ZM222.558 42.6035V43.6289H216.371V42.6035H222.558ZM228.054 48.7354V44.9277C228.054 44.6361 227.994 44.3831 227.876 44.1689C227.762 43.9502 227.589 43.7816 227.356 43.6631C227.124 43.5446 226.837 43.4854 226.495 43.4854C226.176 43.4854 225.896 43.54 225.654 43.6494C225.417 43.7588 225.23 43.9023 225.094 44.0801C224.962 44.2578 224.896 44.4492 224.896 44.6543H223.631C223.631 44.39 223.699 44.1279 223.836 43.8682C223.973 43.6084 224.169 43.3737 224.424 43.1641C224.684 42.9499 224.993 42.7812 225.354 42.6582C225.718 42.5306 226.124 42.4668 226.57 42.4668C227.108 42.4668 227.582 42.5579 227.992 42.7402C228.407 42.9225 228.73 43.1982 228.963 43.5674C229.2 43.932 229.318 44.39 229.318 44.9414V48.3867C229.318 48.6328 229.339 48.8949 229.38 49.1729C229.425 49.4508 229.492 49.6901 229.578 49.8906V50H228.259C228.195 49.8542 228.145 49.6605 228.108 49.4189C228.072 49.1729 228.054 48.945 228.054 48.7354ZM228.272 45.5156L228.286 46.4043H227.008C226.648 46.4043 226.326 46.4339 226.044 46.4932C225.761 46.5479 225.524 46.6322 225.333 46.7461C225.142 46.86 224.996 47.0036 224.896 47.1768C224.795 47.3454 224.745 47.5436 224.745 47.7715C224.745 48.0039 224.798 48.2158 224.902 48.4072C225.007 48.5986 225.164 48.7513 225.374 48.8652C225.588 48.9746 225.85 49.0293 226.16 49.0293C226.548 49.0293 226.889 48.9473 227.186 48.7832C227.482 48.6191 227.716 48.4186 227.89 48.1816C228.067 47.9447 228.163 47.7145 228.177 47.4912L228.717 48.0996C228.685 48.291 228.598 48.5029 228.457 48.7354C228.316 48.9678 228.127 49.1911 227.89 49.4053C227.657 49.6149 227.379 49.7904 227.056 49.9316C226.737 50.0684 226.377 50.1367 225.976 50.1367C225.474 50.1367 225.035 50.0387 224.656 49.8428C224.283 49.6468 223.991 49.3848 223.781 49.0566C223.576 48.724 223.474 48.3525 223.474 47.9424C223.474 47.5459 223.551 47.1973 223.706 46.8965C223.861 46.5911 224.084 46.3382 224.376 46.1377C224.668 45.9326 225.019 45.7777 225.429 45.6729C225.839 45.568 226.297 45.5156 226.803 45.5156H228.272ZM235.56 48.3184L238.075 42.6035H239.292L235.997 50H235.122L231.841 42.6035H233.058L235.56 48.3184ZM232.688 42.6035V50H231.424V42.6035H232.688ZM238.39 50V42.6035H239.661V50H238.39ZM248.131 49.0977C248.432 49.0977 248.71 49.0361 248.965 48.9131C249.22 48.79 249.43 48.6214 249.594 48.4072C249.758 48.1885 249.851 47.9401 249.874 47.6621H251.077C251.054 48.0996 250.906 48.5075 250.633 48.8857C250.364 49.2594 250.011 49.5625 249.573 49.7949C249.136 50.0228 248.655 50.1367 248.131 50.1367C247.575 50.1367 247.09 50.0387 246.675 49.8428C246.265 49.6468 245.923 49.3779 245.649 49.0361C245.381 48.6943 245.178 48.3024 245.041 47.8604C244.909 47.4137 244.843 46.9421 244.843 46.4453V46.1582C244.843 45.6615 244.909 45.1921 245.041 44.75C245.178 44.3034 245.381 43.9092 245.649 43.5674C245.923 43.2256 246.265 42.9567 246.675 42.7607C247.09 42.5648 247.575 42.4668 248.131 42.4668C248.71 42.4668 249.215 42.5853 249.648 42.8223C250.081 43.0547 250.421 43.3737 250.667 43.7793C250.918 44.1803 251.054 44.6361 251.077 45.1465H249.874C249.851 44.8411 249.765 44.5654 249.614 44.3193C249.468 44.0732 249.268 43.8773 249.013 43.7314C248.762 43.5811 248.468 43.5059 248.131 43.5059C247.743 43.5059 247.418 43.5833 247.153 43.7383C246.894 43.8887 246.686 44.0938 246.531 44.3535C246.381 44.6087 246.271 44.8936 246.203 45.208C246.139 45.5179 246.107 45.8346 246.107 46.1582V46.4453C246.107 46.7689 246.139 47.0879 246.203 47.4023C246.267 47.7168 246.374 48.0016 246.524 48.2568C246.679 48.512 246.887 48.7171 247.146 48.8721C247.411 49.0225 247.739 49.0977 248.131 49.0977ZM260.9 42.6035V43.6494H257.161V42.6035H260.9ZM257.346 42.6035V50H256.081V42.6035H257.346ZM262.021 42.6035V50H260.75V42.6035H262.021ZM263.717 46.3838V46.2266C263.717 45.6934 263.794 45.1989 263.949 44.7432C264.104 44.2829 264.327 43.8841 264.619 43.5469C264.911 43.2051 265.264 42.9408 265.679 42.7539C266.093 42.5625 266.558 42.4668 267.073 42.4668C267.593 42.4668 268.06 42.5625 268.475 42.7539C268.894 42.9408 269.249 43.2051 269.541 43.5469C269.837 43.8841 270.063 44.2829 270.218 44.7432C270.373 45.1989 270.45 45.6934 270.45 46.2266V46.3838C270.45 46.917 270.373 47.4115 270.218 47.8672C270.063 48.3229 269.837 48.7217 269.541 49.0635C269.249 49.4007 268.896 49.665 268.481 49.8564C268.071 50.0433 267.606 50.1367 267.087 50.1367C266.567 50.1367 266.1 50.0433 265.686 49.8564C265.271 49.665 264.915 49.4007 264.619 49.0635C264.327 48.7217 264.104 48.3229 263.949 47.8672C263.794 47.4115 263.717 46.917 263.717 46.3838ZM264.981 46.2266V46.3838C264.981 46.7529 265.025 47.1016 265.111 47.4297C265.198 47.7533 265.328 48.0404 265.501 48.291C265.679 48.5417 265.9 48.7399 266.164 48.8857C266.428 49.027 266.736 49.0977 267.087 49.0977C267.433 49.0977 267.736 49.027 267.996 48.8857C268.26 48.7399 268.479 48.5417 268.652 48.291C268.826 48.0404 268.955 47.7533 269.042 47.4297C269.133 47.1016 269.179 46.7529 269.179 46.3838V46.2266C269.179 45.862 269.133 45.5179 269.042 45.1943C268.955 44.8662 268.823 44.5768 268.646 44.3262C268.472 44.071 268.254 43.8704 267.989 43.7246C267.729 43.5788 267.424 43.5059 267.073 43.5059C266.727 43.5059 266.422 43.5788 266.157 43.7246C265.897 43.8704 265.679 44.071 265.501 44.3262C265.328 44.5768 265.198 44.8662 265.111 45.1943C265.025 45.5179 264.981 45.862 264.981 46.2266ZM276.288 48.3184L278.804 42.6035H280.021L276.726 50H275.851L272.569 42.6035H273.786L276.288 48.3184ZM273.417 42.6035V50H272.152V42.6035H273.417ZM279.118 50V42.6035H280.39V50H279.118ZM282.092 46.3838V46.2266C282.092 45.6934 282.169 45.1989 282.324 44.7432C282.479 44.2829 282.702 43.8841 282.994 43.5469C283.286 43.2051 283.639 42.9408 284.054 42.7539C284.468 42.5625 284.933 42.4668 285.448 42.4668C285.968 42.4668 286.435 42.5625 286.85 42.7539C287.269 42.9408 287.624 43.2051 287.916 43.5469C288.212 43.8841 288.438 44.2829 288.593 44.7432C288.748 45.1989 288.825 45.6934 288.825 46.2266V46.3838C288.825 46.917 288.748 47.4115 288.593 47.8672C288.438 48.3229 288.212 48.7217 287.916 49.0635C287.624 49.4007 287.271 49.665 286.856 49.8564C286.446 50.0433 285.981 50.1367 285.462 50.1367C284.942 50.1367 284.475 50.0433 284.061 49.8564C283.646 49.665 283.29 49.4007 282.994 49.0635C282.702 48.7217 282.479 48.3229 282.324 47.8672C282.169 47.4115 282.092 46.917 282.092 46.3838ZM283.356 46.2266V46.3838C283.356 46.7529 283.4 47.1016 283.486 47.4297C283.573 47.7533 283.703 48.0404 283.876 48.291C284.054 48.5417 284.275 48.7399 284.539 48.8857C284.803 49.027 285.111 49.0977 285.462 49.0977C285.808 49.0977 286.111 49.027 286.371 48.8857C286.635 48.7399 286.854 48.5417 287.027 48.291C287.201 48.0404 287.33 47.7533 287.417 47.4297C287.508 47.1016 287.554 46.7529 287.554 46.3838V46.2266C287.554 45.862 287.508 45.5179 287.417 45.1943C287.33 44.8662 287.198 44.5768 287.021 44.3262C286.847 44.071 286.629 43.8704 286.364 43.7246C286.104 43.5788 285.799 43.5059 285.448 43.5059C285.102 43.5059 284.797 43.5788 284.532 43.7246C284.272 43.8704 284.054 44.071 283.876 44.3262C283.703 44.5768 283.573 44.8662 283.486 45.1943C283.4 45.5179 283.356 45.862 283.356 46.2266ZM300.692 48.9609L300.569 52.1943H299.441V50H298.478V48.9609H300.692ZM290.445 42.6035H291.71V48.9609H294.417V42.6035H295.688V48.9609H298.389V42.6035H299.653V50H290.445V42.6035ZM303.044 45.1465H305.266C305.863 45.1465 306.366 45.2513 306.776 45.4609C307.187 45.666 307.496 45.9508 307.706 46.3154C307.92 46.6755 308.027 47.0856 308.027 47.5459C308.027 47.8877 307.968 48.209 307.85 48.5098C307.731 48.806 307.553 49.0658 307.316 49.2891C307.084 49.5124 306.795 49.6878 306.448 49.8154C306.106 49.9385 305.712 50 305.266 50H302.121V42.6035H303.386V48.9609H305.266C305.63 48.9609 305.922 48.8949 306.141 48.7627C306.359 48.6305 306.517 48.4596 306.612 48.25C306.708 48.0404 306.756 47.8216 306.756 47.5938C306.756 47.3704 306.708 47.1517 306.612 46.9375C306.517 46.7233 306.359 46.5456 306.141 46.4043C305.922 46.2585 305.63 46.1855 305.266 46.1855H303.044V45.1465ZM313.817 45.7412V46.7734H309.887V45.7412H313.817ZM310.987 42.6035V50H309.723V42.6035H310.987ZM312.737 46.3838V46.2266C312.737 45.6934 312.815 45.1989 312.97 44.7432C313.125 44.2829 313.348 43.8841 313.64 43.5469C313.936 43.2051 314.289 42.9408 314.699 42.7539C315.114 42.5625 315.579 42.4668 316.094 42.4668C316.618 42.4668 317.087 42.5625 317.502 42.7539C317.917 42.9408 318.27 43.2051 318.562 43.5469C318.858 43.8841 319.083 44.2829 319.238 44.7432C319.393 45.1989 319.471 45.6934 319.471 46.2266V46.3838C319.471 46.917 319.393 47.4115 319.238 47.8672C319.083 48.3229 318.86 48.7217 318.568 49.0635C318.277 49.4007 317.924 49.665 317.509 49.8564C317.094 50.0433 316.627 50.1367 316.107 50.1367C315.588 50.1367 315.121 50.0433 314.706 49.8564C314.291 49.665 313.936 49.4007 313.64 49.0635C313.348 48.7217 313.125 48.3229 312.97 47.8672C312.815 47.4115 312.737 46.917 312.737 46.3838ZM314.009 46.2266V46.3838C314.009 46.7529 314.052 47.1016 314.139 47.4297C314.225 47.7533 314.355 48.0404 314.528 48.291C314.706 48.5417 314.925 48.7399 315.185 48.8857C315.449 49.027 315.757 49.0977 316.107 49.0977C316.458 49.0977 316.764 49.027 317.023 48.8857C317.288 48.7399 317.507 48.5417 317.68 48.291C317.853 48.0404 317.983 47.7533 318.069 47.4297C318.16 47.1016 318.206 46.7529 318.206 46.3838V46.2266C318.206 45.862 318.16 45.5179 318.069 45.1943C317.983 44.8662 317.851 44.5768 317.673 44.3262C317.5 44.071 317.281 43.8704 317.017 43.7246C316.752 43.5788 316.445 43.5059 316.094 43.5059C315.747 43.5059 315.444 43.5788 315.185 43.7246C314.925 43.8704 314.706 44.071 314.528 44.3262C314.355 44.5768 314.225 44.8662 314.139 45.1943C314.052 45.5179 314.009 45.862 314.009 46.2266ZM89.3252 64.7354V60.9277C89.3252 60.6361 89.266 60.3831 89.1475 60.1689C89.0335 59.9502 88.8604 59.7816 88.6279 59.6631C88.3955 59.5446 88.1084 59.4854 87.7666 59.4854C87.4476 59.4854 87.1673 59.54 86.9258 59.6494C86.6888 59.7588 86.502 59.9023 86.3652 60.0801C86.2331 60.2578 86.167 60.4492 86.167 60.6543H84.9023C84.9023 60.39 84.9707 60.1279 85.1074 59.8682C85.2441 59.6084 85.4401 59.3737 85.6953 59.1641C85.9551 58.9499 86.265 58.7812 86.625 58.6582C86.9896 58.5306 87.3952 58.4668 87.8418 58.4668C88.3796 58.4668 88.8535 58.5579 89.2637 58.7402C89.6784 58.9225 90.002 59.1982 90.2344 59.5674C90.4714 59.932 90.5898 60.39 90.5898 60.9414V64.3867C90.5898 64.6328 90.6104 64.8949 90.6514 65.1729C90.6969 65.4508 90.763 65.6901 90.8496 65.8906V66H89.5303C89.4665 65.8542 89.4163 65.6605 89.3799 65.4189C89.3434 65.1729 89.3252 64.945 89.3252 64.7354ZM89.5439 61.5156L89.5576 62.4043H88.2793C87.9193 62.4043 87.598 62.4339 87.3154 62.4932C87.0329 62.5479 86.7959 62.6322 86.6045 62.7461C86.4131 62.86 86.2673 63.0036 86.167 63.1768C86.0667 63.3454 86.0166 63.5436 86.0166 63.7715C86.0166 64.0039 86.069 64.2158 86.1738 64.4072C86.2786 64.5986 86.4359 64.7513 86.6455 64.8652C86.8597 64.9746 87.1217 65.0293 87.4316 65.0293C87.819 65.0293 88.1608 64.9473 88.457 64.7832C88.7533 64.6191 88.988 64.4186 89.1611 64.1816C89.3389 63.9447 89.4346 63.7145 89.4482 63.4912L89.9883 64.0996C89.9564 64.291 89.8698 64.5029 89.7285 64.7354C89.5872 64.9678 89.3981 65.1911 89.1611 65.4053C88.9287 65.6149 88.6507 65.7904 88.3271 65.9316C88.0081 66.0684 87.6481 66.1367 87.2471 66.1367C86.7458 66.1367 86.306 66.0387 85.9277 65.8428C85.554 65.6468 85.2624 65.3848 85.0527 65.0566C84.8477 64.724 84.7451 64.3525 84.7451 63.9424C84.7451 63.5459 84.8226 63.1973 84.9775 62.8965C85.1325 62.5911 85.3558 62.3382 85.6475 62.1377C85.9391 61.9326 86.29 61.7777 86.7002 61.6729C87.1104 61.568 87.5684 61.5156 88.0742 61.5156H89.5439ZM96.0518 62.7461H93.625L93.6113 61.7344H95.5938C95.9857 61.7344 96.3115 61.6956 96.5713 61.6182C96.8356 61.5407 97.0339 61.4245 97.166 61.2695C97.2982 61.1146 97.3643 60.9232 97.3643 60.6953C97.3643 60.5176 97.3255 60.3626 97.248 60.2305C97.1751 60.0938 97.0635 59.9821 96.9131 59.8955C96.7627 59.8044 96.5758 59.7383 96.3525 59.6973C96.1338 59.6517 95.8763 59.6289 95.5801 59.6289H93.96V66H92.6953V58.6035H95.5801C96.0495 58.6035 96.471 58.6445 96.8447 58.7266C97.223 58.8086 97.5443 58.9339 97.8086 59.1025C98.0775 59.2666 98.2826 59.4762 98.4238 59.7314C98.5651 59.9867 98.6357 60.2874 98.6357 60.6338C98.6357 60.8571 98.5902 61.069 98.499 61.2695C98.4079 61.4701 98.2734 61.6478 98.0957 61.8027C97.918 61.9577 97.6992 62.0853 97.4395 62.1855C97.1797 62.2812 96.8812 62.3428 96.5439 62.3701L96.0518 62.7461ZM96.0518 66H93.167L93.7959 64.9746H96.0518C96.4027 64.9746 96.6943 64.9313 96.9268 64.8447C97.1592 64.7536 97.3324 64.626 97.4463 64.4619C97.5648 64.2933 97.624 64.0928 97.624 63.8604C97.624 63.6279 97.5648 63.4297 97.4463 63.2656C97.3324 63.097 97.1592 62.9694 96.9268 62.8828C96.6943 62.7917 96.4027 62.7461 96.0518 62.7461H94.1309L94.1445 61.7344H96.5439L97.002 62.1172C97.4076 62.1491 97.7516 62.2493 98.0342 62.418C98.3167 62.5866 98.5309 62.8008 98.6768 63.0605C98.8226 63.3158 98.8955 63.5938 98.8955 63.8945C98.8955 64.2409 98.8294 64.5462 98.6973 64.8105C98.5697 65.0749 98.3828 65.2959 98.1367 65.4736C97.8906 65.6468 97.5921 65.779 97.2412 65.8701C96.8903 65.9567 96.4938 66 96.0518 66ZM103.523 58.6035V66H102.252V58.6035H103.523ZM106.005 58.6035V59.6289H99.8184V58.6035H106.005ZM106.627 62.3838V62.2266C106.627 61.6934 106.704 61.1989 106.859 60.7432C107.014 60.2829 107.238 59.8841 107.529 59.5469C107.821 59.2051 108.174 58.9408 108.589 58.7539C109.004 58.5625 109.468 58.4668 109.983 58.4668C110.503 58.4668 110.97 58.5625 111.385 58.7539C111.804 58.9408 112.16 59.2051 112.451 59.5469C112.747 59.8841 112.973 60.2829 113.128 60.7432C113.283 61.1989 113.36 61.6934 113.36 62.2266V62.3838C113.36 62.917 113.283 63.4115 113.128 63.8672C112.973 64.3229 112.747 64.7217 112.451 65.0635C112.16 65.4007 111.806 65.665 111.392 65.8564C110.981 66.0433 110.517 66.1367 109.997 66.1367C109.478 66.1367 109.01 66.0433 108.596 65.8564C108.181 65.665 107.826 65.4007 107.529 65.0635C107.238 64.7217 107.014 64.3229 106.859 63.8672C106.704 63.4115 106.627 62.917 106.627 62.3838ZM107.892 62.2266V62.3838C107.892 62.7529 107.935 63.1016 108.021 63.4297C108.108 63.7533 108.238 64.0404 108.411 64.291C108.589 64.5417 108.81 64.7399 109.074 64.8857C109.339 65.027 109.646 65.0977 109.997 65.0977C110.343 65.0977 110.646 65.027 110.906 64.8857C111.171 64.7399 111.389 64.5417 111.562 64.291C111.736 64.0404 111.866 63.7533 111.952 63.4297C112.043 63.1016 112.089 62.7529 112.089 62.3838V62.2266C112.089 61.862 112.043 61.5179 111.952 61.1943C111.866 60.8662 111.733 60.5768 111.556 60.3262C111.382 60.071 111.164 59.8704 110.899 59.7246C110.64 59.5788 110.334 59.5059 109.983 59.5059C109.637 59.5059 109.332 59.5788 109.067 59.7246C108.808 59.8704 108.589 60.071 108.411 60.3262C108.238 60.5768 108.108 60.8662 108.021 61.1943C107.935 61.5179 107.892 61.862 107.892 62.2266ZM116.211 60.0254V68.8438H114.939V58.6035H116.102L116.211 60.0254ZM121.194 62.2402V62.3838C121.194 62.9215 121.131 63.4206 121.003 63.8809C120.875 64.3366 120.688 64.7331 120.442 65.0703C120.201 65.4076 119.902 65.6696 119.547 65.8564C119.191 66.0433 118.784 66.1367 118.323 66.1367C117.854 66.1367 117.439 66.0592 117.079 65.9043C116.719 65.7493 116.414 65.5238 116.163 65.2275C115.912 64.9313 115.712 64.5758 115.562 64.1611C115.416 63.7464 115.315 63.2793 115.261 62.7598V61.9941C115.315 61.4473 115.418 60.9574 115.568 60.5244C115.719 60.0915 115.917 59.7223 116.163 59.417C116.414 59.1071 116.717 58.8724 117.072 58.7129C117.428 58.5488 117.838 58.4668 118.303 58.4668C118.768 58.4668 119.18 58.5579 119.54 58.7402C119.9 58.918 120.203 59.1732 120.449 59.5059C120.695 59.8385 120.88 60.2373 121.003 60.7021C121.131 61.1624 121.194 61.6751 121.194 62.2402ZM119.923 62.3838V62.2402C119.923 61.8711 119.884 61.5247 119.807 61.2012C119.729 60.873 119.608 60.5859 119.444 60.3398C119.285 60.0892 119.08 59.8932 118.829 59.752C118.578 59.6061 118.28 59.5332 117.934 59.5332C117.615 59.5332 117.337 59.5879 117.1 59.6973C116.867 59.8066 116.669 59.9548 116.505 60.1416C116.341 60.3239 116.206 60.5335 116.102 60.7705C116.001 61.0029 115.926 61.2445 115.876 61.4951V63.2656C115.967 63.5846 116.095 63.8854 116.259 64.168C116.423 64.446 116.642 64.6715 116.915 64.8447C117.188 65.0133 117.533 65.0977 117.947 65.0977C118.289 65.0977 118.583 65.027 118.829 64.8857C119.08 64.7399 119.285 64.5417 119.444 64.291C119.608 64.0404 119.729 63.7533 119.807 63.4297C119.884 63.1016 119.923 62.7529 119.923 62.3838ZM124.175 63.9971L127.586 58.6035H128.857V66H127.586V60.6064L124.175 66H122.917V58.6035H124.175V63.9971ZM133.649 62.4658H132.289V61.6865H133.547C133.898 61.6865 134.176 61.6432 134.381 61.5566C134.586 61.4655 134.732 61.3402 134.818 61.1807C134.905 61.0212 134.948 60.8343 134.948 60.6201C134.948 60.4287 134.898 60.2487 134.798 60.0801C134.702 59.9069 134.547 59.7679 134.333 59.6631C134.119 59.5537 133.832 59.499 133.472 59.499C133.18 59.499 132.916 59.5514 132.679 59.6562C132.442 59.7565 132.253 59.8955 132.111 60.0732C131.975 60.2464 131.906 60.4424 131.906 60.6611H130.642C130.642 60.21 130.769 59.8226 131.024 59.499C131.284 59.1709 131.628 58.918 132.057 58.7402C132.49 58.5625 132.961 58.4736 133.472 58.4736C133.9 58.4736 134.283 58.5215 134.62 58.6172C134.962 58.7083 135.251 58.8451 135.488 59.0273C135.725 59.2051 135.905 59.4284 136.028 59.6973C136.156 59.9616 136.22 60.2692 136.22 60.6201C136.22 60.8708 136.16 61.1077 136.042 61.3311C135.924 61.5544 135.753 61.7526 135.529 61.9258C135.306 62.0944 135.035 62.2266 134.716 62.3223C134.401 62.418 134.046 62.4658 133.649 62.4658ZM132.289 61.9873H133.649C134.091 61.9873 134.481 62.0306 134.818 62.1172C135.156 62.1992 135.438 62.3223 135.666 62.4863C135.894 62.6504 136.065 62.8532 136.179 63.0947C136.297 63.3317 136.356 63.6051 136.356 63.915C136.356 64.2614 136.286 64.5736 136.145 64.8516C136.008 65.125 135.812 65.3574 135.557 65.5488C135.301 65.7402 134.996 65.8861 134.641 65.9863C134.29 66.0866 133.9 66.1367 133.472 66.1367C132.993 66.1367 132.528 66.0547 132.077 65.8906C131.626 65.7266 131.255 65.4736 130.963 65.1318C130.671 64.7855 130.525 64.3457 130.525 63.8125H131.79C131.79 64.0358 131.861 64.2477 132.002 64.4482C132.143 64.6488 132.339 64.8105 132.59 64.9336C132.845 65.0566 133.139 65.1182 133.472 65.1182C133.827 65.1182 134.123 65.0635 134.36 64.9541C134.597 64.8447 134.775 64.6989 134.894 64.5166C135.017 64.3343 135.078 64.1361 135.078 63.9219C135.078 63.6439 135.023 63.4206 134.914 63.252C134.805 63.0833 134.636 62.9603 134.408 62.8828C134.185 62.8008 133.898 62.7598 133.547 62.7598H132.289V61.9873ZM142.358 64.7354V60.9277C142.358 60.6361 142.299 60.3831 142.181 60.1689C142.067 59.9502 141.894 59.7816 141.661 59.6631C141.429 59.5446 141.142 59.4854 140.8 59.4854C140.481 59.4854 140.201 59.54 139.959 59.6494C139.722 59.7588 139.535 59.9023 139.398 60.0801C139.266 60.2578 139.2 60.4492 139.2 60.6543H137.936C137.936 60.39 138.004 60.1279 138.141 59.8682C138.277 59.6084 138.473 59.3737 138.729 59.1641C138.988 58.9499 139.298 58.7812 139.658 58.6582C140.023 58.5306 140.428 58.4668 140.875 58.4668C141.413 58.4668 141.887 58.5579 142.297 58.7402C142.712 58.9225 143.035 59.1982 143.268 59.5674C143.505 59.932 143.623 60.39 143.623 60.9414V64.3867C143.623 64.6328 143.644 64.8949 143.685 65.1729C143.73 65.4508 143.796 65.6901 143.883 65.8906V66H142.563C142.5 65.8542 142.45 65.6605 142.413 65.4189C142.377 65.1729 142.358 64.945 142.358 64.7354ZM142.577 61.5156L142.591 62.4043H141.312C140.952 62.4043 140.631 62.4339 140.349 62.4932C140.066 62.5479 139.829 62.6322 139.638 62.7461C139.446 62.86 139.3 63.0036 139.2 63.1768C139.1 63.3454 139.05 63.5436 139.05 63.7715C139.05 64.0039 139.102 64.2158 139.207 64.4072C139.312 64.5986 139.469 64.7513 139.679 64.8652C139.893 64.9746 140.155 65.0293 140.465 65.0293C140.852 65.0293 141.194 64.9473 141.49 64.7832C141.786 64.6191 142.021 64.4186 142.194 64.1816C142.372 63.9447 142.468 63.7145 142.481 63.4912L143.021 64.0996C142.99 64.291 142.903 64.5029 142.762 64.7354C142.62 64.9678 142.431 65.1911 142.194 65.4053C141.962 65.6149 141.684 65.7904 141.36 65.9316C141.041 66.0684 140.681 66.1367 140.28 66.1367C139.779 66.1367 139.339 66.0387 138.961 65.8428C138.587 65.6468 138.296 65.3848 138.086 65.0566C137.881 64.724 137.778 64.3525 137.778 63.9424C137.778 63.5459 137.856 63.1973 138.011 62.8965C138.166 62.5911 138.389 62.3382 138.681 62.1377C138.972 61.9326 139.323 61.7777 139.733 61.6729C140.144 61.568 140.602 61.5156 141.107 61.5156H142.577ZM145.722 66V58.6035H146.986V64.9609H150.391V58.6035H151.662V66H145.722ZM152.537 64.9609L152.414 68.1943H151.286V66H150.322V64.9609H152.537ZM155.278 63.9971L158.689 58.6035H159.961V66H158.689V60.6064L155.278 66H154.021V58.6035H155.278V63.9971ZM163.358 63.9971L166.77 58.6035H168.041V66H166.77V60.6064L163.358 66H162.101V58.6035H163.358V63.9971ZM178.473 58.6035V59.6494H174.733V58.6035H178.473ZM174.918 58.6035V66H173.653V58.6035H174.918ZM179.594 58.6035V66H178.322V58.6035H179.594ZM181.289 62.3838V62.2266C181.289 61.6934 181.367 61.1989 181.521 60.7432C181.676 60.2829 181.9 59.8841 182.191 59.5469C182.483 59.2051 182.836 58.9408 183.251 58.7539C183.666 58.5625 184.131 58.4668 184.646 58.4668C185.165 58.4668 185.632 58.5625 186.047 58.7539C186.466 58.9408 186.822 59.2051 187.113 59.5469C187.41 59.8841 187.635 60.2829 187.79 60.7432C187.945 61.1989 188.022 61.6934 188.022 62.2266V62.3838C188.022 62.917 187.945 63.4115 187.79 63.8672C187.635 64.3229 187.41 64.7217 187.113 65.0635C186.822 65.4007 186.468 65.665 186.054 65.8564C185.644 66.0433 185.179 66.1367 184.659 66.1367C184.14 66.1367 183.673 66.0433 183.258 65.8564C182.843 65.665 182.488 65.4007 182.191 65.0635C181.9 64.7217 181.676 64.3229 181.521 63.8672C181.367 63.4115 181.289 62.917 181.289 62.3838ZM182.554 62.2266V62.3838C182.554 62.7529 182.597 63.1016 182.684 63.4297C182.77 63.7533 182.9 64.0404 183.073 64.291C183.251 64.5417 183.472 64.7399 183.736 64.8857C184.001 65.027 184.308 65.0977 184.659 65.0977C185.006 65.0977 185.309 65.027 185.568 64.8857C185.833 64.7399 186.051 64.5417 186.225 64.291C186.398 64.0404 186.528 63.7533 186.614 63.4297C186.705 63.1016 186.751 62.7529 186.751 62.3838V62.2266C186.751 61.862 186.705 61.5179 186.614 61.1943C186.528 60.8662 186.396 60.5768 186.218 60.3262C186.045 60.071 185.826 59.8704 185.562 59.7246C185.302 59.5788 184.996 59.5059 184.646 59.5059C184.299 59.5059 183.994 59.5788 183.729 59.7246C183.47 59.8704 183.251 60.071 183.073 60.3262C182.9 60.5768 182.77 60.8662 182.684 61.1943C182.597 61.5179 182.554 61.862 182.554 62.2266ZM196.096 58.6035V66H194.824V58.6035H196.096ZM198.577 58.6035V59.6289H192.391V58.6035H198.577ZM202.344 66.1367C201.829 66.1367 201.362 66.0501 200.942 65.877C200.528 65.6992 200.17 65.4508 199.869 65.1318C199.573 64.8128 199.345 64.4346 199.186 63.9971C199.026 63.5596 198.946 63.0811 198.946 62.5615V62.2744C198.946 61.6729 199.035 61.1374 199.213 60.668C199.391 60.194 199.632 59.793 199.938 59.4648C200.243 59.1367 200.589 58.8883 200.977 58.7197C201.364 58.5511 201.765 58.4668 202.18 58.4668C202.708 58.4668 203.164 58.5579 203.547 58.7402C203.934 58.9225 204.251 59.1777 204.497 59.5059C204.743 59.8294 204.925 60.2122 205.044 60.6543C205.162 61.0918 205.222 61.5703 205.222 62.0898V62.6572H199.698V61.625H203.957V61.5293C203.939 61.2012 203.87 60.8822 203.752 60.5723C203.638 60.2624 203.456 60.0072 203.205 59.8066C202.954 59.6061 202.613 59.5059 202.18 59.5059C201.893 59.5059 201.628 59.5674 201.387 59.6904C201.145 59.8089 200.938 59.9867 200.765 60.2236C200.591 60.4606 200.457 60.75 200.361 61.0918C200.266 61.4336 200.218 61.8278 200.218 62.2744V62.5615C200.218 62.9124 200.266 63.2428 200.361 63.5527C200.462 63.8581 200.605 64.127 200.792 64.3594C200.983 64.5918 201.214 64.7741 201.482 64.9062C201.756 65.0384 202.066 65.1045 202.412 65.1045C202.859 65.1045 203.237 65.0133 203.547 64.8311C203.857 64.6488 204.128 64.4049 204.36 64.0996L205.126 64.708C204.966 64.9495 204.764 65.1797 204.518 65.3984C204.271 65.6172 203.968 65.7949 203.608 65.9316C203.253 66.0684 202.831 66.1367 202.344 66.1367ZM211.641 58.6035V59.6494H208.065V58.6035H211.641ZM212.755 58.6035V66H211.49V58.6035H212.755ZM207.758 58.6035H209.029L208.838 62.1719C208.806 62.7233 208.754 63.2109 208.681 63.6348C208.612 64.054 208.517 64.4141 208.394 64.7148C208.275 65.0156 208.125 65.2617 207.942 65.4531C207.765 65.64 207.55 65.779 207.3 65.8701C207.049 65.9567 206.76 66 206.432 66H206.035V64.8857L206.309 64.8652C206.505 64.8516 206.671 64.806 206.808 64.7285C206.949 64.651 207.067 64.5371 207.163 64.3867C207.259 64.2318 207.336 64.0335 207.396 63.792C207.459 63.5505 207.507 63.2633 207.539 62.9307C207.576 62.598 207.603 62.2106 207.621 61.7686L207.758 58.6035ZM217.861 66.1367C217.346 66.1367 216.879 66.0501 216.46 65.877C216.045 65.6992 215.688 65.4508 215.387 65.1318C215.09 64.8128 214.863 64.4346 214.703 63.9971C214.544 63.5596 214.464 63.0811 214.464 62.5615V62.2744C214.464 61.6729 214.553 61.1374 214.73 60.668C214.908 60.194 215.15 59.793 215.455 59.4648C215.76 59.1367 216.107 58.8883 216.494 58.7197C216.882 58.5511 217.283 58.4668 217.697 58.4668C218.226 58.4668 218.682 58.5579 219.064 58.7402C219.452 58.9225 219.769 59.1777 220.015 59.5059C220.261 59.8294 220.443 60.2122 220.562 60.6543C220.68 61.0918 220.739 61.5703 220.739 62.0898V62.6572H215.216V61.625H219.475V61.5293C219.456 61.2012 219.388 60.8822 219.27 60.5723C219.156 60.2624 218.973 60.0072 218.723 59.8066C218.472 59.6061 218.13 59.5059 217.697 59.5059C217.41 59.5059 217.146 59.5674 216.904 59.6904C216.663 59.8089 216.455 59.9867 216.282 60.2236C216.109 60.4606 215.975 60.75 215.879 61.0918C215.783 61.4336 215.735 61.8278 215.735 62.2744V62.5615C215.735 62.9124 215.783 63.2428 215.879 63.5527C215.979 63.8581 216.123 64.127 216.31 64.3594C216.501 64.5918 216.731 64.7741 217 64.9062C217.273 65.0384 217.583 65.1045 217.93 65.1045C218.376 65.1045 218.755 65.0133 219.064 64.8311C219.374 64.6488 219.646 64.4049 219.878 64.0996L220.644 64.708C220.484 64.9495 220.281 65.1797 220.035 65.3984C219.789 65.6172 219.486 65.7949 219.126 65.9316C218.771 66.0684 218.349 66.1367 217.861 66.1367ZM230.72 62.4316V62.5752C230.72 63.0947 230.663 63.5732 230.549 64.0107C230.435 64.4437 230.264 64.8197 230.036 65.1387C229.813 65.4577 229.535 65.7061 229.202 65.8838C228.869 66.057 228.484 66.1436 228.047 66.1436C227.687 66.1436 227.37 66.0957 227.097 66C226.823 65.8997 226.591 65.7562 226.399 65.5693C226.213 65.3825 226.062 65.1592 225.948 64.8994C225.839 64.6351 225.764 64.3389 225.723 64.0107V60.7295C225.764 60.3786 225.839 60.0641 225.948 59.7861C226.062 59.5081 226.213 59.2712 226.399 59.0752C226.591 58.8792 226.821 58.7288 227.09 58.624C227.359 58.5192 227.673 58.4668 228.033 58.4668C228.389 58.4668 228.708 58.5306 228.99 58.6582C229.277 58.7812 229.528 58.959 229.742 59.1914C229.961 59.4238 230.141 59.7041 230.282 60.0322C230.428 60.3558 230.537 60.7204 230.61 61.126C230.683 61.5316 230.72 61.9668 230.72 62.4316ZM229.455 62.5752V62.4316C229.455 62.1126 229.432 61.8096 229.387 61.5225C229.346 61.2308 229.28 60.9642 229.188 60.7227C229.102 60.4766 228.988 60.2624 228.847 60.0801C228.705 59.8978 228.535 59.7565 228.334 59.6562C228.138 59.556 227.912 59.5059 227.657 59.5059C227.384 59.5059 227.156 59.54 226.974 59.6084C226.796 59.6768 226.657 59.7679 226.557 59.8818C226.456 59.9912 226.383 60.1074 226.338 60.2305V64.5166C226.393 64.6169 226.472 64.7126 226.577 64.8037C226.682 64.8903 226.823 64.9632 227.001 65.0225C227.179 65.0771 227.402 65.1045 227.671 65.1045C227.99 65.1045 228.261 65.0407 228.484 64.9131C228.712 64.7809 228.897 64.5986 229.038 64.3662C229.184 64.1338 229.289 63.8649 229.353 63.5596C229.421 63.2542 229.455 62.9261 229.455 62.5752ZM221.936 62.5752V62.4316C221.936 61.9668 221.972 61.5316 222.045 61.126C222.118 60.7204 222.227 60.3558 222.373 60.0322C222.519 59.7041 222.699 59.4238 222.913 59.1914C223.132 58.959 223.382 58.7812 223.665 58.6582C223.952 58.5306 224.273 58.4668 224.629 58.4668C224.98 58.4668 225.285 58.5192 225.545 58.624C225.809 58.7288 226.033 58.8792 226.215 59.0752C226.397 59.2712 226.543 59.5081 226.652 59.7861C226.762 60.0641 226.839 60.3786 226.885 60.7295V63.8809C226.844 64.2272 226.769 64.5394 226.659 64.8174C226.55 65.0954 226.404 65.3346 226.222 65.5352C226.039 65.7311 225.814 65.8815 225.545 65.9863C225.281 66.0911 224.971 66.1436 224.615 66.1436C224.178 66.1436 223.793 66.057 223.46 65.8838C223.127 65.7061 222.847 65.4577 222.619 65.1387C222.396 64.8197 222.225 64.4437 222.106 64.0107C221.993 63.5732 221.936 63.0947 221.936 62.5752ZM223.207 62.4316V62.5752C223.207 62.9261 223.237 63.2542 223.296 63.5596C223.36 63.8649 223.458 64.1338 223.59 64.3662C223.727 64.5986 223.904 64.7809 224.123 64.9131C224.342 65.0407 224.611 65.1045 224.93 65.1045C225.203 65.1045 225.429 65.0703 225.606 65.002C225.784 64.9336 225.925 64.8447 226.03 64.7354C226.135 64.626 226.215 64.512 226.27 64.3936V60.2305C226.224 60.1074 226.149 59.9912 226.044 59.8818C225.944 59.7679 225.805 59.6768 225.627 59.6084C225.449 59.54 225.221 59.5059 224.943 59.5059C224.624 59.5059 224.353 59.5833 224.13 59.7383C223.907 59.8932 223.727 60.1051 223.59 60.374C223.458 60.6429 223.36 60.9551 223.296 61.3105C223.237 61.6615 223.207 62.0352 223.207 62.4316ZM225.641 68.8438V55.5H226.912V68.8438H225.641ZM232.039 62.3838V62.2266C232.039 61.6934 232.117 61.1989 232.271 60.7432C232.426 60.2829 232.65 59.8841 232.941 59.5469C233.233 59.2051 233.586 58.9408 234.001 58.7539C234.416 58.5625 234.881 58.4668 235.396 58.4668C235.915 58.4668 236.382 58.5625 236.797 58.7539C237.216 58.9408 237.572 59.2051 237.863 59.5469C238.16 59.8841 238.385 60.2829 238.54 60.7432C238.695 61.1989 238.772 61.6934 238.772 62.2266V62.3838C238.772 62.917 238.695 63.4115 238.54 63.8672C238.385 64.3229 238.16 64.7217 237.863 65.0635C237.572 65.4007 237.218 65.665 236.804 65.8564C236.394 66.0433 235.929 66.1367 235.409 66.1367C234.89 66.1367 234.423 66.0433 234.008 65.8564C233.593 65.665 233.238 65.4007 232.941 65.0635C232.65 64.7217 232.426 64.3229 232.271 63.8672C232.117 63.4115 232.039 62.917 232.039 62.3838ZM233.304 62.2266V62.3838C233.304 62.7529 233.347 63.1016 233.434 63.4297C233.52 63.7533 233.65 64.0404 233.823 64.291C234.001 64.5417 234.222 64.7399 234.486 64.8857C234.751 65.027 235.058 65.0977 235.409 65.0977C235.756 65.0977 236.059 65.027 236.318 64.8857C236.583 64.7399 236.801 64.5417 236.975 64.291C237.148 64.0404 237.278 63.7533 237.364 63.4297C237.455 63.1016 237.501 62.7529 237.501 62.3838V62.2266C237.501 61.862 237.455 61.5179 237.364 61.1943C237.278 60.8662 237.146 60.5768 236.968 60.3262C236.795 60.071 236.576 59.8704 236.312 59.7246C236.052 59.5788 235.746 59.5059 235.396 59.5059C235.049 59.5059 234.744 59.5788 234.479 59.7246C234.22 59.8704 234.001 60.071 233.823 60.3262C233.65 60.5768 233.52 60.8662 233.434 61.1943C233.347 61.5179 233.304 61.862 233.304 62.2266ZM245.376 61.8096V62.835H241.466V61.8096H245.376ZM241.732 58.6035V66H240.468V58.6035H241.732ZM246.401 58.6035V66H245.13V58.6035H246.401ZM250.517 65.2344L252.574 58.6035H253.928L250.961 67.1416C250.893 67.3239 250.801 67.5199 250.688 67.7295C250.578 67.9437 250.437 68.1465 250.264 68.3379C250.09 68.5293 249.881 68.6842 249.635 68.8027C249.393 68.9258 249.104 68.9873 248.767 68.9873C248.666 68.9873 248.539 68.9736 248.384 68.9463C248.229 68.9189 248.119 68.8962 248.056 68.8779L248.049 67.8525C248.085 67.8571 248.142 67.8617 248.22 67.8662C248.302 67.8753 248.359 67.8799 248.391 67.8799C248.678 67.8799 248.922 67.8411 249.122 67.7637C249.323 67.6908 249.491 67.5654 249.628 67.3877C249.769 67.2145 249.89 66.9753 249.99 66.6699L250.517 65.2344ZM249.006 58.6035L250.927 64.3457L251.255 65.6787L250.346 66.1436L247.625 58.6035H249.006ZM254.352 65.3301C254.352 65.1159 254.418 64.9359 254.55 64.79C254.687 64.6396 254.882 64.5645 255.138 64.5645C255.393 64.5645 255.587 64.6396 255.719 64.79C255.855 64.9359 255.924 65.1159 255.924 65.3301C255.924 65.5397 255.855 65.7174 255.719 65.8633C255.587 66.0091 255.393 66.082 255.138 66.082C254.882 66.082 254.687 66.0091 254.55 65.8633C254.418 65.7174 254.352 65.5397 254.352 65.3301Z" fill="black"/>
<path d="M89.4219 25.8594H86.5234L86.5078 24.4297H89.0391C89.4661 24.4297 89.8281 24.3672 90.125 24.2422C90.4271 24.112 90.6562 23.9271 90.8125 23.6875C90.9688 23.4427 91.0469 23.1484 91.0469 22.8047C91.0469 22.4245 90.974 22.1146 90.8281 21.875C90.6823 21.6354 90.4583 21.4609 90.1562 21.3516C89.8594 21.2422 89.4792 21.1875 89.0156 21.1875H87.1172V31H85.1562V19.625H89.0156C89.6406 19.625 90.1979 19.6849 90.6875 19.8047C91.1823 19.9245 91.6016 20.112 91.9453 20.3672C92.2943 20.6172 92.5573 20.9349 92.7344 21.3203C92.9167 21.7057 93.0078 22.1641 93.0078 22.6953C93.0078 23.1641 92.8958 23.5938 92.6719 23.9844C92.4479 24.3698 92.1172 24.6849 91.6797 24.9297C91.2422 25.1745 90.6979 25.3203 90.0469 25.3672L89.4219 25.8594ZM89.3359 31H85.9062L86.7891 29.4453H89.3359C89.7786 29.4453 90.1484 29.3724 90.4453 29.2266C90.7422 29.0755 90.9635 28.8698 91.1094 28.6094C91.2604 28.3438 91.3359 28.0339 91.3359 27.6797C91.3359 27.3099 91.2708 26.9896 91.1406 26.7188C91.0104 26.4427 90.8047 26.2318 90.5234 26.0859C90.2422 25.9349 89.875 25.8594 89.4219 25.8594H87.2188L87.2344 24.4297H90.1016L90.5469 24.9688C91.1719 24.9896 91.6849 25.1276 92.0859 25.3828C92.4922 25.638 92.7943 25.9688 92.9922 26.375C93.1901 26.7812 93.2891 27.2188 93.2891 27.6875C93.2891 28.4115 93.1302 29.0182 92.8125 29.5078C92.5 29.9974 92.0495 30.3698 91.4609 30.625C90.8724 30.875 90.1641 31 89.3359 31ZM104.734 22.5469V24.0469H100.562V22.5469H104.734ZM101.008 22.5469V31H99.125V22.5469H101.008ZM106.211 22.5469V31H104.32V22.5469H106.211ZM110.094 24.1719V34.25H108.211V22.5469H109.945L110.094 24.1719ZM115.602 26.6953V26.8594C115.602 27.474 115.529 28.0443 115.383 28.5703C115.242 29.0911 115.031 29.5469 114.75 29.9375C114.474 30.3229 114.133 30.6224 113.727 30.8359C113.32 31.0495 112.852 31.1562 112.32 31.1562C111.794 31.1562 111.333 31.0599 110.938 30.8672C110.547 30.6693 110.216 30.3906 109.945 30.0312C109.674 29.6719 109.456 29.25 109.289 28.7656C109.128 28.276 109.013 27.7396 108.945 27.1562V26.5234C109.013 25.9036 109.128 25.3411 109.289 24.8359C109.456 24.3307 109.674 23.8958 109.945 23.5312C110.216 23.1667 110.547 22.8854 110.938 22.6875C111.328 22.4896 111.784 22.3906 112.305 22.3906C112.836 22.3906 113.307 22.4948 113.719 22.7031C114.13 22.9062 114.477 23.1979 114.758 23.5781C115.039 23.9531 115.25 24.4062 115.391 24.9375C115.531 25.4635 115.602 26.0495 115.602 26.6953ZM113.719 26.8594V26.6953C113.719 26.3047 113.682 25.9427 113.609 25.6094C113.536 25.2708 113.422 24.974 113.266 24.7188C113.109 24.4635 112.909 24.2656 112.664 24.125C112.424 23.9792 112.135 23.9062 111.797 23.9062C111.464 23.9062 111.177 23.9635 110.938 24.0781C110.698 24.1875 110.497 24.3411 110.336 24.5391C110.174 24.737 110.049 24.9688 109.961 25.2344C109.872 25.4948 109.81 25.7786 109.773 26.0859V27.6016C109.836 27.9766 109.943 28.3203 110.094 28.6328C110.245 28.9453 110.458 29.1953 110.734 29.3828C111.016 29.5651 111.375 29.6562 111.812 29.6562C112.151 29.6562 112.44 29.5833 112.68 29.4375C112.919 29.2917 113.115 29.0911 113.266 28.8359C113.422 28.5755 113.536 28.276 113.609 27.9375C113.682 27.599 113.719 27.2396 113.719 26.8594ZM116.844 26.8672V26.6875C116.844 26.0781 116.932 25.513 117.109 24.9922C117.286 24.4661 117.542 24.0104 117.875 23.625C118.214 23.2344 118.625 22.9323 119.109 22.7188C119.599 22.5 120.151 22.3906 120.766 22.3906C121.385 22.3906 121.938 22.5 122.422 22.7188C122.911 22.9323 123.326 23.2344 123.664 23.625C124.003 24.0104 124.26 24.4661 124.438 24.9922C124.615 25.513 124.703 26.0781 124.703 26.6875V26.8672C124.703 27.4766 124.615 28.0417 124.438 28.5625C124.26 29.0833 124.003 29.5391 123.664 29.9297C123.326 30.3151 122.914 30.6172 122.43 30.8359C121.945 31.0495 121.396 31.1562 120.781 31.1562C120.161 31.1562 119.607 31.0495 119.117 30.8359C118.633 30.6172 118.221 30.3151 117.883 29.9297C117.544 29.5391 117.286 29.0833 117.109 28.5625C116.932 28.0417 116.844 27.4766 116.844 26.8672ZM118.727 26.6875V26.8672C118.727 27.2474 118.766 27.6068 118.844 27.9453C118.922 28.2839 119.044 28.5807 119.211 28.8359C119.378 29.0911 119.591 29.2917 119.852 29.4375C120.112 29.5833 120.422 29.6562 120.781 29.6562C121.13 29.6562 121.432 29.5833 121.688 29.4375C121.948 29.2917 122.161 29.0911 122.328 28.8359C122.495 28.5807 122.617 28.2839 122.695 27.9453C122.779 27.6068 122.82 27.2474 122.82 26.8672V26.6875C122.82 26.3125 122.779 25.9583 122.695 25.625C122.617 25.2865 122.492 24.987 122.32 24.7266C122.154 24.4661 121.94 24.263 121.68 24.1172C121.424 23.9661 121.12 23.8906 120.766 23.8906C120.411 23.8906 120.104 23.9661 119.844 24.1172C119.589 24.263 119.378 24.4661 119.211 24.7266C119.044 24.987 118.922 25.2865 118.844 25.625C118.766 25.9583 118.727 26.3125 118.727 26.6875ZM131.906 22.5469V24.0469H128.219V31H126.336V22.5469H131.906ZM134.891 24.1719V34.25H133.008V22.5469H134.742L134.891 24.1719ZM140.398 26.6953V26.8594C140.398 27.474 140.326 28.0443 140.18 28.5703C140.039 29.0911 139.828 29.5469 139.547 29.9375C139.271 30.3229 138.93 30.6224 138.523 30.8359C138.117 31.0495 137.648 31.1562 137.117 31.1562C136.591 31.1562 136.13 31.0599 135.734 30.8672C135.344 30.6693 135.013 30.3906 134.742 30.0312C134.471 29.6719 134.253 29.25 134.086 28.7656C133.924 28.276 133.81 27.7396 133.742 27.1562V26.5234C133.81 25.9036 133.924 25.3411 134.086 24.8359C134.253 24.3307 134.471 23.8958 134.742 23.5312C135.013 23.1667 135.344 22.8854 135.734 22.6875C136.125 22.4896 136.581 22.3906 137.102 22.3906C137.633 22.3906 138.104 22.4948 138.516 22.7031C138.927 22.9062 139.273 23.1979 139.555 23.5781C139.836 23.9531 140.047 24.4062 140.188 24.9375C140.328 25.4635 140.398 26.0495 140.398 26.6953ZM138.516 26.8594V26.6953C138.516 26.3047 138.479 25.9427 138.406 25.6094C138.333 25.2708 138.219 24.974 138.062 24.7188C137.906 24.4635 137.706 24.2656 137.461 24.125C137.221 23.9792 136.932 23.9062 136.594 23.9062C136.26 23.9062 135.974 23.9635 135.734 24.0781C135.495 24.1875 135.294 24.3411 135.133 24.5391C134.971 24.737 134.846 24.9688 134.758 25.2344C134.669 25.4948 134.607 25.7786 134.57 26.0859V27.6016C134.633 27.9766 134.74 28.3203 134.891 28.6328C135.042 28.9453 135.255 29.1953 135.531 29.3828C135.812 29.5651 136.172 29.6562 136.609 29.6562C136.948 29.6562 137.237 29.5833 137.477 29.4375C137.716 29.2917 137.911 29.0911 138.062 28.8359C138.219 28.5755 138.333 28.276 138.406 27.9375C138.479 27.599 138.516 27.2396 138.516 26.8594ZM146.766 29.3047V25.2734C146.766 24.9714 146.711 24.7109 146.602 24.4922C146.492 24.2734 146.326 24.1042 146.102 23.9844C145.883 23.8646 145.607 23.8047 145.273 23.8047C144.966 23.8047 144.701 23.8568 144.477 23.9609C144.253 24.0651 144.078 24.2057 143.953 24.3828C143.828 24.5599 143.766 24.7604 143.766 24.9844H141.891C141.891 24.651 141.971 24.3281 142.133 24.0156C142.294 23.7031 142.529 23.4245 142.836 23.1797C143.143 22.9349 143.51 22.7422 143.938 22.6016C144.365 22.4609 144.844 22.3906 145.375 22.3906C146.01 22.3906 146.573 22.4974 147.062 22.7109C147.557 22.9245 147.945 23.2474 148.227 23.6797C148.513 24.1068 148.656 24.6432 148.656 25.2891V29.0469C148.656 29.4323 148.682 29.7786 148.734 30.0859C148.792 30.388 148.872 30.651 148.977 30.875V31H147.047C146.958 30.7969 146.888 30.5391 146.836 30.2266C146.789 29.9089 146.766 29.6016 146.766 29.3047ZM147.039 25.8594L147.055 27.0234H145.703C145.354 27.0234 145.047 27.0573 144.781 27.125C144.516 27.1875 144.294 27.2812 144.117 27.4062C143.94 27.5312 143.807 27.6823 143.719 27.8594C143.63 28.0365 143.586 28.237 143.586 28.4609C143.586 28.6849 143.638 28.8906 143.742 29.0781C143.846 29.2604 143.997 29.4036 144.195 29.5078C144.398 29.612 144.643 29.6641 144.93 29.6641C145.315 29.6641 145.651 29.5859 145.938 29.4297C146.229 29.2682 146.458 29.0729 146.625 28.8438C146.792 28.6094 146.88 28.388 146.891 28.1797L147.5 29.0156C147.438 29.2292 147.331 29.4583 147.18 29.7031C147.029 29.9479 146.831 30.1823 146.586 30.4062C146.346 30.625 146.057 30.8047 145.719 30.9453C145.385 31.0859 145 31.1562 144.562 31.1562C144.01 31.1562 143.518 31.0469 143.086 30.8281C142.654 30.6042 142.315 30.3047 142.07 29.9297C141.826 29.5495 141.703 29.1198 141.703 28.6406C141.703 28.1927 141.786 27.7969 141.953 27.4531C142.125 27.1042 142.375 26.8125 142.703 26.5781C143.036 26.3438 143.443 26.1667 143.922 26.0469C144.401 25.9219 144.948 25.8594 145.562 25.8594H147.039ZM155.648 28.7188L158.164 22.5469H159.797L156.289 31H155.008L151.508 22.5469H153.141L155.648 28.7188ZM152.656 22.5469V31H150.773V22.5469H152.656ZM158.641 31V22.5469H160.531V31H158.641ZM167.664 28.7188L170.18 22.5469H171.812L168.305 31H167.023L163.523 22.5469H165.156L167.664 28.7188ZM164.672 22.5469V31H162.789V22.5469H164.672ZM170.656 31V22.5469H172.547V31H170.656ZM178.383 31.1562C177.758 31.1562 177.193 31.0547 176.688 30.8516C176.188 30.6432 175.76 30.3542 175.406 29.9844C175.057 29.6146 174.789 29.1797 174.602 28.6797C174.414 28.1797 174.32 27.6406 174.32 27.0625V26.75C174.32 26.0885 174.417 25.4896 174.609 24.9531C174.802 24.4167 175.07 23.9583 175.414 23.5781C175.758 23.1927 176.164 22.8984 176.633 22.6953C177.102 22.4922 177.609 22.3906 178.156 22.3906C178.76 22.3906 179.289 22.4922 179.742 22.6953C180.195 22.8984 180.57 23.1849 180.867 23.5547C181.169 23.9193 181.393 24.3542 181.539 24.8594C181.69 25.3646 181.766 25.9219 181.766 26.5312V27.3359H175.234V25.9844H179.906V25.8359C179.896 25.4974 179.828 25.1797 179.703 24.8828C179.583 24.5859 179.398 24.3464 179.148 24.1641C178.898 23.9818 178.565 23.8906 178.148 23.8906C177.836 23.8906 177.557 23.9583 177.312 24.0938C177.073 24.224 176.872 24.4141 176.711 24.6641C176.549 24.9141 176.424 25.2161 176.336 25.5703C176.253 25.9193 176.211 26.3125 176.211 26.75V27.0625C176.211 27.4323 176.26 27.776 176.359 28.0938C176.464 28.4062 176.615 28.6797 176.812 28.9141C177.01 29.1484 177.25 29.3333 177.531 29.4688C177.812 29.599 178.133 29.6641 178.492 29.6641C178.945 29.6641 179.349 29.5729 179.703 29.3906C180.057 29.2083 180.365 28.9505 180.625 28.6172L181.617 29.5781C181.435 29.8438 181.198 30.099 180.906 30.3438C180.615 30.5833 180.258 30.7786 179.836 30.9297C179.419 31.0807 178.935 31.1562 178.383 31.1562Z" fill="black"/>
<rect x="35" y="36" width="13" height="13" rx="6.5" fill="#F5C20B"/>
<path fill-rule="evenodd" clip-rule="evenodd" d="M40.6074 38.2364C40.4203 38.2652 40.2799 38.3681 40.0434 38.6494C39.9211 38.7949 39.817 38.8965 39.7389 38.9468C39.6714 38.9903 39.5659 39.0405 39.3941 39.111C39.1126 39.2266 38.9918 39.3051 38.9102 39.4254C38.8327 39.5397 38.798 39.6809 38.7655 40.0136C38.7298 40.3801 38.7138 40.4302 38.547 40.698C38.4423 40.8662 38.3696 41.004 38.3379 41.0946C38.3163 41.1564 38.3135 41.1768 38.3135 41.2733C38.3134 41.3737 38.3157 41.3888 38.3422 41.4651C38.376 41.5626 38.4459 41.6973 38.5411 41.8487C38.7119 42.1198 38.7426 42.2177 38.7789 42.6071C38.8103 42.9434 38.8512 43.072 38.9645 43.1911C39.0597 43.2912 39.1506 43.3424 39.4469 43.463C39.7631 43.5918 39.8349 43.6465 40.126 43.9815C40.2449 44.1183 40.3457 44.2046 40.4403 44.2507C40.5367 44.2976 40.5995 44.3105 40.7304 44.3102C40.8566 44.3099 40.9257 44.299 41.1393 44.2459C41.3367 44.1968 41.3767 44.1908 41.5085 44.1906C41.6439 44.1904 41.6937 44.1976 41.9261 44.2515C42.2226 44.3202 42.2952 44.3276 42.421 44.3019C42.6012 44.265 42.7256 44.173 42.9504 43.9103C43.1804 43.6415 43.277 43.5702 43.5702 43.453C43.8399 43.3451 43.95 43.282 44.0463 43.1798C44.1733 43.0453 44.2058 42.9358 44.2425 42.5199C44.2731 42.1721 44.2894 42.1215 44.4587 41.8477C44.6527 41.534 44.6866 41.4467 44.6865 41.2602C44.6864 41.1666 44.6829 41.1355 44.6661 41.0815C44.6407 40.9998 44.5664 40.8584 44.4714 40.711C44.293 40.4341 44.2685 40.3626 44.2386 40.0311C44.2115 39.7303 44.1849 39.5978 44.1286 39.4819C44.0484 39.3168 43.9282 39.2335 43.5438 39.0763C43.2537 38.9577 43.1554 38.8846 42.9287 38.6188C42.7923 38.4591 42.746 38.4115 42.6822 38.3663C42.5254 38.255 42.3672 38.2148 42.1811 38.2389C42.1376 38.2445 42.009 38.2704 41.8953 38.2963C41.623 38.3585 41.5788 38.3647 41.447 38.3591C41.3355 38.3544 41.3029 38.3488 41.0825 38.2966C41.0146 38.2804 40.9255 38.261 40.8844 38.2532C40.8069 38.2387 40.6532 38.2293 40.6074 38.2364ZM41.7623 39.0243C41.9283 39.0343 42.0394 39.0548 42.1839 39.1018C42.879 39.3282 43.4135 39.8394 43.6659 40.519C43.7654 40.787 43.782 40.9198 43.7737 41.3823C43.7681 41.6974 43.7617 41.7441 43.6974 41.9402C43.6244 42.1627 43.5381 42.3385 43.4068 42.5327C43.1116 42.9691 42.6906 43.2813 42.1679 43.4513C41.9632 43.5179 41.8325 43.5346 41.5217 43.534C41.1979 43.5333 41.0301 43.5116 40.814 43.4421C40.4693 43.3314 40.1766 43.1569 39.9183 42.9081C39.5176 42.5222 39.2809 42.0412 39.2221 41.4935C39.2065 41.3478 39.2157 41.0358 39.2395 40.9028C39.3232 40.4362 39.5189 40.0409 39.8224 39.7257C40.0686 39.47 40.4086 39.2488 40.7304 39.1347C40.8281 39.1001 41.0313 39.0454 41.1261 39.0282C41.2022 39.0144 41.5613 39.0122 41.7623 39.0243ZM41.252 39.4206C40.4262 39.5373 39.7812 40.1631 39.6389 40.9856C39.6207 41.0909 39.614 41.3289 39.6261 41.4387C39.6701 41.836 39.8188 42.1834 40.0685 42.472C40.3774 42.829 40.7933 43.0598 41.2459 43.1253C41.3639 43.1424 41.6144 43.1428 41.7327 43.1261C42.0962 43.0748 42.4218 42.9383 42.6866 42.7261C42.9496 42.5154 43.1873 42.1673 43.3009 41.8267C43.3515 41.6751 43.3642 41.5882 43.3697 41.3561C43.3767 41.0647 43.3537 40.8631 43.2922 40.6773C43.2265 40.4786 43.059 40.1972 42.9052 40.0273C42.6294 39.7226 42.2342 39.5072 41.8162 39.4338C41.6758 39.4091 41.3819 39.4022 41.252 39.4206Z" fill="white"/>
<path fill-rule="evenodd" clip-rule="evenodd" d="M39.8726 44.3816C39.7642 44.6757 39.2899 46.0862 39.2192 46.3243L39.1829 46.4467L39.2051 46.4492C39.227 46.4516 39.5481 46.3973 39.9146 46.3292L40.102 46.2943L40.4036 46.6105C40.5695 46.7844 40.707 46.9249 40.7091 46.9227C40.7134 46.9181 41.0088 46.041 41.1696 45.5551C41.2988 45.1648 41.4056 44.826 41.4056 44.8064C41.4056 44.7857 41.3669 44.7784 41.0641 44.7419C40.6727 44.6948 40.6139 44.6816 40.4319 44.6004C40.3142 44.5479 40.1334 44.4522 40.025 44.3849C39.9757 44.3544 39.9272 44.3249 39.9172 44.3194C39.9 44.31 39.8977 44.3132 39.8726 44.3816ZM42.9534 44.4044C42.874 44.447 42.7539 44.5117 42.6864 44.5481C42.476 44.6618 42.3268 44.701 41.9512 44.7414C41.6367 44.7753 41.5888 44.7823 41.5888 44.7945C41.5888 44.8257 42.1931 46.6605 42.2792 46.8906C42.2882 46.9145 42.2887 46.9147 42.3136 46.9012C42.3434 46.885 42.514 46.7089 42.735 46.4661L42.8924 46.2931L42.9382 46.3024C43.1305 46.3415 43.8119 46.455 43.8177 46.4489C43.8249 46.4413 43.4106 45.1916 43.1975 44.5786C43.126 44.3729 43.1084 44.3269 43.1009 44.3269C43.0991 44.3269 43.0327 44.3618 42.9534 44.4044Z" fill="white"/>
<path fill-rule="evenodd" clip-rule="evenodd" d="M41.256 39.4207C40.4303 39.5374 39.7853 40.1632 39.6429 40.9858C39.6247 41.0911 39.618 41.329 39.6302 41.4388C39.6741 41.8361 39.8229 42.1835 40.0725 42.4721C40.3814 42.8291 40.7973 43.0599 41.2499 43.1254C41.3679 43.1425 41.6184 43.1429 41.7367 43.1262C42.1003 43.075 42.4258 42.9384 42.6906 42.7262C42.9536 42.5155 43.1913 42.1674 43.3049 41.8269C43.3555 41.6753 43.3682 41.5884 43.3738 41.3562C43.3807 41.0648 43.3577 40.8632 43.2963 40.6774C43.2306 40.4787 43.063 40.1973 42.9092 40.0274C42.6335 39.7227 42.2383 39.5073 41.8202 39.4339C41.6798 39.4092 41.3859 39.4023 41.256 39.4207Z" fill="#F3C213"/>
<path d="M28 59C24.4073 59 21.3424 57.7898 18.8055 55.3694C16.2685 52.9335 15 49.9658 15 46.4662C15 43.46 15.9218 40.7775 17.7655 38.4188C19.6248 36.06 22.0515 34.5569 25.0455 33.9094C26.0382 30.3635 28.0079 27.496 30.9545 25.3069C33.917 23.1023 37.2655 22 41 22C45.617 22 49.5248 23.5725 52.7236 26.7175C55.9382 29.8471 57.5455 33.6704 57.5455 38.1875C60.2715 38.4958 62.5248 39.6521 64.3055 41.6562C66.1018 43.6296 67 45.9421 67 48.5938C67 51.4921 65.9679 53.951 63.9036 55.9706C61.8394 57.9902 59.3261 59 56.3636 59M28 54.375H56.3636C58.0182 54.375 59.4127 53.8123 60.5473 52.6869C61.6976 51.5769 62.2727 50.2125 62.2727 48.5938C62.2727 46.975 61.6976 45.6106 60.5473 44.5006C59.4127 43.3752 58.0182 42.8125 56.3636 42.8125H52.8182V38.1875C52.8182 34.9963 51.6679 32.2675 49.3673 30.0013C47.0667 27.7504 44.2776 26.625 41 26.625C37.7382 26.625 34.9491 27.7504 32.6327 30.0013C30.3321 32.2675 29.1818 34.9963 29.1818 38.1875H28C25.7152 38.1875 23.7691 38.9815 22.1618 40.5694C20.5388 42.1419 19.7273 44.0458 19.7273 46.2812C19.7273 48.5167 20.5388 50.4438 22.1618 52.0625C23.7691 53.6042 25.7152 54.375 28 54.375Z" fill="#F5C20B"/>
</svg>
