<svg width="24" height="24" viewBox="0 0 24 24" fill="none" xmlns="http://www.w3.org/2000/svg">
<rect x="1" y="1" width="22" height="22" rx="3" fill="#FFDD00"/>
<path d="M15 17L17.1985 11.7612L15.1679 7H16.8168L17.9924 9.96348L19.1832 7H20.8321L18.7557 11.7612L21 17H19.3511L17.9924 13.6292L16.6489 17H15Z" fill="#E0282F"/>
<path d="M9.77121 15.5794C9.91517 15.5794 10.0797 15.5655 10.2648 15.5376C10.4499 15.5098 10.5938 15.4494 10.6967 15.3565C10.7789 15.2823 10.8663 15.1662 10.9589 15.0084C11.0617 14.8412 11.1542 14.6091 11.2365 14.312L11.3753 13.7688L9 7H10.6658L12.1465 11.6657H12.1774L13.3342 7H15L12.7172 14.5348C12.5733 14.9898 12.419 15.3937 12.2545 15.7465C12.09 16.0994 11.8586 16.3825 11.5604 16.5961C11.3136 16.7818 11.0514 16.8932 10.7738 16.9304C10.5064 16.9768 10.2082 17 9.87918 17H9.66324V15.5794H9.77121Z" fill="#E0282F"/>
<path d="M3 7H7.50617V8.34831H4.57407V11.1011H5.19136C5.73663 11.1011 6.1893 11.1667 6.54938 11.2978C6.91975 11.4288 7.21811 11.6161 7.44444 11.8596C7.68107 12.1217 7.83025 12.4073 7.89198 12.7163C7.9537 13.0159 7.98971 13.3483 8 13.7135V14.2753C8 15.1554 7.76337 15.8296 7.29012 16.2978C6.82716 16.7659 6.08128 17 5.05247 17H3V7ZM4.57407 12.3652V15.5674H5.16049C5.47942 15.5674 5.72634 15.5253 5.90123 15.441C6.08642 15.3567 6.22531 15.2397 6.3179 15.0899C6.41049 14.9401 6.46708 14.7622 6.48765 14.5562C6.50823 14.3502 6.51852 14.1255 6.51852 13.882C6.51852 13.6292 6.49794 13.4092 6.45679 13.2219C6.42593 13.0253 6.35905 12.8661 6.25617 12.7444C6.15329 12.6227 6.01955 12.529 5.85494 12.4635C5.69033 12.3979 5.46399 12.3652 5.17593 12.3652H4.57407Z" fill="#E0282F"/>
</svg>
