<svg width="28" height="28" viewBox="0 0 28 28" fill="none" xmlns="http://www.w3.org/2000/svg">
<path d="M14 24C19.5228 24 24 19.5228 24 14C24 8.47715 19.5228 4 14 4C8.47715 4 4 8.47715 4 14C4 19.5228 8.47715 24 14 24Z" fill="white"/>
<path d="M14 24.5C19.799 24.5 24.5 19.799 24.5 14C24.5 8.20101 19.799 3.5 14 3.5C8.20101 3.5 3.5 8.20101 3.5 14C3.5 19.799 8.20101 24.5 14 24.5Z" stroke="black" stroke-opacity="0.3"/>
<path d="M15.3892 15.1382H16.6714V16.0967H15.3892V18.2422H14.2085V16.0967H10V15.4048L14.1387 9H15.3892V15.1382ZM11.333 15.1382H14.2085V10.606L14.0688 10.8599L11.333 15.1382Z" fill="black"/>
</svg>
