<svg width="65" height="57" viewBox="0 0 65 57" fill="none" xmlns="http://www.w3.org/2000/svg">
<path d="M33.7031 20.4062L33.4746 38.7754H30.5391L30.293 20.4062H33.7031ZM30.1875 44.3652C30.1875 43.8379 30.3457 43.3926 30.6621 43.0293C30.9902 42.666 31.4707 42.4844 32.1035 42.4844C32.7246 42.4844 33.1992 42.666 33.5273 43.0293C33.8672 43.3926 34.0371 43.8379 34.0371 44.3652C34.0371 44.8691 33.8672 45.3027 33.5273 45.666C33.1992 46.0293 32.7246 46.2109 32.1035 46.2109C31.4707 46.2109 30.9902 46.0293 30.6621 45.666C30.3457 45.3027 30.1875 44.8691 30.1875 44.3652Z" fill="#EF880F"/>
<path fill-rule="evenodd" clip-rule="evenodd" d="M62.3812 51.75L34.2354 2.99999C33.4656 1.66667 31.5411 1.66666 30.7713 3.00001L2.62548 51.75C1.85568 53.0833 2.81793 54.75 4.35754 54.75H60.6492C62.1888 54.75 63.151 53.0833 62.3812 51.75ZM35.9675 1.99999C34.4279 -0.666672 30.5788 -0.666662 29.0392 2.00001L0.893427 50.75C-0.646174 53.4167 1.27834 56.75 4.35754 56.75H60.6492C63.7284 56.75 65.6529 53.4166 64.1133 50.75L35.9675 1.99999Z" fill="#EF880F"/>
</svg>
