<svg width="65" height="81" viewBox="0 0 65 81" fill="none" xmlns="http://www.w3.org/2000/svg">
<rect x="0.5" y="0.5" width="64" height="80" fill="white"/>
<rect x="0.5" y="0.5" width="64" height="80" stroke="#DBDBE4"/>
<path fill-rule="evenodd" clip-rule="evenodd" d="M10.8347 55.8243C10.5747 58.0135 12.0047 60.2027 15.168 60.2027H49.8347C52.998 60.2027 54.428 58.0135 54.168 55.8243V33.9324C53.908 31.7432 52.1313 29.5541 49.8347 29.5541H41.168V25.1757L36.8347 20.7973H28.168L23.8347 25.1757V29.5541H15.168C12.6763 29.5541 11.0947 31.7432 10.8347 33.9324V55.8243ZM13.4347 34.1145V55.9814L13.4161 56.1373C13.3648 56.5696 13.4882 56.8924 13.663 57.0916C13.8129 57.2624 14.2055 57.5757 15.168 57.5757H49.8347C50.7972 57.5757 51.1898 57.2624 51.3397 57.0916C51.5144 56.8924 51.6379 56.5696 51.5865 56.1373L51.568 55.9814V34.1198C51.4817 33.6284 51.2308 33.1087 50.8706 32.7216C50.4916 32.3142 50.1234 32.1811 49.8347 32.1811H15.168C14.7436 32.1811 14.3976 32.346 14.0874 32.6904C13.7699 33.0429 13.5257 33.5598 13.4347 34.1145ZM28.168 25.1757V29.5541H36.8347V25.1757H28.168Z" fill="#DBDBE4"/>
<path d="M23.6641 44.8696C23.6641 50.3103 19.2988 54.7209 13.9141 54.7209C8.52929 54.7209 4.16406 50.3103 4.16406 44.8696C4.16406 39.4288 8.52929 35.0182 13.9141 35.0182C19.2988 35.0182 23.6641 39.4288 23.6641 44.8696Z" fill="white"/>
<path d="M8.06406 45.8547V43.8844H15.8641L12.4516 40.4365L13.8361 39.0376L19.6081 44.8696L13.8361 50.7016L12.4516 49.3027L15.8641 45.8547H8.06406ZM23.6641 44.8696C23.6641 47.4823 22.6368 49.988 20.8084 51.8355C18.9799 53.683 16.4999 54.7209 13.9141 54.7209C12.6337 54.7209 11.3658 54.4661 10.1829 53.971C8.99997 53.476 7.92514 52.7503 7.01977 51.8355C5.19129 49.988 4.16406 47.4823 4.16406 44.8696C4.16406 42.2568 5.19129 39.7511 7.01977 37.9036C8.84825 36.0561 11.3282 35.0182 13.9141 35.0182C15.1945 35.0182 16.4623 35.273 17.6452 35.7681C18.8282 36.2632 19.903 36.9888 20.8084 37.9036C21.7137 38.8184 22.4319 39.9044 22.9219 41.0996C23.4119 42.2948 23.6641 43.5759 23.6641 44.8696ZM21.7141 44.8696C21.7141 42.7794 20.8923 40.7748 19.4295 39.2968C17.9667 37.8188 15.9828 36.9885 13.9141 36.9885C11.8454 36.9885 9.86141 37.8188 8.39863 39.2968C6.93585 40.7748 6.11406 42.7794 6.11406 44.8696C6.11406 46.9598 6.93585 48.9643 8.39863 50.4423C9.86141 51.9203 11.8454 52.7507 13.9141 52.7507C15.9828 52.7507 17.9667 51.9203 19.4295 50.4423C20.8923 48.9643 21.7141 46.9598 21.7141 44.8696Z" fill="#DBDBE4"/>
<path d="M26 43.8846H39V47.1683H26V43.8846Z" fill="#DBDBE4"/>
<path d="M30.875 52.094L30.875 38.9589L34.125 38.9589L34.125 52.094L30.875 52.094Z" fill="#DBDBE4"/>
</svg>
