<svg width="48" height="48" viewBox="0 0 48 48" fill="none" xmlns="http://www.w3.org/2000/svg">
<path d="M45.5219 39.0396L27.5279 5.13359C27.1906 4.49001 26.6837 3.95098 26.062 3.5749C25.4403 3.19881 24.7275 3 24.0009 3C23.2743 3 22.5615 3.19881 21.9398 3.5749C21.3181 3.95098 20.8112 4.49001 20.4739 5.13359L2.4799 39.0396C2.14742 39.6609 1.98253 40.358 2.00147 41.0624C2.0204 41.7668 2.22252 42.4541 2.5879 43.0566C2.93983 43.6498 3.44038 44.1411 4.04013 44.4818C4.63988 44.8225 5.31812 45.001 6.0079 44.9996H41.9939C42.6837 45.001 43.3619 44.8225 43.9617 44.4818C44.5614 44.1411 45.062 43.6498 45.4139 43.0566C45.7793 42.4541 45.9814 41.7668 46.0003 41.0624C46.0193 40.358 45.8544 39.6609 45.5219 39.0396Z" fill="#FF0000"/>
<path d="M26.2868 15V31.571H21.7148V15H26.2868Z" fill="white"/>
<path d="M24 41C25.6569 41 27 39.6569 27 38C27 36.3431 25.6569 35 24 35C22.3431 35 21 36.3431 21 38C21 39.6569 22.3431 41 24 41Z" fill="white"/>
</svg>
