<svg width="33" height="16" viewBox="0 0 33 16" fill="none" xmlns="http://www.w3.org/2000/svg">
<path d="M15.8255 13.7295L9.2825 0.812804C9.15985 0.567628 8.97553 0.362281 8.74946 0.219012C8.5234 0.0757378 8.26421 0 8 0C7.73579 0 7.4766 0.0757378 7.25054 0.219012C7.02448 0.362281 6.84016 0.567628 6.71751 0.812804L0.174501 13.7295C0.0536036 13.9662 -0.00635401 14.2318 0.000532986 14.5001C0.00741635 14.7684 0.0809117 15.0303 0.213772 15.2598C0.341741 15.4858 0.523752 15.6729 0.741835 15.8027C0.959917 15.9325 1.20654 16.0005 1.45736 16H14.5427C14.7935 16.0005 15.0401 15.9325 15.2582 15.8027C15.4762 15.6729 15.6583 15.4858 15.7862 15.2598C15.9191 15.0303 15.9926 14.7684 15.9995 14.5001C16.0064 14.2318 15.9464 13.9662 15.8255 13.7295Z" fill="#F1C232"/>
<path d="M8.83142 4.57031V10.8831H7.16895V4.57031H8.83142Z" fill="white"/>
<path d="M8.00005 14.4732C8.60253 14.4732 9.09091 13.9616 9.09091 13.3304C9.09091 12.6992 8.60253 12.1875 8.00005 12.1875C7.39756 12.1875 6.90918 12.6992 6.90918 13.3304C6.90918 13.9616 7.39756 14.4732 8.00005 14.4732Z" fill="white"/>
</svg>
