<svg width="24" height="24" viewBox="0 0 24 24" fill="none" xmlns="http://www.w3.org/2000/svg">
<path d="M11.5 8.3C12.6449 8.3 13.7429 8.7425 14.5525 9.53015C15.362 10.3178 15.8168 11.3861 15.8168 12.5C15.8168 13.6139 15.362 14.6822 14.5525 15.4698C13.7429 16.2575 12.6449 16.7 11.5 16.7C10.3551 16.7 9.2571 16.2575 8.44753 15.4698C7.63796 14.6822 7.18316 13.6139 7.18316 12.5C7.18316 11.3861 7.63796 10.3178 8.44753 9.53015C9.2571 8.7425 10.3551 8.3 11.5 8.3ZM11.5 10.4C10.9276 10.4 10.3785 10.6212 9.97377 11.0151C9.56898 11.4089 9.34158 11.943 9.34158 12.5C9.34158 13.057 9.56898 13.5911 9.97377 13.9849C10.3785 14.3787 10.9276 14.6 11.5 14.6C12.0724 14.6 12.6215 14.3787 13.0262 13.9849C13.431 13.5911 13.6584 13.057 13.6584 12.5C13.6584 11.943 13.431 11.4089 13.0262 11.0151C12.6215 10.6212 12.0724 10.4 11.5 10.4ZM9.34158 23C9.07178 23 8.84514 22.811 8.80197 22.559L8.40266 19.7765C7.72276 19.514 7.13999 19.157 6.5788 18.737L3.89156 19.7975C3.65414 19.8815 3.36275 19.7975 3.23325 19.5665L1.07482 15.9335C0.934526 15.7025 0.999279 15.419 1.20433 15.2615L3.48146 13.5185L3.40592 12.5L3.48146 11.45L1.20433 9.7385C0.999279 9.581 0.934526 9.2975 1.07482 9.0665L3.23325 5.4335C3.36275 5.2025 3.65414 5.108 3.89156 5.2025L6.5788 6.2525C7.13999 5.843 7.72276 5.486 8.40266 5.2235L8.80197 2.441C8.84514 2.189 9.07178 2 9.34158 2H13.6584C13.9282 2 14.1549 2.189 14.198 2.441L14.5973 5.2235C15.2772 5.486 15.86 5.843 16.4212 6.2525L19.1084 5.2025C19.3459 5.108 19.6372 5.2025 19.7668 5.4335L21.9252 9.0665C22.0655 9.2975 22.0007 9.581 21.7957 9.7385L19.5185 11.45L19.5941 12.5L19.5185 13.55L21.7957 15.2615C22.0007 15.419 22.0655 15.7025 21.9252 15.9335L19.7668 19.5665C19.6372 19.7975 19.3459 19.892 19.1084 19.7975L16.4212 18.7475C15.86 19.157 15.2772 19.514 14.5973 19.7765L14.198 22.559C14.1549 22.811 13.9282 23 13.6584 23H9.34158ZM10.6906 4.1L10.2913 6.8405C8.99623 7.103 7.85227 7.775 7.02127 8.7095L4.42038 7.6175L3.61097 8.9825L5.8881 10.61C5.45642 11.8385 5.45642 13.172 5.8881 14.39L3.60018 16.028L4.40958 17.393L7.03207 16.301C7.86306 17.225 8.99623 17.897 10.2805 18.149L10.6798 20.9H12.3202L12.7195 18.1595C14.0038 17.897 15.1369 17.225 15.9679 16.301L18.5904 17.393L19.3998 16.028L17.1119 14.4005C17.5436 13.172 17.5436 11.8385 17.1119 10.61L19.389 8.9825L18.5796 7.6175L15.9787 8.7095C15.1477 7.775 14.0038 7.103 12.7087 6.851L12.3094 4.1H10.6906Z" fill="#55596D"/>
</svg>
