<svg width="65" height="80" viewBox="0 0 65 80" fill="none" xmlns="http://www.w3.org/2000/svg">
<rect x="0.5" y="0.5" width="64" height="79" fill="white"/>
<rect x="0.5" y="0.5" width="64" height="79" stroke="#DBDBE4"/>
<path fill-rule="evenodd" clip-rule="evenodd" d="M32.5006 62.2703C44.8258 62.2703 54.8173 52.2995 54.8173 40C54.8173 27.7005 44.8258 17.7297 32.5006 17.7297C20.1755 17.7297 10.184 27.7005 10.184 40C10.184 52.2995 20.1755 62.2703 32.5006 62.2703ZM32.5006 64.8649C46.2617 64.8649 57.4173 53.7325 57.4173 40C57.4173 26.2675 46.2617 15.1351 32.5006 15.1351C18.7396 15.1351 7.58398 26.2675 7.58398 40C7.58398 53.7325 18.7396 64.8649 32.5006 64.8649Z" fill="#DBDBE4"/>
<path d="M17.1055 52.4557C17.1055 50.5399 18.6617 48.9869 20.5815 48.9869H44.9138C46.8336 48.9869 48.3899 50.5399 48.3899 52.4557V52.4557C48.3899 54.3715 46.8336 55.9245 44.9138 55.9245H20.5815C18.6617 55.9245 17.1055 54.3715 17.1055 52.4557V52.4557Z" fill="#DBDBE4"/>
<path d="M30.7017 52.0984V52.847C30.7017 53.2056 30.6659 53.5118 30.5945 53.7655C30.5251 54.0172 30.4243 54.2216 30.2919 54.3789C30.1595 54.5362 30.0008 54.6515 29.8159 54.7249C29.6331 54.7983 29.4282 54.835 29.2013 54.835C29.0205 54.835 28.8524 54.812 28.6969 54.7658C28.5435 54.7197 28.4048 54.6473 28.2808 54.5488C28.1569 54.4502 28.0507 54.3233 27.9625 54.1682C27.8763 54.0109 27.8091 53.8232 27.7608 53.6051C27.7145 53.387 27.6914 53.1343 27.6914 52.847V52.0984C27.6914 51.7377 27.7271 51.4336 27.7986 51.1862C27.87 50.9366 27.9719 50.7343 28.1043 50.5791C28.2367 50.4218 28.3943 50.3075 28.5771 50.2362C28.7621 50.1649 28.968 50.1293 29.195 50.1293C29.3778 50.1293 29.5459 50.1523 29.6993 50.1985C29.8548 50.2425 29.9935 50.3128 30.1154 50.4092C30.2394 50.5057 30.3444 50.6315 30.4306 50.7867C30.5188 50.9398 30.5861 51.1254 30.6323 51.3435C30.6786 51.5595 30.7017 51.8111 30.7017 52.0984ZM29.942 52.954V51.9851C29.942 51.8027 29.9315 51.6423 29.9105 51.5039C29.8895 51.3634 29.858 51.2449 29.8159 51.1484C29.776 51.0499 29.7256 50.9702 29.6646 50.9094C29.6037 50.8465 29.5343 50.8014 29.4566 50.7741C29.3788 50.7448 29.2916 50.7301 29.195 50.7301C29.0773 50.7301 28.9722 50.7531 28.8798 50.7993C28.7873 50.8433 28.7095 50.9146 28.6465 51.0132C28.5835 51.1117 28.5351 51.2417 28.5015 51.4032C28.47 51.5626 28.4542 51.7566 28.4542 51.9851V52.954C28.4542 53.1385 28.4647 53.301 28.4857 53.4415C28.5068 53.582 28.5383 53.7026 28.5803 53.8033C28.6223 53.9018 28.6728 53.9836 28.7316 54.0486C28.7925 54.1115 28.8619 54.1577 28.9396 54.187C29.0195 54.2164 29.1067 54.2311 29.2013 54.2311C29.321 54.2311 29.4272 54.208 29.5196 54.1619C29.6121 54.1157 29.6898 54.0423 29.7529 53.9417C29.8159 53.8389 29.8632 53.7058 29.8947 53.5422C29.9262 53.3786 29.942 53.1826 29.942 52.954Z" fill="white"/>
<path d="M26.9028 52.0984V52.8471C26.9028 53.2057 26.8671 53.5119 26.7957 53.7656C26.7263 54.0172 26.6255 54.2217 26.4931 54.379C26.3607 54.5363 26.202 54.6516 26.0171 54.725C25.8343 54.7984 25.6294 54.8351 25.4024 54.8351C25.2217 54.8351 25.0536 54.812 24.8981 54.7659C24.7447 54.7197 24.606 54.6474 24.482 54.5488C24.358 54.4503 24.2519 54.3234 24.1637 54.1682C24.0775 54.0109 24.0103 53.8233 23.9619 53.6052C23.9157 53.3871 23.8926 53.1344 23.8926 52.8471V52.0984C23.8926 51.7378 23.9283 51.4337 23.9997 51.1862C24.0712 50.9367 24.1731 50.7343 24.3055 50.5791C24.4379 50.4219 24.5955 50.3076 24.7783 50.2363C24.9632 50.165 25.1692 50.1293 25.3961 50.1293C25.579 50.1293 25.7471 50.1524 25.9005 50.1985C26.056 50.2426 26.1947 50.3128 26.3165 50.4093C26.4405 50.5058 26.5456 50.6316 26.6318 50.7868C26.72 50.9398 26.7873 51.1254 26.8335 51.3435C26.8797 51.5595 26.9028 51.8112 26.9028 52.0984ZM26.1432 52.954V51.9852C26.1432 51.8028 26.1327 51.6423 26.1117 51.5039C26.0906 51.3634 26.0591 51.245 26.0171 51.1485C25.9772 51.0499 25.9267 50.9702 25.8658 50.9094C25.8049 50.8465 25.7355 50.8014 25.6578 50.7742C25.58 50.7448 25.4928 50.7301 25.3961 50.7301C25.2785 50.7301 25.1734 50.7532 25.0809 50.7993C24.9885 50.8434 24.9107 50.9147 24.8477 51.0132C24.7846 51.1118 24.7363 51.2418 24.7027 51.4033C24.6711 51.5627 24.6554 51.7566 24.6554 51.9852V52.954C24.6554 53.1386 24.6659 53.3011 24.6869 53.4416C24.7079 53.5821 24.7394 53.7027 24.7815 53.8033C24.8235 53.9019 24.8739 53.9837 24.9328 54.0487C24.9937 54.1116 25.0631 54.1577 25.1408 54.1871C25.2207 54.2165 25.3079 54.2311 25.4024 54.2311C25.5222 54.2311 25.6283 54.2081 25.7208 54.1619C25.8133 54.1158 25.891 54.0424 25.9541 53.9417C26.0171 53.839 26.0644 53.7058 26.0959 53.5423C26.1274 53.3787 26.1432 53.1826 26.1432 52.954Z" fill="white"/>
<path d="M19.0508 44.3312L19.8987 46.3209L13.917 48.8593L13.0692 46.8695L19.0508 44.3312Z" fill="#DBDBE4"/>
<rect x="18.416" y="38.9189" width="2.16216" height="6.5" transform="rotate(90 18.416 38.9189)" fill="#DBDBE4"/>
<path d="M20.0332 33.5181L19.2382 35.5295L13.1916 33.1493L13.9866 31.138L20.0332 33.5181Z" fill="#DBDBE4"/>
<path d="M23.4492 29.4821L21.9172 31.0109L17.321 26.4243L18.853 24.8954L23.4492 29.4821Z" fill="#DBDBE4"/>
<path d="M28.2168 26.9905L26.2105 27.8069L23.7563 21.8005L25.7626 20.9841L28.2168 26.9905Z" fill="#DBDBE4"/>
<path d="M45.9492 44.3312L45.1013 46.3209L51.083 48.8593L51.9308 46.8695L45.9492 44.3312Z" fill="#DBDBE4"/>
<path d="M46.584 38.9189L46.584 41.0811L53.084 41.0811L53.084 38.9189L46.584 38.9189Z" fill="#DBDBE4"/>
<path d="M44.9668 33.5181L45.7618 35.5295L51.8084 33.1493L51.0134 31.138L44.9668 33.5181Z" fill="#DBDBE4"/>
<path d="M41.5508 29.4821L43.0828 31.0109L47.679 26.4243L46.147 24.8954L41.5508 29.4821Z" fill="#DBDBE4"/>
<path d="M36.7832 26.9905L38.7895 27.8069L41.2437 21.8005L39.2374 20.9841L36.7832 26.9905Z" fill="#DBDBE4"/>
<path d="M33.584 26.5809L31.4173 26.5809L31.4173 20.0944L33.584 20.0944L33.584 26.5809Z" fill="#DBDBE4"/>
<path d="M60.6074 27.9532C60.6074 33.3268 56.2422 37.6829 50.8574 37.6829C45.4726 37.6829 41.1074 33.3268 41.1074 27.9532C41.1074 22.5796 45.4726 18.2234 50.8574 18.2234C56.2422 18.2234 60.6074 22.5796 60.6074 27.9532Z" fill="white"/>
<path d="M45.0074 28.9262V26.9802H52.8074L49.3949 23.5748L50.7794 22.1932L56.5514 27.9532L50.7794 33.7132L49.3949 32.3316L52.8074 28.9262H45.0074ZM60.6074 27.9532C60.6074 30.5337 59.5802 33.0085 57.7517 34.8331C55.9232 36.6578 53.4433 37.6829 50.8574 37.6829C49.577 37.6829 48.3092 37.4312 47.1263 36.9423C45.9433 36.4533 44.8685 35.7366 43.9631 34.8331C42.1347 33.0085 41.1074 30.5337 41.1074 27.9532C41.1074 25.3727 42.1347 22.8979 43.9631 21.0732C45.7916 19.2485 48.2716 18.2234 50.8574 18.2234C52.1378 18.2234 53.4057 18.4751 54.5886 18.9641C55.7715 19.453 56.8463 20.1697 57.7517 21.0732C58.6571 21.9767 59.3753 23.0493 59.8652 24.2298C60.3552 25.4102 60.6074 26.6755 60.6074 27.9532ZM58.6574 27.9532C58.6574 25.8888 57.8356 23.909 56.3729 22.4492C54.9101 20.9895 52.9261 20.1694 50.8574 20.1694C48.7887 20.1694 46.8048 20.9895 45.342 22.4492C43.8792 23.909 43.0574 25.8888 43.0574 27.9532C43.0574 30.0176 43.8792 31.9974 45.342 33.4571C46.8048 34.9169 48.7887 35.737 50.8574 35.737C52.9261 35.737 54.9101 34.9169 56.3729 33.4571C57.8356 31.9974 58.6574 30.0176 58.6574 27.9532Z" fill="#DBDBE4"/>
<path d="M44.8621 45.4518L34.5082 38.7835L33.0536 41.9357L44.8621 45.4518Z" fill="#DBDBE4"/>
<path d="M35.2582 39.5926C35.2582 41.1116 34.0243 42.343 32.5022 42.343C30.98 42.343 29.7461 41.1116 29.7461 39.5926C29.7461 38.0737 30.98 36.8423 32.5022 36.8423C34.0243 36.8423 35.2582 38.0737 35.2582 39.5926Z" fill="#DBDBE4"/>
<path d="M42.6574 53.4887C42.6574 53.7814 42.5894 54.0279 42.4536 54.228C42.3177 54.4282 42.1322 54.58 41.8971 54.6833C41.6641 54.7844 41.401 54.835 41.1077 54.835C40.8143 54.835 40.5501 54.7844 40.315 54.6833C40.0799 54.58 39.8944 54.4282 39.7585 54.228C39.6226 54.0279 39.5547 53.7814 39.5547 53.4887C39.5547 53.295 39.5924 53.1196 39.6679 52.9624C39.7434 52.8031 39.8502 52.6665 39.9882 52.5524C40.1284 52.4362 40.2923 52.3468 40.48 52.2844C40.6698 52.222 40.8769 52.1908 41.1012 52.1908C41.3988 52.1908 41.6652 52.2457 41.9003 52.3554C42.1354 52.4652 42.3198 52.617 42.4536 52.8107C42.5894 53.0044 42.6574 53.2304 42.6574 53.4887ZM41.8744 53.4499C41.8744 53.2928 41.8421 53.1551 41.7774 53.0367C41.7127 52.9183 41.6221 52.8268 41.5056 52.7623C41.3891 52.6977 41.2543 52.6654 41.1012 52.6654C40.9459 52.6654 40.8111 52.6977 40.6968 52.7623C40.5825 52.8268 40.4929 52.9183 40.4282 53.0367C40.3657 53.1551 40.3344 53.2928 40.3344 53.4499C40.3344 53.6092 40.3657 53.747 40.4282 53.8632C40.4908 53.9773 40.5803 54.0645 40.6968 54.1247C40.8132 54.185 40.9502 54.2151 41.1077 54.2151C41.2651 54.2151 41.401 54.185 41.5153 54.1247C41.6296 54.0645 41.7181 53.9773 41.7806 53.8632C41.8432 53.747 41.8744 53.6092 41.8744 53.4499ZM42.5506 51.3061C42.5506 51.5408 42.4881 51.7495 42.363 51.9325C42.24 52.1155 42.0696 52.2597 41.8518 52.3651C41.6339 52.4684 41.3859 52.5201 41.1077 52.5201C40.8273 52.5201 40.5771 52.4684 40.3571 52.3651C40.1392 52.2597 39.9677 52.1155 39.8426 51.9325C39.7197 51.7495 39.6582 51.5408 39.6582 51.3061C39.6582 51.0263 39.7197 50.7906 39.8426 50.5991C39.9677 50.4054 40.1392 50.2579 40.3571 50.1568C40.5749 50.0556 40.824 50.005 41.1044 50.005C41.3848 50.005 41.6339 50.0556 41.8518 50.1568C42.0696 50.2579 42.24 50.4054 42.363 50.5991C42.4881 50.7906 42.5506 51.0263 42.5506 51.3061ZM41.7709 51.332C41.7709 51.1921 41.7429 51.0694 41.6868 50.9639C41.6329 50.8563 41.5563 50.7723 41.4571 50.7121C41.3579 50.6518 41.2403 50.6217 41.1044 50.6217C40.9685 50.6217 40.851 50.6507 40.7518 50.7088C40.6526 50.767 40.576 50.8488 40.5221 50.9542C40.4681 51.0597 40.4412 51.1856 40.4412 51.332C40.4412 51.4762 40.4681 51.6021 40.5221 51.7097C40.576 51.8152 40.6526 51.8981 40.7518 51.9583C40.8531 52.0186 40.9718 52.0487 41.1077 52.0487C41.2435 52.0487 41.3611 52.0186 41.4603 51.9583C41.5595 51.8981 41.6361 51.8152 41.69 51.7097C41.7439 51.6021 41.7709 51.4762 41.7709 51.332Z" fill="white"/>
<path d="M34.8332 53.4887C34.8332 53.7814 34.7652 54.0279 34.6293 54.228C34.4935 54.4282 34.308 54.58 34.0729 54.6833C33.8399 54.7844 33.5768 54.835 33.2834 54.835C32.9901 54.835 32.7259 54.7844 32.4908 54.6833C32.2557 54.58 32.0702 54.4282 31.9343 54.228C31.7984 54.0279 31.7305 53.7814 31.7305 53.4887C31.7305 53.295 31.7682 53.1196 31.8437 52.9624C31.9192 52.8031 32.026 52.6665 32.164 52.5524C32.3042 52.4362 32.4681 52.3468 32.6558 52.2844C32.8456 52.222 33.0526 52.1908 33.277 52.1908C33.5746 52.1908 33.841 52.2457 34.0761 52.3554C34.3112 52.4652 34.4956 52.617 34.6293 52.8107C34.7652 53.0044 34.8332 53.2304 34.8332 53.4887ZM34.0502 53.4499C34.0502 53.2928 34.0179 53.1551 33.9532 53.0367C33.8884 52.9183 33.7979 52.8268 33.6814 52.7623C33.5649 52.6977 33.4301 52.6654 33.277 52.6654C33.1217 52.6654 32.9869 52.6977 32.8725 52.7623C32.7582 52.8268 32.6687 52.9183 32.604 53.0367C32.5415 53.1551 32.5102 53.2928 32.5102 53.4499C32.5102 53.6092 32.5415 53.747 32.604 53.8632C32.6666 53.9773 32.7561 54.0645 32.8725 54.1247C32.989 54.185 33.126 54.2151 33.2834 54.2151C33.4409 54.2151 33.5768 54.185 33.6911 54.1247C33.8054 54.0645 33.8938 53.9773 33.9564 53.8632C34.0189 53.747 34.0502 53.6092 34.0502 53.4499ZM34.7264 51.3061C34.7264 51.5408 34.6639 51.7495 34.5388 51.9325C34.4158 52.1155 34.2454 52.2597 34.0276 52.3651C33.8097 52.4684 33.5617 52.5201 33.2834 52.5201C33.003 52.5201 32.7528 52.4684 32.5328 52.3651C32.315 52.2597 32.1435 52.1155 32.0184 51.9325C31.8955 51.7495 31.834 51.5408 31.834 51.3061C31.834 51.0263 31.8955 50.7906 32.0184 50.5991C32.1435 50.4054 32.315 50.2579 32.5328 50.1568C32.7507 50.0556 32.9998 50.005 33.2802 50.005C33.5606 50.005 33.8097 50.0556 34.0276 50.1568C34.2454 50.2579 34.4158 50.4054 34.5388 50.5991C34.6639 50.7906 34.7264 51.0263 34.7264 51.3061ZM33.9467 51.332C33.9467 51.1921 33.9186 51.0694 33.8626 50.9639C33.8086 50.8563 33.7321 50.7723 33.6329 50.7121C33.5336 50.6518 33.4161 50.6217 33.2802 50.6217C33.1443 50.6217 33.0268 50.6507 32.9275 50.7088C32.8283 50.767 32.7518 50.8488 32.6978 50.9542C32.6439 51.0597 32.617 51.1856 32.617 51.332C32.617 51.4762 32.6439 51.6021 32.6978 51.7097C32.7518 51.8152 32.8283 51.8981 32.9275 51.9583C33.0289 52.0186 33.1476 52.0487 33.2834 52.0487C33.4193 52.0487 33.5369 52.0186 33.6361 51.9583C33.7353 51.8981 33.8119 51.8152 33.8658 51.7097C33.9197 51.6021 33.9467 51.4762 33.9467 51.332Z" fill="white"/>
<path d="M38.632 53.4887C38.632 53.7814 38.5641 54.0279 38.4282 54.228C38.2923 54.4282 38.1068 54.58 37.8717 54.6833C37.6387 54.7844 37.3756 54.835 37.0823 54.835C36.7889 54.835 36.5247 54.7844 36.2896 54.6833C36.0545 54.58 35.869 54.4282 35.7331 54.228C35.5972 54.0279 35.5293 53.7814 35.5293 53.4887C35.5293 53.295 35.567 53.1196 35.6425 52.9624C35.718 52.8031 35.8248 52.6665 35.9628 52.5524C36.103 52.4362 36.267 52.3468 36.4546 52.2844C36.6444 52.222 36.8515 52.1908 37.0758 52.1908C37.3734 52.1908 37.6398 52.2457 37.8749 52.3554C38.11 52.4652 38.2944 52.617 38.4282 52.8107C38.5641 53.0044 38.632 53.2304 38.632 53.4887ZM37.849 53.4499C37.849 53.2928 37.8167 53.1551 37.752 53.0367C37.6873 52.9183 37.5967 52.8268 37.4802 52.7623C37.3637 52.6977 37.2289 52.6654 37.0758 52.6654C36.9205 52.6654 36.7857 52.6977 36.6714 52.7623C36.5571 52.8268 36.4675 52.9183 36.4028 53.0367C36.3403 53.1551 36.309 53.2928 36.309 53.4499C36.309 53.6092 36.3403 53.747 36.4028 53.8632C36.4654 53.9773 36.5549 54.0645 36.6714 54.1247C36.7878 54.185 36.9248 54.2151 37.0823 54.2151C37.2397 54.2151 37.3756 54.185 37.4899 54.1247C37.6042 54.0645 37.6927 53.9773 37.7552 53.8632C37.8178 53.747 37.849 53.6092 37.849 53.4499ZM38.5252 51.3061C38.5252 51.5408 38.4627 51.7495 38.3376 51.9325C38.2146 52.1155 38.0442 52.2597 37.8264 52.3651C37.6086 52.4684 37.3605 52.5201 37.0823 52.5201C36.8019 52.5201 36.5517 52.4684 36.3317 52.3651C36.1138 52.2597 35.9423 52.1155 35.8172 51.9325C35.6943 51.7495 35.6328 51.5408 35.6328 51.3061C35.6328 51.0263 35.6943 50.7906 35.8172 50.5991C35.9423 50.4054 36.1138 50.2579 36.3317 50.1568C36.5495 50.0556 36.7986 50.005 37.079 50.005C37.3594 50.005 37.6086 50.0556 37.8264 50.1568C38.0442 50.2579 38.2146 50.4054 38.3376 50.5991C38.4627 50.7906 38.5252 51.0263 38.5252 51.3061ZM37.7455 51.332C37.7455 51.1921 37.7175 51.0694 37.6614 50.9639C37.6075 50.8563 37.5309 50.7723 37.4317 50.7121C37.3325 50.6518 37.2149 50.6217 37.079 50.6217C36.9431 50.6217 36.8256 50.6507 36.7264 50.7088C36.6272 50.767 36.5506 50.8488 36.4967 50.9542C36.4427 51.0597 36.4158 51.1856 36.4158 51.332C36.4158 51.4762 36.4427 51.6021 36.4967 51.7097C36.5506 51.8152 36.6272 51.8981 36.7264 51.9583C36.8278 52.0186 36.9464 52.0487 37.0823 52.0487C37.2182 52.0487 37.3357 52.0186 37.4349 51.9583C37.5341 51.8981 37.6107 51.8152 37.6646 51.7097C37.7186 51.6021 37.7455 51.4762 37.7455 51.332Z" fill="white"/>
</svg>
