<svg width="28" height="28" viewBox="0 0 28 28" fill="none" xmlns="http://www.w3.org/2000/svg">
<path d="M14 24C19.5228 24 24 19.5228 24 14C24 8.47715 19.5228 4 14 4C8.47715 4 4 8.47715 4 14C4 19.5228 8.47715 24 14 24Z" fill="white"/>
<path d="M14 24.5C19.799 24.5 24.5 19.799 24.5 14C24.5 8.20101 19.799 3.5 14 3.5C8.20101 3.5 3.5 8.20101 3.5 14C3.5 19.799 8.20101 24.5 14 24.5Z" stroke="black" stroke-opacity="0.3"/>
<path d="M17.2334 18.3691H11.1777V17.5249L14.377 13.9702C14.8509 13.4328 15.1768 12.9969 15.3545 12.6626C15.5365 12.3241 15.6274 11.9749 15.6274 11.6152C15.6274 11.1328 15.4814 10.7371 15.1895 10.4282C14.8975 10.1193 14.5081 9.96484 14.0215 9.96484C13.4375 9.96484 12.9826 10.132 12.6567 10.4663C12.3351 10.7964 12.1743 11.2576 12.1743 11.8501H11C11 10.9995 11.2729 10.3118 11.8188 9.78711C12.369 9.26237 13.1032 9 14.0215 9C14.8805 9 15.5597 9.2264 16.0591 9.6792C16.5584 10.1278 16.8081 10.7266 16.8081 11.4756C16.8081 12.3854 16.2284 13.4688 15.0688 14.7256L12.5933 17.4106H17.2334V18.3691Z" fill="black"/>
</svg>
