<svg width="500" height="4" viewBox="0 0 500 4" fill="none" xmlns="http://www.w3.org/2000/svg">
<g clip-path="url(#clip0_24_8)">
<rect width="500" height="4" fill="white"/>
<path d="M0 2C0 0.895431 0.895431 0 2 0H125V4H2C0.895427 4 0 3.10457 0 2V2Z" fill="url(#paint0_linear_24_8)"/>
<path d="M500 2C500 0.895431 499.105 0 498 0H375V4H498C499.105 4 500 3.10457 500 2V2Z" fill="url(#paint1_linear_24_8)"/>
<path d="M125 0H250V4H125V0Z" fill="#DDDDF8"/>
<rect width="125" height="4" rx="2" fill="url(#paint2_linear_24_8)"/>
<path d="M250 0H375V4H250V0Z" fill="#DDDDF8"/>
<rect x="118" width="257" height="4" rx="2" fill="#F3DB13"/>
<rect x="371" width="129" height="4" rx="2" fill="url(#paint3_linear_24_8)"/>
</g>
<defs>
<linearGradient id="paint0_linear_24_8" x1="125" y1="2" x2="-5.24488e-08" y2="1.99999" gradientUnits="userSpaceOnUse">
<stop stop-color="#DDDDF8"/>
<stop offset="1" stop-color="white"/>
</linearGradient>
<linearGradient id="paint1_linear_24_8" x1="375" y1="2" x2="500" y2="1.99999" gradientUnits="userSpaceOnUse">
<stop stop-color="#DDDDF8"/>
<stop offset="1" stop-color="white"/>
</linearGradient>
<linearGradient id="paint2_linear_24_8" x1="125" y1="2" x2="-7.46549e-06" y2="2" gradientUnits="userSpaceOnUse">
<stop stop-color="#F3DB13"/>
<stop offset="1" stop-color="white"/>
</linearGradient>
<linearGradient id="paint3_linear_24_8" x1="371" y1="2" x2="500" y2="2" gradientUnits="userSpaceOnUse">
<stop stop-color="#F3DB13"/>
<stop offset="1" stop-color="white"/>
</linearGradient>
<clipPath id="clip0_24_8">
<rect width="500" height="4" fill="white"/>
</clipPath>
</defs>
</svg>
