<svg width="74" height="66" viewBox="0 0 74 66" xmlns="http://www.w3.org/2000/svg">
<g clip-path="url(#clip0_14_226)">
<path d="m11,41.592805c0,-1.5446 0.415,-2.7528 1.245,-3.6245c0.829,-0.876 1.9,-1.314 3.211,-1.314c0.86,0 1.634,0.2052 2.324,0.6157c0.689,0.4105 1.214,0.9839 1.574,1.7202c0.364,0.7321 0.546,1.5637 0.546,2.4947c0,0.9436 -0.191,1.7879 -0.571,2.5327c-0.381,0.7448 -0.921,1.3097 -1.619,1.6948c-0.698,0.3809 -1.452,0.5713 -2.26,0.5713c-0.876,0 -1.659,-0.2116 -2.349,-0.6348c-0.689,-0.4232 -1.212,-1.0008 -1.567,-1.7329c-0.356,-0.7321 -0.534,-1.5065 -0.534,-2.3232zm1.27,0.019c0,1.1214 0.3,2.0059 0.901,2.6533c0.605,0.6433 1.363,0.9649 2.273,0.9649c0.927,0 1.688,-0.3259 2.285,-0.9776c0.601,-0.6517 0.901,-1.5763 0.901,-2.7739c0,-0.7575 -0.129,-1.4176 -0.387,-1.9805c-0.254,-0.567 -0.628,-1.005 -1.123,-1.3139c-0.491,-0.3132 -1.044,-0.4697 -1.657,-0.4697c-0.872,0 -1.623,0.3004 -2.254,0.9013c-0.626,0.5967 -0.939,1.5954 -0.939,2.9961z" fill="#766712" id="svg_3"/>
<path d="m25.422,39.383805l0,2.9136c0.364,0 0.62,-0.0699 0.768,-0.2095c0.148,-0.1397 0.364,-0.5459 0.648,-1.2188c0.266,-0.639 0.506,-1.0473 0.717,-1.2251c0.207,-0.1735 0.538,-0.2602 0.99,-0.2602l0.419,0l0,0.9458l-0.311,-0.0064c-0.304,0 -0.499,0.0445 -0.584,0.1333c-0.089,0.0931 -0.224,0.3703 -0.406,0.8316c-0.169,0.4401 -0.326,0.7448 -0.47,0.914c-0.144,0.1693 -0.368,0.3238 -0.673,0.4634c0.496,0.1312 0.978,0.5882 1.448,1.3711l1.257,2.0884l-1.257,0l-1.225,-2.0884c-0.25,-0.4232 -0.468,-0.7003 -0.654,-0.8315c-0.186,-0.1312 -0.409,-0.1968 -0.667,-0.1968l0,3.1167l-1.168,0l0,-3.1167c-0.254,0 -0.474,0.0656 -0.66,0.1968c-0.186,0.1269 -0.404,0.4041 -0.654,0.8315l-1.225,2.0884l-1.257,0l1.251,-2.0884c0.474,-0.7829 0.958,-1.2399 1.454,-1.3711c-0.339,-0.1565 -0.576,-0.3258 -0.711,-0.5078c-0.136,-0.1862 -0.339,-0.6263 -0.61,-1.3203c-0.093,-0.2327 -0.192,-0.3766 -0.298,-0.4316c-0.11,-0.0551 -0.273,-0.0826 -0.489,-0.0826c-0.055,0 -0.167,0.0022 -0.336,0.0064l0,-0.9458l0.158,0c0.44,0 0.749,0.0275 0.927,0.0825c0.182,0.0508 0.343,0.1629 0.483,0.3364c0.143,0.1693 0.33,0.5248 0.558,1.0664c0.279,0.6644 0.491,1.0686 0.635,1.2124c0.148,0.1439 0.406,0.2159 0.774,0.2159l0,-2.9136l1.168,0z" fill="#766712" id="svg_4"/>
<path d="m30.043,39.383805l1.143,0l0,5.1416l3.167,-5.1416l1.232,0l0,6.7412l-1.143,0l0,-5.1099l-3.167,5.1099l-1.232,0l0,-6.7412z" fill="#766712" id="svg_5"/>
<path d="m38.206,39.383805l4.698,0l0,5.8017l0.73,0l0,2.8501l-0.94,0l0,-1.9106l-5.306,0l0,1.9106l-0.94,0l0,-2.8501l0.603,0c0.804,-1.0917 1.189,-3.0257 1.155,-5.8017zm0.953,0.9458c-0.085,2.1878 -0.424,3.8065 -1.016,4.8559l3.625,0l0,-4.8559l-2.609,0z" fill="#766712" id="svg_6"/>
<path d="m49.296,45.293505c-0.423,0.3597 -0.832,0.6136 -1.225,0.7617c-0.39,0.1481 -0.809,0.2221 -1.257,0.2221c-0.741,0 -1.31,-0.1798 -1.708,-0.5395c-0.397,-0.3639 -0.596,-0.8273 -0.596,-1.3901c0,-0.3301 0.074,-0.6306 0.222,-0.9014c0.152,-0.2751 0.349,-0.4951 0.59,-0.6602c0.246,-0.165 0.521,-0.2898 0.825,-0.3745c0.225,-0.0592 0.563,-0.1164 1.016,-0.1714c0.923,-0.11 1.602,-0.2412 2.038,-0.3935c0.004,-0.1566 0.006,-0.256 0.006,-0.2984c0,-0.4655 -0.108,-0.7934 -0.324,-0.9838c-0.292,-0.2582 -0.726,-0.3873 -1.301,-0.3873c-0.537,0 -0.935,0.0953 -1.193,0.2857c-0.254,0.1862 -0.443,0.5184 -0.565,0.9966l-1.118,-0.1524c0.102,-0.4782 0.269,-0.8633 0.502,-1.1552c0.233,-0.2963 0.569,-0.5227 1.009,-0.6792c0.44,-0.1609 0.95,-0.2413 1.53,-0.2413c0.576,0 1.043,0.0678 1.403,0.2032c0.36,0.1354 0.624,0.3068 0.793,0.5141c0.17,0.2032 0.288,0.4613 0.356,0.7744c0.038,0.1947 0.057,0.5459 0.057,1.0538l0,1.5234c0,1.0622 0.023,1.735 0.07,2.0185c0.05,0.2793 0.148,0.5481 0.292,0.8062l-1.194,0c-0.118,-0.237 -0.194,-0.5142 -0.228,-0.8315zm-0.095,-2.5518c-0.415,0.1693 -1.037,0.3132 -1.867,0.4316c-0.469,0.0677 -0.802,0.1439 -0.996,0.2286c-0.195,0.0846 -0.345,0.2094 -0.451,0.3745c-0.106,0.1608 -0.159,0.3406 -0.159,0.5395c0,0.3047 0.115,0.5586 0.343,0.7617c0.233,0.2032 0.572,0.3047 1.016,0.3047c0.44,0 0.831,-0.0952 1.174,-0.2856c0.343,-0.1947 0.595,-0.4592 0.756,-0.7935c0.122,-0.2581 0.184,-0.639 0.184,-1.1426l0,-0.4189z" fill="#766712" id="svg_7"/>
<path d="m56.748,43.954105l1.181,0.146c-0.187,0.6898 -0.531,1.2251 -1.035,1.606c-0.504,0.3808 -1.147,0.5712 -1.93,0.5712c-0.986,0 -1.769,-0.3025 -2.348,-0.9077c-0.576,-0.6093 -0.864,-1.462 -0.864,-2.5581c0,-1.1341 0.292,-2.0143 0.876,-2.6406c0.584,-0.6263 1.342,-0.9395 2.273,-0.9395c0.901,0 1.638,0.3068 2.209,0.9205c0.571,0.6136 0.857,1.4768 0.857,2.5898c0,0.0677 -0.002,0.1693 -0.007,0.3047l-5.027,0c0.042,0.7405 0.252,1.3076 0.628,1.7012c0.377,0.3935 0.847,0.5903 1.41,0.5903c0.419,0 0.776,-0.11 1.072,-0.3301c0.297,-0.22 0.531,-0.5713 0.705,-1.0537zm-3.751,-1.8472l3.764,0c-0.051,-0.567 -0.195,-0.9923 -0.432,-1.2758c-0.364,-0.4401 -0.836,-0.6602 -1.415,-0.6602c-0.525,0 -0.967,0.1756 -1.327,0.5269c-0.356,0.3512 -0.552,0.8209 -0.59,1.4091z" fill="#766712" id="svg_8"/>
<path d="m58.322,39.383805l5.478,0l0,0.9458l-2.171,0l0,5.7954l-1.136,0l0,-5.7954l-2.171,0l0,-0.9458z" fill="#766712" id="svg_9"/>
<path d="m0,61.602105l0,-9.3247l1.041,0l0,0.876c0.246,-0.3428 0.523,-0.5988 0.832,-0.7681c0.309,-0.1735 0.683,-0.2603 1.123,-0.2603c0.576,0 1.084,0.1482 1.524,0.4444c0.44,0.2962 0.772,0.7152 0.996,1.2568c0.225,0.5375 0.337,1.1278 0.337,1.771c0,0.6898 -0.125,1.3119 -0.375,1.8662c-0.245,0.5502 -0.605,0.9733 -1.079,1.2696c-0.47,0.2919 -0.965,0.4379 -1.485,0.4379c-0.381,0 -0.724,-0.0804 -1.029,-0.2412c-0.3,-0.1608 -0.548,-0.3639 -0.742,-0.6093l0,3.2817l-1.143,0zm1.035,-5.916c0,0.8675 0.175,1.5086 0.527,1.9233c0.351,0.4147 0.776,0.6221 1.276,0.6221c0.507,0 0.941,-0.2137 1.301,-0.6411c0.364,-0.4317 0.546,-1.0982 0.546,-1.9995c0,-0.8591 -0.178,-1.5023 -0.533,-1.9297c-0.352,-0.4274 -0.773,-0.6411 -1.264,-0.6411c-0.486,0 -0.918,0.2285 -1.295,0.6855c-0.372,0.4528 -0.558,1.113 -0.558,1.9805z" fill="#766712" id="svg_10"/>
<path d="m11.851,56.847705l1.181,0.146c-0.186,0.6898 -0.531,1.2251 -1.035,1.606c-0.503,0.3808 -1.147,0.5712 -1.929,0.5712c-0.986,0 -1.769,-0.3025 -2.349,-0.9077c-0.576,-0.6093 -0.863,-1.462 -0.863,-2.5581c0,-1.1341 0.292,-2.0143 0.876,-2.6406c0.584,-0.6263 1.341,-0.9395 2.272,-0.9395c0.901,0 1.638,0.3068 2.209,0.9205c0.571,0.6136 0.857,1.4768 0.857,2.5898c0,0.0677 -0.002,0.1693 -0.006,0.3047l-5.028,0c0.043,0.7405 0.252,1.3076 0.629,1.7012c0.376,0.3935 0.846,0.5903 1.409,0.5903c0.419,0 0.776,-0.11 1.073,-0.3301c0.296,-0.22 0.531,-0.5713 0.704,-1.0537zm-3.751,-1.8472l3.764,0c-0.051,-0.567 -0.195,-0.9923 -0.432,-1.2758c-0.364,-0.4401 -0.835,-0.6602 -1.415,-0.6602c-0.525,0 -0.967,0.1756 -1.327,0.5269c-0.355,0.3512 -0.552,0.8209 -0.59,1.4091z" fill="#766712" id="svg_11"/>
<path d="m14.479,52.277405l3.879,0l0,0.9458l-2.736,0l0,5.7954l-1.143,0l0,-6.7412z" fill="#766712" id="svg_12"/>
<path d="m19.221,52.277405l1.142,0l0,5.1416l3.168,-5.1416l1.231,0l0,6.7412l-1.142,0l0,-5.1099l-3.168,5.1099l-1.231,0l0,-6.7412z" fill="#766712" id="svg_13"/>
<path d="m30.882,56.549405l1.123,0.146c-0.123,0.7744 -0.438,1.3816 -0.946,1.8217c-0.503,0.4359 -1.123,0.6538 -1.86,0.6538c-0.922,0 -1.665,-0.3004 -2.228,-0.9013c-0.558,-0.6052 -0.838,-1.4706 -0.838,-2.5962c0,-0.7279 0.121,-1.3648 0.362,-1.9107c0.242,-0.5459 0.608,-0.9542 1.098,-1.2251c0.496,-0.275 1.033,-0.4126 1.613,-0.4126c0.732,0 1.331,0.1862 1.796,0.5586c0.466,0.3682 0.764,0.8929 0.895,1.5743l-1.111,0.1713c-0.105,-0.4528 -0.294,-0.7934 -0.565,-1.0219c-0.266,-0.2285 -0.59,-0.3428 -0.971,-0.3428c-0.575,0 -1.043,0.2074 -1.403,0.6221c-0.359,0.4105 -0.539,1.0621 -0.539,1.955c0,0.9056 0.173,1.5637 0.52,1.9742c0.347,0.4104 0.8,0.6157 1.359,0.6157c0.448,0 0.823,-0.1375 1.123,-0.4126c0.301,-0.2751 0.491,-0.6982 0.572,-1.2695z" fill="#766712" id="svg_14"/>
<path d="m32.367,52.277405l5.478,0l0,0.9458l-2.171,0l0,5.7954l-1.136,0l0,-5.7954l-2.171,0l0,-0.9458z" fill="#766712" id="svg_15"/>
<path d="m38.937,61.602105l0,-9.3247l1.041,0l0,0.876c0.245,-0.3428 0.522,-0.5988 0.831,-0.7681c0.309,-0.1735 0.684,-0.2603 1.124,-0.2603c0.575,0 1.083,0.1482 1.523,0.4444c0.44,0.2962 0.773,0.7152 0.997,1.2568c0.224,0.5375 0.336,1.1278 0.336,1.771c0,0.6898 -0.125,1.3119 -0.374,1.8662c-0.246,0.5502 -0.605,0.9733 -1.079,1.2696c-0.47,0.2919 -0.965,0.4379 -1.486,0.4379c-0.381,0 -0.723,-0.0804 -1.028,-0.2412c-0.3,-0.1608 -0.548,-0.3639 -0.743,-0.6093l0,3.2817l-1.142,0zm1.034,-5.916c0,0.8675 0.176,1.5086 0.527,1.9233c0.351,0.4147 0.777,0.6221 1.276,0.6221c0.508,0 0.942,-0.2137 1.301,-0.6411c0.364,-0.4317 0.546,-1.0982 0.546,-1.9995c0,-0.8591 -0.177,-1.5023 -0.533,-1.9297c-0.351,-0.4274 -0.772,-0.6411 -1.263,-0.6411c-0.487,0 -0.918,0.2285 -1.295,0.6855c-0.372,0.4528 -0.559,1.113 -0.559,1.9805z" fill="#766712" id="svg_16"/>
<path d="m50.572,58.187105c-0.423,0.3597 -0.832,0.6136 -1.225,0.7617c-0.389,0.1481 -0.808,0.2221 -1.257,0.2221c-0.741,0 -1.31,-0.1798 -1.707,-0.5395c-0.398,-0.3639 -0.597,-0.8273 -0.597,-1.3901c0,-0.3301 0.074,-0.6306 0.222,-0.9014c0.152,-0.2751 0.349,-0.4951 0.59,-0.6602c0.246,-0.165 0.521,-0.2898 0.826,-0.3745c0.224,-0.0592 0.562,-0.1164 1.015,-0.1714c0.923,-0.11 1.602,-0.2412 2.038,-0.3935c0.004,-0.1566 0.006,-0.256 0.006,-0.2984c0,-0.4655 -0.108,-0.7934 -0.324,-0.9838c-0.292,-0.2582 -0.725,-0.3873 -1.301,-0.3873c-0.537,0 -0.935,0.0953 -1.193,0.2857c-0.254,0.1862 -0.442,0.5184 -0.565,0.9966l-1.117,-0.1524c0.101,-0.4782 0.268,-0.8633 0.501,-1.1552c0.233,-0.2963 0.569,-0.5227 1.009,-0.6792c0.44,-0.1609 0.95,-0.2413 1.53,-0.2413c0.576,0 1.043,0.0678 1.403,0.2032c0.36,0.1354 0.624,0.3068 0.793,0.5141c0.17,0.2032 0.288,0.4613 0.356,0.7744c0.038,0.1947 0.057,0.5459 0.057,1.0538l0,1.5234c0,1.0622 0.023,1.735 0.07,2.0185c0.051,0.2793 0.148,0.5481 0.292,0.8062l-1.194,0c-0.118,-0.237 -0.194,-0.5142 -0.228,-0.8315zm-0.095,-2.5518c-0.415,0.1693 -1.037,0.3132 -1.866,0.4316c-0.47,0.0677 -0.802,0.1439 -0.997,0.2286c-0.195,0.0846 -0.345,0.2094 -0.451,0.3745c-0.106,0.1608 -0.158,0.3406 -0.158,0.5395c0,0.3047 0.114,0.5586 0.342,0.7617c0.233,0.2032 0.572,0.3047 1.016,0.3047c0.44,0 0.832,-0.0952 1.174,-0.2856c0.343,-0.1947 0.595,-0.4592 0.756,-0.7935c0.122,-0.2581 0.184,-0.639 0.184,-1.1426l0,-0.4189z" fill="#766712" id="svg_17"/>
<path d="m53.428,52.277405l1.143,0l0,5.8017l3.161,0l0,-5.8017l1.143,0l0,5.8017l0.736,0l0,2.8501l-0.939,0l0,-1.9106l-5.244,0l0,-6.7412z" fill="#766712" id="svg_18"/>
<path d="m60.862,52.277405l1.142,0l0,5.1416l3.168,-5.1416l1.231,0l0,6.7412l-1.143,0l0,-5.1099l-3.167,5.1099l-1.231,0l0,-6.7412z" fill="#766712" id="svg_19"/>
<path d="m68.123,52.277405l1.143,0l0,5.1416l3.167,-5.1416l1.232,0l0,6.7412l-1.143,0l0,-5.1099l-3.167,5.1099l-1.232,0l0,-6.7412z" fill="#766712" id="svg_20"/>
<path d="m51,14.125005c0,7.732 -6.268,14 -14,14c-7.732,0 -14,-6.268 -14,-14c0,-7.73199 6.268,-14 14,-14c7.732,0 14,6.26801 14,14z" fill="#FBED9E" id="svg_43"/>
</g>
<defs>
<clipPath id="clip0_14_226">
<rect width="74" height="65" fill="white" transform="translate(0 0.5)"/>
</clipPath>
</defs>
</svg>