<svg width="25" height="25" viewBox="0 0 25 25" fill="none" xmlns="http://www.w3.org/2000/svg">
<circle cx="12.5" cy="12.5" r="12.5" fill="#E3E4EE"/>
<circle cx="12.5" cy="12.5" r="12.5" fill="#E3E4EE"/>
<path d="M11.3003 11.687H12.2144C12.5698 11.687 12.8639 11.6257 13.0967 11.5029C13.3337 11.3802 13.5093 11.2109 13.6235 10.9951C13.7378 10.7793 13.7949 10.5317 13.7949 10.2524C13.7949 9.96045 13.742 9.71077 13.6362 9.50342C13.5347 9.29183 13.3781 9.12891 13.1665 9.01465C12.9591 8.90039 12.6947 8.84326 12.373 8.84326C12.1022 8.84326 11.8568 8.89827 11.6367 9.0083C11.4209 9.1141 11.2495 9.26644 11.1226 9.46533C10.9956 9.65999 10.9321 9.89274 10.9321 10.1636H9.396C9.396 9.67269 9.52507 9.23682 9.7832 8.85596C10.0413 8.4751 10.3926 8.17676 10.8369 7.96094C11.2855 7.74089 11.7891 7.63086 12.3477 7.63086C12.9443 7.63086 13.4648 7.73031 13.9092 7.9292C14.3577 8.12386 14.7069 8.41585 14.9565 8.80518C15.2062 9.1945 15.3311 9.67692 15.3311 10.2524C15.3311 10.5148 15.2697 10.7814 15.147 11.0522C15.0243 11.3231 14.8423 11.5706 14.6011 11.7949C14.3599 12.015 14.0594 12.1948 13.6997 12.3345C13.34 12.4699 12.9232 12.5376 12.4492 12.5376H11.3003V11.687ZM11.3003 12.8804V12.0425H12.4492C12.9909 12.0425 13.4521 12.106 13.833 12.2329C14.2181 12.3599 14.5312 12.5355 14.7725 12.7598C15.0137 12.9798 15.1893 13.2316 15.2993 13.5151C15.4136 13.7987 15.4707 14.0991 15.4707 14.4165C15.4707 14.8481 15.3924 15.2332 15.2358 15.5718C15.0835 15.9061 14.8656 16.1896 14.582 16.4224C14.2985 16.6551 13.9663 16.8307 13.5854 16.9492C13.2088 17.0677 12.7983 17.127 12.354 17.127C11.9562 17.127 11.5754 17.0719 11.2114 16.9619C10.8475 16.8519 10.5216 16.689 10.2339 16.4731C9.94613 16.2531 9.71761 15.9801 9.54834 15.6543C9.3833 15.3242 9.30078 14.9434 9.30078 14.5117H10.8306C10.8306 14.7868 10.894 15.0301 11.021 15.2417C11.1522 15.4491 11.3341 15.612 11.5669 15.7305C11.8039 15.849 12.0747 15.9082 12.3794 15.9082C12.701 15.9082 12.9782 15.8511 13.2109 15.7368C13.4437 15.6226 13.6214 15.4533 13.7441 15.229C13.8711 15.0047 13.9346 14.7339 13.9346 14.4165C13.9346 14.0568 13.8647 13.7648 13.7251 13.5405C13.5854 13.3162 13.3866 13.1512 13.1284 13.0454C12.8703 12.9354 12.5656 12.8804 12.2144 12.8804H11.3003Z" fill="#616264"/>
</svg>
