<svg width="77" height="77" viewBox="0 0 77 77" fill="none" xmlns="http://www.w3.org/2000/svg">
<path d="M38.4102 68.907C55.1319 68.907 68.8133 55.2256 68.8133 38.5039C68.8133 21.7822 55.1319 8.10078 38.4102 8.10078C21.6884 8.10078 8.00703 21.7822 8.00703 38.5039C8.00703 55.2256 21.6884 68.907 38.4102 68.907ZM38.4102 0.5C59.3123 0.5 76.4141 17.6018 76.4141 38.5039C76.4141 59.4061 59.3123 76.5078 38.4102 76.5078C17.508 76.5078 0.40625 59.4061 0.40625 38.5039C0.40625 17.6018 17.508 0.5 38.4102 0.5Z" fill="#009646"/>
<path d="M24.4062 36.6255L36.0995 48.5015L54.8086 29.5" stroke="#009646" stroke-width="6"/>
</svg>
